<?xml version="1.0" standalone="no"?>
<!DOCTYPE svg PUBLIC "-//W3C//DTD SVG 20010904//EN"
 "http://www.w3.org/TR/2001/REC-SVG-20010904/DTD/svg10.dtd">
<svg version="1.0" xmlns="http://www.w3.org/2000/svg"
 width="1915.000000pt" height="905.000000pt" viewBox="0 0 1915.000000 905.000000"
 preserveAspectRatio="xMidYMid meet">

<g transform="translate(0.000000,905.000000) scale(0.100000,-0.100000)"
fill="#000000" stroke="none">
<path d="M0 8795 l0 -255 9575 0 9575 0 0 255 0 255 -9575 0 -9575 0 0 -255z
m14348 125 c18 -11 41 -34 52 -52 40 -66 16 -156 -52 -198 -29 -17 -51 -20
-163 -20 -146 0 -177 11 -215 72 -40 66 -16 156 52 198 29 17 51 20 163 20
112 0 134 -3 163 -20z m-9018 -55 c0 -8 -7 -15 -15 -15 -16 0 -20 12 -8 23 11
12 23 8 23 -8z m-538 -55 c25 -51 22 -78 -5 -51 -6 6 -20 11 -32 11 -12 0 -26
-5 -32 -11 -6 -6 -16 -10 -21 -8 -13 5 38 120 52 116 6 -1 23 -27 38 -57z
m402 50 c46 -17 29 -80 -21 -80 -14 0 -23 -6 -23 -15 0 -8 -7 -15 -15 -15 -12
0 -15 13 -15 60 0 57 1 60 24 60 14 0 36 -4 50 -10z m529 -26 l25 -35 22 35
c12 20 26 36 31 36 5 0 9 -27 9 -60 0 -47 -3 -60 -15 -60 -9 0 -15 9 -15 23
-1 22 -1 22 -16 2 -15 -20 -15 -20 -35 4 l-19 23 0 -26 c0 -16 -5 -26 -15 -26
-11 0 -15 13 -15 53 0 47 5 67 16 67 2 0 14 -16 27 -36z m-745 9 c12 -12 13
-18 4 -21 -18 -6 -15 -52 3 -52 19 0 20 -16 1 -23 -22 -9 -43 15 -48 53 -9 59
7 76 40 43z m992 7 c0 -5 7 -10 15 -10 8 0 15 -4 15 -10 0 -5 -7 -10 -15 -10
-8 0 -15 -9 -15 -20 0 -11 7 -23 15 -26 23 -9 18 -26 -7 -22 -17 2 -24 11 -26
33 -2 16 -9 33 -14 36 -7 5 -6 12 3 23 16 18 29 20 29 6z m-1110 -46 c0 -45
24 -42 28 4 2 20 9 32 18 32 10 0 14 -13 14 -46 l0 -45 -42 3 c-43 3 -43 3
-46 46 -2 33 0 42 12 42 12 0 16 -10 16 -36z m228 24 c7 -7 12 -21 12 -33 0
-49 -71 -65 -92 -20 -9 21 -8 28 7 45 20 22 55 26 73 8z m202 -2 c0 -8 -7 -16
-15 -20 -8 -3 -15 -17 -15 -31 0 -16 -6 -25 -15 -25 -11 0 -15 12 -15 45 0 43
1 45 30 45 19 0 30 -5 30 -14z m40 -31 c0 -33 -4 -45 -15 -45 -11 0 -15 12
-15 45 0 33 4 45 15 45 11 0 15 -12 15 -45z m171 18 c13 -36 11 -63 -6 -63
-10 0 -15 10 -15 31 0 24 -4 30 -17 27 -11 -2 -19 -14 -21 -31 -2 -15 -7 -27
-12 -27 -5 0 -10 12 -12 27 -2 17 -10 29 -20 31 -14 3 -18 -3 -18 -27 0 -21
-5 -31 -15 -31 -11 0 -15 12 -15 45 l0 44 71 0 c65 -1 71 -3 80 -26z m105 1
c14 -20 15 -27 5 -33 -7 -5 -11 -12 -9 -17 5 -14 -52 -17 -68 -3 -18 15 -18
44 2 63 23 23 51 19 70 -10z m305 16 c21 -12 25 -50 7 -68 -7 -7 -24 -12 -38
-12 -47 0 -66 42 -34 74 18 19 38 20 65 6z m178 -4 c7 -8 11 -27 9 -42 -6 -53
-88 -50 -88 4 0 15 5 33 12 40 16 16 53 15 67 -2z m91 4 c0 -6 -7 -13 -15 -16
-9 -4 -15 -19 -15 -35 0 -19 -5 -29 -15 -29 -11 0 -15 12 -15 45 0 43 1 45 30
45 17 0 30 -5 30 -10z m80 -6 c0 -11 -6 -14 -20 -9 -11 4 -20 2 -20 -4 0 -6 9
-11 19 -11 34 0 35 -45 1 -50 -31 -5 -50 0 -50 14 0 8 9 12 23 11 13 -1 15 0
4 2 -21 5 -32 27 -23 48 8 21 66 20 66 -1z m1230 6 c0 -5 -4 -10 -10 -10 -5 0
-10 5 -10 10 0 6 5 10 10 10 6 0 10 -4 10 -10z m-938 -32 l12 -33 13 33 c7 17
17 32 22 32 5 0 2 -18 -7 -40 -9 -22 -21 -40 -27 -40 -5 0 -18 18 -27 40 -9
22 -12 40 -7 40 6 0 15 -15 21 -32z m140 -8 c-2 -22 -8 -40 -13 -40 -10 0 -12
63 -2 73 14 15 18 5 15 -33z m165 -22 c-2 -13 -4 -3 -4 22 0 25 2 35 4 23 2
-13 2 -33 0 -45z m394 31 c12 -30 13 -30 20 -10 5 12 17 21 29 21 11 0 20 5
20 10 0 6 5 10 10 10 6 0 10 -18 10 -40 l0 -40 -45 2 c-25 0 -45 5 -45 10 0
13 -38 9 -43 -4 -2 -7 -7 -10 -11 -7 -9 9 20 79 32 79 5 0 15 -14 23 -31z
m5629 17 c6 -8 10 -25 8 -38 -2 -19 -9 -23 -38 -23 -29 0 -36 4 -38 23 -4 28
14 52 38 52 10 0 23 -7 30 -14z m37 -48 c-2 -13 -4 -3 -4 22 0 25 2 35 4 23 2
-13 2 -33 0 -45z m55 53 c-11 -7 -11 -9 2 -14 9 -4 16 -18 16 -32 0 -23 -4
-26 -27 -23 -32 4 -44 28 -14 28 12 0 21 5 21 11 0 6 -7 9 -15 5 -8 -3 -15 -2
-15 2 0 12 22 32 35 32 5 0 4 -4 -3 -9z m139 -33 c13 -32 13 -32 19 -8 3 14
15 27 25 29 11 2 23 8 27 15 4 6 8 -8 8 -31 l0 -43 -40 2 c-22 1 -40 5 -40 10
0 4 -11 8 -25 8 -14 0 -25 -4 -25 -10 0 -5 -5 -10 -10 -10 -6 0 -1 18 10 40
23 45 31 45 51 -2z m619 1 c0 -38 -1 -40 -27 -37 -22 2 -28 8 -28 28 0 18 6
26 23 28 12 2 22 8 22 13 0 5 2 9 5 9 3 0 5 -18 5 -41z m-188 13 c-16 -5 -15
-39 1 -45 7 -3 5 -6 -5 -6 -13 -1 -18 7 -18 24 0 19 -5 25 -22 25 -21 -1 -22
-2 -5 -14 25 -20 21 -36 -10 -35 l-28 1 25 7 25 7 -24 6 c-31 9 -22 31 15 39
30 6 68 -1 46 -9z m-6884 -24 c3 -24 0 -28 -23 -28 -27 0 -41 20 -31 46 10 27
51 13 54 -18z m97 21 c4 -6 0 -9 -11 -7 -11 2 -20 -4 -22 -15 -3 -15 0 -18 17
-12 12 4 21 2 21 -4 0 -17 -50 -13 -56 4 -14 34 33 65 51 34z m43 -37 c7 -2
12 6 12 22 0 14 5 26 10 26 6 0 10 -13 10 -30 0 -27 -3 -30 -30 -30 -27 0 -30
3 -29 33 1 29 2 29 8 8 4 -14 12 -26 19 -29z m128 37 c4 -8 9 -8 17 0 14 14
47 14 47 1 0 -5 -8 -7 -17 -3 -12 3 -10 0 5 -11 27 -21 20 -36 -16 -35 l-27 1
25 7 25 7 -23 6 c-15 4 -25 2 -29 -8 -7 -19 -52 -18 -59 1 -14 35 33 65 52 34z
m528 -5 c9 -23 7 -44 -3 -44 -5 0 -11 10 -13 23 -4 27 -22 26 -26 -3 -5 -29
-22 -25 -22 6 0 14 -4 23 -10 19 -5 -3 -10 -15 -10 -26 0 -10 -4 -19 -10 -19
-5 0 -10 14 -10 30 0 29 1 30 49 30 35 0 51 -4 55 -16z m36 -14 c0 -16 -4 -30
-10 -30 -5 0 -10 14 -10 30 0 17 5 30 10 30 6 0 10 -13 10 -30z m69 -2 c-1
-28 -2 -30 -7 -10 -9 30 -26 33 -30 5 -5 -34 -22 -28 -22 7 0 27 3 30 30 30
27 0 30 -3 29 -32z m5750 -1 c-1 -28 -2 -29 -7 -9 -9 30 -26 30 -31 0 l-4 -23
-6 24 c-9 34 -31 39 -31 7 0 -14 -4 -26 -10 -26 -5 0 -10 13 -10 29 0 29 1 30
50 29 50 0 50 0 49 -31z m28 -14 c-3 -10 -5 -2 -5 17 0 19 2 27 5 18 2 -10 2
-26 0 -35z m81 15 c2 -16 -1 -28 -7 -28 -6 0 -11 12 -11 26 0 32 -22 27 -31
-7 -6 -21 -7 -20 -8 9 -1 31 1 33 27 30 21 -2 28 -9 30 -30z m29 -15 c-3 -10
-5 -2 -5 17 0 19 2 27 5 18 2 -10 2 -26 0 -35z m145 35 c-5 -7 -12 -22 -15
-33 -3 -13 -5 -9 -6 13 -1 23 3 32 15 32 12 0 14 -3 6 -12z m66 -21 c3 -26 1
-28 -24 -25 -33 4 -45 28 -15 28 12 0 21 5 21 11 0 6 -7 9 -15 5 -8 -3 -15 -1
-15 5 0 6 10 9 23 7 16 -2 23 -11 25 -31z m146 18 c9 -24 -4 -45 -29 -45 -27
0 -40 26 -24 46 15 18 45 18 53 -1z m38 3 c-5 -7 -12 -22 -15 -33 -3 -13 -5
-9 -6 13 -1 23 3 32 15 32 12 0 14 -3 6 -12z m-835 -60 c-3 -8 -6 -5 -6 6 -1
11 2 17 5 13 3 -3 4 -12 1 -19z"/>
<path d="M14097 8823 c-13 -13 -7 -32 13 -38 26 -8 26 -22 0 -28 -17 -4 -17
-4 2 -3 29 1 36 32 8 39 -11 3 -20 11 -20 17 0 7 8 10 20 7 11 -3 18 -1 14 4
-6 11 -28 12 -37 2z"/>
<path d="M14182 8796 c7 -8 15 -12 17 -11 5 6 -10 25 -20 25 -5 0 -4 -6 3 -14z"/>
<path d="M14232 8780 c0 -19 2 -27 5 -17 2 9 2 25 0 35 -3 9 -5 1 -5 -18z"/>
<path d="M14261 8776 c1 -21 3 -25 6 -11 3 11 9 25 14 31 5 7 3 11 -6 11 -10
0 -15 -10 -14 -31z"/>
<path d="M14160 8768 c0 -11 8 -18 20 -18 11 0 20 5 20 11 0 5 -5 7 -11 3 -6
-3 -15 0 -20 7 -7 11 -9 10 -9 -3z"/>
<path d="M4746 8815 c-3 -9 0 -15 9 -15 9 0 12 6 9 15 -4 8 -7 15 -9 15 -2 0
-5 -7 -9 -15z"/>
<path d="M5150 8819 c0 -25 33 -22 38 4 2 12 -3 17 -17 17 -15 0 -21 -6 -21
-21z"/>
<path d="M5041 8810 c-17 -10 -7 -40 14 -40 8 0 15 9 15 19 0 24 -12 32 -29
21z"/>
<path d="M5555 8810 c-3 -5 3 -10 15 -10 12 0 18 5 15 10 -3 6 -10 10 -15 10
-5 0 -12 -4 -15 -10z"/>
<path d="M5568 8773 c7 -3 16 -2 19 1 4 3 -2 6 -13 5 -11 0 -14 -3 -6 -6z"/>
<path d="M5871 8810 c-17 -10 -7 -40 14 -40 8 0 15 9 15 19 0 24 -12 32 -29
21z"/>
<path d="M6042 8807 c-14 -17 2 -42 22 -34 20 8 20 21 2 36 -10 8 -16 8 -24
-2z"/>
<path d="M7220 8790 c0 -5 5 -10 11 -10 5 0 7 5 4 10 -3 6 -8 10 -11 10 -2 0
-4 -4 -4 -10z"/>
<path d="M7295 8790 c-4 -6 -3 -16 3 -22 6 -6 12 -6 17 2 4 6 3 16 -3 22 -6 6
-12 6 -17 -2z"/>
<path d="M12830 8805 c-17 -20 -5 -45 20 -45 11 0 23 7 26 15 6 15 -11 45 -26
45 -4 0 -13 -7 -20 -15z"/>
<path d="M13076 8795 c-3 -9 0 -15 9 -15 9 0 12 6 9 15 -4 8 -7 15 -9 15 -2 0
-5 -7 -9 -15z"/>
<path d="M13144 8789 c-10 -17 13 -36 27 -22 12 12 4 33 -11 33 -5 0 -12 -5
-16 -11z"/>
<path d="M13684 8789 c-10 -17 13 -36 27 -22 12 12 4 33 -11 33 -5 0 -12 -5
-16 -11z"/>
<path d="M6628 8763 c7 -3 16 -2 19 1 4 3 -2 6 -13 5 -11 0 -14 -3 -6 -6z"/>
<path d="M6894 8786 c-4 -9 -4 -20 0 -23 3 -4 12 -1 18 5 9 9 9 15 0 24 -9 9
-13 7 -18 -6z"/>
<path d="M13767 8793 c-13 -12 -7 -33 8 -33 8 0 15 9 15 20 0 20 -11 26 -23
13z"/>
<path d="M5037 8243 c-14 -13 -6 -33 13 -33 13 0 20 7 20 20 0 19 -20 27 -33
13z"/>
<path d="M6137 8244 c-14 -15 -6 -34 14 -34 14 0 19 5 17 17 -3 18 -20 27 -31
17z"/>
<path d="M6377 8244 c-14 -15 -6 -34 14 -34 14 0 19 5 17 17 -3 18 -20 27 -31
17z"/>
<path d="M7027 8244 c-14 -15 -6 -34 14 -34 14 0 19 5 17 17 -3 18 -20 27 -31
17z"/>
<path d="M5430 8150 c0 -73 3 -90 15 -90 12 0 15 17 15 90 0 73 -3 90 -15 90
-12 0 -15 -17 -15 -90z"/>
<path d="M5810 8211 c0 -26 -3 -28 -36 -27 -28 1 -41 -5 -57 -26 -17 -23 -18
-30 -7 -57 14 -34 28 -41 88 -39 l42 0 0 89 c0 72 -3 89 -15 89 -10 0 -15 -10
-15 -29z m-7 -73 c13 -20 -6 -48 -34 -48 -22 0 -35 36 -18 56 15 18 38 15 52
-8z"/>
<path d="M4720 8146 c0 -68 3 -86 14 -86 8 0 16 10 18 23 2 17 11 23 38 25 42
4 70 27 70 57 0 40 -23 58 -84 63 l-56 4 0 -86z m88 45 c25 -16 9 -46 -26 -49
-28 -3 -32 0 -32 21 0 13 3 27 7 30 9 10 35 8 51 -2z"/>
<path d="M13331 8212 c-53 -29 -71 -72 -71 -172 0 -102 18 -147 70 -172 32
-16 78 -18 510 -18 532 0 527 -1 562 70 25 50 25 192 0 239 -39 72 -31 71
-562 71 -441 0 -478 -1 -509 -18z m651 -124 c-5 -7 -6 -22 -3 -32 7 -17 8 -18
14 -3 4 12 18 16 52 15 41 0 45 -3 45 -25 0 -30 24 -26 28 5 5 35 22 25 22
-13 0 -33 -2 -35 -35 -35 -29 0 -36 4 -41 25 -4 18 -13 25 -30 25 -15 0 -24
-6 -24 -15 0 -9 10 -15 26 -15 14 0 23 -4 19 -10 -10 -16 -53 -11 -64 8 -10
16 -10 16 -11 0 0 -10 -7 -18 -15 -18 -8 0 -15 7 -15 15 0 10 -9 15 -27 14
-24 -2 -25 -2 -5 -6 33 -6 27 -23 -8 -23 -23 0 -33 6 -39 22 l-8 23 -7 -23
c-11 -32 -37 -24 -53 16 -11 27 -11 32 1 32 8 0 18 -10 22 -22 7 -22 7 -22 14
-2 6 16 18 21 51 22 25 1 46 -3 51 -10 5 -9 8 -6 8 8 0 24 8 34 28 34 10 0 12
-4 4 -12z m198 -20 c0 -29 1 -30 13 -14 16 21 55 18 70 -6 8 -12 7 -21 -2 -32
-18 -21 -57 -20 -70 2 -10 16 -10 16 -11 0 0 -10 -7 -18 -15 -18 -11 0 -15 12
-15 50 0 38 4 50 15 50 10 0 15 -10 15 -32z m-709 0 l18 -23 1 23 c0 33 30 28
30 -5 1 -24 2 -25 11 -10 12 20 49 23 68 5 11 -10 13 -10 7 0 -4 7 -1 12 8 12
8 0 18 -10 22 -22 l7 -23 8 23 c9 24 29 30 29 10 0 -10 2 -10 9 0 5 8 21 12
37 10 25 -3 29 -7 29 -33 0 -27 -4 -30 -33 -33 -26 -3 -34 1 -41 20 l-8 23 -7
-23 c-8 -26 -31 -29 -44 -6 -8 14 -10 14 -21 0 -18 -21 -58 -20 -70 2 -10 16
-10 16 -11 0 0 -27 -26 -22 -49 10 l-20 27 -1 -27 c0 -16 -4 -28 -10 -28 -5 0
-10 20 -10 45 0 50 12 57 41 23z"/>
<path d="M14210 8035 c0 -8 7 -15 15 -15 8 0 15 7 15 15 0 8 -7 15 -15 15 -8
0 -15 -7 -15 -15z"/>
<path d="M13550 8035 c0 -8 7 -15 15 -15 8 0 15 7 15 15 0 8 -7 15 -15 15 -8
0 -15 -7 -15 -15z"/>
<path d="M13705 8041 c-7 -12 12 -24 25 -16 11 7 4 25 -10 25 -5 0 -11 -4 -15
-9z"/>
<path d="M6580 8205 c0 -8 -4 -15 -10 -15 -5 0 -10 -7 -10 -15 0 -8 5 -15 10
-15 6 0 10 -20 10 -44 0 -45 10 -56 51 -56 25 0 25 26 -1 33 -25 6 -29 67 -5
67 8 0 15 7 15 15 0 8 -7 15 -15 15 -8 0 -15 7 -15 15 0 8 -7 15 -15 15 -8 0
-15 -7 -15 -15z"/>
<path d="M6920 8205 c0 -8 -4 -15 -10 -15 -5 0 -10 -7 -10 -15 0 -8 5 -15 10
-15 6 0 10 -17 10 -38 0 -45 14 -62 52 -62 32 0 38 19 8 27 -25 7 -30 73 -5
73 8 0 15 7 15 15 0 8 -7 15 -15 15 -8 0 -15 7 -15 15 0 8 -9 15 -20 15 -11 0
-20 -7 -20 -15z"/>
<path d="M4897 8183 c-19 -19 -5 -31 28 -26 47 7 46 -13 -1 -21 -38 -8 -53
-29 -37 -55 7 -11 26 -16 62 -17 l51 -2 0 48 c0 31 -6 54 -16 64 -15 16 -75
22 -87 9z m63 -82 c0 -6 -5 -13 -10 -16 -15 -9 -43 3 -35 15 8 13 45 13 45 1z"/>
<path d="M5030 8125 c0 -58 2 -65 20 -65 18 0 20 7 20 65 0 58 -2 65 -20 65
-18 0 -20 -7 -20 -65z"/>
<path d="M5110 8123 c0 -49 3 -63 15 -63 11 0 15 11 15 39 0 41 20 67 45 57
10 -4 15 -19 15 -51 0 -38 3 -45 20 -45 17 0 20 7 20 43 0 65 -20 86 -80 85
l-50 -1 0 -64z"/>
<path d="M5281 8164 c-12 -15 -21 -32 -21 -39 0 -7 9 -24 21 -39 20 -26 57
-34 93 -20 24 9 1 33 -24 27 -11 -3 -28 -2 -37 3 -13 6 -4 9 32 13 57 7 69 27
36 60 -30 30 -75 27 -100 -5z m74 -14 c4 -6 -7 -10 -25 -10 -18 0 -29 4 -25
10 3 6 15 10 25 10 10 0 22 -4 25 -10z"/>
<path d="M5577 8183 c-19 -19 -5 -31 28 -26 47 7 46 -13 -1 -21 -38 -8 -53
-29 -37 -55 7 -11 26 -16 62 -17 l51 -2 0 48 c0 31 -6 54 -16 64 -15 16 -75
22 -87 9z m63 -82 c0 -6 -5 -13 -10 -16 -15 -9 -43 3 -35 15 8 13 45 13 45 1z"/>
<path d="M5880 8124 c0 -57 2 -64 19 -64 17 0 20 8 23 48 3 39 6 47 23 47 17
0 20 -8 23 -47 3 -39 7 -48 22 -48 15 0 19 9 22 48 3 39 6 47 23 47 17 0 20
-8 23 -47 3 -40 6 -48 23 -48 16 0 19 7 19 49 0 68 -13 76 -127 78 l-93 1 0
-64z"/>
<path d="M6130 8125 c0 -58 2 -65 20 -65 18 0 20 7 20 65 0 58 -2 65 -20 65
-18 0 -20 -7 -20 -65z"/>
<path d="M6200 8124 c0 -57 2 -64 20 -64 17 0 20 7 20 44 0 37 4 46 21 51 27
9 39 -8 39 -57 0 -27 4 -38 15 -38 19 0 21 102 3 118 -7 5 -37 10 -65 10 l-53
0 0 -64z"/>
<path d="M6370 8125 c0 -58 2 -65 20 -65 18 0 20 7 20 65 0 58 -2 65 -20 65
-18 0 -20 -7 -20 -65z"/>
<path d="M6446 8175 c-9 -9 -16 -20 -16 -25 0 -17 32 -40 56 -40 13 0 24 -5
24 -11 0 -7 -14 -10 -35 -7 -21 2 -36 -1 -39 -8 -10 -27 73 -33 98 -8 18 18
18 17 10 38 -3 8 -21 18 -40 22 -45 8 -44 24 2 24 47 0 41 24 -8 28 -23 2 -41
-3 -52 -13z"/>
<path d="M6670 8124 c0 -57 2 -64 20 -64 17 0 20 7 20 40 0 29 5 43 20 52 31
20 24 34 -20 35 l-40 2 0 -65z"/>
<path d="M6781 8181 c-22 -14 -5 -28 29 -23 42 6 38 -14 -6 -22 -38 -8 -53
-29 -37 -55 7 -11 26 -16 62 -17 l51 -2 0 48 c0 31 -6 54 -16 64 -17 17 -61
21 -83 7z m57 -83 c-3 -7 -11 -13 -18 -13 -7 0 -15 6 -17 13 -3 7 4 12 17 12
13 0 20 -5 18 -12z"/>
<path d="M7020 8125 c0 -58 2 -65 20 -65 18 0 20 7 20 65 0 58 -2 65 -20 65
-18 0 -20 -7 -20 -65z"/>
<path d="M7080 8181 c0 -5 11 -34 25 -65 28 -64 56 -75 73 -28 6 15 17 44 26
65 15 35 15 37 -1 37 -11 0 -25 -16 -36 -43 l-19 -42 -19 43 c-10 23 -25 42
-34 42 -8 0 -15 -4 -15 -9z"/>
<path d="M7241 8164 c-12 -15 -21 -32 -21 -39 0 -7 9 -24 21 -39 41 -52 119
-25 119 42 0 60 -81 85 -119 36z m82 -26 c13 -20 -6 -48 -34 -48 -22 0 -35 36
-18 56 15 18 38 15 52 -8z"/>
<path d="M7201 7894 c0 -11 3 -14 6 -6 3 7 2 16 -1 19 -3 4 -6 -2 -5 -13z"/>
<path d="M5692 7875 c0 -16 2 -22 5 -12 2 9 2 23 0 30 -3 6 -5 -1 -5 -18z"/>
<path d="M4738 7853 c6 -2 18 -2 25 0 6 3 1 5 -13 5 -14 0 -19 -2 -12 -5z"/>
<path d="M4828 7853 c7 -3 16 -2 19 1 4 3 -2 6 -13 5 -11 0 -14 -3 -6 -6z"/>
<path d="M4958 7853 c7 -3 16 -2 19 1 4 3 -2 6 -13 5 -11 0 -14 -3 -6 -6z"/>
<path d="M5118 7853 c7 -3 16 -2 19 1 4 3 -2 6 -13 5 -11 0 -14 -3 -6 -6z"/>
<path d="M5598 7853 c7 -3 16 -2 19 1 4 3 -2 6 -13 5 -11 0 -14 -3 -6 -6z"/>
<path d="M5738 7853 c7 -3 16 -2 19 1 4 3 -2 6 -13 5 -11 0 -14 -3 -6 -6z"/>
<path d="M6348 7853 c7 -3 16 -2 19 1 4 3 -2 6 -13 5 -11 0 -14 -3 -6 -6z"/>
<path d="M6488 7853 c7 -3 16 -2 19 1 4 3 -2 6 -13 5 -11 0 -14 -3 -6 -6z"/>
<path d="M6558 7853 c7 -3 16 -2 19 1 4 3 -2 6 -13 5 -11 0 -14 -3 -6 -6z"/>
<path d="M6688 7853 c7 -3 16 -2 19 1 4 3 -2 6 -13 5 -11 0 -14 -3 -6 -6z"/>
<path d="M6758 7853 c7 -3 16 -2 19 1 4 3 -2 6 -13 5 -11 0 -14 -3 -6 -6z"/>
<path d="M6858 7853 c7 -3 16 -2 19 1 4 3 -2 6 -13 5 -11 0 -14 -3 -6 -6z"/>
<path d="M7038 7853 c7 -3 16 -2 19 1 4 3 -2 6 -13 5 -11 0 -14 -3 -6 -6z"/>
<path d="M7148 7853 c7 -3 16 -2 19 1 4 3 -2 6 -13 5 -11 0 -14 -3 -6 -6z"/>
<path d="M7418 7853 c7 -3 16 -2 19 1 4 3 -2 6 -13 5 -11 0 -14 -3 -6 -6z"/>
<path d="M7518 7853 c7 -3 16 -2 19 1 4 3 -2 6 -13 5 -11 0 -14 -3 -6 -6z"/>
<path d="M7788 7853 c7 -3 16 -2 19 1 4 3 -2 6 -13 5 -11 0 -14 -3 -6 -6z"/>
<path d="M8088 7853 c7 -3 16 -2 19 1 4 3 -2 6 -13 5 -11 0 -14 -3 -6 -6z"/>
<path d="M8158 7853 c7 -3 16 -2 19 1 4 3 -2 6 -13 5 -11 0 -14 -3 -6 -6z"/>
<path d="M8258 7853 c7 -3 16 -2 19 1 4 3 -2 6 -13 5 -11 0 -14 -3 -6 -6z"/>
<path d="M4951 7077 c-22 -30 -41 -59 -41 -65 0 -7 18 -12 45 -12 38 0 45 -3
45 -20 0 -11 7 -20 15 -20 8 0 15 9 15 20 0 11 7 20 15 20 8 0 15 5 15 10 0 6
-7 10 -15 10 -8 0 -15 9 -15 20 0 11 -7 20 -15 20 -8 0 -15 -9 -15 -20 0 -15
-7 -20 -25 -20 -14 0 -25 3 -25 6 0 4 16 28 36 55 50 69 18 65 -35 -4z"/>
<path d="M8238 7081 c-58 -75 -58 -81 -4 -81 39 0 46 -3 46 -20 0 -11 7 -20
15 -20 8 0 15 9 15 20 0 11 7 20 15 20 8 0 15 4 15 9 0 5 -7 11 -15 15 -8 3
-15 12 -15 21 0 22 -17 18 -23 -5 -3 -14 -14 -20 -32 -20 -29 0 -28 4 17 61
31 41 34 49 16 49 -7 -1 -30 -23 -50 -49z"/>
<path d="M11496 7117 c-45 -33 7 -107 61 -86 29 11 30 -4 2 -32 -14 -14 -28
-19 -45 -15 -17 5 -24 2 -24 -9 0 -22 62 -19 91 4 19 15 24 29 24 66 0 37 -5
51 -24 66 -27 22 -60 24 -85 6z m62 -16 c20 -12 10 -45 -14 -49 -11 -2 -27 4
-34 14 -12 14 -12 18 5 30 22 16 25 17 43 5z"/>
<path d="M4914 6266 c-11 -28 1 -51 26 -53 25 -3 25 -3 3 7 -13 5 -23 18 -23
29 0 12 8 21 23 24 l22 4 -23 2 c-12 0 -25 -5 -28 -13z"/>
<path d="M4996 6251 c-20 -38 -20 -47 0 -30 12 10 20 10 35 1 19 -12 20 -12 3
20 -9 18 -18 35 -20 36 -1 2 -10 -10 -18 -27z m24 -1 c0 -5 -5 -10 -11 -10 -5
0 -7 5 -4 10 3 6 8 10 11 10 2 0 4 -4 4 -10z"/>
<path d="M5070 6245 c0 -30 3 -35 25 -35 13 0 28 8 34 17 13 25 -5 53 -34 53
-22 0 -25 -4 -25 -35z m48 13 c8 -8 9 -15 1 -25 -18 -21 -39 -15 -39 12 0 27
18 33 38 13z"/>
<path d="M5166 6251 c-20 -38 -20 -47 0 -30 12 10 20 10 35 1 19 -12 20 -12 3
20 -9 18 -18 35 -20 36 -1 2 -10 -10 -18 -27z m24 -1 c0 -5 -5 -10 -11 -10 -5
0 -7 5 -4 10 3 6 8 10 11 10 2 0 4 -4 4 -10z"/>
<path d="M5235 6270 c-8 -14 3 -30 21 -30 20 0 18 -18 -3 -23 -14 -4 -12 -5 5
-6 13 -1 22 5 22 14 0 8 -10 20 -22 27 l-23 12 25 7 c23 6 23 7 3 8 -12 1 -25
-3 -28 -9z"/>
<path d="M5307 6272 c6 -4 13 -21 16 -37 l4 -30 2 32 c0 17 7 34 14 36 6 3 -1
6 -18 6 -16 0 -25 -3 -18 -7z"/>
<path d="M5398 6273 c27 -6 29 -30 2 -35 -19 -3 -18 -4 3 -14 21 -9 23 -8 22
20 0 26 -4 31 -25 33 -22 1 -22 1 -2 -4z"/>
<path d="M5460 6265 c-18 -22 -1 -50 31 -50 20 0 24 5 24 30 0 23 -5 31 -21
33 -11 2 -27 -4 -34 -13z m48 -18 c4 -20 -25 -34 -40 -19 -15 15 -1 44 19 40
10 -2 19 -11 21 -21z"/>
<path d="M5545 6270 c-8 -14 3 -30 21 -30 20 0 18 -18 -3 -23 -15 -3 -14 -4 1
-3 27 1 32 26 7 33 -28 7 -27 20 2 26 22 4 22 4 0 6 -12 0 -25 -3 -28 -9z"/>
<path d="M8199 6264 c-9 -11 -10 -20 -2 -32 11 -18 53 -29 53 -14 0 5 -10 8
-22 8 -17 -1 -23 5 -23 19 0 14 6 20 23 19 12 0 22 3 22 8 0 14 -37 9 -51 -8z"/>
<path d="M8276 6243 c-10 -22 -12 -33 -5 -25 16 15 49 16 49 0 0 -6 2 -9 5 -7
6 6 -17 69 -25 69 -4 0 -14 -17 -24 -37z m29 7 c3 -5 1 -10 -4 -10 -6 0 -11 5
-11 10 0 6 2 10 4 10 3 0 8 -4 11 -10z"/>
<path d="M8380 6272 c15 -5 25 -15 25 -27 0 -12 -9 -22 -25 -26 -22 -6 -23 -7
-4 -8 52 -2 55 62 3 66 -24 2 -24 2 1 -5z"/>
<path d="M8446 6243 c-10 -22 -12 -33 -5 -25 16 15 49 16 49 0 0 -6 2 -9 5 -7
6 6 -17 69 -25 69 -4 0 -14 -17 -24 -37z m29 7 c3 -5 1 -10 -4 -10 -6 0 -11 5
-11 10 0 6 2 10 4 10 3 0 8 -4 11 -10z"/>
<path d="M8520 6265 c0 -8 10 -20 23 -27 l22 -12 -25 -7 -25 -8 24 2 c31 3 40
27 12 34 -26 7 -27 20 -3 26 13 4 11 5 -5 6 -14 1 -23 -5 -23 -14z"/>
<path d="M8593 6273 c11 -3 18 -15 18 -36 l2 -32 4 30 c3 16 10 33 16 37 7 4
-4 7 -23 7 -19 -1 -27 -3 -17 -6z"/>
<path d="M8661 6243 c0 -21 3 -32 6 -25 5 13 29 16 36 5 2 -5 2 -3 1 4 -2 7 1
15 6 18 17 10 -2 35 -26 35 -21 0 -24 -4 -23 -37z m42 12 c1 -5 -6 -11 -15
-13 -11 -2 -18 3 -18 13 0 17 30 18 33 0z"/>
<path d="M8745 6269 c-4 -6 -4 -13 -1 -16 3 -4 6 -1 6 5 0 16 37 15 43 0 10
-31 -33 -56 -46 -28 -3 6 -4 5 -3 -2 4 -19 47 -16 59 4 8 12 7 21 -2 32 -15
18 -47 21 -56 5z"/>
<path d="M8830 6260 c0 -11 7 -20 15 -20 21 0 19 -17 -2 -24 -11 -3 -8 -4 6
-3 31 3 40 27 12 34 -26 7 -27 20 -3 26 13 4 11 5 -5 6 -17 1 -23 -5 -23 -19z"/>
<path d="M11484 6266 c-11 -28 1 -51 26 -53 25 -3 25 -3 3 7 -13 5 -23 18 -23
29 0 12 8 21 23 24 l22 4 -23 2 c-12 0 -25 -5 -28 -13z"/>
<path d="M11566 6251 c-20 -38 -20 -47 0 -30 12 10 20 10 35 1 19 -12 20 -12
3 20 -9 18 -18 35 -20 36 -1 2 -10 -10 -18 -27z m24 -1 c0 -5 -5 -10 -11 -10
-5 0 -7 5 -4 10 3 6 8 10 11 10 2 0 4 -4 4 -10z"/>
<path d="M11640 6245 c0 -30 3 -35 25 -35 13 0 28 8 34 17 13 25 -5 53 -34 53
-22 0 -25 -4 -25 -35z m48 13 c8 -8 9 -15 1 -25 -18 -21 -39 -15 -39 12 0 27
18 33 38 13z"/>
<path d="M11736 6251 c-20 -38 -20 -47 0 -30 12 10 20 10 35 1 19 -12 20 -12
3 20 -9 18 -18 35 -20 36 -1 2 -10 -10 -18 -27z m24 -1 c0 -5 -5 -10 -11 -10
-5 0 -7 5 -4 10 3 6 8 10 11 10 2 0 4 -4 4 -10z"/>
<path d="M11810 6260 c0 -11 7 -20 15 -20 21 0 19 -17 -2 -24 -11 -3 -8 -4 6
-3 31 3 40 27 12 34 -26 7 -27 20 -3 26 13 4 11 5 -5 6 -17 1 -23 -5 -23 -19z"/>
<path d="M11877 6272 c6 -4 13 -21 16 -37 l4 -30 2 32 c0 17 7 34 14 36 6 3
-1 6 -18 6 -16 0 -25 -3 -18 -7z"/>
<path d="M11968 6273 c27 -6 29 -30 2 -35 -19 -3 -18 -4 3 -14 21 -9 23 -8 22
20 0 26 -4 31 -25 33 -22 1 -22 1 -2 -4z"/>
<path d="M12030 6265 c-18 -22 -1 -50 31 -50 20 0 24 5 24 30 0 23 -5 31 -21
33 -11 2 -27 -4 -34 -13z m48 -18 c4 -20 -25 -34 -40 -19 -15 15 -1 44 19 40
10 -2 19 -11 21 -21z"/>
<path d="M12115 6270 c-8 -14 3 -30 21 -30 20 0 18 -18 -3 -23 -15 -3 -14 -4
1 -3 27 1 32 26 7 33 -28 7 -27 20 2 26 22 4 22 4 0 6 -12 0 -25 -3 -28 -9z"/>
<path d="M8520 6049 c0 -15 -4 -19 -16 -15 -24 9 -54 -12 -54 -38 0 -31 18
-45 58 -44 l32 1 0 59 c0 32 -4 58 -10 58 -5 0 -10 -9 -10 -21z m-5 -54 c0
-13 -8 -21 -22 -23 -17 -3 -23 2 -23 16 0 10 3 22 7 26 13 13 38 1 38 -19z"/>
<path d="M8660 6010 c0 -33 4 -60 10 -60 6 0 10 27 10 60 0 33 -4 60 -10 60
-6 0 -10 -27 -10 -60z"/>
<path d="M4922 6005 c1 -54 1 -56 7 -20 l6 40 19 -35 c17 -32 20 -33 30 -17
31 52 35 54 36 15 0 -21 5 -38 10 -38 6 0 10 25 10 55 0 64 -12 70 -42 18 -20
-32 -23 -34 -32 -18 -6 9 -19 27 -28 39 -17 20 -17 19 -16 -39z"/>
<path d="M8200 6005 c0 -30 5 -55 10 -55 6 0 10 15 11 33 0 32 0 32 16 10 20
-30 29 -29 47 5 l15 27 1 -37 c0 -21 5 -38 10 -38 6 0 10 25 10 55 0 30 -4 55
-8 55 -5 0 -17 -16 -28 -35 -10 -19 -21 -35 -24 -35 -3 0 -14 16 -24 35 -11
19 -23 35 -28 35 -4 0 -8 -25 -8 -55z"/>
<path d="M11498 6049 c-22 -13 -24 -62 -2 -83 17 -18 51 -21 74 -6 16 10 14
11 -35 13 -24 2 -31 7 -33 26 -5 31 23 53 56 44 17 -4 23 -2 18 6 -9 14 -55
14 -78 0z"/>
<path d="M5075 6030 c-18 -8 -17 -9 7 -9 37 -1 45 -19 11 -23 -20 -2 -28 -9
-28 -23 0 -15 8 -21 33 -23 31 -3 32 -2 32 36 0 27 -5 42 -16 46 -9 3 -16 6
-17 5 -1 0 -11 -4 -22 -9z m39 -49 c3 -5 -1 -12 -10 -15 -22 -9 -24 -8 -24 9
0 16 25 21 34 6z"/>
<path d="M5241 6023 c-23 -16 -27 -43 -9 -61 15 -15 54 -16 63 -2 4 6 -7 10
-25 10 -27 0 -31 3 -28 23 2 17 9 22 31 20 31 -2 37 12 8 20 -11 3 -29 -2 -40
-10z"/>
<path d="M5335 6029 c-17 -7 -17 -8 8 -8 33 -1 36 -18 5 -23 -15 -2 -23 -10
-23 -23 0 -15 8 -21 33 -23 31 -3 32 -2 32 32 0 40 -23 58 -55 45z m35 -48 c0
-14 -18 -23 -30 -16 -6 4 -8 11 -5 16 8 12 35 12 35 0z"/>
<path d="M5428 6029 c-25 -14 -22 -26 10 -43 l27 -15 -29 -1 c-22 0 -27 -3
-19 -11 6 -6 21 -9 34 -7 32 4 33 42 2 46 -32 5 -28 22 5 22 21 0 24 2 12 10
-18 12 -21 12 -42 -1z"/>
<path d="M8359 6021 c-27 -22 -18 -58 17 -67 32 -8 56 12 52 44 -4 34 -40 46
-69 23z m49 -29 c3 -16 -2 -22 -17 -22 -24 0 -35 15 -27 36 9 23 40 13 44 -14z"/>
<path d="M8583 6029 c-25 -9 -31 -47 -11 -67 15 -15 58 -16 58 -2 0 6 -11 10
-25 10 -14 0 -25 5 -25 10 0 6 14 10 30 10 20 0 30 5 30 15 0 21 -31 34 -57
24z m37 -19 c0 -5 -9 -10 -20 -10 -11 0 -20 5 -20 10 0 6 9 10 20 10 11 0 20
-4 20 -10z"/>
<path d="M8719 6021 c-27 -22 -18 -58 17 -67 32 -8 56 12 52 44 -4 34 -40 46
-69 23z m49 -29 c3 -16 -2 -22 -17 -22 -24 0 -35 15 -27 36 9 23 40 13 44 -14z"/>
<path d="M8828 6032 c-28 -6 -21 -37 10 -49 l27 -11 -27 -1 c-34 -1 -38 -21
-4 -21 31 0 50 22 34 38 -7 7 -18 12 -25 12 -22 0 -14 18 10 22 15 2 18 5 7 9
-8 3 -23 4 -32 1z"/>
<path d="M11613 6029 c-47 -17 -18 -88 31 -75 28 7 40 31 26 56 -13 23 -30 29
-57 19z m42 -34 c0 -13 -8 -21 -22 -23 -17 -3 -23 2 -23 16 0 10 3 22 7 26 13
13 38 1 38 -19z"/>
<path d="M11700 5994 c0 -24 5 -44 10 -44 6 0 10 13 10 30 0 16 7 33 16 38 14
8 12 10 -10 14 -25 5 -26 3 -26 -38z"/>
<path d="M11783 6029 c-25 -9 -31 -47 -11 -67 15 -15 58 -16 58 -2 0 6 -11 10
-25 10 -14 0 -25 5 -25 10 0 6 14 10 30 10 20 0 30 5 30 15 0 21 -31 34 -57
24z m37 -19 c0 -5 -9 -10 -20 -10 -11 0 -20 5 -20 10 0 6 9 10 20 10 11 0 20
-4 20 -10z"/>
<path d="M11878 6032 c-28 -6 -21 -37 10 -49 l27 -11 -27 -1 c-34 -1 -38 -21
-4 -21 31 0 50 22 34 38 -7 7 -18 12 -25 12 -22 0 -14 18 10 22 15 2 18 5 7 9
-8 3 -23 4 -32 1z"/>
<path d="M5160 5990 c0 -22 5 -40 10 -40 6 0 10 13 10 30 0 17 7 33 18 39 14
9 13 10 -10 11 -26 0 -28 -3 -28 -40z"/>
<path d="M7503 5893 c15 -2 37 -2 50 0 12 2 0 4 -28 4 -27 0 -38 -2 -22 -4z"/>
<path d="M10803 5893 c15 -2 37 -2 50 0 12 2 0 4 -28 4 -27 0 -38 -2 -22 -4z"/>
<path d="M14083 5893 c15 -2 37 -2 50 0 12 2 0 4 -28 4 -27 0 -38 -2 -22 -4z"/>
<path d="M8213 5723 c9 -2 23 -2 30 0 6 3 -1 5 -18 5 -16 0 -22 -2 -12 -5z"/>
<path d="M4911 4905 c-1 -39 12 -58 35 -53 13 2 19 12 20 33 1 30 1 30 -3 2
-6 -41 -36 -32 -44 13 -6 34 -6 34 -8 5z"/>
<path d="M5012 4893 c-2 -41 -1 -43 26 -42 22 1 23 2 5 6 -17 3 -23 13 -26 41
l-4 37 -1 -42z"/>
<path d="M5068 4923 c6 -2 13 -21 13 -41 2 -34 2 -34 6 -7 2 17 12 36 21 43
13 10 11 12 -19 11 -19 0 -28 -3 -21 -6z"/>
<path d="M5143 4890 c0 -25 2 -35 4 -22 2 12 2 32 0 45 -2 12 -4 2 -4 -23z"/>
<path d="M5181 4890 c1 -39 2 -41 8 -15 l7 30 13 -24 c13 -23 14 -23 24 -5 10
18 11 18 18 -6 6 -21 7 -18 8 15 l1 40 -19 -24 -18 -23 -21 28 -21 29 0 -45z"/>
<path d="M5306 4917 c-36 -26 4 -84 42 -61 24 16 27 45 6 61 -10 7 -21 13 -24
13 -3 0 -14 -6 -24 -13z m44 -12 c17 -20 5 -45 -20 -45 -11 0 -23 7 -26 15 -6
15 11 45 26 45 4 0 13 -7 20 -15z"/>
<path d="M5401 4921 c-17 -11 -6 -30 23 -41 21 -8 21 -8 -4 -19 l-25 -11 24 3
c35 3 37 25 4 38 -27 10 -27 11 -9 25 21 15 10 19 -13 5z"/>
<path d="M5500 4929 c0 -4 7 -24 16 -45 15 -36 17 -37 30 -19 8 10 14 24 14
29 0 6 -6 2 -12 -8 -10 -18 -12 -17 -29 15 -10 19 -18 31 -19 28z"/>
<path d="M5590 4890 c0 -39 1 -40 33 -39 27 2 28 3 6 6 -21 3 -26 10 -27 33 0
22 5 30 21 33 18 4 17 5 -5 6 -26 1 -28 -2 -28 -39z"/>
<path d="M5683 4890 c0 -25 2 -35 4 -22 2 12 2 32 0 45 -2 12 -4 2 -4 -23z"/>
<path d="M5728 4919 c-36 -20 -11 -76 29 -66 14 4 13 5 -5 6 -12 0 -25 8 -28
16 -9 23 15 46 40 40 17 -5 18 -4 6 4 -18 13 -21 13 -42 0z"/>
<path d="M5802 4904 c-1 -18 5 -37 13 -44 17 -14 45 -7 45 12 0 10 -3 9 -9 -1
-14 -22 -39 -5 -44 31 l-4 33 -1 -31z"/>
<path d="M5902 4893 c-2 -41 -1 -43 26 -42 22 1 23 2 5 6 -17 3 -23 13 -26 41
l-4 37 -1 -42z"/>
<path d="M5976 4914 c-19 -18 -19 -20 -6 -45 12 -21 40 -25 58 -7 18 18 14 46
-7 58 -25 13 -27 13 -45 -6z m42 -3 c20 -12 10 -46 -14 -49 -25 -4 -40 24 -23
44 13 16 19 17 37 5z"/>
<path d="M6071 4916 c-9 -11 -9 -16 0 -22 7 -4 9 -3 5 4 -3 6 2 15 11 21 10 6
13 11 7 11 -6 0 -17 -6 -23 -14z"/>
<path d="M6192 4918 c-20 -20 -14 -56 9 -63 12 -4 25 -3 30 2 6 6 1 9 -13 9
-18 -1 -23 4 -23 24 0 19 5 25 22 24 12 0 20 3 17 8 -7 12 -28 10 -42 -4z"/>
<path d="M6270 4891 c-21 -41 -21 -42 0 -29 16 10 24 10 40 0 20 -12 20 -12 5
25 -9 20 -17 39 -20 41 -2 2 -13 -15 -25 -37z m29 -10 c-15 -5 -22 6 -14 19 6
9 10 9 16 -1 5 -8 4 -15 -2 -18z"/>
<path d="M6350 4890 c0 -41 13 -50 54 -34 22 9 20 51 -3 64 -38 20 -51 13 -51
-30z m48 21 c21 -13 10 -46 -16 -49 -17 -3 -22 1 -22 21 0 35 13 45 38 28z"/>
<path d="M6547 4923 c-13 -13 -7 -32 13 -38 26 -8 26 -22 0 -28 -17 -4 -17 -4
2 -3 29 1 36 32 8 39 -25 6 -26 24 -2 30 14 4 14 5 1 6 -9 0 -19 -2 -22 -6z"/>
<path d="M6618 4923 c6 -2 13 -21 13 -41 2 -34 2 -34 6 -7 2 17 12 36 21 43
13 10 11 12 -19 11 -19 0 -28 -3 -21 -6z"/>
<path d="M6690 4888 c0 -31 3 -39 10 -28 8 13 12 13 32 1 20 -13 22 -12 11 1
-10 11 -10 17 -1 26 9 9 9 15 1 23 -8 8 -11 6 -10 -7 1 -10 -6 -20 -15 -22
-21 -4 -26 33 -5 41 7 3 5 6 -5 6 -15 1 -18 -7 -18 -41z"/>
<path d="M6786 4893 c-9 -19 -14 -38 -11 -41 3 -3 5 0 5 6 0 7 11 12 25 12 14
0 25 -5 25 -12 0 -6 2 -9 5 -6 12 12 -7 36 -26 31 -15 -4 -18 -2 -13 11 3 9
10 13 15 10 5 -3 9 -1 9 5 0 25 -18 17 -34 -16z"/>
<path d="M6870 4890 c0 -35 3 -40 24 -40 13 0 29 7 36 15 13 16 5 55 -12 55
-6 0 -6 -6 2 -15 10 -12 10 -18 0 -30 -7 -8 -19 -15 -26 -15 -18 0 -19 56 -1
63 7 3 5 6 -5 6 -14 1 -18 -7 -18 -39z"/>
<path d="M7006 4916 c10 -8 21 -12 24 -10 5 6 -21 24 -34 24 -6 0 -1 -6 10
-14z"/>
<path d="M7080 4926 c0 -2 7 -7 16 -10 8 -3 12 -2 9 4 -6 10 -25 14 -25 6z"/>
<path d="M13680 4929 c0 -4 7 -24 16 -45 15 -36 17 -37 30 -19 8 10 14 24 14
29 0 6 -6 2 -12 -8 -10 -18 -12 -17 -29 15 -10 19 -18 31 -19 28z"/>
<path d="M14070 4915 c0 -8 -6 -12 -13 -9 -18 7 -39 -19 -31 -40 3 -9 16 -15
30 -14 21 2 24 7 24 40 0 21 -2 38 -5 38 -3 0 -5 -7 -5 -15z m-4 -26 c10 -17
-13 -36 -27 -22 -12 12 -4 33 11 33 5 0 12 -5 16 -11z"/>
<path d="M6963 4904 c-16 -43 47 -72 68 -32 12 23 12 23 -9 4 -28 -25 -56 -14
-50 19 6 28 1 33 -9 9z"/>
<path d="M7060 4908 c0 -9 9 -20 20 -23 26 -8 26 -22 0 -28 -17 -4 -17 -4 2
-3 26 1 39 36 14 36 -8 0 -20 8 -25 18 -9 15 -10 16 -11 0z"/>
<path d="M13907 4914 c-9 -9 9 -58 21 -60 7 -1 8 0 2 3 -14 7 -13 40 2 45 8 3
6 6 -4 10 -9 4 -18 4 -21 2z"/>
<path d="M13764 4896 c-9 -23 3 -46 23 -45 17 1 17 2 1 6 -21 5 -24 43 -4 43
8 0 17 -5 19 -10 3 -6 4 -5 3 2 -4 19 -35 22 -42 4z"/>
<path d="M13831 4876 c1 -21 3 -25 6 -11 3 11 9 25 14 31 5 7 3 11 -6 11 -10
0 -15 -10 -14 -31z"/>
<path d="M13960 4895 c-16 -19 -6 -45 19 -45 23 0 35 28 20 46 -15 18 -24 18
-39 -1z m36 -6 c10 -17 -13 -36 -27 -22 -12 12 -4 33 11 33 5 0 12 -5 16 -11z"/>
<path d="M14110 4895 c-16 -19 -6 -45 19 -45 23 0 35 28 20 46 -15 18 -24 18
-39 -1z m36 -6 c10 -17 -13 -36 -27 -22 -12 12 -4 33 11 33 5 0 12 -5 16 -11z"/>
<path d="M14177 4903 c-10 -10 -8 -23 4 -23 5 0 8 4 4 9 -3 5 3 12 12 14 14 4
15 5 2 6 -9 0 -19 -2 -22 -6z"/>
<path d="M6452 4875 c-11 -23 -10 -24 8 -13 16 10 24 10 40 0 18 -11 19 -10 8
13 -8 19 -14 22 -20 13 -6 -11 -10 -11 -16 0 -6 9 -12 6 -20 -13z"/>
<path d="M6100 4883 c17 -8 11 -21 -12 -26 -20 -5 -20 -5 2 -4 26 2 35 28 12
33 -7 1 -8 0 -2 -3z"/>
<path d="M14204 4872 c5 -8 -1 -12 -16 -13 -18 -1 -19 -2 -4 -6 23 -6 43 12
25 22 -8 5 -10 4 -5 -3z"/>
<path d="M5223 4500 c0 -25 2 -35 4 -22 2 12 2 32 0 45 -2 12 -4 2 -4 -23z"/>
<path d="M5052 4485 c0 -16 2 -22 5 -12 2 9 2 23 0 30 -3 6 -5 -1 -5 -18z"/>
<path d="M5192 4485 c0 -16 2 -22 5 -12 2 9 2 23 0 30 -3 6 -5 -1 -5 -18z"/>
<path d="M7382 4485 c0 -16 2 -22 5 -12 2 9 2 23 0 30 -3 6 -5 -1 -5 -18z"/>
<path d="M10492 4485 c0 -16 2 -22 5 -12 2 9 2 23 0 30 -3 6 -5 -1 -5 -18z"/>
<path d="M14132 4490 c0 -14 2 -19 5 -12 2 6 2 18 0 25 -3 6 -5 1 -5 -13z"/>
<path d="M7352 4480 c0 -14 2 -19 5 -12 2 6 2 18 0 25 -3 6 -5 1 -5 -13z"/>
<path d="M10922 4480 c0 -14 2 -19 5 -12 2 6 2 18 0 25 -3 6 -5 1 -5 -13z"/>
<path d="M13963 4483 c9 -2 23 -2 30 0 6 3 -1 5 -18 5 -16 0 -22 -2 -12 -5z"/>
<path d="M5088 4468 c5 -5 16 -8 23 -6 8 3 3 7 -10 11 -17 4 -21 3 -13 -5z"/>
<path d="M7317 4469 c7 -7 15 -10 18 -7 3 3 -2 9 -12 12 -14 6 -15 5 -6 -5z"/>
<path d="M8805 4470 c-16 -7 -17 -9 -3 -9 9 -1 20 4 23 9 7 11 7 11 -20 0z"/>
<path d="M14038 4468 c5 -5 16 -8 23 -6 8 3 3 7 -10 11 -17 4 -21 3 -13 -5z"/>
<path d="M14168 4468 c5 -5 16 -8 23 -6 8 3 3 7 -10 11 -17 4 -21 3 -13 -5z"/>
<path d="M10398 4463 c7 -3 16 -2 19 1 4 3 -2 6 -13 5 -11 0 -14 -3 -6 -6z"/>
<path d="M13800 4055 c0 -32 2 -35 28 -34 23 2 24 2 5 6 -27 5 -30 20 -5 26
16 4 16 5 0 6 -26 2 -22 19 5 24 19 4 18 4 -5 6 -26 1 -28 -2 -28 -34z"/>
<path d="M13899 4078 c-1 -7 -1 -21 0 -30 2 -11 -5 -18 -15 -18 -12 0 -15 6
-11 21 4 16 3 19 -5 11 -16 -16 -2 -42 22 -42 16 0 20 6 20 35 0 33 -9 50 -11
23z"/>
<path d="M4912 4068 c9 -7 19 -26 21 -43 4 -27 4 -27 6 7 0 20 7 39 14 41 6 3
-3 6 -22 6 -30 1 -32 -1 -19 -11z"/>
<path d="M5332 4068 c-17 -17 -15 -55 4 -62 22 -9 44 -7 44 2 0 5 -10 8 -22 8
-14 -1 -24 6 -26 18 -4 21 16 38 36 31 7 -3 10 0 7 5 -8 14 -28 13 -43 -2z"/>
<path d="M5593 4040 c0 -25 2 -35 4 -22 2 12 2 32 0 45 -2 12 -4 2 -4 -23z"/>
<path d="M5623 4040 c0 -25 2 -35 4 -22 2 12 2 32 0 45 -2 12 -4 2 -4 -23z"/>
<path d="M7213 4073 c9 -2 23 -2 30 0 6 3 -1 5 -18 5 -16 0 -22 -2 -12 -5z"/>
<path d="M10448 4073 c7 -3 16 -2 19 1 4 3 -2 6 -13 5 -11 0 -14 -3 -6 -6z"/>
<path d="M10878 4073 c7 -3 16 -2 19 1 4 3 -2 6 -13 5 -11 0 -14 -3 -6 -6z"/>
<path d="M13964 4050 c1 -21 6 -25 39 -28 31 -2 37 1 37 17 0 11 -6 23 -12 27
-7 4 -10 4 -6 -1 4 -4 -4 -14 -18 -22 -33 -17 -32 -17 -37 10 -3 19 -4 19 -3
-3z m63 -16 c-3 -3 -12 -4 -19 -1 -8 3 -5 6 6 6 11 1 17 -2 13 -5z"/>
<path d="M5178 4065 c-2 -3 -3 -18 0 -35 3 -19 10 -30 21 -30 13 0 13 2 2 9
-8 5 -12 18 -8 30 5 20 -5 36 -15 26z"/>
<path d="M13932 4045 c0 -16 2 -22 5 -12 2 9 2 23 0 30 -3 6 -5 -1 -5 -18z"/>
<path d="M14060 4059 c0 -5 5 -7 10 -4 6 3 10 8 10 11 0 2 -4 4 -10 4 -5 0
-10 -5 -10 -11z"/>
<path d="M4974 4045 c-8 -21 2 -45 19 -45 8 0 20 7 27 15 10 12 10 18 0 30 -7
8 -19 15 -27 15 -7 0 -16 -7 -19 -15z m39 -9 c7 -16 -1 -26 -20 -26 -7 0 -13
9 -13 20 0 23 25 27 33 6z"/>
<path d="M5046 4031 l16 -35 15 28 c8 15 12 30 10 33 -3 2 -8 -6 -12 -18 l-7
-22 -20 24 -19 24 17 -34z"/>
<path d="M5112 4051 c-21 -13 -10 -46 16 -49 27 -4 40 22 22 43 -14 17 -20 18
-38 6z m34 -12 c10 -17 -13 -36 -27 -22 -12 12 -4 33 11 33 5 0 12 -5 16 -11z"/>
<path d="M5246 4046 c15 -12 17 -17 6 -28 -11 -11 -14 -10 -22 2 -8 13 -10 12
-10 -2 0 -13 8 -18 25 -18 25 0 31 13 19 44 -3 9 -13 16 -22 16 -13 0 -12 -3
4 -14z"/>
<path d="M5404 4046 c-9 -24 4 -48 23 -44 12 2 18 12 18 28 0 29 -32 41 -41
16z m36 -16 c0 -11 -7 -20 -15 -20 -8 0 -15 9 -15 20 0 11 7 20 15 20 8 0 15
-9 15 -20z"/>
<path d="M5471 4026 c1 -21 3 -25 6 -11 3 11 9 25 14 31 5 7 3 11 -6 11 -10 0
-15 -10 -14 -31z"/>
<path d="M5521 4047 c-17 -21 -3 -49 23 -45 15 2 21 10 21 28 0 28 -26 38 -44
17z m35 -8 c10 -17 -13 -36 -27 -22 -12 12 -4 33 11 33 5 0 12 -5 16 -11z"/>
<path d="M5673 4054 c21 -7 23 -44 1 -44 -8 0 -12 5 -9 10 3 6 1 10 -5 10 -21
0 -4 -25 19 -28 19 -3 22 0 19 25 -2 19 -9 28 -23 30 -16 1 -16 1 -2 -3z"/>
<path d="M11103 4023 c9 -2 25 -2 35 0 9 3 1 5 -18 5 -19 0 -27 -2 -17 -5z"/>
<path d="M10668 4003 c6 -2 18 -2 25 0 6 3 1 5 -13 5 -14 0 -19 -2 -12 -5z"/>
<path d="M10808 4003 c6 -2 18 -2 25 0 6 3 1 5 -13 5 -14 0 -19 -2 -12 -5z"/>
<path d="M5038 3983 c7 -3 16 -2 19 1 4 3 -2 6 -13 5 -11 0 -14 -3 -6 -6z"/>
<path d="M13800 3515 c0 -32 2 -35 28 -34 23 2 24 2 5 6 -27 5 -30 20 -5 26
16 4 16 5 0 6 -26 2 -22 19 5 24 19 4 18 4 -5 6 -26 1 -28 -2 -28 -34z"/>
<path d="M13899 3538 c-1 -7 -1 -21 0 -30 2 -11 -5 -18 -15 -18 -12 0 -15 6
-11 21 4 16 3 19 -5 11 -16 -16 -2 -42 22 -42 16 0 20 6 20 35 0 33 -9 50 -11
23z"/>
<path d="M4911 3500 c0 -37 2 -41 9 -22 6 13 6 31 0 45 -7 18 -9 14 -9 -23z"/>
<path d="M5190 3505 c0 -24 -5 -35 -15 -35 -17 0 -21 36 -5 43 6 3 5 4 -2 3
-7 -2 -13 -14 -13 -27 0 -17 6 -25 23 -27 20 -3 22 1 22 37 0 23 -2 41 -5 41
-3 0 -5 -16 -5 -35z"/>
<path d="M5338 3529 c-21 -12 -23 -40 -6 -57 14 -14 44 -16 52 -3 3 4 -6 6
-19 3 -17 -3 -27 1 -31 12 -9 24 15 48 40 41 17 -5 18 -4 6 4 -18 13 -21 13
-42 0z"/>
<path d="M10448 3533 c7 -3 16 -2 19 1 4 3 -2 6 -13 5 -11 0 -14 -3 -6 -6z"/>
<path d="M10878 3533 c7 -3 16 -2 19 1 4 3 -2 6 -13 5 -11 0 -14 -3 -6 -6z"/>
<path d="M13964 3510 c1 -21 6 -25 39 -28 31 -2 37 1 37 17 0 11 -6 23 -12 27
-7 4 -10 4 -6 -1 4 -4 -4 -14 -18 -22 -33 -17 -32 -17 -37 10 -3 19 -4 19 -3
-3z m63 -16 c-3 -3 -12 -4 -19 -1 -8 3 -5 6 6 6 11 1 17 -2 13 -5z"/>
<path d="M4962 3510 c-7 -11 -8 -20 -3 -20 5 0 12 -8 14 -17 3 -10 5 -1 6 20
1 43 0 44 -17 17z"/>
<path d="M13932 3505 c0 -16 2 -22 5 -12 2 9 2 23 0 30 -3 6 -5 -1 -5 -18z"/>
<path d="M14060 3519 c0 -5 5 -7 10 -4 6 3 10 8 10 11 0 2 -4 4 -10 4 -5 0
-10 -5 -10 -11z"/>
<path d="M5004 3506 c-9 -24 4 -48 23 -44 12 2 18 12 18 28 0 29 -32 41 -41
16z m36 -16 c0 -11 -7 -20 -15 -20 -8 0 -15 9 -15 20 0 11 7 20 15 20 8 0 15
-9 15 -20z"/>
<path d="M5071 3485 c1 -29 1 -29 8 -5 4 14 13 25 21 25 8 0 17 -11 21 -25 6
-20 7 -21 8 -5 1 29 -12 44 -37 42 -18 -1 -22 -7 -21 -32z"/>
<path d="M5243 3514 c21 -7 23 -44 1 -44 -8 0 -12 5 -9 10 3 6 1 10 -5 10 -21
0 -4 -25 19 -28 19 -3 22 0 19 25 -2 19 -9 28 -23 30 -16 1 -16 1 -2 -3z"/>
<path d="M5412 3490 c0 -19 2 -27 5 -17 2 9 2 25 0 35 -3 9 -5 1 -5 -18z"/>
<path d="M5441 3490 c6 -16 15 -30 19 -30 10 0 22 31 15 38 -3 3 -5 0 -5 -6 0
-7 -4 -12 -10 -12 -5 0 -10 6 -10 14 0 8 -4 17 -10 21 -5 3 -5 -7 1 -25z"/>
<path d="M5502 3490 c0 -19 2 -27 5 -17 2 9 2 25 0 35 -3 9 -5 1 -5 -18z"/>
<path d="M5542 3511 c-21 -13 -10 -46 16 -49 12 -2 22 1 22 6 0 5 -8 9 -17 8
-10 0 -18 6 -18 14 0 8 8 14 17 14 10 -1 15 2 12 7 -7 11 -15 11 -32 0z"/>
<path d="M11103 3483 c9 -2 25 -2 35 0 9 3 1 5 -18 5 -19 0 -27 -2 -17 -5z"/>
<path d="M10668 3463 c6 -2 18 -2 25 0 6 3 1 5 -13 5 -14 0 -19 -2 -12 -5z"/>
<path d="M10808 3463 c6 -2 18 -2 25 0 6 3 1 5 -13 5 -14 0 -19 -2 -12 -5z"/>
<path d="M4911 2958 c1 -24 3 -35 6 -26 2 9 14 19 26 21 l22 4 -22 2 c-13 0
-23 7 -23 15 0 8 10 17 23 19 19 4 18 4 -5 6 -27 1 -28 -1 -27 -41z"/>
<path d="M5140 2985 c0 -8 -6 -12 -13 -9 -18 7 -41 -22 -33 -41 3 -8 17 -15
31 -15 23 0 25 4 25 40 0 22 -2 40 -5 40 -3 0 -5 -7 -5 -15z m-4 -26 c10 -17
-13 -36 -27 -22 -12 12 -4 33 11 33 5 0 12 -5 16 -11z"/>
<path d="M5265 2973 l-18 -26 -18 24 -19 24 1 -40 c1 -33 2 -36 8 -15 7 24 8
24 18 6 10 -18 11 -18 24 5 l13 24 7 -30 c6 -27 7 -26 8 13 0 23 -1 42 -3 42
-2 0 -12 -12 -21 -27z"/>
<path d="M7228 2993 c7 -3 16 -2 19 1 4 3 -2 6 -13 5 -11 0 -14 -3 -6 -6z"/>
<path d="M10448 2993 c7 -3 16 -2 19 1 4 3 -2 6 -13 5 -11 0 -14 -3 -6 -6z"/>
<path d="M10878 2993 c7 -3 16 -2 19 1 4 3 -2 6 -13 5 -11 0 -14 -3 -6 -6z"/>
<path d="M13800 2965 c0 -32 2 -35 28 -34 23 2 24 2 5 6 -27 5 -30 20 -5 26
16 4 16 5 0 6 -26 2 -22 19 5 24 19 4 18 4 -5 6 -26 1 -28 -2 -28 -34z"/>
<path d="M13899 2988 c-1 -7 -1 -21 0 -30 2 -11 -5 -18 -15 -18 -12 0 -15 6
-11 21 4 16 3 19 -5 11 -16 -16 -2 -42 22 -42 16 0 20 6 20 35 0 33 -9 50 -11
23z"/>
<path d="M5448 2985 c-2 -3 -3 -18 0 -35 3 -19 10 -30 21 -30 13 0 13 2 2 9
-8 5 -12 18 -8 30 5 20 -5 36 -15 26z"/>
<path d="M13964 2960 c1 -21 6 -25 39 -28 31 -2 37 1 37 17 0 11 -6 23 -12 27
-7 4 -10 4 -6 -1 4 -4 -4 -14 -18 -22 -33 -17 -32 -17 -37 10 -3 19 -4 19 -3
-3z m63 -16 c-3 -3 -12 -4 -19 -1 -8 3 -5 6 6 6 11 1 17 -2 13 -5z"/>
<path d="M4984 2966 c-9 -24 4 -48 23 -44 12 2 18 12 18 28 0 29 -32 41 -41
16z m36 -16 c0 -11 -7 -20 -15 -20 -8 0 -15 9 -15 20 0 11 7 20 15 20 8 0 15
-9 15 -20z"/>
<path d="M5051 2946 c1 -21 3 -25 6 -11 3 11 9 25 14 31 5 7 3 11 -6 11 -10 0
-15 -10 -14 -31z"/>
<path d="M5313 2955 c2 -25 7 -31 30 -33 23 -3 27 0 27 22 0 14 -4 28 -10 31
-6 4 -10 -5 -10 -20 0 -33 -21 -29 -32 6 -6 22 -7 21 -5 -6z"/>
<path d="M5390 2963 c0 -11 3 -14 8 -7 4 6 14 14 22 17 10 4 8 6 -7 6 -16 1
-23 -5 -23 -16z"/>
<path d="M5516 2966 c15 -12 17 -17 6 -28 -11 -11 -14 -10 -22 2 -8 13 -10 12
-10 -2 0 -13 8 -18 25 -18 25 0 31 13 19 44 -3 9 -13 16 -22 16 -13 0 -12 -3
4 -14z"/>
<path d="M5561 2946 c1 -28 2 -29 8 -7 9 34 29 37 34 6 4 -24 4 -24 3 2 -1 22
-6 28 -23 29 -19 1 -23 -4 -22 -30z"/>
<path d="M5639 2964 c-14 -17 7 -48 28 -40 7 3 13 1 13 -4 0 -5 -9 -11 -20
-13 -17 -4 -16 -4 2 -3 19 1 24 8 26 36 2 30 -1 36 -17 37 -11 1 -25 -5 -32
-13z m37 -5 c10 -17 -13 -36 -27 -22 -12 12 -4 33 11 33 5 0 12 -5 16 -11z"/>
<path d="M13932 2955 c0 -16 2 -22 5 -12 2 9 2 23 0 30 -3 6 -5 -1 -5 -18z"/>
<path d="M14060 2969 c0 -5 5 -7 10 -4 6 3 10 8 10 11 0 2 -4 4 -10 4 -5 0
-10 -5 -10 -11z"/>
<path d="M7218 2953 c6 -2 18 -2 25 0 6 3 1 5 -13 5 -14 0 -19 -2 -12 -5z"/>
<path d="M5415 2941 c3 -5 -2 -12 -10 -14 -12 -4 -12 -5 1 -3 19 1 32 26 14
26 -6 0 -9 -4 -5 -9z"/>
<path d="M11103 2943 c9 -2 25 -2 35 0 9 3 1 5 -18 5 -19 0 -27 -2 -17 -5z"/>
<path d="M10668 2923 c6 -2 18 -2 25 0 6 3 1 5 -13 5 -14 0 -19 -2 -12 -5z"/>
<path d="M10808 2923 c6 -2 18 -2 25 0 6 3 1 5 -13 5 -14 0 -19 -2 -12 -5z"/>
<path d="M4912 2448 c9 -7 19 -26 21 -43 4 -27 4 -27 6 7 0 20 7 39 14 41 6 3
-3 6 -22 6 -30 1 -32 -1 -19 -11z"/>
<path d="M5321 2420 c0 -37 2 -41 9 -22 6 13 6 31 0 45 -7 18 -9 14 -9 -23z"/>
<path d="M5373 2435 c-6 -14 -7 -25 -3 -25 5 0 11 -8 13 -17 3 -10 5 1 6 25 0
23 0 42 -1 42 -2 0 -8 -11 -15 -25z"/>
<path d="M5440 2420 c0 -22 5 -40 10 -40 6 0 10 18 10 40 0 22 -4 40 -10 40
-5 0 -10 -18 -10 -40z"/>
<path d="M7213 2453 c9 -2 23 -2 30 0 6 3 -1 5 -18 5 -16 0 -22 -2 -12 -5z"/>
<path d="M10448 2453 c7 -3 16 -2 19 1 4 3 -2 6 -13 5 -11 0 -14 -3 -6 -6z"/>
<path d="M10878 2453 c7 -3 16 -2 19 1 4 3 -2 6 -13 5 -11 0 -14 -3 -6 -6z"/>
<path d="M13800 2425 c0 -32 2 -35 28 -34 23 2 24 2 5 6 -27 5 -30 20 -5 26
16 4 16 5 0 6 -26 2 -22 19 5 24 19 4 18 4 -5 6 -26 1 -28 -2 -28 -34z"/>
<path d="M13899 2448 c-1 -7 -1 -21 0 -30 2 -11 -5 -18 -15 -18 -12 0 -15 6
-11 21 4 16 3 19 -5 11 -16 -16 -2 -42 22 -42 16 0 20 6 20 35 0 33 -9 50 -11
23z"/>
<path d="M5178 2445 c-2 -3 -3 -18 0 -35 3 -19 10 -30 21 -30 13 0 13 2 2 9
-8 5 -12 18 -8 30 5 20 -5 36 -15 26z"/>
<path d="M13964 2420 c1 -21 6 -25 39 -28 31 -2 37 1 37 17 0 11 -6 23 -12 27
-7 4 -10 4 -6 -1 4 -4 -4 -14 -18 -22 -33 -17 -32 -17 -37 10 -3 19 -4 19 -3
-3z m63 -16 c-3 -3 -12 -4 -19 -1 -8 3 -5 6 6 6 11 1 17 -2 13 -5z"/>
<path d="M4974 2425 c-8 -21 2 -45 19 -45 8 0 20 7 27 15 10 12 10 18 0 30 -7
8 -19 15 -27 15 -7 0 -16 -7 -19 -15z m39 -9 c7 -16 -1 -26 -20 -26 -7 0 -13
9 -13 20 0 23 25 27 33 6z"/>
<path d="M5046 2411 l16 -35 15 28 c8 15 12 30 10 33 -3 2 -8 -6 -12 -18 l-7
-22 -20 24 -19 24 17 -34z"/>
<path d="M5112 2431 c-21 -13 -10 -46 16 -49 27 -4 40 22 22 43 -14 17 -20 18
-38 6z m34 -12 c10 -17 -13 -36 -27 -22 -12 12 -4 33 11 33 5 0 12 -5 16 -11z"/>
<path d="M5246 2426 c15 -12 17 -17 6 -28 -11 -11 -14 -10 -22 2 -8 13 -10 12
-10 -2 0 -13 8 -18 25 -18 25 0 31 13 19 44 -3 9 -13 16 -22 16 -13 0 -12 -3
4 -14z"/>
<path d="M5412 2410 c0 -19 2 -27 5 -17 2 9 2 25 0 35 -3 9 -5 1 -5 -18z"/>
<path d="M5518 2418 c-4 -30 -26 -34 -31 -6 -4 20 -4 20 -6 -4 -1 -24 3 -27
24 -26 20 2 25 8 25 30 0 33 -7 37 -12 6z"/>
<path d="M5554 2411 c1 -18 5 -26 10 -21 6 6 16 5 25 -3 14 -11 14 -10 2 6
-11 14 -11 20 0 35 12 15 12 16 -2 5 -11 -9 -19 -9 -26 -2 -7 7 -10 1 -9 -20z"/>
<path d="M13932 2415 c0 -16 2 -22 5 -12 2 9 2 23 0 30 -3 6 -5 -1 -5 -18z"/>
<path d="M14060 2429 c0 -5 5 -7 10 -4 6 3 10 8 10 11 0 2 -4 4 -10 4 -5 0
-10 -5 -10 -11z"/>
<path d="M11103 2403 c9 -2 25 -2 35 0 9 3 1 5 -18 5 -19 0 -27 -2 -17 -5z"/>
<path d="M10668 2383 c6 -2 18 -2 25 0 6 3 1 5 -13 5 -14 0 -19 -2 -12 -5z"/>
<path d="M10808 2383 c6 -2 18 -2 25 0 6 3 1 5 -13 5 -14 0 -19 -2 -12 -5z"/>
<path d="M5038 2363 c7 -3 16 -2 19 1 4 3 -2 6 -13 5 -11 0 -14 -3 -6 -6z"/>
<path d="M0 310 l0 -310 9575 0 9575 0 0 310 0 310 -9575 0 -9575 0 0 -310z
m9455 70 c3 -5 1 -10 -4 -10 -6 0 -11 5 -11 10 0 6 2 10 4 10 3 0 8 -4 11 -10z
m-378 -35 c16 -34 10 -63 -7 -35 -8 13 -13 13 -31 2 -11 -7 -23 -11 -25 -9 -7
7 28 77 38 77 5 0 16 -16 25 -35z m293 20 c10 -12 10 -18 0 -30 -7 -8 -19 -15
-26 -15 -8 0 -14 -4 -14 -10 0 -5 -4 -10 -10 -10 -5 0 -10 18 -10 40 0 35 3
40 24 40 13 0 29 -7 36 -15z m363 -11 l13 -25 14 25 c19 37 30 32 30 -14 0
-22 -4 -40 -10 -40 -5 0 -10 8 -10 18 0 14 -2 14 -9 3 -8 -12 -12 -12 -25 -2
-13 11 -16 11 -16 -3 0 -9 -4 -16 -10 -16 -5 0 -10 18 -10 40 0 46 13 52 33
14z m-523 6 c10 -6 11 -10 3 -10 -7 0 -13 -9 -13 -19 0 -11 6 -22 13 -25 6 -3
3 -5 -8 -3 -11 1 -22 13 -26 27 -7 25 -7 25 -8 -3 -1 -26 -4 -28 -33 -25 -28
2 -34 8 -36 31 -2 15 1 27 7 27 6 0 11 -9 11 -19 0 -11 5 -23 10 -26 6 -3 10
5 10 19 0 18 6 26 23 29 12 2 24 5 27 5 3 1 12 -3 20 -8z m702 -23 c-4 -33 15
-37 20 -4 4 27 39 35 58 12 20 -24 -4 -43 -55 -43 -40 0 -43 2 -47 29 -5 31 0
41 16 36 6 -2 10 -16 8 -30z m-627 -7 c0 -18 -6 -26 -23 -28 -13 -2 -25 3 -28
12 -10 26 4 48 28 44 17 -2 23 -10 23 -28z m137 18 c-7 -7 -12 -20 -12 -30 0
-10 -4 -18 -10 -18 -5 0 -10 14 -10 30 0 24 4 30 22 30 17 0 19 -3 10 -12z
m38 -18 c0 -16 -4 -30 -10 -30 -5 0 -10 14 -10 30 0 17 5 30 10 30 6 0 10 -13
10 -30z m114 14 c9 -24 7 -44 -4 -44 -5 0 -10 9 -10 20 0 11 -7 20 -15 20 -8
0 -15 -9 -15 -20 0 -11 -4 -20 -10 -20 -5 0 -10 9 -10 20 0 11 -4 20 -10 20
-5 0 -10 -9 -10 -20 0 -11 -4 -20 -10 -20 -5 0 -10 14 -10 30 0 29 1 30 49 30
35 0 51 -4 55 -16z m72 -16 c1 -23 -3 -28 -23 -28 -26 0 -39 21 -29 46 3 9 15
14 28 12 17 -2 23 -10 24 -30z m219 2 c0 -18 -6 -26 -23 -28 -13 -2 -25 3 -28
12 -10 26 4 48 28 44 17 -2 23 -10 23 -28z m235 19 c0 -6 -6 -7 -12 -4 -7 4
-5 0 6 -9 22 -18 13 -36 -20 -36 -14 0 -23 4 -20 9 8 13 -4 42 -15 35 -5 -3
-9 -14 -9 -25 0 -10 -4 -19 -10 -19 -5 0 -10 13 -10 29 0 28 2 29 45 29 25 0
45 -4 45 -9z m-1700 -166 c-8 -3 -22 -11 -30 -17 -13 -10 -13 -9 -1 7 7 9 21
17 30 16 13 0 14 -1 1 -6z m155 -23 c3 -6 -1 -7 -9 -4 -18 7 -21 14 -7 14 6 0
13 -4 16 -10z m70 0 c3 -6 -1 -7 -9 -4 -18 7 -21 14 -7 14 6 0 13 -4 16 -10z
m65 6 c0 -2 -9 -6 -20 -9 -11 -3 -18 -1 -14 4 5 9 34 13 34 5z m47 -2 c-3 -3
-12 -4 -19 -1 -8 3 -5 6 6 6 11 1 17 -2 13 -5z m58 -4 c3 -6 -1 -7 -9 -4 -18
7 -21 14 -7 14 6 0 13 -4 16 -10z m65 6 c0 -2 -7 -7 -16 -10 -8 -3 -12 -2 -9
4 6 10 25 14 25 6z m70 0 c0 -2 -7 -7 -16 -10 -8 -3 -12 -2 -9 4 6 10 25 14
25 6z m476 -29 c1 -24 1 -24 -3 -3 -2 14 -12 27 -21 30 -12 3 -11 4 3 3 14 -2
20 -10 21 -30z m54 29 c0 -2 -7 -7 -16 -10 -8 -3 -12 -2 -9 4 6 10 25 14 25 6z
m100 0 c0 -2 -7 -7 -16 -10 -8 -3 -12 -2 -9 4 6 10 25 14 25 6z m403 -3 c3 -5
-5 -8 -18 -8 -13 0 -21 3 -18 8 2 4 10 7 18 7 8 0 16 -3 18 -7z m135 0 c-10
-2 -18 -9 -18 -15 0 -6 -3 -9 -6 -5 -10 10 6 27 24 26 15 -1 15 -2 0 -6z m62
3 c0 -2 -7 -7 -16 -10 -8 -3 -12 -2 -9 4 6 10 25 14 25 6z m138 -3 c-10 -2
-18 -9 -18 -15 0 -6 -3 -9 -6 -5 -10 10 6 27 24 26 15 -1 15 -2 0 -6z m80 0
c-10 -2 -18 -9 -18 -15 0 -6 -3 -9 -6 -5 -10 10 6 27 24 26 15 -1 15 -2 0 -6z
m75 0 c3 -5 -5 -8 -18 -8 -13 0 -21 3 -18 8 2 4 10 7 18 7 8 0 16 -3 18 -7z
m152 -3 c3 -6 -1 -7 -9 -4 -18 7 -21 14 -7 14 6 0 13 -4 16 -10z m123 3 c-10
-2 -18 -9 -18 -15 0 -6 -3 -9 -6 -5 -10 10 6 27 24 26 15 -1 15 -2 0 -6z
m-1570 -47 c12 -3 11 -4 -3 -3 -12 1 -20 10 -21 22 -1 14 0 15 3 3 2 -9 12
-19 21 -22z m70 0 c12 -3 11 -4 -3 -3 -12 1 -20 10 -21 22 -1 14 0 15 3 3 2
-9 12 -19 21 -22z m669 12 c-3 -7 -5 -2 -5 12 0 14 2 19 5 13 2 -7 2 -19 0
-25z m334 -5 c10 3 19 1 19 -5 0 -19 -45 -3 -46 17 -1 17 0 17 3 2 3 -13 11
-17 24 -14z m427 -7 c12 -3 11 -4 -3 -3 -12 1 -20 10 -21 22 -1 14 0 15 3 3 2
-9 12 -19 21 -22z m-2050 0 c12 -3 12 -4 -3 -3 -11 1 -20 9 -21 17 0 8 1 10 3
3 2 -6 12 -14 21 -17z m766 8 c3 -8 2 -12 -4 -9 -6 3 -10 10 -10 16 0 14 7 11
14 -7z m654 4 c-3 -7 -12 -14 -22 -14 -13 -2 -13 -1 -1 3 8 2 13 9 10 14 -4 5
-1 9 5 9 7 0 10 -6 8 -12z m-1347 -16 c-7 -2 -18 1 -23 6 -8 8 -4 9 13 5 13
-4 18 -8 10 -11z m264 8 c-3 -5 -14 -10 -23 -9 -14 0 -13 2 3 9 27 11 27 11
20 0z m530 0 c-3 -5 -14 -10 -23 -9 -14 0 -13 2 3 9 27 11 27 11 20 0z m488
-2 c-2 -5 -10 -8 -18 -8 -8 0 -16 3 -18 8 -3 4 5 7 18 7 13 0 21 -3 18 -7z
m198 -6 c-7 -2 -18 1 -23 6 -8 8 -4 9 13 5 13 -4 18 -8 10 -11z m292 6 c-2 -5
-10 -8 -18 -8 -8 0 -16 3 -18 8 -3 4 5 7 18 7 13 0 21 -3 18 -7z m-2040 -5
c-7 -2 -19 -2 -25 0 -7 3 -2 5 12 5 14 0 19 -2 13 -5z m54 1 c-3 -3 -12 -4
-19 -1 -8 3 -5 6 6 6 11 1 17 -2 13 -5z m326 -1 c-7 -2 -19 -2 -25 0 -7 3 -2
5 12 5 14 0 19 -2 13 -5z m214 1 c-3 -3 -12 -4 -19 -1 -8 3 -5 6 6 6 11 1 17
-2 13 -5z m296 -1 c-7 -2 -19 -2 -25 0 -7 3 -2 5 12 5 14 0 19 -2 13 -5z m264
1 c-3 -3 -12 -4 -19 -1 -8 3 -5 6 6 6 11 1 17 -2 13 -5z m56 -1 c-7 -2 -19 -2
-25 0 -7 3 -2 5 12 5 14 0 19 -2 13 -5z m154 1 c-3 -3 -12 -4 -19 -1 -8 3 -5
6 6 6 11 1 17 -2 13 -5z m100 0 c-3 -3 -12 -4 -19 -1 -8 3 -5 6 6 6 11 1 17
-2 13 -5z m226 -1 c-7 -2 -19 -2 -25 0 -7 3 -2 5 12 5 14 0 19 -2 13 -5z m200
0 c-7 -2 -19 -2 -25 0 -7 3 -2 5 12 5 14 0 19 -2 13 -5z m80 0 c-7 -2 -19 -2
-25 0 -7 3 -2 5 12 5 14 0 19 -2 13 -5z m350 0 c-7 -2 -19 -2 -25 0 -7 3 -2 5
12 5 14 0 19 -2 13 -5z"/>
<path d="M9045 340 c-3 -5 -1 -10 4 -10 6 0 11 5 11 10 0 6 -2 10 -4 10 -3 0
-8 -4 -11 -10z"/>
<path d="M9330 350 c0 -5 7 -10 16 -10 8 0 12 5 9 10 -3 6 -10 10 -16 10 -5 0
-9 -4 -9 -10z"/>
<path d="M9950 325 c0 -9 5 -15 11 -13 6 2 11 8 11 13 0 5 -5 11 -11 13 -6 2
-11 -4 -11 -13z"/>
<path d="M9250 325 c0 -8 5 -15 10 -15 6 0 10 7 10 15 0 8 -4 15 -10 15 -5 0
-10 -7 -10 -15z"/>
<path d="M9830 325 c0 -8 5 -15 10 -15 6 0 10 7 10 15 0 8 -4 15 -10 15 -5 0
-10 -7 -10 -15z"/>
</g>
</svg>
