<?xml version="1.0" standalone="no"?>
<!DOCTYPE svg PUBLIC "-//W3C//DTD SVG 20010904//EN"
 "http://www.w3.org/TR/2001/REC-SVG-20010904/DTD/svg10.dtd">
<svg version="1.0" xmlns="http://www.w3.org/2000/svg"
 width="1893.000000pt" height="912.000000pt" viewBox="0 0 1893.000000 912.000000"
 preserveAspectRatio="xMidYMid meet">

<g transform="translate(0.000000,912.000000) scale(0.100000,-0.100000)"
fill="#000000" stroke="none">
<path d="M0 8875 l0 -245 9465 0 9465 0 0 245 0 245 -9465 0 -9465 0 0 -245z
m14208 135 c18 -11 41 -34 52 -52 40 -66 16 -156 -52 -198 -31 -19 -51 -20
-373 -20 -322 0 -342 1 -373 20 -18 11 -41 34 -52 52 -40 66 -16 156 52 198
31 19 51 20 373 20 322 0 342 -1 373 -20z m-9020 -58 c2 -7 -3 -12 -12 -12 -9
0 -16 7 -16 16 0 17 22 14 28 -4z m-549 -29 c30 -61 35 -83 17 -83 -9 0 -16 5
-16 10 0 6 -13 10 -30 10 -16 0 -30 -4 -30 -10 0 -5 -7 -10 -15 -10 -8 0 -15
2 -15 5 0 16 51 115 59 115 6 0 19 -17 30 -37z m421 17 c11 -11 20 -24 20 -29
0 -18 -32 -41 -56 -41 -15 0 -24 -6 -24 -15 0 -8 -7 -15 -15 -15 -11 0 -15 13
-15 53 0 30 3 57 7 60 14 14 64 6 83 -13z m520 -17 l21 -36 25 37 c14 20 29
34 35 31 5 -4 9 -31 9 -61 0 -41 -4 -54 -15 -54 -10 0 -15 10 -15 28 l0 27
-20 -25 c-10 -14 -20 -23 -23 -20 -2 3 -11 16 -20 30 l-17 24 0 -32 c0 -17 -4
-32 -10 -32 -6 0 -10 27 -10 60 0 33 4 60 9 60 5 0 19 -16 31 -37z m-760 17
c0 -5 7 -10 15 -10 8 0 15 -4 15 -10 0 -5 -7 -10 -15 -10 -8 0 -15 -9 -15 -20
0 -11 7 -23 15 -26 23 -9 18 -26 -7 -22 -17 2 -24 11 -26 33 -2 16 -9 33 -14
36 -7 5 -6 12 3 23 16 18 29 20 29 6z m1018 -7 c12 -12 13 -18 4 -21 -18 -6
-15 -52 3 -52 19 0 20 -16 1 -23 -22 -9 -43 15 -48 53 -9 59 7 76 40 43z
m-1128 -38 c0 -24 5 -35 15 -35 10 0 15 11 15 35 0 24 5 35 15 35 11 0 15 -12
15 -45 l0 -45 -39 0 c-42 0 -51 11 -51 61 0 19 5 29 15 29 10 0 15 -11 15 -35z
m235 15 c37 -40 -19 -95 -64 -63 -23 16 -28 52 -9 71 18 18 53 14 73 -8z m205
10 c0 -6 -7 -13 -15 -16 -9 -4 -15 -19 -15 -35 0 -19 -5 -29 -15 -29 -11 0
-15 12 -15 45 0 43 1 45 30 45 17 0 30 -5 30 -10z m40 -35 c0 -33 -4 -45 -15
-45 -11 0 -15 12 -15 45 0 33 4 45 15 45 11 0 15 -12 15 -45z m158 32 c18 -14
16 -77 -3 -77 -10 0 -15 10 -15 30 0 20 -5 30 -15 30 -10 0 -15 -10 -15 -30 0
-20 -5 -30 -15 -30 -10 0 -15 10 -15 30 0 20 -5 30 -15 30 -10 0 -15 -10 -15
-30 0 -20 -5 -30 -15 -30 -11 0 -15 12 -15 45 l0 45 63 -2 c34 0 68 -5 75 -11z
m112 -2 c16 -19 4 -72 -18 -77 -34 -9 -62 9 -62 40 0 15 5 33 12 40 16 16 53
15 68 -3z m309 1 c7 -8 11 -27 9 -42 -6 -53 -88 -50 -88 4 0 15 5 33 12 40 16
16 53 15 67 -2z m172 4 c21 -12 25 -50 7 -68 -7 -7 -24 -12 -38 -12 -47 0 -66
42 -34 74 18 19 38 20 65 6z m89 -4 c0 -8 -7 -16 -15 -20 -8 -3 -15 -17 -15
-31 0 -16 -6 -25 -15 -25 -11 0 -15 12 -15 45 0 43 1 45 30 45 19 0 30 -5 30
-14z m78 -1 c-2 -5 -11 -9 -20 -8 -26 4 -22 -6 8 -17 40 -15 28 -44 -20 -48
-28 -3 -37 0 -34 10 3 7 16 12 29 11 23 -3 23 -2 3 6 -30 13 -38 29 -23 47 13
16 61 15 57 -1z m432 -35 l-7 -45 -2 41 c0 22 2 44 6 47 10 11 11 5 3 -43z
m-135 20 c3 -11 10 -20 15 -20 5 0 12 9 15 20 3 11 11 20 16 20 6 0 7 -10 4
-22 -6 -19 -5 -21 6 -10 16 15 45 16 54 2 3 -6 3 -19 0 -30 -8 -25 -50 -27
-60 -2 -6 16 -7 16 -16 0 -15 -27 -28 -22 -45 17 -17 40 -17 45 -5 45 5 0 13
-9 16 -20z m315 0 c0 -17 3 -18 19 -9 26 17 53 4 49 -23 -3 -27 -46 -38 -59
-16 -7 10 -9 10 -9 1 0 -7 -4 -13 -10 -13 -5 0 -10 18 -10 40 0 22 5 40 10 40
6 0 10 -9 10 -20z m6138 13 c-32 -5 -38 -23 -8 -23 11 0 20 -4 20 -10 0 -5 -9
-10 -20 -10 -30 0 -24 -18 8 -23 25 -4 25 -4 -5 -6 -32 -1 -33 0 -33 39 0 39
1 40 33 39 30 -2 30 -2 5 -6z m134 -21 c-16 -5 -15 -39 1 -45 7 -4 6 -6 -4 -6
-11 -1 -18 9 -21 29 -5 35 -2 41 20 32 10 -4 12 -7 4 -10z m-6352 -19 c0 -12
5 -23 10 -23 6 0 10 11 10 25 0 14 5 25 10 25 6 0 10 -13 10 -30 0 -26 -4 -30
-26 -30 -17 0 -28 6 -31 19 -5 21 -39 35 -49 20 -8 -14 6 -31 22 -25 8 3 14 1
14 -4 0 -17 -47 -11 -54 6 -10 25 12 43 50 42 29 -1 34 -5 34 -25z m210 16 c0
-6 -8 -8 -17 -5 -17 6 -17 5 0 -8 25 -19 21 -36 -8 -36 -14 0 -25 4 -25 10 0
5 8 7 18 4 16 -5 16 -5 0 6 -27 17 -22 40 7 40 14 0 25 -5 25 -11z m6099 -21
c-1 -30 -2 -30 -8 -9 -9 34 -31 39 -31 7 0 -14 -4 -26 -10 -26 -5 0 -10 14
-10 30 0 27 3 30 30 30 27 0 30 -3 29 -32z m94 25 c-7 -2 -13 -16 -13 -29 0
-13 -4 -24 -10 -24 -5 0 -10 14 -10 30 0 25 4 30 23 29 12 0 16 -3 10 -6z m65
-25 c3 -25 0 -28 -27 -28 -37 0 -41 21 -8 39 12 6 14 9 5 7 -10 -3 -18 -1 -18
5 0 6 10 9 23 7 16 -2 23 -11 25 -30z m45 25 c-7 -2 -13 -16 -13 -29 0 -13 -4
-24 -10 -24 -5 0 -10 14 -10 30 0 25 4 30 23 29 12 0 16 -3 10 -6z"/>
<path d="M13548 8909 c-21 -12 -23 -40 -6 -57 14 -14 48 -16 48 -4 0 5 -10 8
-22 8 -14 -1 -24 6 -26 18 -4 21 16 38 36 31 7 -3 10 0 7 5 -8 12 -15 12 -37
-1z"/>
<path d="M14047 8904 c-9 -9 9 -58 21 -60 7 -1 8 0 2 3 -14 7 -13 40 2 45 8 3
6 6 -4 10 -9 4 -18 4 -21 2z"/>
<path d="M13611 8866 c1 -21 3 -25 6 -11 3 11 9 25 14 31 5 7 3 11 -6 11 -10
0 -15 -10 -14 -31z"/>
<path d="M13662 8870 c0 -19 2 -27 5 -17 2 9 2 25 0 35 -3 9 -5 1 -5 -18z"/>
<path d="M13712 8886 c7 -8 15 -12 17 -11 5 6 -10 25 -20 25 -5 0 -4 -6 3 -14z"/>
<path d="M13761 8866 c1 -21 3 -25 6 -11 3 11 9 25 14 31 5 7 3 11 -6 11 -10
0 -15 -10 -14 -31z"/>
<path d="M13840 8885 c-15 -18 3 -45 29 -44 10 0 8 4 -7 10 -26 10 -25 35 1
33 9 -1 14 2 11 7 -8 13 -20 11 -34 -6z"/>
<path d="M13904 8885 c-13 -32 23 -63 40 -36 4 5 -3 7 -14 4 -16 -4 -20 0 -20
17 0 17 4 21 20 17 11 -3 18 -1 14 4 -8 14 -34 11 -40 -6z"/>
<path d="M13971 8865 c1 -29 1 -29 8 -5 4 15 14 24 24 24 9 -1 14 2 12 6 -3 5
-14 8 -25 7 -16 -1 -20 -8 -19 -32z"/>
<path d="M14113 8894 c21 -7 23 -44 1 -44 -8 0 -12 5 -9 10 3 6 1 10 -5 10
-21 0 -4 -25 19 -28 19 -3 22 0 19 25 -2 19 -9 28 -23 30 -16 1 -16 1 -2 -3z"/>
<path d="M13690 8858 c0 -11 8 -18 20 -18 11 0 20 5 20 11 0 5 -5 7 -11 3 -6
-3 -15 0 -20 7 -7 11 -9 10 -9 -3z"/>
<path d="M4600 8900 c0 -5 5 -10 10 -10 6 0 10 5 10 10 0 6 -4 10 -10 10 -5 0
-10 -4 -10 -10z"/>
<path d="M5000 8910 c0 -16 5 -21 23 -18 12 2 22 10 22 18 0 8 -10 16 -22 18
-18 3 -23 -2 -23 -18z"/>
<path d="M4896 8903 c-3 -4 -6 -15 -6 -25 0 -24 33 -21 38 3 3 17 -21 33 -32
22z"/>
<path d="M5415 8900 c-3 -5 1 -10 10 -10 9 0 13 5 10 10 -3 6 -8 10 -10 10 -2
0 -7 -4 -10 -10z"/>
<path d="M5418 8863 c7 -3 16 -2 19 1 4 3 -2 6 -13 5 -11 0 -14 -3 -6 -6z"/>
<path d="M5722 8897 c-14 -17 2 -42 22 -34 20 8 20 21 2 36 -10 8 -16 8 -24
-2z"/>
<path d="M5901 8900 c-17 -10 -7 -40 14 -40 8 0 15 9 15 19 0 24 -12 32 -29
21z"/>
<path d="M6745 8880 c-7 -12 2 -30 16 -30 12 0 12 27 0 35 -5 3 -12 1 -16 -5z"/>
<path d="M5261 7821 c-1 -30 -3 -32 -18 -20 -13 10 -13 8 2 -10 20 -23 20 -23
23 -2 2 11 1 31 -1 44 -3 15 -5 12 -6 -12z"/>
<path d="M5523 7838 c-5 -7 -6 -26 -2 -43 l7 -30 1 28 c0 15 1 30 0 33 0 4 5
11 13 15 8 5 9 9 2 9 -6 0 -16 -6 -21 -12z"/>
<path d="M5943 7810 c0 -25 2 -35 4 -22 2 12 2 32 0 45 -2 12 -4 2 -4 -23z"/>
<path d="M9705 7835 c-50 -18 -100 -71 -114 -122 -14 -50 -14 -163 0 -163 44
0 158 27 178 42 34 26 154 26 173 0 7 -11 22 -20 33 -22 37 -5 188 -2 328 9
153 11 181 21 192 71 9 40 -18 98 -48 104 -12 2 -49 9 -83 15 -33 6 -71 11
-85 11 -33 0 -69 26 -69 51 0 18 -9 19 -232 19 -174 -1 -243 -4 -273 -15z"/>
<path d="M10796 7828 c4 -13 37 -51 73 -86 53 -51 71 -62 91 -59 14 3 33 1 42
-4 13 -7 38 -3 84 11 36 11 78 20 93 20 34 1 68 28 76 63 6 21 4 27 -9 27 -8
0 -18 11 -22 25 l-6 25 -215 0 -214 0 7 -22z"/>
<path d="M5070 7825 c-10 -12 -10 -18 0 -30 7 -8 18 -15 25 -15 7 0 18 7 25
15 10 12 10 18 0 30 -7 8 -18 15 -25 15 -7 0 -18 -7 -25 -15z"/>
<path d="M5201 7803 c2 -31 3 -33 6 -10 2 15 9 27 14 27 6 0 7 5 4 10 -13 22
-25 8 -24 -27z"/>
<path d="M5328 7812 c9 -10 19 -17 21 -16 6 5 -20 34 -30 34 -5 0 -1 -8 9 -18z"/>
<path d="M5562 7800 c0 -19 2 -27 5 -17 2 9 2 25 0 35 -3 9 -5 1 -5 -18z"/>
<path d="M5638 7812 c9 -10 19 -17 21 -16 6 5 -20 34 -30 34 -5 0 -1 -8 9 -18z"/>
<path d="M5678 7823 c7 -3 16 -2 19 1 4 3 -2 6 -13 5 -11 0 -14 -3 -6 -6z"/>
<path d="M5736 7823 c6 -4 14 -15 17 -23 5 -11 6 -9 4 4 -1 11 -9 21 -17 23
-10 3 -11 2 -4 -4z"/>
<path d="M5815 7819 c-4 -6 -4 -13 -1 -16 3 -4 6 -1 6 5 0 6 8 13 18 15 15 4
15 5 0 6 -9 0 -20 -4 -23 -10z"/>
<path d="M5874 7816 c-9 -23 3 -46 23 -45 17 1 17 2 1 6 -21 5 -24 43 -4 43 8
0 17 -5 19 -10 3 -6 4 -5 3 2 -4 19 -35 22 -42 4z"/>
<path d="M5974 7816 c-9 -23 3 -46 23 -45 17 1 17 2 1 6 -21 5 -24 43 -4 43 8
0 17 -5 19 -10 3 -6 4 -5 3 2 -4 19 -35 22 -42 4z"/>
<path d="M6046 7821 c-4 -5 3 -7 14 -4 23 6 26 13 6 13 -8 0 -17 -4 -20 -9z"/>
<path d="M6168 7812 c9 -10 19 -17 21 -16 6 5 -20 34 -30 34 -5 0 -1 -8 9 -18z"/>
<path d="M6236 7823 c7 -4 14 -19 17 -33 4 -22 5 -21 4 4 -1 17 -9 31 -17 33
-10 3 -11 2 -4 -4z"/>
<path d="M6355 7820 c-3 -6 1 -7 9 -4 18 7 21 14 7 14 -6 0 -13 -4 -16 -10z"/>
<path d="M6443 7824 c9 -3 17 -15 17 -26 0 -15 -5 -19 -20 -15 -11 3 -18 1
-14 -4 3 -5 14 -9 25 -9 29 0 23 54 -6 57 -16 1 -16 1 -2 -3z"/>
<path d="M5294 7790 c1 -8 10 -16 21 -17 15 -1 15 0 3 3 -9 3 -19 11 -21 17
-2 7 -3 5 -3 -3z"/>
<path d="M5383 7795 c-7 -8 -9 -16 -4 -19 5 -3 12 1 15 10 8 22 4 25 -11 9z"/>
<path d="M5462 7790 c0 -14 2 -19 5 -12 2 6 2 18 0 25 -3 6 -5 1 -5 -13z"/>
<path d="M5604 7790 c1 -8 10 -16 21 -17 15 -1 15 0 3 3 -9 3 -19 11 -21 17
-2 7 -3 5 -3 -3z"/>
<path d="M6134 7790 c1 -8 10 -16 21 -17 15 -1 15 0 3 3 -9 3 -19 11 -21 17
-2 7 -3 5 -3 -3z"/>
<path d="M6322 7790 c0 -14 2 -19 5 -12 2 6 2 18 0 25 -3 6 -5 1 -5 -13z"/>
<path d="M5420 7787 c0 -10 8 -17 18 -17 9 0 13 4 7 8 -5 4 -13 11 -17 16 -5
5 -8 2 -8 -7z"/>
<path d="M5844 7792 c5 -8 -1 -12 -16 -13 -18 -1 -19 -2 -4 -6 23 -6 43 12 25
22 -8 5 -10 4 -5 -3z"/>
<path d="M6280 7787 c0 -10 8 -17 18 -17 9 0 13 4 7 8 -5 4 -13 11 -17 16 -5
5 -8 2 -8 -7z"/>
<path d="M6048 7778 c5 -5 16 -8 23 -6 8 3 3 7 -10 11 -17 4 -21 3 -13 -5z"/>
<path d="M6357 7778 c2 -5 10 -8 18 -8 8 0 16 3 18 8 3 4 -5 7 -18 7 -13 0
-21 -3 -18 -7z"/>
<path d="M5728 7773 c7 -3 16 -2 19 1 4 3 -2 6 -13 5 -11 0 -14 -3 -6 -6z"/>
<path d="M4970 7325 l0 -135 100 0 100 0 0 25 c0 24 -2 25 -70 25 l-70 0 0 30
0 30 60 0 c57 0 60 1 60 25 0 24 -3 25 -60 25 l-60 0 0 30 0 30 71 0 c67 0 70
1 67 23 -3 21 -8 22 -100 25 l-98 3 0 -136z"/>
<path d="M6240 7419 c0 -12 -8 -23 -20 -26 -11 -3 -20 -14 -20 -24 0 -12 7
-19 20 -19 18 0 20 -7 20 -63 0 -75 16 -97 72 -97 41 0 48 5 41 31 -4 13 -11
18 -21 14 -26 -10 -42 15 -42 66 0 46 2 49 25 49 33 0 35 37 3 42 -15 2 -24
11 -26 26 -5 31 -52 32 -52 1z"/>
<path d="M5315 7391 c-11 -5 -37 -6 -57 -3 l-38 5 0 -102 0 -101 30 0 30 0 0
63 c0 51 4 68 20 82 17 15 24 16 45 7 23 -11 25 -17 25 -82 l0 -70 30 0 30 0
0 70 c0 80 -12 113 -47 129 -27 13 -40 13 -68 2z"/>
<path d="M5532 7385 c-39 -17 -66 -73 -57 -116 16 -72 123 -105 181 -55 l28
23 -23 13 c-17 8 -26 9 -34 1 -6 -6 -26 -11 -44 -11 -26 0 -36 6 -45 26 -24
53 39 108 81 70 15 -14 20 -14 37 -1 19 14 19 14 -2 35 -27 27 -81 34 -122 15z"/>
<path d="M5773 7393 c-65 -13 -95 -116 -50 -168 48 -56 160 -41 187 25 34 83
-43 163 -137 143z m69 -60 c20 -18 24 -63 6 -81 -17 -17 -63 -15 -78 3 -18 22
-15 66 6 82 24 17 44 16 66 -4z"/>
<path d="M6055 7391 c-11 -5 -37 -6 -57 -3 l-38 5 0 -102 0 -101 30 0 30 0 0
65 c0 58 2 66 26 82 43 28 58 9 62 -76 l3 -71 29 0 30 0 0 74 c0 90 -4 103
-41 121 -31 17 -44 17 -74 6z"/>
<path d="M6478 7386 c-16 -8 -28 -11 -28 -5 0 5 -11 9 -25 9 l-25 0 0 -100 0
-100 25 0 c24 0 25 3 25 53 0 59 20 97 51 97 14 0 19 7 19 30 0 34 -4 36 -42
16z"/>
<path d="M6602 7385 c-39 -17 -66 -72 -57 -116 4 -16 21 -40 38 -55 27 -23 38
-26 84 -22 63 6 85 21 62 43 -12 12 -22 14 -42 6 -31 -12 -71 0 -80 23 -6 14
5 16 75 16 l81 0 -7 32 c-8 40 -23 58 -63 75 -40 16 -49 16 -91 -2z m86 -47
c22 -22 13 -28 -38 -28 -48 0 -50 1 -40 20 12 23 59 27 78 8z"/>
<path d="M6952 7385 c-39 -17 -66 -72 -57 -116 16 -73 123 -105 183 -54 58 48
46 142 -22 170 -43 18 -62 18 -104 0z m94 -61 c13 -19 15 -32 8 -52 -8 -23
-15 -27 -49 -27 -34 0 -41 4 -49 27 -12 35 14 78 49 78 15 0 31 -10 41 -26z"/>
<path d="M7312 7385 c-39 -17 -66 -73 -57 -116 16 -72 123 -105 181 -55 l28
23 -23 13 c-17 8 -26 9 -34 1 -6 -6 -26 -11 -44 -11 -26 0 -36 6 -45 26 -24
53 39 108 81 70 15 -14 20 -14 37 -1 19 14 19 14 -2 35 -27 27 -81 34 -122 15z"/>
<path d="M7528 7389 c-28 -11 -34 -24 -20 -46 5 -8 13 -9 22 -3 32 20 90 6 90
-22 0 -4 -20 -8 -45 -8 -79 0 -120 -66 -67 -107 20 -16 84 -17 100 -1 9 9 12
9 12 0 0 -7 14 -12 31 -12 l32 0 -5 81 c-4 61 -9 85 -24 99 -23 23 -89 33
-126 19z m92 -122 c0 -20 -22 -37 -47 -37 -27 0 -42 28 -22 41 22 13 69 11 69
-4z"/>
<path d="M7818 7386 c-16 -8 -28 -11 -28 -5 0 5 -13 9 -30 9 l-30 0 0 -100 0
-100 30 0 c30 0 30 0 30 56 0 68 13 94 45 94 21 0 25 5 25 30 0 34 -4 36 -42
16z"/>
<path d="M7978 7386 c-16 -8 -28 -11 -28 -5 0 5 -11 9 -25 9 l-25 0 0 -100 0
-100 30 0 30 0 0 63 c0 65 11 87 42 87 13 0 18 8 18 30 0 34 -4 36 -42 16z"/>
<path d="M8102 7385 c-39 -17 -66 -72 -57 -116 16 -73 123 -105 183 -54 58 48
46 142 -22 170 -43 18 -62 18 -104 0z m94 -61 c13 -19 15 -32 8 -52 -8 -23
-15 -27 -49 -27 -34 0 -41 4 -49 27 -12 35 14 78 49 78 15 0 31 -10 41 -26z"/>
<path d="M13875 7360 c-12 -4 -27 -15 -34 -24 -17 -20 -64 -42 -108 -51 -38
-8 -41 -15 -13 -40 21 -19 27 -69 10 -80 -5 -3 -49 -8 -97 -11 -226 -12 -336
-52 -320 -116 4 -14 0 -30 -12 -43 -53 -57 -22 -91 95 -104 81 -10 94 -15 77
-32 -8 -8 -25 -8 -55 -2 -23 5 -74 8 -113 6 -128 -7 -170 -36 -103 -71 18 -9
47 -31 63 -48 17 -17 41 -36 53 -43 12 -6 22 -19 22 -29 0 -10 -3 -13 -8 -7
-20 28 -166 68 -217 61 -64 -10 -90 -56 -31 -56 29 0 106 -55 106 -76 0 -9 -6
-14 -12 -11 -7 2 -12 9 -11 15 3 11 -93 26 -152 23 -50 -3 -70 -28 -66 -85 1
-22 7 -45 12 -50 5 -6 9 -24 9 -41 0 -17 4 -35 8 -40 5 -6 15 -26 22 -45 7
-19 43 -98 81 -175 37 -77 70 -152 74 -167 9 -45 25 -32 25 21 0 28 5 53 11
56 6 4 10 19 9 33 -4 49 -1 56 14 43 9 -8 16 -8 20 -2 10 16 36 1 36 -20 0
-21 15 -25 26 -8 10 18 22 -9 30 -68 4 -35 11 -53 20 -53 8 0 14 5 14 11 0 6
6 9 14 6 20 -8 26 14 26 86 0 66 -10 106 -45 182 -13 28 -25 59 -28 70 -3 11
-8 29 -12 40 -6 17 -4 17 14 -4 12 -13 21 -29 21 -37 0 -14 35 -38 60 -40 52
-4 70 -26 70 -86 0 -46 37 -118 60 -118 24 0 24 11 10 148 -8 72 -7 99 3 118
l13 24 35 -48 c20 -26 39 -57 43 -69 9 -29 34 -49 46 -37 17 17 18 77 2 111
-13 28 -14 44 -3 130 12 87 11 101 -3 128 -20 38 -20 65 -1 65 8 0 15 -6 15
-12 0 -7 16 -30 34 -50 34 -38 76 -51 76 -23 0 8 4 15 9 15 5 0 11 10 15 22 5
21 7 22 22 6 9 -9 19 -39 22 -67 2 -28 9 -54 13 -57 5 -3 9 179 9 415 0 232
-1 421 -2 420 -2 0 -12 -4 -23 -9z m-342 -314 c8 -19 -46 -29 -78 -14 -39 17
-30 28 24 28 32 0 51 -5 54 -14z m12 -196 c4 -6 -5 -10 -19 -10 -14 0 -26 5
-26 10 0 6 9 10 19 10 11 0 23 -4 26 -10z"/>
<path d="M12630 7335 c0 -8 -4 -15 -10 -15 -5 0 -10 5 -10 10 0 6 -15 10 -32
9 -18 0 -27 -3 -20 -6 6 -2 12 -11 12 -18 0 -17 60 -35 113 -35 40 0 42 4 27
44 -8 21 -16 26 -45 26 -24 0 -35 -5 -35 -15z"/>
<path d="M12037 7203 c-4 -3 -7 -19 -7 -34 0 -15 -4 -29 -9 -31 -4 -1 -24 -28
-44 -58 -29 -46 -34 -62 -30 -95 12 -102 13 -100 -36 -98 l-43 2 8 -32 c13
-53 9 -98 -9 -109 -23 -12 -21 -28 3 -28 14 0 20 -7 20 -21 0 -13 10 -23 30
-30 17 -6 30 -18 30 -27 0 -14 2 -15 9 -2 6 8 7 18 5 22 -7 11 10 10 56 -4 44
-14 53 -28 18 -28 -22 -1 -22 -1 3 -15 15 -8 29 -21 33 -30 3 -8 14 -15 25
-15 37 0 49 -48 26 -102 -5 -13 -2 -18 10 -18 9 0 13 5 10 10 -3 6 -1 10 4 10
6 0 11 8 12 18 0 10 7 3 17 -18 21 -46 29 -16 8 33 -10 26 -11 37 -3 40 7 2 3
17 -12 43 -34 56 -35 138 -2 165 25 21 21 25 -10 9 -24 -13 -25 -2 -1 16 20
16 82 19 82 4 0 -5 -10 -10 -22 -10 l-23 -1 20 -17 c12 -9 24 -25 28 -34 3
-10 10 -18 15 -18 14 0 7 122 -8 150 -9 18 -10 25 -1 28 18 6 13 20 -26 63
-30 33 -34 42 -22 50 10 6 8 9 -11 9 -25 -1 -60 -21 -60 -35 0 -4 -11 -20 -25
-36 -28 -34 -24 -43 -48 92 l-14 76 26 -6 c34 -8 71 -33 71 -47 0 -6 7 -17 16
-25 18 -15 30 -2 40 41 3 14 9 32 14 41 9 18 3 56 -13 77 -24 31 -127 -4 -127
-44 0 -8 -5 -14 -11 -14 -11 0 -8 35 6 73 7 17 -14 25 -28 10z"/>
<path d="M6033 7093 c-18 -7 -16 -50 3 -57 19 -7 54 10 54 27 0 27 -28 42 -57
30z"/>
<path d="M11782 7059 c-37 -40 -39 -50 -12 -67 11 -7 20 -19 20 -28 0 -11 6
-14 22 -8 29 9 47 33 48 61 0 15 5 21 14 17 16 -6 27 18 17 35 -4 6 -23 14
-43 17 -30 5 -39 2 -66 -27z"/>
<path d="M5668 7063 c-9 -10 -19 -28 -22 -40 -4 -13 -14 -23 -22 -23 -19 0
-18 -39 1 -46 11 -5 15 -24 15 -80 l0 -74 30 0 30 0 0 75 c0 73 1 75 25 75 20
0 25 5 25 25 0 20 -5 25 -26 25 -36 0 -29 34 9 38 19 2 27 9 27 23 0 15 -7 19
-38 19 -25 0 -45 -7 -54 -17z"/>
<path d="M6150 7025 c0 -16 -6 -25 -15 -25 -8 0 -15 -9 -15 -20 0 -11 7 -20
15 -20 12 0 15 -13 15 -60 0 -47 4 -64 20 -80 21 -21 84 -28 94 -11 11 17 -6
40 -27 38 -20 -2 -22 3 -25 56 -3 55 -2 57 23 57 18 0 25 5 25 20 0 15 -7 20
-25 20 -20 0 -25 5 -25 25 0 21 -5 25 -30 25 -25 0 -30 -4 -30 -25z"/>
<path d="M5051 7001 c-7 -5 -31 -6 -52 -4 l-39 6 0 -137 0 -136 30 0 c29 0 30
2 30 45 0 42 2 45 19 35 34 -18 78 -11 110 16 26 22 31 33 31 71 0 57 -14 81
-55 99 -39 16 -54 17 -74 5z m68 -72 c13 -24 13 -29 -2 -53 -22 -32 -71 -36
-87 -7 -36 69 51 128 89 60z"/>
<path d="M5272 6995 c-39 -17 -66 -72 -57 -116 4 -16 21 -40 38 -55 27 -23 38
-26 84 -22 63 6 85 21 62 43 -12 12 -22 14 -42 6 -31 -12 -71 0 -80 23 -6 14
5 16 75 16 l81 0 -7 32 c-8 40 -23 58 -63 75 -40 16 -49 16 -91 -2z m86 -47
c22 -22 13 -28 -38 -28 -48 0 -50 1 -40 20 12 23 59 27 78 8z"/>
<path d="M5565 7001 c-11 -5 -37 -6 -57 -3 l-38 5 0 -102 0 -101 30 0 30 0 0
63 c0 68 10 87 47 87 19 0 23 5 23 30 0 32 -3 33 -35 21z"/>
<path d="M5824 6995 c-57 -29 -73 -112 -31 -161 19 -22 34 -28 78 -31 38 -3
60 0 74 11 18 13 19 16 4 31 -13 13 -21 14 -40 5 -30 -14 -79 2 -79 25 0 12
14 15 75 15 73 0 75 1 75 25 0 14 -12 38 -27 55 -34 38 -85 47 -129 25z m90
-51 c9 -8 16 -17 16 -20 0 -2 -22 -4 -50 -4 -36 0 -50 4 -50 14 0 28 60 35 84
10z"/>
<path d="M6363 7003 c-65 -13 -95 -116 -50 -168 48 -56 160 -41 187 25 34 83
-43 163 -137 143z m69 -60 c20 -18 24 -63 6 -81 -17 -17 -63 -15 -78 3 -18 22
-15 66 6 82 24 17 44 16 66 -4z"/>
<path d="M6757 7003 c-4 -3 -27 -5 -52 -5 l-45 2 0 -135 0 -135 30 0 c29 0 30
1 30 47 0 37 3 44 12 35 7 -7 29 -12 51 -12 55 0 97 43 97 100 0 22 -7 51 -16
65 -20 31 -89 56 -107 38z m44 -53 c13 -7 19 -21 19 -43 0 -40 -15 -57 -50
-57 -14 0 -31 5 -38 12 -17 17 -15 58 5 80 18 20 36 23 64 8z"/>
<path d="M6953 6999 c-35 -10 -38 -16 -24 -37 5 -9 17 -11 34 -6 35 8 77 -3
77 -20 0 -9 -17 -15 -50 -18 -59 -6 -80 -21 -80 -59 0 -48 69 -76 121 -49 13
7 19 7 19 0 0 -5 11 -10 25 -10 25 0 25 1 25 78 -1 84 -10 105 -54 122 -32 12
-49 12 -93 -1z m85 -131 c-2 -17 -11 -24 -32 -26 -35 -4 -53 18 -29 36 9 6 28
12 41 12 19 0 23 -5 20 -22z"/>
<path d="M7238 6996 c-16 -8 -28 -11 -28 -5 0 5 -11 9 -25 9 l-25 0 0 -100 0
-100 30 0 30 0 0 63 c0 65 11 87 42 87 13 0 18 8 18 30 0 34 -4 36 -42 16z"/>
<path d="M7338 6999 c-28 -11 -34 -24 -20 -46 5 -8 13 -9 22 -3 21 14 64 12
78 -2 21 -21 13 -28 -31 -28 -23 0 -53 -7 -65 -16 -27 -19 -29 -64 -4 -87 22
-20 83 -22 100 -5 9 9 12 9 12 0 0 -7 14 -12 31 -12 l31 0 -4 80 c-2 64 -7 84
-24 101 -25 24 -87 33 -126 18z m92 -122 c0 -20 -21 -37 -46 -37 -31 0 -41 20
-19 37 24 17 65 17 65 0z"/>
<path d="M7688 6999 c-28 -11 -34 -24 -20 -46 5 -8 13 -9 22 -3 32 20 90 6 90
-22 0 -4 -20 -8 -45 -8 -79 0 -120 -66 -67 -107 20 -16 84 -17 100 -1 9 9 12
9 12 0 0 -7 14 -12 31 -12 l32 0 -5 81 c-4 61 -9 85 -24 99 -23 23 -89 33
-126 19z m92 -122 c0 -20 -22 -37 -47 -37 -27 0 -42 28 -22 41 22 13 69 11 69
-4z"/>
<path d="M12330 6995 c-8 -10 -10 -19 -4 -25 5 -5 14 1 21 16 12 27 2 32 -17
9z"/>
<path d="M6020 6900 l0 -100 30 0 30 0 0 100 0 100 -30 0 -30 0 0 -100z"/>
<path d="M11714 6946 c-3 -7 -24 -17 -47 -21 -34 -6 -38 -8 -22 -15 30 -12
118 -193 113 -231 -3 -20 0 -33 9 -36 7 -3 13 -11 13 -19 0 -8 6 -14 13 -14
29 0 50 -37 43 -75 -7 -37 8 -50 19 -15 9 27 21 25 56 -9 16 -16 29 -25 29
-19 0 5 -39 89 -86 186 -47 98 -93 201 -102 229 -17 53 -28 65 -38 39z"/>
<path d="M12355 6870 c-16 -31 -21 -120 -6 -120 19 0 59 41 64 66 3 18 1 22
-6 15 -19 -19 -23 -12 -20 29 4 47 -10 52 -32 10z"/>
<path d="M5873 6713 c-18 -7 -16 -50 3 -57 19 -7 54 10 54 27 0 27 -28 42 -57
30z"/>
<path d="M8001 6701 c-8 -15 -7 -23 5 -35 19 -20 25 -20 50 -2 15 12 17 18 8
33 -16 26 -50 28 -63 4z"/>
<path d="M5485 6680 c-27 -29 -28 -30 -7 -30 12 0 36 13 54 30 l33 29 -26 1
c-15 0 -36 -12 -54 -30z"/>
<path d="M8330 6649 c0 -12 -8 -23 -20 -26 -11 -3 -20 -14 -20 -24 0 -12 7
-19 20 -19 18 0 20 -7 20 -63 0 -75 16 -97 72 -97 41 0 48 5 41 31 -4 13 -11
18 -21 14 -26 -10 -42 15 -42 66 0 46 2 49 25 49 33 0 35 37 3 42 -15 2 -24
11 -26 26 -5 31 -52 32 -52 1z"/>
<path d="M11607 6626 c-4 -9 -1 -16 6 -16 18 0 82 -75 84 -100 2 -25 32 -74
40 -66 9 8 32 -26 33 -46 0 -10 8 -18 18 -18 9 0 35 -17 57 -36 l39 -36 29 32
28 32 -57 34 c-76 46 -186 136 -233 192 -30 34 -39 41 -44 28z"/>
<path d="M5051 6621 c-7 -5 -31 -6 -52 -4 l-39 6 0 -137 0 -136 30 0 c29 0 30
2 30 45 0 42 2 45 19 35 34 -18 78 -11 110 16 26 22 31 33 31 71 0 57 -14 81
-55 99 -39 16 -54 17 -74 5z m68 -72 c13 -24 13 -29 -2 -53 -22 -32 -71 -36
-87 -7 -36 69 51 128 89 60z"/>
<path d="M5308 6616 c-16 -8 -28 -11 -28 -5 0 5 -11 9 -25 9 l-25 0 0 -100 0
-100 30 0 30 0 0 63 c0 65 11 87 42 87 13 0 18 8 18 30 0 34 -4 36 -42 16z"/>
<path d="M5453 6623 c-65 -13 -95 -116 -50 -168 48 -56 160 -41 187 25 34 83
-43 163 -137 143z m69 -60 c20 -18 24 -63 6 -81 -17 -17 -63 -15 -78 3 -18 22
-15 66 6 82 24 17 44 16 66 -4z"/>
<path d="M6071 6621 c-7 -5 -31 -6 -52 -4 l-39 6 0 -102 0 -101 30 0 30 0 0
64 c0 65 14 96 44 96 26 0 36 -26 36 -92 l0 -68 30 0 c30 0 30 0 30 58 0 85
35 126 74 86 11 -11 16 -35 16 -80 l0 -64 31 0 32 0 -5 80 c-3 57 -10 85 -22
99 -26 28 -70 35 -106 17 -26 -13 -34 -13 -58 0 -31 16 -51 17 -71 5z"/>
<path d="M6413 6619 c-18 -5 -33 -13 -33 -17 1 -20 20 -29 65 -28 38 1 50 -3
53 -15 2 -13 -8 -17 -49 -21 -54 -6 -79 -24 -79 -60 0 -45 72 -74 121 -48 13
7 19 7 19 0 0 -5 11 -10 25 -10 24 0 25 2 25 76 0 88 -8 108 -51 123 -37 13
-52 13 -96 0z m85 -131 c-2 -18 -11 -24 -35 -26 -27 -3 -33 0 -33 17 0 21 12
29 48 30 19 1 23 -4 20 -21z"/>
<path d="M6772 6615 c-39 -17 -66 -73 -57 -116 16 -72 123 -105 181 -55 l28
23 -23 13 c-17 8 -26 9 -34 1 -6 -6 -26 -11 -44 -11 -26 0 -36 6 -45 26 -24
53 39 108 81 70 15 -14 20 -14 37 -1 19 14 19 14 -2 35 -27 27 -81 34 -122 15z"/>
<path d="M7004 6616 c-108 -47 -72 -196 47 -196 62 0 108 43 109 100 0 45 -23
78 -66 96 -41 17 -50 17 -90 0z m80 -52 c19 -18 21 -65 4 -82 -7 -7 -24 -12
-38 -12 -33 0 -50 17 -50 51 0 32 23 59 50 59 10 0 26 -7 34 -16z"/>
<path d="M7295 6621 c-11 -5 -37 -6 -57 -3 l-38 5 0 -102 0 -101 30 0 30 0 0
65 c0 58 2 66 26 82 43 28 58 9 62 -76 l3 -71 29 0 30 0 0 74 c0 90 -4 103
-41 121 -31 17 -44 17 -74 6z"/>
<path d="M7513 6616 c-39 -18 -53 -43 -53 -96 0 -57 42 -100 97 -100 22 0 44
5 51 12 9 9 12 2 12 -35 0 -46 1 -47 30 -47 l30 0 0 135 0 136 -42 -1 c-24 -1
-54 1 -68 4 -14 3 -39 0 -57 -8z m89 -53 c20 -18 24 -63 6 -81 -17 -17 -63
-15 -78 3 -18 22 -15 66 6 82 24 17 44 16 66 -4z"/>
<path d="M8143 6616 c-56 -25 -56 -88 0 -104 18 -6 45 -13 61 -17 27 -6 28 -7
13 -23 -14 -14 -23 -14 -59 -5 -43 12 -57 6 -58 -23 0 -24 104 -33 143 -13 28
15 37 28 37 56 0 27 -31 48 -82 57 -25 5 -38 12 -38 23 0 13 9 15 50 11 38 -4
50 -1 55 10 8 21 -4 30 -50 37 -25 3 -52 0 -72 -9z"/>
<path d="M8513 6619 c-35 -10 -38 -16 -24 -37 5 -9 17 -11 34 -6 35 8 77 -3
77 -20 0 -9 -17 -15 -50 -18 -59 -6 -80 -21 -80 -59 0 -48 69 -76 121 -49 13
7 19 7 19 0 0 -5 11 -10 25 -10 25 0 25 1 25 78 -1 84 -10 105 -54 122 -32 12
-49 12 -93 -1z m85 -131 c-2 -17 -11 -24 -32 -26 -35 -4 -53 18 -29 36 9 6 28
12 41 12 19 0 23 -5 20 -22z"/>
<path d="M11746 6615 c-3 -9 -12 -12 -23 -9 -16 5 -16 4 1 -6 15 -10 20 -9 27
1 9 15 12 29 5 29 -2 0 -6 -7 -10 -15z"/>
<path d="M5654 6571 l36 -49 -40 -51 -40 -51 32 0 c25 0 38 7 53 30 11 16 22
30 25 30 3 0 14 -14 25 -30 16 -23 27 -30 53 -30 l34 0 -36 49 c-20 27 -36 53
-36 57 0 5 14 27 31 49 l30 40 -27 3 c-20 3 -33 -4 -50 -25 -22 -28 -23 -28
-38 -8 -8 11 -16 23 -16 28 0 4 -16 7 -36 7 l-36 0 36 -49z"/>
<path d="M5860 6520 l0 -100 30 0 30 0 0 100 0 100 -30 0 -30 0 0 -100z"/>
<path d="M7740 6540 c0 -69 3 -82 22 -100 24 -22 77 -27 109 -10 13 7 19 7 19
0 0 -5 11 -10 25 -10 l25 0 0 100 0 100 -30 0 -30 0 0 -63 c0 -68 -10 -87 -47
-87 -30 0 -43 28 -43 94 0 53 -1 56 -25 56 -25 0 -25 -1 -25 -80z"/>
<path d="M8000 6520 l0 -100 30 0 30 0 0 100 0 100 -30 0 -30 0 0 -100z"/>
<path d="M13808 6544 c-9 -20 -9 -28 4 -40 13 -13 20 -14 37 -4 28 15 24 50
-7 61 -19 7 -25 4 -34 -17z"/>
<path d="M11951 6514 c0 -11 3 -14 6 -6 3 7 2 16 -1 19 -3 4 -6 -2 -5 -13z"/>
<path d="M8710 6475 c-18 -22 -1 -50 31 -50 20 0 24 5 24 30 0 23 -5 31 -21
33 -11 2 -27 -4 -34 -13z"/>
<path d="M12042 6421 c-9 -6 -11 -22 -7 -57 l7 -49 -85 -33 c-47 -18 -98 -45
-112 -60 l-28 -27 7 -111 c3 -61 10 -133 15 -160 5 -27 12 -69 16 -94 9 -67
34 -159 57 -213 15 -35 32 -54 63 -72 52 -31 81 -31 168 -1 l67 23 5 -21 c2
-12 9 -77 15 -146 15 -160 29 -190 78 -164 14 7 29 11 34 8 16 -10 46 7 57 34
12 27 4 97 -19 167 -19 59 -50 308 -50 401 0 100 -10 134 -38 134 -9 0 -23 12
-29 27 -16 33 -16 46 -3 38 6 -3 10 -2 10 4 0 5 -4 13 -10 16 -5 3 -10 23 -10
43 0 61 -12 113 -27 119 -22 9 -23 1 -12 -67 9 -57 8 -66 -7 -77 -26 -19 -36
-16 -22 6 9 15 6 43 -15 139 -15 66 -27 123 -27 126 0 12 -29 5 -37 -9 -13
-23 -33 -2 -41 43 -5 30 -10 39 -20 33z m75 -126 c0 -8 -4 -12 -9 -9 -5 3 -6
10 -3 15 9 13 12 11 12 -6z m89 -401 c-4 -9 -9 -15 -11 -12 -3 3 -3 13 1 22 4
9 9 15 11 12 3 -3 3 -13 -1 -22z"/>
<path d="M12168 6345 c2 -24 10 -49 18 -56 20 -17 44 -3 44 25 0 27 -16 44
-22 24 -7 -19 -28 1 -28 28 0 13 -3 24 -8 24 -4 0 -6 -20 -4 -45z"/>
<path d="M11770 6364 c0 -6 7 -19 16 -30 14 -18 14 -18 3 6 -14 31 -19 36 -19
24z"/>
<path d="M13629 6109 c-17 -32 4 -46 30 -20 12 12 19 26 16 31 -10 17 -34 11
-46 -11z"/>
<path d="M4957 6093 c-4 -3 -7 -26 -7 -50 l0 -43 38 2 c36 1 36 1 5 5 -31 4
-33 7 -33 43 0 36 2 39 33 43 l32 4 -31 1 c-17 1 -34 -1 -37 -5z"/>
<path d="M5048 6057 c8 -9 10 -22 6 -29 -4 -7 -3 -10 1 -5 5 4 18 -1 29 -10
21 -18 21 -18 3 3 -9 11 -15 23 -12 25 2 3 -6 11 -18 18 -20 13 -21 13 -9 -2z"/>
<path d="M5123 6025 c0 -27 2 -38 4 -22 2 15 2 37 0 50 -2 12 -4 0 -4 -28z"/>
<path d="M5350 6055 c0 -8 2 -15 4 -15 2 0 6 7 10 15 3 8 1 15 -4 15 -6 0 -10
-7 -10 -15z"/>
<path d="M5530 6055 c0 -8 2 -15 4 -15 2 0 6 7 10 15 3 8 1 15 -4 15 -6 0 -10
-7 -10 -15z"/>
<path d="M5625 6059 c-4 -6 -5 -12 -2 -15 2 -3 7 2 10 11 7 17 1 20 -8 4z"/>
<path d="M6174 6055 c-3 -8 -4 -20 -2 -27 3 -7 7 -1 10 15 6 29 1 36 -8 12z"/>
<path d="M6653 6035 c0 -22 2 -30 4 -17 2 12 2 30 0 40 -3 9 -5 -1 -4 -23z"/>
<path d="M6800 6055 c0 -8 2 -15 4 -15 2 0 6 7 10 15 3 8 1 15 -4 15 -6 0 -10
-7 -10 -15z"/>
<path d="M6850 6056 c7 -7 13 -7 20 0 6 6 3 10 -10 10 -13 0 -16 -4 -10 -10z"/>
<path d="M6953 6035 c0 -22 2 -30 4 -17 2 12 2 30 0 40 -3 9 -5 -1 -4 -23z"/>
<path d="M7139 6032 c5 -34 6 -35 9 -8 2 16 0 32 -5 37 -5 5 -7 -7 -4 -29z"/>
<path d="M7275 6059 c-4 -6 -5 -12 -2 -15 2 -3 7 2 10 11 7 17 1 20 -8 4z"/>
<path d="M7355 6059 c-4 -6 -5 -12 -2 -15 2 -3 7 2 10 11 7 17 1 20 -8 4z"/>
<path d="M7499 6032 c5 -34 6 -35 9 -8 2 16 0 32 -5 37 -5 5 -7 -7 -4 -29z"/>
<path d="M7733 6035 c0 -22 2 -30 4 -17 2 12 2 30 0 40 -3 9 -5 -1 -4 -23z"/>
<path d="M8144 6055 c-3 -8 -4 -20 -2 -27 3 -7 7 -1 10 15 6 29 1 36 -8 12z"/>
<path d="M8233 6035 c0 -22 2 -30 4 -17 2 12 2 30 0 40 -3 9 -5 -1 -4 -23z"/>
<path d="M5251 6039 c-1 -21 24 -43 41 -36 8 3 6 6 -5 6 -10 1 -22 11 -27 24
-6 15 -9 17 -9 6z"/>
<path d="M5681 6034 c0 -11 3 -14 6 -6 3 7 2 16 -1 19 -3 4 -6 -2 -5 -13z"/>
<path d="M6392 6025 c0 -16 2 -22 5 -12 2 9 2 23 0 30 -3 6 -5 -1 -5 -18z"/>
<path d="M6421 6039 c-1 -21 24 -43 41 -36 8 3 6 6 -5 6 -10 1 -22 11 -27 24
-6 15 -9 17 -9 6z"/>
<path d="M6912 6025 c0 -16 2 -22 5 -12 2 9 2 23 0 30 -3 6 -5 -1 -5 -18z"/>
<path d="M7411 6034 c0 -11 3 -14 6 -6 3 7 2 16 -1 19 -3 4 -6 -2 -5 -13z"/>
<path d="M8041 6039 c-1 -21 24 -43 41 -36 8 3 6 6 -5 6 -10 1 -22 11 -27 24
-6 15 -9 17 -9 6z"/>
<path d="M8321 6039 c-1 -21 24 -43 41 -36 8 3 6 6 -5 6 -10 1 -22 11 -27 24
-6 15 -9 17 -9 6z"/>
<path d="M6003 6034 c9 -3 17 -9 17 -14 0 -5 -8 -10 -17 -13 -14 -3 -13 -4 2
-3 11 1 20 8 20 16 0 8 -9 16 -20 17 -16 1 -16 1 -2 -3z"/>
<path d="M6058 6008 c6 -6 18 -8 28 -6 14 3 12 5 -9 10 -19 3 -25 2 -19 -4z"/>
<path d="M6348 6008 c5 -5 16 -8 23 -6 8 3 3 7 -10 11 -17 4 -21 3 -13 -5z"/>
<path d="M6595 6010 c-16 -7 -17 -9 -3 -9 9 -1 20 4 23 9 7 11 7 11 -20 0z"/>
<path d="M6718 6008 c6 -6 18 -8 28 -6 14 3 12 5 -9 10 -19 3 -25 2 -19 -4z"/>
<path d="M6998 6008 c5 -5 16 -8 23 -6 8 3 3 7 -10 11 -17 4 -21 3 -13 -5z"/>
<path d="M7675 6010 c-16 -7 -17 -9 -3 -9 9 -1 20 4 23 9 7 11 7 11 -20 0z"/>
<path d="M7797 6008 c2 -5 13 -8 23 -8 10 0 21 3 23 8 3 4 -8 7 -23 7 -15 0
-26 -3 -23 -7z"/>
<path d="M7888 6008 c6 -6 18 -8 28 -6 14 3 12 5 -9 10 -19 3 -25 2 -19 -4z"/>
<path d="M7968 6008 c6 -6 18 -8 28 -6 14 3 12 5 -9 10 -19 3 -25 2 -19 -4z"/>
<path d="M12280 6009 c0 -5 5 -7 10 -4 6 3 10 8 10 11 0 2 -4 4 -10 4 -5 0
-10 -5 -10 -11z"/>
<path d="M5148 6003 c7 -3 16 -2 19 1 4 3 -2 6 -13 5 -11 0 -14 -3 -6 -6z"/>
<path d="M5428 6003 c7 -3 16 -2 19 1 4 3 -2 6 -13 5 -11 0 -14 -3 -6 -6z"/>
<path d="M5648 6003 c7 -3 16 -2 19 1 4 3 -2 6 -13 5 -11 0 -14 -3 -6 -6z"/>
<path d="M5718 6003 c6 -2 18 -2 25 0 6 3 1 5 -13 5 -14 0 -19 -2 -12 -5z"/>
<path d="M5788 6003 c6 -2 18 -2 25 0 6 3 1 5 -13 5 -14 0 -19 -2 -12 -5z"/>
<path d="M5868 6003 c7 -3 16 -2 19 1 4 3 -2 6 -13 5 -11 0 -14 -3 -6 -6z"/>
<path d="M6198 6003 c7 -3 16 -2 19 1 4 3 -2 6 -13 5 -11 0 -14 -3 -6 -6z"/>
<path d="M6288 6003 c7 -3 16 -2 19 1 4 3 -2 6 -13 5 -11 0 -14 -3 -6 -6z"/>
<path d="M7298 6003 c7 -3 16 -2 19 1 4 3 -2 6 -13 5 -11 0 -14 -3 -6 -6z"/>
<path d="M7378 6003 c7 -3 16 -2 19 1 4 3 -2 6 -13 5 -11 0 -14 -3 -6 -6z"/>
<path d="M8168 6003 c7 -3 16 -2 19 1 4 3 -2 6 -13 5 -11 0 -14 -3 -6 -6z"/>
<path d="M8458 6003 c7 -3 16 -2 19 1 4 3 -2 6 -13 5 -11 0 -14 -3 -6 -6z"/>
<path d="M5523 5830 c0 -30 2 -43 4 -27 2 15 2 39 0 55 -2 15 -4 2 -4 -28z"/>
<path d="M5374 5831 c1 -30 6 -46 16 -48 10 -3 11 -2 3 4 -6 4 -13 26 -16 48
-4 40 -4 40 -3 -4z"/>
<path d="M8814 5831 c1 -30 6 -46 16 -48 10 -3 11 -2 3 4 -6 4 -13 26 -16 48
-4 40 -4 40 -3 -4z"/>
<path d="M5133 5815 c0 -22 2 -30 4 -17 2 12 2 30 0 40 -3 9 -5 -1 -4 -23z"/>
<path d="M5229 5812 c5 -34 6 -35 9 -8 2 16 0 32 -5 37 -5 5 -7 -7 -4 -29z"/>
<path d="M5273 5815 c0 -22 2 -30 4 -17 2 12 2 30 0 40 -3 9 -5 -1 -4 -23z"/>
<path d="M5465 5839 c-4 -6 -5 -12 -2 -15 2 -3 7 2 10 11 7 17 1 20 -8 4z"/>
<path d="M6045 5839 c-4 -6 -5 -12 -2 -15 2 -3 7 2 10 11 7 17 1 20 -8 4z"/>
<path d="M6134 5835 c-3 -8 -4 -20 -2 -27 3 -7 7 -1 10 15 6 29 1 36 -8 12z"/>
<path d="M6420 5835 c0 -8 2 -15 4 -15 2 0 6 7 10 15 3 8 1 15 -4 15 -6 0 -10
-7 -10 -15z"/>
<path d="M6470 5836 c7 -7 13 -7 20 0 6 6 3 10 -10 10 -13 0 -16 -4 -10 -10z"/>
<path d="M6864 5835 c-3 -8 -4 -20 -2 -27 3 -7 7 -1 10 15 6 29 1 36 -8 12z"/>
<path d="M7163 5815 c0 -22 2 -30 4 -17 2 12 2 30 0 40 -3 9 -5 -1 -4 -23z"/>
<path d="M7395 5839 c-4 -6 -5 -12 -2 -15 2 -3 7 2 10 11 7 17 1 20 -8 4z"/>
<path d="M7475 5839 c-4 -6 -5 -12 -2 -15 2 -3 7 2 10 11 7 17 1 20 -8 4z"/>
<path d="M7564 5835 c-3 -8 -4 -20 -2 -27 3 -7 7 -1 10 15 6 29 1 36 -8 12z"/>
<path d="M7845 5839 c-4 -6 -5 -12 -2 -15 2 -3 7 2 10 11 7 17 1 20 -8 4z"/>
<path d="M7978 5823 c5 -21 7 -23 10 -9 2 10 0 22 -6 28 -6 6 -7 0 -4 -19z"/>
<path d="M8014 5835 c-3 -8 -4 -20 -2 -27 3 -7 7 -1 10 15 6 29 1 36 -8 12z"/>
<path d="M8183 5815 c0 -22 2 -30 4 -17 2 12 2 30 0 40 -3 9 -5 -1 -4 -23z"/>
<path d="M8451 5801 c0 -33 3 -40 8 -26 5 11 6 26 3 33 -2 7 1 18 7 25 8 10 7
14 -4 14 -11 0 -15 -12 -14 -46z"/>
<path d="M8729 5812 c5 -34 6 -35 9 -8 2 16 0 32 -5 37 -5 5 -7 -7 -4 -29z"/>
<path d="M8865 5839 c-4 -6 -5 -12 -2 -15 2 -3 7 2 10 11 7 17 1 20 -8 4z"/>
<path d="M9013 5815 c0 -22 2 -30 4 -17 2 12 2 30 0 40 -3 9 -5 -1 -4 -23z"/>
<path d="M9193 5815 c0 -22 2 -30 4 -17 2 12 2 30 0 40 -3 9 -5 -1 -4 -23z"/>
<path d="M5612 5805 c0 -16 2 -22 5 -12 2 9 2 23 0 30 -3 6 -5 -1 -5 -18z"/>
<path d="M6101 5814 c0 -11 3 -14 6 -6 3 7 2 16 -1 19 -3 4 -6 -2 -5 -13z"/>
<path d="M6532 5805 c0 -16 2 -22 5 -12 2 9 2 23 0 30 -3 6 -5 -1 -5 -18z"/>
<path d="M6601 5819 c-1 -21 24 -43 41 -36 8 3 6 6 -5 6 -10 1 -22 11 -27 24
-6 15 -9 17 -9 6z"/>
<path d="M6792 5805 c0 -16 2 -22 5 -12 2 9 2 23 0 30 -3 6 -5 -1 -5 -18z"/>
<path d="M7251 5819 c-1 -21 24 -43 41 -36 8 3 6 6 -5 6 -10 1 -22 11 -27 24
-6 15 -9 17 -9 6z"/>
<path d="M7531 5814 c0 -11 3 -14 6 -6 3 7 2 16 -1 19 -3 4 -6 -2 -5 -13z"/>
<path d="M8921 5814 c0 -11 3 -14 6 -6 3 7 2 16 -1 19 -3 4 -6 -2 -5 -13z"/>
<path d="M5185 5810 c-9 -15 4 -30 23 -29 15 1 14 2 -1 6 -11 3 -16 11 -13 19
6 16 0 19 -9 4z"/>
<path d="M6250 5813 c17 -8 11 -21 -12 -26 -20 -5 -20 -5 2 -4 26 2 35 28 12
33 -7 1 -8 0 -2 -3z"/>
<path d="M7680 5813 c17 -8 11 -21 -12 -26 -20 -5 -20 -5 2 -4 26 2 35 28 12
33 -7 1 -8 0 -2 -3z"/>
<path d="M7868 5813 c7 -3 16 -2 19 1 4 3 -2 6 -13 5 -11 0 -14 -3 -6 -6z"/>
<path d="M8685 5810 c-9 -15 4 -30 23 -29 15 1 14 2 -1 6 -11 3 -16 11 -13 19
6 16 0 19 -9 4z"/>
<path d="M5568 5788 c5 -5 16 -8 23 -6 8 3 3 7 -10 11 -17 4 -21 3 -13 -5z"/>
<path d="M6338 5788 c6 -6 18 -8 28 -6 14 3 12 5 -9 10 -19 3 -25 2 -19 -4z"/>
<path d="M6748 5788 c5 -5 16 -8 23 -6 8 3 3 7 -10 11 -17 4 -21 3 -13 -5z"/>
<path d="M6998 5788 c6 -6 18 -8 28 -6 14 3 12 5 -9 10 -19 3 -25 2 -19 -4z"/>
<path d="M7077 5788 c2 -5 13 -8 23 -8 10 0 21 3 23 8 3 4 -8 7 -23 7 -15 0
-26 -3 -23 -7z"/>
<path d="M7768 5788 c6 -6 18 -8 28 -6 14 3 12 5 -9 10 -19 3 -25 2 -19 -4z"/>
<path d="M8240 5790 c-23 -7 -23 -8 -3 -9 12 -1 25 4 28 9 3 6 5 10 3 9 -2 -1
-14 -5 -28 -9z"/>
<path d="M8495 5790 c-16 -7 -17 -9 -3 -9 9 -1 20 4 23 9 7 11 7 11 -20 0z"/>
<path d="M8570 5790 c-23 -7 -23 -8 -3 -9 12 -1 25 4 28 9 3 6 5 10 3 9 -2 -1
-14 -5 -28 -9z"/>
<path d="M5058 5783 c7 -3 16 -2 19 1 4 3 -2 6 -13 5 -11 0 -14 -3 -6 -6z"/>
<path d="M5488 5783 c7 -3 16 -2 19 1 4 3 -2 6 -13 5 -11 0 -14 -3 -6 -6z"/>
<path d="M5798 5783 c7 -3 16 -2 19 1 4 3 -2 6 -13 5 -11 0 -14 -3 -6 -6z"/>
<path d="M5978 5783 c6 -2 18 -2 25 0 6 3 1 5 -13 5 -14 0 -19 -2 -12 -5z"/>
<path d="M6068 5783 c7 -3 16 -2 19 1 4 3 -2 6 -13 5 -11 0 -14 -3 -6 -6z"/>
<path d="M6158 5783 c7 -3 16 -2 19 1 4 3 -2 6 -13 5 -11 0 -14 -3 -6 -6z"/>
<path d="M6888 5783 c7 -3 16 -2 19 1 4 3 -2 6 -13 5 -11 0 -14 -3 -6 -6z"/>
<path d="M7418 5783 c7 -3 16 -2 19 1 4 3 -2 6 -13 5 -11 0 -14 -3 -6 -6z"/>
<path d="M7498 5783 c7 -3 16 -2 19 1 4 3 -2 6 -13 5 -11 0 -14 -3 -6 -6z"/>
<path d="M7588 5783 c7 -3 16 -2 19 1 4 3 -2 6 -13 5 -11 0 -14 -3 -6 -6z"/>
<path d="M7858 5783 c6 -2 18 -2 25 0 6 3 1 5 -13 5 -14 0 -19 -2 -12 -5z"/>
<path d="M7948 5783 c7 -3 16 -2 19 1 4 3 -2 6 -13 5 -11 0 -14 -3 -6 -6z"/>
<path d="M8038 5783 c7 -3 16 -2 19 1 4 3 -2 6 -13 5 -11 0 -14 -3 -6 -6z"/>
<path d="M8128 5783 c7 -3 16 -2 19 1 4 3 -2 6 -13 5 -11 0 -14 -3 -6 -6z"/>
<path d="M8348 5783 c6 -2 18 -2 25 0 6 3 1 5 -13 5 -14 0 -19 -2 -12 -5z"/>
<path d="M8888 5783 c7 -3 16 -2 19 1 4 3 -2 6 -13 5 -11 0 -14 -3 -6 -6z"/>
<path d="M9118 5783 c7 -3 16 -2 19 1 4 3 -2 6 -13 5 -11 0 -14 -3 -6 -6z"/>
<path d="M5023 5598 c1 -23 7 -33 20 -34 11 -1 12 0 3 3 -8 2 -17 17 -20 34
-6 28 -6 28 -3 -3z"/>
<path d="M5242 5588 c-1 -26 -7 -49 -14 -51 -10 -4 -10 -6 0 -6 18 -1 24 20
19 65 -4 38 -4 37 -5 -8z"/>
<path d="M5370 5595 c0 -19 2 -35 4 -35 2 0 6 16 8 35 2 19 0 35 -4 35 -4 0
-8 -16 -8 -35z"/>
<path d="M5479 5592 c5 -34 6 -35 9 -8 2 16 0 32 -5 37 -5 5 -7 -7 -4 -29z"/>
<path d="M5749 5592 c5 -34 6 -35 9 -8 2 16 0 32 -5 37 -5 5 -7 -7 -4 -29z"/>
<path d="M5830 5615 c0 -8 2 -15 4 -15 2 0 6 7 10 15 3 8 1 15 -4 15 -6 0 -10
-7 -10 -15z"/>
<path d="M5880 5616 c7 -7 13 -7 20 0 6 6 3 10 -10 10 -13 0 -16 -4 -10 -10z"/>
<path d="M6300 5595 c0 -19 2 -35 4 -35 2 0 6 16 8 35 2 19 0 35 -4 35 -4 0
-8 -16 -8 -35z"/>
<path d="M6340 5625 c0 -7 30 -13 34 -7 3 4 -4 9 -15 9 -10 1 -19 0 -19 -2z"/>
<path d="M6409 5592 c5 -34 6 -35 9 -8 2 16 0 32 -5 37 -5 5 -7 -7 -4 -29z"/>
<path d="M6623 5595 c0 -22 2 -30 4 -17 2 12 2 30 0 40 -3 9 -5 -1 -4 -23z"/>
<path d="M6753 5595 c0 -22 2 -30 4 -17 2 12 2 30 0 40 -3 9 -5 -1 -4 -23z"/>
<path d="M6809 5592 c5 -34 6 -35 9 -8 2 16 0 32 -5 37 -5 5 -7 -7 -4 -29z"/>
<path d="M6989 5592 c5 -34 6 -35 9 -8 2 16 0 32 -5 37 -5 5 -7 -7 -4 -29z"/>
<path d="M7136 5617 c3 -10 9 -15 12 -12 3 3 0 11 -7 18 -10 9 -11 8 -5 -6z"/>
<path d="M5572 5585 c0 -16 2 -22 5 -12 2 9 2 23 0 30 -3 6 -5 -1 -5 -18z"/>
<path d="M5601 5599 c-1 -21 24 -43 41 -36 8 3 6 6 -5 6 -10 1 -22 11 -27 24
-6 15 -9 17 -9 6z"/>
<path d="M5942 5585 c0 -16 2 -22 5 -12 2 9 2 23 0 30 -3 6 -5 -1 -5 -18z"/>
<path d="M6032 5585 c0 -16 2 -22 5 -12 2 9 2 23 0 30 -3 6 -5 -1 -5 -18z"/>
<path d="M6511 5597 c-1 -10 -11 -22 -23 -27 -16 -6 -18 -9 -7 -9 21 -1 43 24
36 41 -3 8 -6 6 -6 -5z"/>
<path d="M6721 5597 c-1 -10 -11 -22 -23 -27 -16 -6 -18 -9 -7 -9 21 -1 43 24
36 41 -3 8 -6 6 -6 -5z"/>
<path d="M7081 5599 c-1 -22 24 -42 46 -36 14 4 13 5 -5 6 -13 1 -26 10 -32
24 -6 15 -9 17 -9 6z"/>
<path d="M4973 5594 c9 -3 17 -9 17 -14 0 -5 -8 -10 -17 -13 -14 -3 -13 -4 2
-3 11 1 20 8 20 16 0 8 -9 16 -20 17 -16 1 -16 1 -2 -3z"/>
<path d="M5705 5590 c-9 -15 4 -30 23 -29 15 1 14 2 -1 6 -11 3 -16 11 -13 19
6 16 0 19 -9 4z"/>
<path d="M5287 5568 c2 -5 13 -8 23 -8 10 0 21 3 23 8 3 4 -8 7 -23 7 -15 0
-26 -3 -23 -7z"/>
<path d="M5528 5568 c5 -5 16 -8 23 -6 8 3 3 7 -10 11 -17 4 -21 3 -13 -5z"/>
<path d="M5988 5568 c5 -5 16 -8 23 -6 8 3 3 7 -10 11 -17 4 -21 3 -13 -5z"/>
<path d="M6870 5570 c-23 -7 -23 -8 -3 -9 12 -1 25 4 28 9 3 6 5 10 3 9 -2 -1
-14 -5 -28 -9z"/>
<path d="M5128 5563 c7 -3 16 -2 19 1 4 3 -2 6 -13 5 -11 0 -14 -3 -6 -6z"/>
<path d="M6108 5563 c6 -2 18 -2 25 0 6 3 1 5 -13 5 -14 0 -19 -2 -12 -5z"/>
<path d="M6238 5563 c7 -3 16 -2 19 1 4 3 -2 6 -13 5 -11 0 -14 -3 -6 -6z"/>
<path d="M6568 5563 c7 -3 16 -2 19 1 4 3 -2 6 -13 5 -11 0 -14 -3 -6 -6z"/>
<path d="M7048 5563 c7 -3 16 -2 19 1 4 3 -2 6 -13 5 -11 0 -14 -3 -6 -6z"/>
<path d="M5076 5285 c-57 -20 -88 -46 -116 -96 -65 -117 -1 -264 131 -299 24
-7 340 -9 901 -8 851 3 864 3 902 24 85 44 131 143 108 232 -16 58 -56 109
-108 136 -38 21 -51 21 -909 23 -728 2 -876 0 -909 -12z m565 -149 c-9 -10 -8
-15 4 -20 9 -3 15 -18 15 -36 l0 -31 -57 3 c-51 3 -58 6 -64 28 l-7 25 -1 -27
c-1 -27 -2 -27 -66 -27 -70 1 -93 16 -74 51 8 14 22 17 73 16 43 -1 70 3 82
13 13 11 18 11 21 2 5 -14 54 -18 52 -5 -3 16 2 22 17 22 13 0 14 -3 5 -14z
m49 -36 c0 -27 -4 -50 -10 -50 -5 0 -10 23 -10 50 0 28 5 50 10 50 6 0 10 -22
10 -50z m710 0 c0 -38 -4 -50 -15 -50 -8 0 -15 6 -16 13 0 10 -2 10 -6 0 -2
-7 -16 -13 -29 -13 -15 0 -24 -6 -24 -15 0 -8 -4 -15 -10 -15 -5 0 -10 23 -10
50 l0 50 34 0 c19 0 37 -6 39 -12 3 -7 6 -4 6 8 1 11 4 24 8 27 16 17 23 3 23
-43z m-1236 13 l14 -28 13 28 c7 15 18 27 25 27 17 0 -19 -84 -38 -88 -13 -2
-48 55 -48 78 0 20 20 9 34 -17z m1364 10 c12 -12 13 -18 4 -21 -14 -4 -17
-32 -3 -32 5 0 12 12 15 26 6 21 11 25 39 22 28 -3 32 -7 32 -33 0 -30 -1 -30
-58 -32 -43 -1 -59 2 -64 13 -3 8 -17 13 -37 13 -30 -2 -30 -2 -3 -6 38 -6 34
-25 -5 -21 -29 3 -33 6 -33 33 0 27 3 30 33 31 18 0 38 6 44 12 15 15 16 15
36 -5z m-1240 -25 c3 -14 -4 -18 -25 -19 l-28 -2 28 -4 c36 -6 35 -23 -3 -23
-35 0 -53 25 -38 53 12 23 61 19 66 -5z m62 13 c0 -5 -7 -11 -15 -15 -8 -3
-15 -15 -15 -26 0 -11 -4 -20 -10 -20 -5 0 -10 16 -10 35 0 31 3 35 25 35 14
0 25 -4 25 -9z m426 -2 c4 -8 9 -8 17 0 6 6 26 11 44 11 24 0 33 -4 33 -17 0
-15 1 -15 13 1 16 21 55 18 70 -6 8 -12 7 -21 -2 -32 -18 -21 -57 -20 -70 2
-9 15 -10 15 -11 -4 0 -12 -7 -27 -14 -34 -20 -15 -61 -9 -62 10 -4 46 -4 46
-15 28 -15 -26 -66 -24 -74 2 -4 12 -1 27 5 35 15 17 56 20 66 4z m362 -1 c8
-7 12 -7 12 1 0 7 22 11 59 11 44 0 60 -4 65 -16 11 -28 6 -54 -9 -54 -9 0
-15 9 -15 25 0 14 -4 25 -10 25 -5 0 -10 -11 -10 -25 0 -16 -6 -25 -15 -25 -9
0 -15 9 -15 25 0 14 -4 25 -10 25 -5 0 -10 -11 -10 -25 0 -16 -6 -25 -15 -25
-8 0 -15 5 -15 11 0 8 -4 8 -12 1 -7 -5 -41 -10 -75 -10 -53 -1 -63 2 -68 19
-11 33 11 47 73 47 31 0 63 -5 70 -10z m669 -14 c7 -20 -15 -44 -25 -27 -4 6
-25 13 -47 16 l-40 4 43 1 c23 1 42 7 42 12 0 16 20 12 27 -6z"/>
<path d="M5410 5085 c0 -9 9 -15 25 -15 14 0 25 4 25 9 0 5 10 12 23 14 12 2
1 5 -25 6 -37 1 -48 -3 -48 -14z"/>
<path d="M5570 5085 c0 -8 5 -15 10 -15 6 0 10 4 10 9 0 5 10 12 23 14 16 3
13 5 -10 6 -23 1 -33 -3 -33 -14z"/>
<path d="M6310 5085 c0 -8 7 -15 15 -15 8 0 15 7 15 15 0 8 -7 15 -15 15 -8 0
-15 -7 -15 -15z"/>
<path d="M6438 5093 c7 -3 16 -2 19 1 4 3 -2 6 -13 5 -11 0 -14 -3 -6 -6z"/>
<path d="M6565 5090 c-3 -6 1 -13 10 -16 19 -8 30 0 20 15 -8 14 -22 14 -30 1z"/>
<path d="M5248 5093 c7 -3 16 -2 19 1 4 3 -2 6 -13 5 -11 0 -14 -3 -6 -6z"/>
<path d="M5730 5085 c0 -8 7 -15 15 -15 8 0 15 7 15 15 0 8 -7 15 -15 15 -8 0
-15 -7 -15 -15z"/>
<path d="M5810 5085 c0 -8 7 -15 15 -15 8 0 15 7 15 15 0 8 -7 15 -15 15 -8 0
-15 -7 -15 -15z"/>
<path d="M5900 5085 c0 -8 7 -15 15 -15 8 0 15 7 15 15 0 8 -7 15 -15 15 -8 0
-15 -7 -15 -15z"/>
<path d="M5818 5043 c7 -3 16 -2 19 1 4 3 -2 6 -13 5 -11 0 -14 -3 -6 -6z"/>
<path d="M6020 5085 c0 -9 9 -15 23 -15 14 0 24 6 24 15 0 9 -10 15 -24 15
-14 0 -23 -6 -23 -15z"/>
<path d="M6090 5085 c0 -8 7 -15 15 -15 8 0 15 7 15 15 0 8 -7 15 -15 15 -8 0
-15 -7 -15 -15z"/>
<path d="M4900 4185 c-17 -20 9 -21 36 0 19 14 19 14 -2 15 -12 0 -27 -7 -34
-15z"/>
<path d="M5270 4110 c0 -73 3 -90 15 -90 12 0 15 17 15 90 0 73 -3 90 -15 90
-12 0 -15 -17 -15 -90z"/>
<path d="M6260 4171 c0 -28 -2 -29 -32 -25 -47 8 -72 -14 -72 -61 0 -48 22
-64 85 -63 l49 1 0 89 c0 72 -3 88 -15 88 -10 0 -15 -10 -15 -29z m-9 -67 c17
-21 0 -49 -32 -49 -24 0 -36 23 -25 51 7 19 40 18 57 -2z"/>
<path d="M4550 4187 c0 -2 15 -39 34 -83 28 -63 39 -79 56 -79 17 0 28 16 56
79 19 44 34 81 34 83 0 2 -8 3 -18 3 -13 0 -25 -17 -41 -55 -13 -30 -26 -55
-29 -55 -4 0 -17 24 -28 53 -15 37 -28 53 -43 55 -11 2 -21 2 -21 -1z"/>
<path d="M6610 4165 c0 -8 -4 -15 -10 -15 -5 0 -10 -7 -10 -15 0 -8 5 -15 10
-15 6 0 10 -17 10 -38 0 -45 14 -62 52 -62 32 0 38 19 8 27 -25 7 -30 73 -5
73 8 0 15 7 15 15 0 8 -7 15 -15 15 -8 0 -15 7 -15 15 0 8 -9 15 -20 15 -11 0
-20 -7 -20 -15z"/>
<path d="M4752 4134 c-15 -10 -22 -25 -22 -49 0 -51 64 -84 109 -56 21 14 5
28 -27 23 -16 -2 -33 1 -36 7 -5 7 8 11 38 11 42 0 46 2 46 24 0 28 -33 56
-65 56 -11 0 -31 -7 -43 -16z m68 -24 c0 -5 -11 -10 -25 -10 -14 0 -25 5 -25
10 0 6 11 10 25 10 14 0 25 -4 25 -10z"/>
<path d="M4890 4085 c0 -51 3 -65 15 -65 12 0 15 14 15 65 0 51 -3 65 -15 65
-12 0 -15 -14 -15 -65z"/>
<path d="M4970 4130 c-54 -54 10 -132 84 -104 9 3 16 13 16 21 0 10 -8 12 -34
8 -27 -6 -36 -3 -44 12 -18 32 4 56 44 48 26 -4 34 -2 34 8 0 32 -70 37 -100
7z"/>
<path d="M5100 4101 c0 -65 16 -80 80 -79 l50 1 0 64 c0 56 -2 63 -19 63 -17
0 -20 -8 -23 -47 -3 -40 -6 -48 -23 -48 -17 0 -20 8 -23 48 -3 39 -6 47 -23
47 -16 0 -19 -7 -19 -49z"/>
<path d="M5350 4130 c-41 -41 -10 -110 50 -110 37 0 70 31 70 65 0 34 -33 65
-70 65 -17 0 -39 -9 -50 -20z m75 -45 c0 -35 -31 -47 -51 -20 -18 25 0 57 29
53 17 -2 22 -10 22 -33z"/>
<path d="M5501 4136 c-20 -24 -9 -50 27 -61 43 -12 41 -25 -4 -25 -48 0 -40
-24 10 -28 73 -6 93 55 24 72 -48 12 -49 26 -2 26 24 0 34 4 32 13 -7 18 -72
21 -87 3z"/>
<path d="M5706 4135 c-53 -53 -12 -124 65 -113 38 5 30 34 -8 30 -17 -2 -34 1
-38 7 -4 7 10 11 39 11 25 0 48 4 51 10 7 11 -12 51 -29 62 -19 13 -64 9 -80
-7z m69 -25 c4 -6 -7 -10 -25 -10 -18 0 -29 4 -25 10 3 6 15 10 25 10 10 0 22
-4 25 -10z"/>
<path d="M5840 4084 c0 -57 2 -64 19 -64 17 0 20 8 23 48 3 39 6 47 23 47 17
0 20 -8 23 -47 3 -39 7 -48 22 -48 15 0 19 9 22 48 3 39 6 47 23 47 17 0 20
-8 23 -47 3 -40 6 -48 23 -48 16 0 19 7 19 49 0 68 -13 76 -127 78 l-93 1 0
-64z"/>
<path d="M6340 4130 c-45 -45 -9 -114 58 -108 25 2 37 8 37 18 0 11 -9 14 -32
12 -17 -2 -34 1 -38 7 -4 7 10 11 39 11 42 0 46 2 46 23 0 52 -71 76 -110 37z
m75 -20 c4 -6 -7 -10 -24 -10 -17 0 -31 5 -31 10 0 6 11 10 24 10 14 0 28 -4
31 -10z"/>
<path d="M6486 4137 c-27 -19 -16 -50 21 -62 49 -16 51 -25 4 -25 -54 0 -51
-24 3 -28 69 -6 93 53 29 72 -18 5 -33 12 -33 17 0 4 15 9 33 11 17 2 32 8 32
13 0 16 -68 17 -89 2z"/>
<path d="M6717 4143 c-19 -19 -5 -31 28 -26 47 7 46 -13 -1 -21 -38 -8 -53
-29 -37 -55 7 -11 26 -16 62 -17 l51 -2 0 48 c0 31 -6 54 -16 64 -15 16 -75
22 -87 9z m63 -82 c0 -6 -5 -13 -10 -16 -15 -9 -43 3 -35 15 8 13 45 13 45 1z"/>
<path d="M6866 4131 c-40 -45 -5 -117 54 -109 28 4 30 2 30 -24 0 -23 4 -29
18 -26 14 3 17 17 20 90 l3 86 -54 1 c-40 0 -59 -4 -71 -18z m79 -46 c0 -35
-31 -47 -51 -20 -18 25 0 57 29 53 17 -2 22 -10 22 -33z"/>
<path d="M7020 4101 c0 -65 16 -80 80 -79 l50 1 0 64 c0 56 -2 63 -19 63 -17
0 -20 -8 -23 -47 -3 -40 -6 -48 -23 -48 -17 0 -20 8 -23 48 -3 39 -6 47 -23
47 -16 0 -19 -7 -19 -49z"/>
<path d="M7202 4134 c-15 -10 -22 -25 -22 -49 0 -51 64 -84 109 -56 21 14 5
28 -27 23 -16 -2 -33 1 -36 7 -5 7 8 11 38 11 42 0 46 2 46 24 0 28 -33 56
-65 56 -11 0 -31 -7 -43 -16z m68 -24 c0 -5 -11 -10 -25 -10 -14 0 -25 5 -25
10 0 6 11 10 25 10 14 0 25 -4 25 -10z"/>
<path d="M13850 4002 c0 -17 3 -33 8 -35 9 -6 8 50 -1 60 -4 3 -7 -8 -7 -25z"/>
<path d="M13572 3985 c0 -16 2 -22 5 -12 2 9 2 23 0 30 -3 6 -5 -1 -5 -18z"/>
<path d="M13741 3994 c0 -11 3 -14 6 -6 3 7 2 16 -1 19 -3 4 -6 -2 -5 -13z"/>
<path d="M13473 3983 c9 -2 25 -2 35 0 9 3 1 5 -18 5 -19 0 -27 -2 -17 -5z"/>
<path d="M14118 3963 c7 -3 16 -2 19 1 4 3 -2 6 -13 5 -11 0 -14 -3 -6 -6z"/>
<path d="M4583 3903 c9 -2 23 -2 30 0 6 3 -1 5 -18 5 -16 0 -22 -2 -12 -5z"/>
<path d="M5258 3883 c7 -3 16 -2 19 1 4 3 -2 6 -13 5 -11 0 -14 -3 -6 -6z"/>
<path d="M6188 3883 c7 -3 16 -2 19 1 4 3 -2 6 -13 5 -11 0 -14 -3 -6 -6z"/>
<path d="M6858 3883 c7 -3 16 -2 19 1 4 3 -2 6 -13 5 -11 0 -14 -3 -6 -6z"/>
<path d="M7148 3883 c6 -2 18 -2 25 0 6 3 1 5 -13 5 -14 0 -19 -2 -12 -5z"/>
<path d="M8198 3883 c7 -3 16 -2 19 1 4 3 -2 6 -13 5 -11 0 -14 -3 -6 -6z"/>
<path d="M6911 3864 c0 -11 3 -14 6 -6 3 7 2 16 -1 19 -3 4 -6 -2 -5 -13z"/>
<path d="M4583 3863 c9 -2 23 -2 30 0 6 3 -1 5 -18 5 -16 0 -22 -2 -12 -5z"/>
<path d="M6382 3845 c0 -16 2 -22 5 -12 2 9 2 23 0 30 -3 6 -5 -1 -5 -18z"/>
<path d="M7042 3845 c0 -16 2 -22 5 -12 2 9 2 23 0 30 -3 6 -5 -1 -5 -18z"/>
<path d="M7412 3845 c0 -16 2 -22 5 -12 2 9 2 23 0 30 -3 6 -5 -1 -5 -18z"/>
<path d="M4583 3823 c9 -2 23 -2 30 0 6 3 -1 5 -18 5 -16 0 -22 -2 -12 -5z"/>
<path d="M4658 3823 c7 -3 16 -2 19 1 4 3 -2 6 -13 5 -11 0 -14 -3 -6 -6z"/>
<path d="M5378 3823 c7 -3 16 -2 19 1 4 3 -2 6 -13 5 -11 0 -14 -3 -6 -6z"/>
<path d="M5488 3823 c7 -3 16 -2 19 1 4 3 -2 6 -13 5 -11 0 -14 -3 -6 -6z"/>
<path d="M5578 3823 c7 -3 16 -2 19 1 4 3 -2 6 -13 5 -11 0 -14 -3 -6 -6z"/>
<path d="M5658 3823 c7 -3 16 -2 19 1 4 3 -2 6 -13 5 -11 0 -14 -3 -6 -6z"/>
<path d="M5728 3823 c7 -3 16 -2 19 1 4 3 -2 6 -13 5 -11 0 -14 -3 -6 -6z"/>
<path d="M5808 3823 c7 -3 16 -2 19 1 4 3 -2 6 -13 5 -11 0 -14 -3 -6 -6z"/>
<path d="M5878 3823 c7 -3 16 -2 19 1 4 3 -2 6 -13 5 -11 0 -14 -3 -6 -6z"/>
<path d="M6048 3823 c7 -3 16 -2 19 1 4 3 -2 6 -13 5 -11 0 -14 -3 -6 -6z"/>
<path d="M6288 3823 c7 -3 16 -2 19 1 4 3 -2 6 -13 5 -11 0 -14 -3 -6 -6z"/>
<path d="M6588 3823 c7 -3 16 -2 19 1 4 3 -2 6 -13 5 -11 0 -14 -3 -6 -6z"/>
<path d="M7148 3823 c6 -2 18 -2 25 0 6 3 1 5 -13 5 -14 0 -19 -2 -12 -5z"/>
<path d="M7458 3823 c7 -3 16 -2 19 1 4 3 -2 6 -13 5 -11 0 -14 -3 -6 -6z"/>
<path d="M8268 3823 c7 -3 16 -2 19 1 4 3 -2 6 -13 5 -11 0 -14 -3 -6 -6z"/>
<path d="M4688 3550 c-46 -14 -85 -48 -107 -93 -19 -39 -21 -61 -21 -209 l0
-165 288 -6 c213 -5 299 -10 332 -21 27 -9 33 -13 15 -10 -21 3 -52 -6 -103
-31 -59 -28 -86 -35 -135 -36 -62 -1 -240 -25 -202 -28 15 -1 17 -4 7 -10 -14
-8 -7 -12 76 -39 19 -6 41 -8 49 -5 12 5 14 3 8 -7 -6 -10 -3 -12 13 -8 25 7
39 -9 23 -25 -6 -6 -11 -7 -11 -1 0 5 -74 10 -180 11 -104 1 -180 -3 -180 -8
0 -5 8 -9 18 -9 9 -1 64 -5 122 -11 58 -5 127 -10 154 -10 32 -1 44 -4 35 -10
-8 -5 -50 -9 -95 -9 -141 0 -234 -11 -234 -28 0 -10 7 -12 23 -9 12 3 76 9
142 13 117 7 120 6 104 -12 -13 -15 -18 -51 -22 -179 -3 -88 -8 -169 -12 -181
-6 -19 -19 -22 -121 -34 l-114 -12 0 -299 0 -299 1550 0 1550 0 0 191 c0 181
-1 191 -17 178 -10 -8 -82 -67 -161 -132 l-142 -118 -50 7 c-28 4 -50 10 -50
15 0 4 75 66 167 136 93 70 175 135 183 143 9 8 28 21 43 29 19 10 24 17 15
22 -7 4 -16 5 -20 3 -4 -3 -8 0 -8 6 0 7 8 9 20 5 12 -4 20 -2 20 5 0 6 -16
10 -40 8 -23 -1 -39 -6 -36 -12 2 -6 10 -10 17 -8 11 3 12 1 2 -9 -10 -10 -18
-7 -39 19 -15 18 -33 32 -40 32 -8 0 -14 4 -14 9 0 5 -7 12 -16 15 -8 3 -12 2
-9 -4 3 -6 1 -10 -4 -10 -10 0 -15 14 -12 33 1 5 -4 5 -11 1 -19 -12 -39 -14
-32 -3 3 5 -2 9 -10 9 -9 0 -16 5 -16 12 0 6 -3 9 -6 5 -4 -3 -13 0 -21 8 -8
8 -23 15 -33 15 -16 0 -17 5 -10 38 36 162 51 417 27 450 -7 9 12 12 89 12 65
0 94 4 84 10 -26 16 -3 21 61 14 50 -6 58 -9 35 -13 -31 -6 -49 -31 -22 -31 9
0 16 5 16 10 0 6 9 10 20 10 21 0 21 4 18 278 l-3 279 -27 40 c-16 24 -44 49
-70 62 l-44 21 -1399 -1 c-770 0 -1412 -4 -1427 -9z m2519 -42 c-3 -8 -6 -5
-6 6 -1 11 2 17 5 13 3 -3 4 -12 1 -19z m-2036 -77 c-8 -15 -6 -22 10 -32 13
-9 22 -29 26 -56 5 -37 2 -45 -25 -73 l-30 -30 -202 0 -202 0 -29 29 c-20 20
-29 39 -29 61 0 22 9 41 29 61 l29 29 206 0 c176 0 206 2 206 15 0 8 5 15 10
15 7 0 7 -6 1 -19z m922 -18 c-7 -2 -19 -2 -25 0 -7 3 -2 5 12 5 14 0 19 -2
13 -5z m-83 -7 c0 -2 -7 -7 -16 -10 -8 -3 -12 -2 -9 4 6 10 25 14 25 6z m640
-21 c58 -8 139 -18 180 -21 179 -14 280 -67 385 -204 57 -74 89 -137 72 -143
-7 -3 -4 -6 6 -6 10 -1 17 -7 14 -13 -2 -7 -15 -12 -29 -10 -13 2 -69 -13
-123 -33 -55 -19 -105 -33 -113 -30 -7 2 -11 1 -8 -4 3 -5 -16 -12 -42 -15
-26 -4 -55 -9 -64 -12 -14 -4 -15 0 -9 23 7 27 10 28 83 33 76 5 120 26 115
54 -1 6 11 10 30 10 21 -1 31 2 26 9 -4 7 5 8 28 4 19 -3 28 -3 21 0 -8 3 -5
10 10 23 l23 18 -19 36 c-28 52 -111 151 -125 148 -6 -1 -14 5 -17 13 -3 8
-11 12 -17 8 -6 -4 -7 -1 -2 7 6 10 4 12 -9 7 -11 -5 -15 -3 -10 5 5 8 2 9
-10 5 -11 -4 -15 -3 -10 4 4 8 -1 9 -16 4 -15 -5 -20 -4 -16 4 4 6 2 11 -3 11
-27 0 -6 -21 44 -44 34 -15 62 -36 73 -55 10 -17 21 -28 24 -25 8 8 58 -60 58
-79 0 -27 -27 -8 -44 31 -8 20 -13 26 -9 12 l6 -24 -36 27 c-20 15 -40 27 -46
27 -22 0 -10 -35 22 -68 18 -19 25 -30 15 -27 -10 4 -18 11 -18 16 0 4 -9 13
-21 20 -19 10 -20 9 -15 -13 5 -20 5 -21 -3 -3 -28 59 -83 191 -84 201 0 6
-22 10 -54 9 -54 -2 -78 -15 -85 -45 -2 -8 -8 -20 -15 -27 -6 -7 -24 -52 -40
-98 -15 -49 -32 -84 -38 -81 -7 2 -10 -10 -7 -38 2 -22 3 -55 3 -72 0 -19 7
-38 19 -49 27 -24 25 -36 -10 -80 -23 -29 -30 -33 -31 -19 0 15 -2 15 -10 -5
-7 -18 -5 -28 7 -42 16 -18 16 -19 -15 -19 -27 0 -34 -5 -47 -36 -10 -23 -20
-34 -29 -30 -9 3 -12 0 -9 -9 4 -10 -4 -12 -38 -9 l-43 4 45 -15 45 -14 -69 1
c-45 1 -71 -3 -74 -10 -2 -8 7 -10 30 -5 40 7 35 0 -9 -15 -24 -8 -34 -8 -39
0 -5 7 -2 8 6 3 9 -6 11 -4 5 5 -6 10 -11 9 -22 -5 -7 -11 -13 -15 -13 -11 0
5 -11 1 -25 -8 -14 -9 -25 -14 -25 -11 0 3 -14 -7 -31 -23 -31 -29 -32 -30
-68 -14 -21 9 -66 16 -109 16 -40 0 -65 4 -55 8 12 4 4 7 -22 7 -51 1 -33 -12
48 -35 31 -9 57 -20 57 -24 0 -12 -157 -22 -235 -15 -58 6 -93 16 -162 51
l-87 43 29 11 c20 8 110 11 272 10 149 0 258 3 283 10 30 8 63 33 125 94 47
46 85 88 85 94 0 6 13 13 29 17 16 3 35 13 41 20 10 12 8 12 -17 0 -15 -8 -82
-28 -147 -45 -154 -39 -297 -46 -671 -31 -371 15 -486 33 -666 103 -94 36
-102 60 -20 52 31 -3 101 -9 156 -14 55 -4 116 -12 135 -17 42 -12 70 -6 49 9
-11 8 -11 9 2 5 9 -3 44 1 77 10 54 13 67 13 127 0 37 -9 64 -12 59 -7 -8 8
-57 22 -119 35 -11 2 -27 6 -35 8 -8 2 -32 7 -52 11 -23 5 -35 12 -31 19 3 6
1 7 -5 3 -13 -8 -125 28 -115 37 3 4 1 7 -6 7 -7 0 -10 4 -7 9 3 4 31 11 63
14 32 4 79 10 105 13 39 5 50 3 69 -15 20 -18 35 -21 108 -21 47 0 165 -2 261
-4 96 -3 159 -2 140 0 -19 3 -101 13 -181 23 -81 11 -155 24 -165 30 -19 12
36 10 166 -5 28 -3 40 -2 32 4 -9 6 6 7 40 4 29 -3 55 -8 58 -11 3 -3 16 -7
30 -9 14 -1 99 -11 190 -22 177 -20 248 -24 236 -13 -4 4 -33 10 -64 14 -187
21 -388 51 -396 60 -6 6 -5 9 5 9 8 0 47 29 88 65 40 35 82 67 92 70 11 4 17
10 15 14 -7 11 -76 12 -73 1 1 -6 -9 -16 -23 -23 -14 -7 -24 -20 -24 -29 1
-10 -5 -15 -15 -13 -9 2 -27 4 -41 4 l-25 1 25 13 c92 48 94 67 7 61 -36 -3
-47 -1 -37 6 9 6 10 10 3 10 -20 0 -43 -12 -38 -20 2 -4 -17 -3 -43 2 -45 8
-129 -5 -142 -22 -3 -4 -18 -15 -35 -24 -65 -37 -109 -67 -95 -64 9 2 17 -1
18 -7 1 -5 -20 -11 -48 -13 -49 -3 -50 -2 -38 17 7 11 47 40 90 63 44 24 76
48 73 55 -2 8 2 10 12 6 11 -4 14 -2 9 5 -5 8 -1 10 10 5 12 -4 15 -3 10 5 -5
8 -1 10 10 5 12 -4 15 -3 10 5 -5 8 -1 10 10 5 12 -4 15 -3 10 5 -5 8 -1 10
10 5 10 -4 15 -2 11 3 -4 7 6 9 25 6 25 -4 30 -2 25 11 -4 12 -2 14 10 10 12
-5 14 -3 8 6 -6 10 -2 11 15 6 12 -4 20 -3 17 1 -3 5 11 10 31 11 21 1 71 6
112 12 100 13 449 5 580 -14z m274 -75 c31 0 35 -4 55 -52 12 -28 20 -53 18
-54 -2 -2 -22 5 -45 16 -65 31 -83 23 -22 -10 59 -32 100 -72 100 -96 0 -10
-17 -2 -53 24 -29 22 -76 51 -105 66 l-52 26 15 30 c9 17 13 30 9 30 -4 0 -1
7 6 15 7 9 20 13 27 10 8 -3 29 -5 47 -5z m-1324 -85 c0 -2 -10 -9 -22 -15
-22 -11 -22 -10 -4 4 21 17 26 19 26 11z m1256 -74 c-3 -4 7 -14 22 -22 15 -8
30 -18 33 -22 3 -4 19 -10 35 -12 16 -2 51 -8 79 -14 29 -5 52 -6 55 0 3 5 14
-5 24 -22 23 -39 11 -49 -59 -48 -98 2 -160 13 -157 29 2 11 -1 11 -11 -2 -15
-20 -37 -24 -37 -8 0 13 -1 16 -17 69 -17 57 -17 56 13 59 14 1 23 -2 20 -7z
m-42 -96 c11 -52 12 -72 3 -77 -16 -10 -18 -6 -32 60 -8 39 -9 67 -2 83 11 28
12 26 31 -66z m-1389 46 c6 -11 -1 -16 -38 -25 -17 -4 -26 -3 -23 3 3 5 0 12
-6 14 -7 3 5 3 27 0 30 -3 36 -2 25 6 -9 7 -10 11 -3 11 6 0 14 -4 18 -9z
m1813 -26 c-3 -3 -9 2 -12 12 -6 14 -5 15 5 6 7 -7 10 -15 7 -18z m-2118 -89
c0 -2 -7 -6 -15 -10 -8 -3 -15 -1 -15 4 0 6 7 10 15 10 8 0 15 -2 15 -4z m233
-3 c-7 -2 -19 -2 -25 0 -7 3 -2 5 12 5 14 0 19 -2 13 -5z m-296 -29 c-3 -3
-12 -4 -19 -1 -8 3 -5 6 6 6 11 1 17 -2 13 -5z m146 -1 c-7 -2 -19 -2 -25 0
-7 3 -2 5 12 5 14 0 19 -2 13 -5z m1657 3 c0 -11 -19 -15 -25 -6 -3 5 1 10 9
10 9 0 16 -2 16 -4z m-1913 -12 c-3 -3 -12 -4 -19 -1 -8 3 -5 6 6 6 11 1 17
-2 13 -5z m446 -1 c-7 -2 -21 -2 -30 0 -10 3 -4 5 12 5 17 0 24 -2 18 -5z
m117 3 c0 -2 -13 -6 -29 -8 -17 -2 -28 -1 -25 4 5 8 54 12 54 4z m1760 0 c0
-2 -7 -7 -16 -10 -8 -3 -12 -2 -9 4 6 10 25 14 25 6z m-102 -40 c-2 -1 -11 -7
-20 -14 -14 -11 -16 -10 -11 7 3 12 11 17 19 14 8 -3 14 -6 12 -7z m320 -5 c3
-10 0 -12 -14 -7 -11 5 -24 9 -31 10 -30 5 -25 17 6 14 19 -2 37 -9 39 -17z
m-362 0 c-6 -9 -46 -22 -46 -15 0 3 10 9 23 14 29 11 29 11 23 1z m-2146 -30
c0 -11 5 -23 10 -26 16 -10 11 -28 -6 -21 -10 4 -14 2 -11 -6 2 -7 9 -12 15
-11 5 1 13 -4 16 -13 4 -12 2 -12 -14 -4 -11 6 -20 8 -20 5 0 -3 -9 -1 -20 5
-23 12 -28 35 -6 27 11 -4 14 2 12 29 -2 23 1 34 10 34 8 0 14 -9 14 -19z
m2360 -13 c0 -17 -23 -3 -26 16 -2 14 0 15 12 5 8 -6 14 -16 14 -21z m-418 7
c-18 -8 -40 -16 -50 -17 -9 -2 -23 -9 -30 -16 -8 -7 -18 -10 -23 -6 -5 3 -16
-2 -25 -10 -17 -17 -44 -22 -44 -7 0 4 21 16 48 26 26 10 52 22 59 27 7 5 16
7 21 5 4 -3 14 -2 22 4 8 5 24 9 35 8 14 0 11 -4 -13 -14z m-1892 -45 c0 -5
-4 -10 -10 -10 -5 0 -10 5 -10 10 0 6 5 10 10 10 6 0 10 -4 10 -10z m140 0 c0
-5 -5 -10 -11 -10 -5 0 -7 5 -4 10 3 6 8 10 11 10 2 0 4 -4 4 -10z m-53 -35
c-1 -1 -17 -5 -34 -8 -30 -6 -33 -4 -31 17 2 23 3 23 35 8 18 -9 32 -16 30
-17z m123 21 c0 -2 -7 -7 -16 -10 -8 -3 -12 -2 -9 4 6 10 25 14 25 6z m-293
-26 c21 -11 44 -20 51 -20 19 0 36 -51 20 -62 -19 -11 -58 -10 -58 3 0 5 -4 8
-8 5 -4 -2 -8 4 -8 15 0 12 7 19 20 19 28 0 12 12 -21 16 -15 1 -44 6 -63 9
-33 6 -34 8 -15 21 25 19 38 18 82 -6z m1469 5 c-11 -8 -23 -15 -28 -15 -4 0
-5 -6 -2 -14 3 -9 -5 -22 -20 -32 -20 -12 -24 -20 -16 -29 9 -11 -2 -23 -30
-29 -3 -1 -15 -7 -26 -14 -14 -7 -67 -11 -150 -10 -87 1 -112 4 -77 8 36 4 60
13 75 28 18 18 19 22 6 22 -8 0 -21 -7 -28 -15 -14 -17 -60 -21 -60 -5 0 6 11
10 24 10 29 0 42 15 20 24 -10 4 -13 2 -8 -6 4 -6 3 -8 -3 -5 -6 4 -28 -7 -48
-23 -39 -31 -50 -37 -40 -20 3 6 3 10 -2 11 -4 0 -19 3 -33 5 -14 2 -30 5 -37
6 -7 1 -9 6 -6 11 7 11 5 10 -68 -26 -30 -15 -65 -29 -78 -32 -13 -2 -35 -12
-49 -21 -13 -9 -51 -19 -84 -22 -52 -4 -62 -2 -81 17 -12 13 -40 32 -61 44
-21 12 -38 27 -38 32 2 10 407 27 485 20 23 -2 35 1 31 7 -4 6 10 9 37 7 47
-3 82 4 139 26 19 8 64 17 100 20 36 4 85 13 110 20 61 17 68 17 46 0z m-1158
-26 c-3 -8 -7 -3 -11 10 -4 17 -3 21 5 13 5 -5 8 -16 6 -23z m1980 24 c-10 -2
-26 -2 -35 0 -10 3 -2 5 17 5 19 0 27 -2 18 -5z m-486 -18 c0 -5 -5 -11 -11
-13 -6 -2 -11 4 -11 13 0 9 5 15 11 13 6 -2 11 -8 11 -13z m-1384 -6 c-11 -6
-24 -6 -34 -1 -12 7 -8 9 18 10 26 1 30 -1 16 -9z m-168 -9 c0 -5 -6 -10 -14
-10 -8 0 -21 -3 -30 -6 -11 -4 -16 -1 -16 10 0 11 9 16 30 16 17 0 30 -4 30
-10z m210 -10 c6 -11 8 -20 6 -20 -3 0 -10 9 -16 20 -6 11 -8 20 -6 20 3 0 10
-9 16 -20z m707 3 c-10 -9 -656 -10 -650 0 2 4 151 7 330 7 180 0 323 -3 320
-7z m-870 -35 c-3 -8 -6 -5 -6 6 -1 11 2 17 5 13 3 -3 4 -12 1 -19z m64 -25
c13 -16 12 -17 -3 -4 -10 7 -18 15 -18 17 0 8 8 3 21 -13z m657 -40 c-16 -2
-40 -2 -55 0 -16 2 -3 4 27 4 30 0 43 -2 28 -4z m1353 -20 c-8 -15 -10 -15
-11 -2 0 17 10 32 18 25 2 -3 -1 -13 -7 -23z m-1944 1 c-3 -3 -12 -4 -19 -1
-8 3 -5 6 6 6 11 1 17 -2 13 -5z m1943 -64 c-6 -11 -15 -18 -21 -15 -5 4 -1
16 8 30 21 27 30 16 13 -15z m-1117 -7 c-7 -2 -19 -2 -25 0 -7 3 -2 5 12 5 14
0 19 -2 13 -5z m74 -20 c10 -10 14 -15 8 -11 -6 4 -22 12 -36 17 -15 6 -18 10
-8 10 9 1 25 -7 36 -16z m433 -33 c0 -5 -2 -10 -4 -10 -3 0 -8 5 -11 10 -3 6
-1 10 4 10 6 0 11 -4 11 -10z m-1435 -18 c-3 -3 -11 0 -18 7 -9 10 -8 11 6 5
10 -3 15 -9 12 -12z m2002 -54 c-2 -13 -4 -5 -4 17 -1 22 1 32 4 23 2 -10 2
-28 0 -40z m40 20 c-3 -8 -6 -5 -6 6 -1 11 2 17 5 13 3 -3 4 -12 1 -19z m-606
-41 c-12 -12 -21 -16 -21 -10 0 6 7 16 15 23 8 7 16 20 16 29 1 12 2 12 6 -3
3 -11 -4 -27 -16 -39z m29 -47 c0 -5 -5 -10 -11 -10 -5 0 -7 5 -4 10 3 6 8 10
11 10 2 0 4 -4 4 -10z m-126 -152 c-3 -18 -10 -42 -15 -53 -6 -17 -8 -15 -8
10 -1 40 9 75 21 75 6 0 7 -13 2 -32z m-270 -43 c-23 -36 -42 -44 -115 -51
-72 -6 -300 10 -325 24 -16 9 137 21 276 22 36 1 82 7 103 14 20 8 37 10 37 5
0 -18 -31 -24 -155 -30 l-130 -6 137 -1 136 -2 24 29 c28 35 36 33 12 -4z
m-399 15 c-16 -4 -48 -7 -70 -7 l-40 0 45 7 c25 4 56 7 70 7 22 1 21 0 -5 -7z"/>
<path d="M4797 3362 c6 -4 13 -21 16 -37 l4 -30 2 32 c0 17 7 34 14 36 6 3 -1
6 -18 6 -16 0 -25 -3 -18 -7z"/>
<path d="M5025 3350 c-3 -5 -1 -10 4 -10 6 0 11 5 11 10 0 6 -2 10 -4 10 -3 0
-8 -4 -11 -10z"/>
<path d="M4868 3343 c23 -5 29 -18 12 -28 -6 -4 -19 -1 -28 7 -15 12 -16 11
-3 -4 19 -25 38 -22 47 5 l7 22 10 -23 c8 -18 7 -26 -4 -33 -9 -6 -10 -9 -2
-9 7 0 19 13 28 30 19 36 20 50 2 26 -11 -15 -15 -16 -19 -5 -3 8 -20 15 -39
16 -20 0 -24 -1 -11 -4z"/>
<path d="M4964 3335 c-4 -9 -2 -21 4 -27 15 -15 44 -1 40 19 -4 23 -36 29 -44
8z m36 -10 c0 -8 -7 -15 -15 -15 -8 0 -15 7 -15 15 0 8 7 15 15 15 8 0 15 -7
15 -15z"/>
<path d="M5068 3343 c6 -2 18 -2 25 0 6 3 1 5 -13 5 -14 0 -19 -2 -12 -5z"/>
<path d="M5062 3318 c3 -7 12 -14 22 -14 14 -2 14 -1 -1 3 -16 5 -16 6 2 14
19 7 18 8 -3 8 -15 1 -22 -4 -20 -11z"/>
<path d="M5030 3310 c0 -5 5 -10 11 -10 5 0 7 5 4 10 -3 6 -8 10 -11 10 -2 0
-4 -4 -4 -10z"/>
<path d="M6223 3393 c9 -2 23 -2 30 0 6 3 -1 5 -18 5 -16 0 -22 -2 -12 -5z"/>
<path d="M6398 3383 c6 -2 18 -2 25 0 6 3 1 5 -13 5 -14 0 -19 -2 -12 -5z"/>
<path d="M6058 3333 c7 -3 16 -2 19 1 4 3 -2 6 -13 5 -11 0 -14 -3 -6 -6z"/>
<path d="M6096 3314 c-6 -15 -4 -15 11 -3 10 7 20 15 22 16 2 2 -3 3 -11 3 -9
0 -19 -7 -22 -16z"/>
<path d="M6130 3305 c-7 -8 -8 -15 -2 -15 5 0 15 7 22 15 7 8 8 15 2 15 -5 0
-15 -7 -22 -15z"/>
<path d="M5900 3300 c-13 -8 -13 -10 2 -10 9 0 20 5 23 10 8 13 -5 13 -25 0z"/>
<path d="M6666 3053 c-6 -14 -5 -15 5 -6 7 7 10 15 7 18 -3 3 -9 -2 -12 -12z"/>
<path d="M5350 3025 c14 -8 34 -14 45 -14 18 0 17 1 -5 14 -14 8 -34 14 -45
14 -18 0 -17 -1 5 -14z"/>
<path d="M5513 3023 c9 -2 23 -2 30 0 6 3 -1 5 -18 5 -16 0 -22 -2 -12 -5z"/>
<path d="M6113 3023 c9 -2 23 -2 30 0 6 3 -1 5 -18 5 -16 0 -22 -2 -12 -5z"/>
<path d="M6703 3012 c3 -13 2 -36 -3 -52 -6 -19 -4 -32 3 -39 15 -11 17 92 3
106 -5 5 -7 -2 -3 -15z"/>
<path d="M6680 3008 c0 -9 5 -20 10 -23 13 -8 13 5 0 25 -8 13 -10 13 -10 -2z"/>
<path d="M6675 2955 c-5 -11 -10 -24 -13 -30 -3 -5 3 -3 13 7 9 9 15 22 12 30
-3 9 -7 7 -12 -7z"/>
<path d="M5073 2913 c9 -2 25 -2 35 0 9 3 1 5 -18 5 -19 0 -27 -2 -17 -5z"/>
<path d="M5228 2903 c12 -2 30 -2 40 0 9 3 -1 5 -23 4 -22 0 -30 -2 -17 -4z"/>
<path d="M5088 2893 c7 -3 16 -2 19 1 4 3 -2 6 -13 5 -11 0 -14 -3 -6 -6z"/>
<path d="M5173 2863 c9 -2 25 -2 35 0 9 3 1 5 -18 5 -19 0 -27 -2 -17 -5z"/>
<path d="M6320 2706 c0 -8 4 -17 9 -21 6 -3 9 4 8 15 -1 23 -17 28 -17 6z"/>
<path d="M6025 2700 c4 -6 11 -8 16 -5 14 9 11 15 -7 15 -8 0 -12 -5 -9 -10z"/>
<path d="M6180 2670 c-10 -18 -8 -20 19 -20 16 0 37 3 46 6 14 6 10 10 -15 20
-40 17 -37 18 -50 -6z"/>
<path d="M13340 3484 c0 -42 4 -73 9 -70 5 4 16 3 25 0 23 -9 20 -60 -6 -86
-17 -17 -22 -36 -25 -89 -4 -66 -4 -66 20 -62 22 4 24 2 20 -21 -3 -14 -1 -26
3 -26 5 0 9 -29 9 -65 0 -53 -3 -64 -15 -61 -26 7 -136 16 -122 10 17 -8 -36
-37 -55 -30 -7 3 -15 1 -17 -3 -3 -5 -25 -5 -48 -1 -24 4 -79 10 -124 14 -44
3 -114 13 -155 22 -46 10 -110 15 -169 14 -127 -3 -140 -4 -140 -10 0 -4 -16
-4 -36 -2 -67 8 -19 21 101 27 66 4 122 8 124 11 2 2 -31 4 -75 4 -48 0 -74 4
-65 9 10 7 8 12 -10 25 -29 20 -79 21 -105 1 -25 -19 -32 -19 -37 3 -3 9 -4 5
-4 -10 1 -21 7 -28 21 -28 11 0 17 -3 13 -6 -3 -4 -17 -4 -30 0 -25 6 -102
122 -88 131 4 2 33 8 64 13 l57 9 2 -36 1 -36 4 33 c3 22 10 32 21 32 26 0
111 -43 182 -92 67 -46 140 -65 185 -48 18 6 18 9 -13 39 -17 18 -36 29 -42
26 -6 -4 -34 9 -63 28 -74 49 -164 92 -222 107 l-50 12 1 82 1 81 -4 -77 c-2
-43 -6 -78 -9 -78 -3 0 -63 7 -132 16 -77 10 -206 17 -327 18 -216 1 -267 -7
-318 -50 -16 -13 -34 -24 -41 -24 -7 0 -33 -15 -57 -34 -23 -19 -48 -32 -54
-29 -5 4 -7 2 -2 -2 4 -5 -1 -18 -12 -29 -32 -36 -36 -65 -9 -75 13 -6 19 -10
13 -11 -81 -10 -87 -9 -80 8 4 12 3 14 -4 7 -12 -12 -81 -7 -81 6 0 4 24 9 53
11 41 2 52 6 51 20 -1 11 4 14 14 11 9 -4 13 -2 9 4 -8 13 -57 14 -57 1 0 -5
6 -6 13 -2 6 4 8 3 4 -1 -4 -5 -20 -11 -34 -13 -37 -4 -61 -19 -74 -43 -10
-20 -9 -21 23 -15 18 3 27 3 21 0 -7 -3 -13 -11 -13 -17 0 -28 -36 -96 -53
-101 -16 -4 -18 0 -13 20 4 14 2 24 -4 24 -7 0 -7 7 1 21 10 20 9 21 -15 17
-14 -3 -26 -1 -26 3 0 5 -3 8 -7 8 -5 -1 -10 0 -13 1 -6 2 -25 7 -57 14 l-22
5 -1 -640 -1 -639 1551 0 1550 0 0 374 0 375 -27 4 -28 4 28 2 c24 1 27 5 27
39 0 26 -6 41 -20 50 -11 7 -20 8 -20 3 0 -5 -9 -7 -20 -4 -33 9 -22 25 14 21
26 -3 33 -1 28 11 -4 10 -1 12 8 6 9 -6 11 -4 6 4 -5 7 -20 12 -34 11 -41 -3
-52 -1 -52 9 0 5 8 12 18 14 14 4 14 5 -3 6 -17 1 -18 3 -5 11 10 7 11 10 2
10 -7 0 -15 -7 -19 -16 -5 -13 -7 -13 -14 -2 -7 10 -9 11 -9 0 0 -7 -5 -10
-12 -6 -7 4 -8 3 -4 -4 4 -7 1 -12 -6 -12 -11 0 -11 -2 0 -9 10 -6 10 -10 -3
-21 -12 -10 -19 -10 -27 -2 -9 9 -9 12 2 12 7 0 11 3 8 6 -4 3 -17 -1 -30 -9
-19 -13 -25 -13 -35 -2 -10 11 -10 15 0 19 9 3 8 7 -3 15 -11 8 -11 11 -2 11
7 0 15 -7 18 -15 4 -8 10 -15 16 -15 5 0 7 4 4 9 -4 5 4 7 16 4 23 -4 23 -4 3
11 -11 8 -25 20 -32 26 -15 13 -46 13 -38 0 3 -5 -6 -3 -21 5 -15 7 -33 11
-40 8 -8 -3 -22 1 -31 8 -12 10 -15 10 -9 2 4 -7 2 -13 -3 -13 -6 0 -11 7 -11
16 0 8 -4 13 -9 10 -13 -8 -72 26 -68 39 2 6 12 11 23 12 10 2 13 0 7 -3 -22
-10 -14 -26 8 -19 13 4 19 3 16 -2 -4 -6 4 -8 18 -5 14 2 25 8 25 12 0 4 15 4
34 0 18 -4 51 -6 72 -5 26 1 43 -4 51 -14 10 -12 12 -13 13 -2 0 11 3 11 17 0
13 -11 17 -11 20 -1 3 6 20 12 39 12 20 0 33 4 29 9 -3 5 -1 13 5 16 6 4 9 1
8 -6 -2 -6 9 -13 25 -16 l27 -4 0 68 c-1 44 -6 75 -15 87 -8 11 -15 14 -15 8
0 -7 -3 -11 -7 -10 -5 0 -16 -2 -26 -7 -23 -10 -33 1 -18 19 7 8 20 12 29 9
15 -6 15 -4 4 10 -14 17 -7 42 9 32 5 -4 9 -1 9 5 0 7 7 10 15 6 12 -4 15 6
15 63 0 64 -1 69 -20 64 -36 -10 -72 6 -70 30 4 40 0 41 -25 7 -30 -41 -32
-60 -5 -53 17 5 20 0 20 -26 0 -20 -5 -31 -14 -31 -9 0 -16 -17 -21 -50 -6
-42 -10 -50 -28 -51 -19 0 -20 -1 -4 -8 17 -6 16 -9 -7 -34 -19 -21 -34 -27
-65 -27 -35 0 -42 4 -47 24 -5 23 -29 36 -66 36 -11 0 -15 -5 -12 -14 6 -17
-26 -30 -40 -16 -13 13 -39 13 -31 0 3 -5 -1 -10 -9 -10 -10 0 -13 -6 -10 -15
8 -20 -18 -29 -61 -21 -35 7 -49 26 -19 26 14 0 14 1 0 16 -9 8 -16 25 -17 37
-1 12 -2 36 -4 52 -2 17 -4 51 -6 78 -1 26 -6 47 -10 47 -4 0 -10 8 -13 18 -2
9 -4 -37 -4 -103 0 -66 -1 -123 -1 -127 -1 -4 -29 6 -63 21 -35 16 -96 37
-135 46 l-73 18 0 166 c0 199 -10 391 -21 391 -4 0 -5 -8 -2 -19 5 -20 -11
-36 -27 -26 -7 4 -7 13 0 26 9 15 7 19 -5 19 -12 0 -15 -14 -15 -76z m-1283
-240 c-3 -3 -12 -4 -19 -1 -8 3 -5 6 6 6 11 1 17 -2 13 -5z m70 0 c-3 -3 -12
-4 -19 -1 -8 3 -5 6 6 6 11 1 17 -2 13 -5z m-298 -40 c2 -2 -6 -24 -18 -48
l-21 -45 -23 22 c-13 12 -22 25 -20 30 6 10 -1 9 -33 -7 -33 -18 -44 -13 -37
14 6 22 23 27 24 8 0 -7 4 -4 8 7 11 27 96 41 120 19z m314 -14 c11 -10 -54
-47 -93 -54 -60 -9 -98 4 -109 37 -6 16 -11 32 -11 35 0 7 204 -9 213 -18z
m421 -109 c3 -5 -13 -9 -37 -9 -31 0 -37 2 -22 8 27 12 53 12 59 1z m-11 -28
c-13 -2 -33 -2 -45 0 -13 2 -3 4 22 4 25 0 35 -2 23 -4z m-210 -60 c-7 -2 -21
-2 -30 0 -10 3 -4 5 12 5 17 0 24 -2 18 -5z m1028 -15 c64 -19 47 -31 -32 -24
-88 9 -111 16 -83 27 29 11 72 10 115 -3z m799 -59 c0 -28 -4 -39 -15 -39 -12
0 -14 6 -8 28 4 15 7 35 7 44 0 9 4 14 8 12 4 -3 8 -23 8 -45z m-620 31 c10
-7 1 -8 -30 -4 -56 8 -64 14 -19 14 19 0 41 -5 49 -10z m-1147 -7 c-7 -2 -19
-2 -25 0 -7 3 -2 5 12 5 14 0 19 -2 13 -5z m1263 -44 c3 -5 1 -9 -5 -9 -5 0
-13 5 -17 11 -4 8 -9 8 -17 0 -17 -17 -52 -13 -71 8 -17 18 -17 19 1 23 21 5
100 -19 109 -33z m214 -3 c0 -11 -19 -15 -25 -6 -3 5 1 10 9 10 9 0 16 -2 16
-4z m-72 -87 c-3 -8 -7 -3 -11 10 -4 17 -3 21 5 13 5 -5 8 -16 6 -23z m-1143
-96 c11 27 23 20 17 -9 -3 -19 -1 -25 7 -20 6 4 8 13 4 19 -3 7 3 4 14 -6 16
-14 22 -15 26 -5 4 9 6 8 6 -3 1 -9 -7 -25 -16 -36 -10 -10 -14 -13 -9 -6 6 9
5 18 -2 25 -9 9 -12 8 -12 -4 0 -23 -25 -17 -50 12 l-21 25 3 -25 c2 -14 8
-24 13 -24 17 3 66 -37 62 -50 -5 -15 -53 -9 -161 20 -81 21 -128 45 -115 58
8 9 94 -16 105 -30 13 -16 54 -19 54 -4 0 6 5 9 12 8 6 -2 13 6 15 17 2 11 6
31 9 45 l6 25 13 -25 c12 -22 14 -23 20 -7z m-60 -3 c-3 -5 -11 -10 -16 -10
-6 0 -7 5 -4 10 3 6 11 10 16 10 6 0 7 -4 4 -10z m1359 -12 c-4 -13 -1 -16 9
-12 8 3 18 0 22 -5 3 -6 11 -9 16 -6 5 4 9 1 9 -4 0 -6 -9 -11 -21 -11 -13 0
-18 4 -13 12 5 8 2 9 -10 5 -13 -5 -19 -1 -23 14 -3 11 -11 18 -19 15 -7 -3
-16 -1 -19 5 -4 5 6 8 24 7 25 -2 30 -6 25 -20z m-1439 1 c11 -17 -1 -21 -15
-4 -8 9 -8 15 -2 15 6 0 14 -5 17 -11z m335 -29 c-29 -23 -80 -42 -80 -31 0 8
76 48 95 50 6 0 -1 -8 -15 -19z m80 6 c0 -11 -69 -46 -100 -51 l-35 -5 42 24
c46 27 93 43 93 32z m21 -37 c-13 -10 -35 -19 -50 -18 l-26 1 28 11 c15 6 27
14 27 17 0 3 10 6 23 7 l22 2 -24 -20z m1206 6 c0 -8 -6 -15 -14 -15 -7 0 -13
7 -13 15 0 8 6 15 13 15 8 0 14 -7 14 -15z m-1399 -17 c-3 -7 -15 -14 -29 -15
l-24 -1 24 5 c19 4 21 7 10 14 -11 7 -10 9 4 9 11 0 17 -6 15 -12z m1146 -115
c-31 -22 -46 -15 -22 11 7 7 19 11 27 8 11 -4 10 -8 -5 -19z m-1237 -9 c-3 -3
-12 -4 -19 -1 -8 3 -5 6 6 6 11 1 17 -2 13 -5z m1153 -108 c0 -86 13 -76 -139
-106 -104 -20 -125 -20 -103 2 15 15 16 52 1 43 -6 -4 -8 -13 -5 -21 3 -8 -1
-14 -8 -14 -7 0 -20 -8 -27 -17 -13 -17 -13 -17 5 -3 17 13 19 13 14 0 -2 -8
-12 -16 -21 -18 -14 -3 -17 5 -17 45 0 26 3 64 6 84 l6 36 127 20 c69 11 134
21 144 22 15 1 17 -9 17 -73z m-1107 -9 c28 -3 27 -4 -8 -5 -22 0 -49 3 -60 8
-18 8 -18 9 -2 9 10 1 21 9 25 19 6 15 7 14 10 -5 2 -16 12 -23 35 -26z m-106
17 c-3 -3 -12 -4 -19 -1 -8 3 -5 6 6 6 11 1 17 -2 13 -5z m381 -16 c19 -19 14
-28 -13 -26 -17 2 -25 8 -25 20 0 21 20 24 38 6z m-99 -27 c-15 -5 -22 6 -14
19 6 9 10 9 16 -1 5 -8 4 -15 -2 -18z m-51 12 c-16 -2 -40 -2 -55 0 -16 2 -3
4 27 4 30 0 43 -2 28 -4z"/>
<path d="M13570 2910 c8 -5 24 -9 35 -9 l20 0 -20 9 c-11 5 -27 9 -35 9 -13 1
-13 0 0 -9z"/>
<path d="M13775 2430 c-3 -5 -13 -6 -22 -3 -12 5 -15 2 -10 -10 3 -9 2 -17 -3
-17 -6 0 -10 7 -10 15 0 9 -6 12 -15 9 -8 -4 -15 -15 -15 -26 0 -16 5 -19 23
-14 12 3 29 6 38 6 10 0 19 11 21 25 5 26 3 31 -7 15z"/>
<path d="M13626 2410 c8 -31 24 -50 24 -29 0 8 -7 24 -16 35 -14 18 -15 18 -8
-6z"/>
<path d="M13670 2400 c0 -11 4 -20 8 -20 4 0 8 9 8 20 0 11 -4 20 -8 20 -4 0
-8 -9 -8 -20z"/>
<path d="M13600 2369 c0 -5 5 -7 10 -4 6 3 10 8 10 11 0 2 -4 4 -10 4 -5 0
-10 -5 -10 -11z"/>
<path d="M13756 2363 c-6 -14 -5 -15 5 -6 7 7 10 15 7 18 -3 3 -9 -2 -12 -12z"/>
<path d="M13690 2363 c0 -19 14 -22 35 -7 16 12 17 14 2 14 -9 0 -17 -6 -17
-12 0 -9 -4 -8 -10 2 -6 9 -10 10 -10 3z"/>
<path d="M13790 2350 c0 -11 4 -20 9 -20 5 0 11 9 14 20 3 13 0 20 -9 20 -8 0
-14 -9 -14 -20z"/>
<path d="M13617 2331 c1 -2 -2 -12 -8 -22 -8 -16 -6 -19 10 -19 18 0 37 27 26
38 -3 3 -5 -1 -5 -8 0 -11 -2 -11 -12 1 -7 8 -12 12 -11 10z"/>
<path d="M14123 3537 c24 -20 21 -36 -10 -48 -16 -6 -29 -10 -30 -10 -6 0
-109 -32 -132 -41 -14 -6 -36 -13 -49 -15 -12 -2 -35 -9 -50 -15 -15 -6 -30
-12 -34 -13 -5 -2 -9 -3 -10 -4 -2 -2 -14 -5 -28 -7 -13 -3 -29 -9 -34 -14
-19 -19 4 -22 54 -5 28 9 54 14 58 10 4 -4 1 -10 -5 -12 -7 -3 -13 -19 -13
-37 0 -30 2 -32 40 -31 22 0 39 4 39 9 0 5 5 13 13 17 10 7 9 9 -4 9 -9 0 -24
-7 -32 -16 -21 -20 -32 -12 -30 23 1 15 3 33 3 40 1 11 98 39 107 31 8 -9 -31
-45 -44 -41 -7 3 -10 -1 -6 -11 6 -16 34 -11 34 6 0 6 7 5 15 -2 13 -11 13
-15 3 -21 -10 -7 -9 -9 4 -9 9 0 18 -5 20 -11 2 -6 17 -11 33 -11 17 0 33 -5
37 -11 5 -8 13 -6 26 6 31 28 39 21 32 -28 -4 -24 -3 -50 1 -57 7 -10 9 -8 9
5 0 9 8 17 17 17 15 0 15 1 -2 13 -19 15 -13 37 11 37 8 0 14 7 14 15 0 8 4
15 9 15 5 0 11 8 14 18 3 14 6 13 15 -8 10 -24 11 -24 11 -2 1 15 7 22 22 22
19 0 20 4 14 43 -13 72 -22 89 -44 78 -10 -6 -21 -7 -25 -3 -4 3 -11 1 -15 -7
-7 -10 -9 -10 -14 3 -4 9 1 17 14 21 41 13 15 51 -42 61 -31 5 -32 4 -16 -9z
m-18 -87 c10 16 33 0 28 -20 -3 -11 -11 -16 -19 -13 -8 3 -14 -1 -14 -11 0 -9
-9 -25 -19 -35 -11 -11 -17 -22 -13 -25 3 -3 -2 -6 -10 -6 -24 0 -44 28 -30
42 7 7 12 20 12 30 0 10 7 21 15 24 8 4 12 11 9 16 -4 6 2 5 14 -1 13 -7 23
-7 27 -1z m41 -105 c-8 -22 -38 -19 -34 3 2 9 10 16 16 15 7 -2 12 3 13 10 0
9 2 9 6 -1 3 -7 2 -19 -1 -27z"/>
<path d="M12629 3523 c-13 -16 -12 -17 4 -4 16 13 21 21 13 21 -2 0 -10 -8
-17 -17z"/>
<path d="M12781 3524 c0 -11 3 -14 6 -6 3 7 2 16 -1 19 -3 4 -6 -2 -5 -13z"/>
<path d="M12905 3484 c14 -14 15 -35 11 -150 -3 -74 -3 -134 2 -134 4 0 14 5
22 11 13 10 13 10 0 6 -13 -4 -15 15 -12 139 3 141 3 144 -18 144 -20 0 -20
-1 -5 -16z"/>
<path d="M12435 3480 c3 -5 8 -10 11 -10 2 0 4 5 4 10 0 6 -5 10 -11 10 -5 0
-7 -4 -4 -10z"/>
<path d="M13586 3404 c-3 -8 -6 -17 -6 -19 0 -7 105 7 113 15 5 4 -10 5 -33 3
-22 -3 -47 0 -54 6 -10 9 -15 8 -20 -5z"/>
<path d="M8150 3356 c0 -8 -10 -17 -22 -19 -23 -4 -23 -4 -1 -6 12 0 24 -9 26
-18 3 -10 5 -1 6 20 0 20 -1 37 -4 37 -3 0 -5 -6 -5 -14z"/>
<path d="M8350 3361 c0 -5 -10 -12 -22 -14 l-23 -4 23 -2 c23 -1 29 -15 12
-26 -6 -4 -19 -1 -28 7 -15 12 -16 11 -3 -4 7 -10 22 -18 32 -18 15 0 19 7 19
35 0 19 -2 35 -5 35 -3 0 -5 -4 -5 -9z"/>
<path d="M11411 3333 c1 -21 3 -30 6 -21 2 9 12 19 21 21 15 4 15 5 0 6 -26 2
-22 19 5 24 19 4 18 4 -5 6 -26 1 -28 -2 -27 -36z"/>
<path d="M11609 3358 c-1 -7 0 -22 1 -32 1 -14 -3 -18 -19 -13 -12 3 -19 1
-15 -4 3 -5 14 -9 25 -9 15 0 19 7 19 35 0 33 -9 50 -11 23z"/>
<path d="M13593 3350 c1 -11 5 -20 10 -20 4 0 6 -4 3 -8 -3 -5 9 -6 25 -4 21
3 29 9 25 18 -3 8 -1 14 4 14 11 0 19 -28 22 -85 4 -58 23 -44 26 20 2 30 8
55 13 55 6 0 7 4 4 10 -3 5 -28 8 -54 7 -38 -2 -47 -5 -39 -14 8 -10 6 -13 -6
-13 -9 0 -16 8 -16 20 0 11 -4 20 -9 20 -6 0 -9 -9 -8 -20z"/>
<path d="M8180 3339 c0 -5 5 -7 10 -4 6 3 10 8 10 11 0 2 -4 4 -10 4 -5 0 -10
-5 -10 -11z"/>
<path d="M8216 3337 c3 -10 9 -15 12 -12 3 3 0 11 -7 18 -10 9 -11 8 -5 -6z"/>
<path d="M8241 3323 c2 -23 2 -24 6 -5 5 27 30 29 36 2 4 -17 4 -16 3 2 -1 16
-8 24 -23 26 -20 3 -23 -1 -22 -25z"/>
<path d="M8378 3343 c6 -2 18 -2 25 0 6 3 1 5 -13 5 -14 0 -19 -2 -12 -5z"/>
<path d="M11478 3343 c6 -2 18 -2 25 0 6 3 1 5 -13 5 -14 0 -19 -2 -12 -5z"/>
<path d="M11530 3325 c0 -14 2 -25 4 -25 2 0 6 11 8 25 3 14 1 25 -3 25 -5 0
-9 -11 -9 -25z"/>
<path d="M11570 3339 c0 -5 5 -7 10 -4 6 3 10 8 10 11 0 2 -4 4 -10 4 -5 0
-10 -5 -10 -11z"/>
<path d="M13525 3341 c-3 -5 -1 -12 5 -16 5 -3 10 1 10 9 0 18 -6 21 -15 7z"/>
<path d="M13555 3340 c3 -5 8 -10 11 -10 2 0 4 5 4 10 0 6 -5 10 -11 10 -5 0
-7 -4 -4 -10z"/>
<path d="M8375 3320 c-7 -11 22 -26 32 -16 4 3 -2 6 -13 7 -18 0 -18 1 1 9 16
7 17 9 3 9 -9 1 -20 -4 -23 -9z"/>
<path d="M11473 3315 c17 -19 17 -19 35 0 16 18 16 18 0 6 -15 -11 -21 -11
-35 0 -17 12 -17 12 0 -6z"/>
<path d="M13495 3320 c3 -5 8 -10 11 -10 2 0 4 5 4 10 0 6 -5 10 -11 10 -5 0
-7 -4 -4 -10z"/>
<path d="M8188 3308 c5 -5 16 -8 23 -6 8 3 3 7 -10 11 -17 4 -21 3 -13 -5z"/>
<path d="M13286 3312 c-3 -5 8 -6 25 -4 16 2 29 6 29 8 0 8 -49 4 -54 -4z"/>
<path d="M14013 3243 c-7 -3 -13 -16 -13 -30 0 -14 -8 -32 -17 -39 -11 -8 -13
-13 -5 -14 8 0 12 -19 12 -57 1 -44 3 -54 11 -40 5 9 17 17 26 17 12 0 13 3 3
15 -6 8 -9 19 -6 24 4 5 -1 14 -11 19 -16 9 -16 12 0 35 9 14 35 32 59 41 l43
16 -42 -6 c-31 -4 -42 -2 -45 9 -1 8 -9 12 -15 10z"/>
<path d="M12848 3193 c7 -3 16 -2 19 1 4 3 -2 6 -13 5 -11 0 -14 -3 -6 -6z"/>
<path d="M11480 3166 c0 -21 26 -40 33 -23 3 8 2 18 -1 23 -11 15 -32 15 -32
0z"/>
<path d="M13881 3140 c-5 -17 -16 -30 -24 -30 -7 0 -21 -16 -30 -35 -14 -29
-15 -39 -4 -56 10 -16 9 -21 -3 -29 -11 -7 -11 -10 -2 -10 10 0 10 -5 2 -20
-10 -18 -8 -20 27 -19 27 0 33 3 19 8 -17 7 -17 8 -2 24 10 9 13 17 7 17 -6 0
-11 7 -11 15 0 8 5 15 11 15 5 0 7 6 3 13 -5 8 -2 8 9 -2 15 -12 17 -10 19 28
1 22 2 55 3 71 3 41 -11 47 -24 10z"/>
<path d="M8892 3139 c-145 -14 -262 -60 -406 -159 -84 -58 -176 -145 -176
-167 0 -9 -6 -13 -15 -10 -11 5 -14 -3 -14 -36 1 -23 -4 -53 -9 -68 -6 -14 -9
-69 -8 -124 2 -92 4 -100 27 -114 32 -21 39 -31 39 -59 0 -41 40 -120 63 -126
12 -3 56 -6 97 -6 133 -2 719 -85 735 -106 44 -52 922 -50 1165 4 l34 8 -45
17 c-24 9 -55 17 -68 17 -22 0 -21 2 10 23 19 12 43 39 54 59 18 34 24 38 75
43 78 8 85 14 86 71 1 27 5 72 9 100 6 43 3 58 -18 100 -14 28 -33 56 -41 63
-14 12 -16 10 -16 -13 0 -23 -4 -26 -35 -26 -40 0 -42 5 -15 40 29 37 25 54
-27 101 -69 60 -114 77 -266 96 -111 14 -137 20 -140 34 -3 11 -19 20 -43 25
-22 4 -72 29 -113 57 -156 105 -273 139 -546 157 -178 11 -270 11 -393 -1z
m58 -35 c18 -4 47 -22 65 -40 30 -30 99 -143 92 -151 -2 -2 -24 29 -48 69 -58
94 -81 110 -171 118 -65 6 -68 7 -22 9 28 0 66 -2 84 -5z m-153 -10 c-3 -3
-12 -4 -19 -1 -8 3 -5 6 6 6 11 1 17 -2 13 -5z m-317 -149 c-13 -14 -28 -25
-34 -25 -6 0 3 11 19 25 39 31 45 32 15 0z m913 -161 c41 -21 78 -55 71 -65
-12 -20 -64 -8 -99 22 -58 51 -40 77 28 43z m153 -66 c19 -17 22 -17 27 -4 13
34 99 10 90 -24 -7 -25 15 -35 36 -16 10 9 21 13 24 9 4 -3 7 -2 7 3 0 5 13
10 30 11 16 1 29 -1 29 -5 -5 -29 35 -53 45 -27 6 15 31 14 47 -2 7 -7 9 -19
5 -28 -12 -32 -241 1 -332 48 -16 8 -40 27 -54 42 l-25 27 25 -7 c14 -4 35
-16 46 -27z m19 12 c3 -5 1 -10 -4 -10 -6 0 -11 5 -11 10 0 6 2 10 4 10 3 0 8
-4 11 -10z m665 -95 c0 -7 4 -15 9 -17 5 -1 3 -9 -5 -16 -12 -11 -14 -8 -14
18 0 21 -4 29 -12 24 -7 -4 -8 -3 -4 5 9 14 26 5 26 -14z m27 3 c-3 -8 -6 -5
-6 6 -1 11 2 17 5 13 3 -3 4 -12 1 -19z m-798 -3 c10 -10 -14 -25 -39 -25 -20
0 -33 7 -41 21 -10 20 -9 21 33 14 23 -4 45 -9 47 -10z m-1042 -82 c-3 -10 -5
-4 -5 12 0 17 2 24 5 18 2 -7 2 -21 0 -30z m-33 -35 c9 -18 11 -26 4 -17 -7 9
-17 16 -23 17 -12 1 -20 32 -8 32 5 0 17 -15 27 -32z m936 -4 c0 -8 -4 -12
-10 -9 -5 3 -10 10 -10 16 0 5 5 9 10 9 6 0 10 -7 10 -16z m-83 -33 c-1 -15
-4 -17 -14 -9 -15 12 -17 22 -3 13 6 -3 10 -1 10 4 0 6 2 11 4 11 3 0 4 -9 3
-19z m948 1 l-20 -5 20 -8 c19 -7 19 -8 -2 -8 -23 -1 -30 9 -16 22 3 4 13 6
22 6 11 -1 9 -3 -4 -7z m32 -14 c-3 -8 -6 -5 -6 6 -1 11 2 17 5 13 3 -3 4 -12
1 -19z m33 10 c0 -9 4 -8 11 2 9 12 10 12 7 1 -6 -21 -24 -25 -31 -6 -4 8 -2
15 3 15 6 0 10 -6 10 -12z m79 -5 c9 -10 9 -13 -3 -13 -8 0 -18 5 -22 11 -4 8
-9 7 -15 -2 -7 -11 -9 -10 -9 3 0 20 31 20 49 1z m-1873 -10 c-2 -9 -8 -19
-15 -21 -10 -3 -10 0 -2 17 14 25 20 27 17 4z m-66 -18 c-7 -8 -18 -15 -24
-15 -6 0 -2 7 8 15 25 19 32 19 16 0z m1297 -27 c-3 -8 -6 -5 -6 6 -1 11 2 17
5 13 3 -3 4 -12 1 -19z m-1280 -35 c-3 -10 -5 -2 -5 17 0 19 2 27 5 18 2 -10
2 -26 0 -35z m601 -42 c65 -7 45 -9 -134 -10 -116 0 -232 -4 -258 -7 l-47 -7
7 29 c4 16 8 32 10 35 3 5 179 -12 422 -40z m-634 13 c3 -8 2 -12 -4 -9 -6 3
-10 10 -10 16 0 14 7 11 14 -7z m930 -46 c4 -17 2 -28 -4 -28 -5 0 -10 14 -10
32 0 36 4 35 14 -4z m476 -31 c8 -1 74 2 145 6 l130 7 23 -30 24 -30 -29 0
c-15 0 -131 9 -258 21 -251 22 -358 43 -165 32 63 -3 122 -6 130 -6z"/>
<path d="M9860 2656 c0 -9 5 -16 10 -16 6 0 10 4 10 9 0 6 -4 13 -10 16 -5 3
-10 -1 -10 -9z"/>
<path d="M13641 2984 c0 -11 3 -14 6 -6 3 7 2 16 -1 19 -3 4 -6 -2 -5 -13z"/>
<path d="M4560 2930 c0 -6 24 -10 53 -9 41 1 47 3 27 9 -36 12 -80 12 -80 0z"/>
<path d="M14195 2760 c3 -5 10 -10 16 -10 5 0 9 5 9 10 0 6 -7 10 -16 10 -8 0
-12 -4 -9 -10z"/>
<path d="M14216 2707 c3 -10 9 -15 12 -12 3 3 0 11 -7 18 -10 9 -11 8 -5 -6z"/>
<path d="M14243 2699 c1 -9 6 -15 12 -12 16 5 15 30 -1 30 -7 0 -12 -8 -11
-18z"/>
<path d="M4560 2645 c0 -9 9 -15 21 -15 18 0 19 2 5 15 -8 8 -17 15 -20 15 -3
0 -6 -7 -6 -15z"/>
<path d="M4610 2620 c-23 -7 -23 -8 -3 -9 12 -1 25 4 28 9 3 6 5 10 3 9 -2 -1
-14 -5 -28 -9z"/>
<path d="M4560 2464 l0 -57 38 6 c20 3 62 9 92 12 30 3 66 9 80 12 23 5 21 6
-17 18 -74 22 -95 26 -89 16 3 -5 -10 -4 -30 2 -30 9 -33 12 -18 18 16 6 15 8
-6 9 -23 1 -23 2 -5 10 17 7 15 9 -12 9 l-33 1 0 -56z"/>
<path d="M4740 2470 c8 -5 22 -10 30 -10 13 0 13 1 0 10 -8 5 -22 10 -30 10
-13 0 -13 -1 0 -10z"/>
<path d="M7566 2297 c3 -10 9 -15 12 -12 3 3 0 11 -7 18 -10 9 -11 8 -5 -6z"/>
<path d="M7590 2279 c0 -5 5 -7 10 -4 6 3 10 8 10 11 0 2 -4 4 -10 4 -5 0 -10
-5 -10 -11z"/>
<path d="M5150 1480 c0 -33 4 -60 10 -60 6 0 10 27 10 60 0 33 -4 60 -10 60
-6 0 -10 -27 -10 -60z"/>
<path d="M5200 1480 c0 -33 4 -60 10 -60 6 0 10 27 10 60 0 33 -4 60 -10 60
-6 0 -10 -27 -10 -60z"/>
<path d="M8190 1530 c0 -5 5 -10 10 -10 6 0 10 5 10 10 0 6 -4 10 -10 10 -5 0
-10 -4 -10 -10z"/>
<path d="M8330 1530 c0 -5 5 -10 10 -10 6 0 10 5 10 10 0 6 -4 10 -10 10 -5 0
-10 -4 -10 -10z"/>
<path d="M4777 1512 c-35 -38 -5 -95 46 -90 17 2 32 8 34 14 2 7 -6 10 -22 7
-27 -6 -55 11 -55 33 0 24 30 44 57 38 18 -5 24 -3 19 5 -11 17 -61 13 -79 -7z"/>
<path d="M5374 1519 c-5 -9 0 -10 20 -5 39 10 45 -18 12 -53 -14 -15 -26 -30
-26 -34 0 -4 18 -7 40 -7 22 0 40 5 40 10 0 6 -12 10 -27 10 l-26 0 22 24 c31
33 24 60 -16 64 -17 2 -34 -2 -39 -9z"/>
<path d="M5478 1505 c-24 -53 26 -109 68 -75 17 15 19 71 2 88 -21 21 -57 14
-70 -13z m62 -32 c0 -30 -3 -34 -22 -31 -26 3 -37 41 -18 63 19 23 40 6 40
-32z"/>
<path d="M5574 1519 c-5 -9 0 -10 20 -5 39 10 45 -18 12 -53 -14 -15 -26 -30
-26 -34 0 -4 18 -7 40 -7 22 0 40 5 40 10 0 6 -12 10 -27 10 l-26 0 22 24 c31
33 24 60 -16 64 -17 2 -34 -2 -39 -9z"/>
<path d="M5675 1520 c-4 -7 2 -10 21 -8 38 4 40 -16 5 -48 -17 -15 -31 -31
-31 -36 0 -4 18 -8 40 -8 22 0 40 5 40 10 0 6 -10 10 -22 10 l-21 0 22 24 c31
33 24 60 -16 64 -17 2 -34 -2 -38 -8z"/>
<path d="M6595 1510 c-17 -19 -17 -21 -2 -38 22 -24 22 -43 0 -36 -16 5 -16 4
1 -10 14 -12 22 -12 37 -3 23 14 25 35 4 43 -17 7 -20 31 -4 36 7 2 6 8 -3 16
-12 10 -19 8 -33 -8z m15 -20 c0 -5 -4 -10 -10 -10 -5 0 -10 5 -10 10 0 6 5
10 10 10 6 0 10 -4 10 -10z m25 -40 c3 -5 1 -10 -4 -10 -6 0 -11 5 -11 10 0 6
2 10 4 10 3 0 8 -4 11 -10z"/>
<path d="M8086 1514 c-36 -36 -3 -99 48 -92 38 4 32 22 -7 22 -26 1 -33 5 -35
25 -5 31 23 53 56 44 17 -4 23 -2 18 6 -10 16 -62 14 -80 -5z"/>
<path d="M8504 1519 c-5 -9 0 -10 20 -5 42 10 45 -19 5 -60 l-33 -34 47 0 c26
0 47 5 47 10 0 6 -12 10 -27 10 l-26 0 22 24 c31 33 24 60 -16 64 -17 2 -34
-2 -39 -9z"/>
<path d="M8612 1518 c-7 -7 -12 -26 -12 -43 0 -37 16 -55 47 -55 25 0 43 26
43 62 0 30 -17 48 -45 48 -12 0 -26 -5 -33 -12z m56 -47 c-4 -38 -42 -36 -46
3 -2 16 2 32 9 37 20 12 40 -11 37 -40z"/>
<path d="M8704 1519 c-5 -9 0 -10 20 -5 42 10 45 -19 5 -60 l-33 -34 47 0 c26
0 47 5 47 10 0 6 -12 10 -27 10 l-26 0 22 24 c31 33 24 60 -16 64 -17 2 -34
-2 -39 -9z"/>
<path d="M8802 1517 c10 -8 18 -32 21 -58 3 -40 4 -39 5 14 2 53 0 57 -20 57
-21 -1 -21 -2 -6 -13z"/>
<path d="M9916 1509 c-18 -18 -18 -20 -3 -37 22 -24 22 -43 0 -36 -16 5 -16 4
1 -10 14 -11 24 -13 37 -5 23 12 25 49 4 49 -17 0 -21 26 -4 32 8 3 7 7 -2 15
-11 8 -19 6 -33 -8z m39 -59 c3 -5 1 -10 -4 -10 -6 0 -11 5 -11 10 0 6 2 10 4
10 3 0 8 -4 11 -10z"/>
<path d="M11380 1475 c0 -30 5 -55 10 -55 6 0 10 17 10 38 l0 37 21 -35 21
-34 17 29 16 30 3 -32 c5 -54 22 -37 22 22 0 30 -4 55 -8 55 -4 0 -18 -17 -29
-37 l-21 -37 -22 37 c-12 20 -26 37 -31 37 -5 0 -9 -25 -9 -55z"/>
<path d="M12144 1519 c-5 -9 0 -10 20 -5 42 10 45 -19 5 -60 l-33 -34 47 0
c26 0 47 5 47 10 0 6 -12 10 -27 10 l-26 0 22 24 c31 33 24 60 -16 64 -17 2
-34 -2 -39 -9z"/>
<path d="M12252 1518 c-7 -7 -12 -26 -12 -43 0 -37 16 -55 47 -55 25 0 43 26
43 62 0 30 -17 48 -45 48 -12 0 -26 -5 -33 -12z m56 -47 c-4 -38 -42 -36 -46
3 -2 16 2 32 9 37 20 12 40 -11 37 -40z"/>
<path d="M12344 1519 c-5 -9 0 -10 20 -5 42 10 45 -19 5 -60 l-33 -34 47 0
c26 0 47 5 47 10 0 6 -12 10 -27 10 l-26 0 22 24 c31 33 24 60 -16 64 -17 2
-34 -2 -39 -9z"/>
<path d="M12452 1518 c-7 -7 -12 -26 -12 -43 0 -37 16 -55 47 -55 25 0 43 26
43 62 0 30 -17 48 -45 48 -12 0 -26 -5 -33 -12z m56 -47 c-4 -38 -42 -36 -46
3 -2 16 2 32 9 37 20 12 40 -11 37 -40z"/>
<path d="M6843 1512 c-7 -4 -12 -16 -11 -27 0 -11 -1 -26 -3 -33 -6 -22 27
-39 49 -26 27 18 13 94 -18 94 -3 0 -10 -4 -17 -8z m37 -22 c0 -5 -9 -10 -20
-10 -11 0 -20 5 -20 10 0 6 9 10 20 10 11 0 20 -4 20 -10z m-4 -31 c10 -17
-13 -36 -27 -22 -12 12 -4 33 11 33 5 0 12 -5 16 -11z"/>
<path d="M6972 1511 c-21 -13 -10 -46 16 -49 30 -5 28 -18 -5 -30 -25 -9 -25
-11 -6 -11 26 -1 53 24 53 49 0 18 -25 50 -38 50 -4 0 -13 -4 -20 -9z m38 -27
c0 -9 -7 -14 -17 -12 -25 5 -28 28 -4 28 12 0 21 -6 21 -16z"/>
<path d="M7065 1504 c-34 -34 3 -105 39 -75 19 16 21 62 4 79 -16 16 -23 15
-43 -4z m43 -35 c2 -16 -3 -29 -12 -32 -20 -8 -39 18 -31 43 9 29 39 21 43
-11z"/>
<path d="M7165 1504 c-34 -34 3 -105 39 -75 19 16 21 62 4 79 -16 16 -23 15
-43 -4z m43 -35 c2 -16 -3 -29 -12 -32 -20 -8 -39 18 -31 43 9 29 39 21 43
-11z"/>
<path d="M7295 1504 c-34 -34 3 -105 39 -75 19 16 21 62 4 79 -16 16 -23 15
-43 -4z m43 -35 c2 -16 -3 -29 -12 -32 -20 -8 -39 18 -31 43 9 29 39 21 43
-11z"/>
<path d="M7391 1506 c-30 -36 9 -105 43 -77 23 19 20 68 -3 81 -25 13 -26 13
-40 -4z m44 -36 c0 -18 -6 -26 -22 -28 -18 -3 -23 1 -23 21 0 28 9 39 30 35 9
-2 15 -14 15 -28z"/>
<path d="M10155 1510 c-3 -5 3 -10 14 -10 27 0 27 -22 1 -45 -28 -26 -25 -35
13 -34 31 0 31 1 8 10 l-24 10 21 20 c25 23 27 30 10 47 -15 15 -35 16 -43 2z"/>
<path d="M10371 1506 c-30 -36 9 -105 43 -77 23 19 20 68 -3 81 -25 13 -26 13
-40 -4z m44 -36 c0 -18 -6 -26 -22 -28 -18 -3 -23 1 -23 21 0 28 9 39 30 35 9
-2 15 -14 15 -28z"/>
<path d="M10464 1495 c-15 -23 -15 -27 0 -50 20 -30 41 -32 56 -6 14 27 13 47
-6 65 -21 22 -31 20 -50 -9z m50 -10 c8 -23 -4 -45 -25 -45 -14 0 -19 7 -19
30 0 23 5 30 19 30 10 0 21 -7 25 -15z"/>
<path d="M10601 1506 c-30 -36 9 -105 43 -77 23 19 20 68 -3 81 -25 13 -26 13
-40 -4z m44 -36 c0 -18 -6 -26 -22 -28 -18 -3 -23 1 -23 21 0 28 9 39 30 35 9
-2 15 -14 15 -28z"/>
<path d="M10694 1495 c-15 -23 -15 -27 0 -50 20 -30 41 -32 56 -6 14 27 13 47
-6 65 -21 22 -31 20 -50 -9z m50 -10 c8 -23 -4 -45 -25 -45 -14 0 -19 7 -19
30 0 23 5 30 19 30 10 0 21 -7 25 -15z"/>
<path d="M11720 1505 c-9 -11 -9 -15 -1 -15 6 0 11 -14 11 -30 0 -18 6 -33 15
-37 23 -8 33 7 12 18 -22 13 -22 46 1 51 15 3 14 5 -4 16 -18 9 -24 9 -34 -3z"/>
<path d="M13153 1513 c-23 -9 -15 -42 12 -49 33 -8 32 -22 -2 -26 -23 -4 -25
-6 -10 -12 24 -11 47 0 47 23 0 14 -9 23 -25 27 -33 8 -32 24 1 24 14 0 23 4
19 10 -7 11 -22 12 -42 3z"/>
<path d="M13369 1501 c-20 -16 -22 -23 -14 -47 8 -21 17 -29 35 -29 20 0 25 5
25 25 0 19 -5 25 -22 24 -13 0 -23 5 -23 13 0 7 9 13 20 13 11 0 20 5 20 10 0
15 -15 12 -41 -9z m37 -42 c10 -17 -13 -36 -27 -22 -12 12 -4 33 11 33 5 0 12
-5 16 -11z"/>
<path d="M13581 1506 c-30 -36 9 -105 43 -77 23 19 20 68 -3 81 -25 13 -26 13
-40 -4z m44 -36 c0 -18 -6 -26 -22 -28 -18 -3 -23 1 -23 21 0 28 9 39 30 35 9
-2 15 -14 15 -28z"/>
<path d="M13674 1495 c-15 -23 -15 -27 0 -50 20 -30 41 -32 56 -6 14 27 13 47
-6 65 -21 22 -31 20 -50 -9z m50 -10 c8 -23 -4 -45 -25 -45 -14 0 -19 7 -19
30 0 23 5 30 19 30 10 0 21 -7 25 -15z"/>
<path d="M13776 1504 c-28 -28 -12 -84 25 -84 29 0 44 46 24 76 -18 28 -28 30
-49 8z m44 -34 c0 -23 -5 -30 -19 -30 -10 0 -21 7 -25 15 -8 23 4 45 25 45 14
0 19 -7 19 -30z"/>
<path d="M13904 1495 c-15 -23 -15 -27 0 -50 20 -30 41 -32 56 -6 14 27 13 47
-6 65 -21 22 -31 20 -50 -9z m50 -10 c8 -23 -4 -45 -25 -45 -14 0 -19 7 -19
30 0 23 5 30 19 30 10 0 21 -7 25 -15z"/>
<path d="M14006 1504 c-28 -28 -12 -84 25 -84 29 0 44 46 24 76 -18 28 -28 30
-49 8z m44 -34 c0 -23 -5 -30 -19 -30 -10 0 -21 7 -25 15 -8 23 4 45 25 45 14
0 19 -7 19 -30z"/>
<path d="M4889 1491 c-21 -16 -22 -22 -11 -45 13 -28 49 -35 70 -14 18 18 14
56 -7 68 -25 13 -25 13 -52 -9z m49 -29 c3 -16 -2 -22 -17 -22 -24 0 -35 15
-27 36 9 23 40 13 44 -14z"/>
<path d="M4985 1501 c-10 -9 -5 -81 5 -81 6 0 10 14 10 30 0 18 6 33 15 36 8
4 15 9 15 13 0 7 -38 9 -45 2z"/>
<path d="M5061 1493 c-37 -25 -21 -73 25 -73 29 0 48 24 40 54 -7 29 -38 39
-65 19z m47 -31 c3 -18 -1 -22 -22 -22 -19 0 -26 5 -26 18 0 39 43 43 48 4z"/>
<path d="M5255 1500 c-18 -8 -17 -9 7 -9 37 -1 45 -19 11 -23 -20 -2 -28 -9
-28 -23 0 -15 8 -21 33 -23 31 -3 32 -2 32 36 0 27 -5 42 -16 46 -9 3 -16 6
-17 5 -1 0 -11 -4 -22 -9z m39 -49 c3 -5 -1 -12 -10 -15 -22 -9 -24 -8 -24 9
0 16 25 21 34 6z"/>
<path d="M6481 1463 c1 -27 3 -40 6 -30 2 9 12 17 20 17 9 0 22 -8 30 -17 14
-17 14 -17 9 1 -4 10 -2 24 4 31 19 22 0 45 -36 45 l-34 0 1 -47z m57 20 c-2
-10 -12 -18 -23 -18 -11 0 -21 8 -23 18 -3 13 3 17 23 17 20 0 26 -4 23 -17z"/>
<path d="M6717 1502 c6 -4 13 -25 16 -47 4 -40 4 -40 5 8 2 39 -1 47 -15 47
-12 0 -14 -3 -6 -8z"/>
<path d="M6778 1465 c2 -25 8 -45 13 -45 5 0 9 20 9 45 0 29 -4 45 -13 45 -8
0 -11 -14 -9 -45z"/>
<path d="M8190 1466 c0 -25 5 -46 10 -46 6 0 10 18 10 39 0 22 -4 43 -10 46
-6 4 -10 -12 -10 -39z"/>
<path d="M8230 1497 c0 -22 27 -77 39 -77 10 0 44 80 37 87 -2 3 -12 -10 -22
-28 l-16 -33 -19 35 c-12 22 -18 28 -19 16z"/>
<path d="M8330 1466 c0 -25 5 -46 10 -46 6 0 10 18 10 39 0 22 -4 43 -10 46
-6 4 -10 -12 -10 -39z"/>
<path d="M8388 1499 c-22 -12 -23 -52 -3 -69 10 -8 24 -9 42 -4 l28 8 -33 4
c-28 3 -33 7 -30 25 2 18 9 22 33 20 28 -2 29 -1 11 12 -23 17 -25 18 -48 4z"/>
<path d="M9800 1465 c0 -25 5 -45 10 -45 6 0 10 7 10 15 0 8 7 15 15 15 9 0
18 -7 21 -15 4 -8 11 -15 16 -15 6 0 5 6 -2 15 -10 12 -10 18 0 30 20 24 4 45
-35 45 -35 0 -35 0 -35 -45z m58 18 c-5 -26 -38 -29 -38 -4 0 15 6 21 21 21
14 0 19 -5 17 -17z"/>
<path d="M10037 1502 c6 -4 13 -25 16 -47 4 -40 4 -40 5 8 2 39 -1 47 -15 47
-12 0 -14 -3 -6 -8z"/>
<path d="M10097 1502 c6 -4 13 -25 16 -47 4 -40 4 -40 5 8 2 39 -1 47 -15 47
-12 0 -14 -3 -6 -8z"/>
<path d="M10280 1491 c0 -11 9 -23 20 -26 36 -11 22 -31 -19 -26 -7 2 -10 -2
-6 -8 9 -16 41 -13 55 4 10 12 10 18 0 30 -7 8 -19 15 -26 15 -23 0 -16 18 9
23 19 4 18 4 -5 6 -21 1 -28 -4 -28 -18z"/>
<path d="M11538 1504 c-13 -12 -9 -61 6 -73 7 -6 25 -10 40 -9 24 2 26 6 25
48 -2 44 -2 44 -8 10 -4 -26 -11 -35 -26 -35 -15 0 -21 8 -25 33 -3 19 -8 30
-12 26z"/>
<path d="M11653 1503 c-23 -9 -14 -39 15 -50 l27 -11 -27 -1 c-34 -1 -38 -21
-4 -21 31 0 50 22 34 38 -7 7 -18 12 -25 12 -7 0 -13 5 -13 10 0 6 10 10 23
10 18 0 19 2 7 10 -16 11 -19 11 -37 3z"/>
<path d="M11803 1503 c-23 -9 -14 -20 12 -15 15 2 25 0 25 -7 0 -6 -8 -11 -18
-11 -10 0 -23 -5 -29 -11 -20 -20 -3 -39 33 -39 32 0 34 2 34 35 0 24 -6 37
-19 45 -11 5 -21 10 -23 9 -2 0 -9 -3 -15 -6z m37 -52 c0 -14 -18 -23 -30 -16
-6 4 -8 11 -5 16 8 12 35 12 35 0z"/>
<path d="M11890 1463 c0 -50 17 -58 22 -10 2 20 8 32 18 32 10 0 16 -12 18
-32 4 -44 22 -42 22 1 0 39 -8 47 -51 50 -28 2 -29 0 -29 -41z"/>
<path d="M12004 1493 c-27 -28 -10 -65 30 -65 14 0 26 -4 26 -9 0 -9 -14 -12
-42 -10 -10 1 -18 -3 -18 -8 0 -15 53 -14 68 1 7 7 12 32 12 58 0 43 -1 45
-31 46 -17 1 -37 -5 -45 -13z m54 -26 c4 -20 -25 -34 -40 -19 -15 15 -1 44 19
40 10 -2 19 -11 21 -21z"/>
<path d="M13041 1463 c1 -26 3 -40 6 -30 5 21 21 22 42 3 14 -13 16 -10 16 27
0 40 -2 42 -32 45 l-33 3 1 -48z m54 17 c0 -8 -10 -16 -22 -18 -18 -3 -23 2
-23 18 0 16 5 21 23 18 12 -2 22 -10 22 -18z"/>
<path d="M13283 1503 c12 -3 16 -10 12 -24 -4 -13 -2 -19 9 -19 9 0 16 -4 16
-10 0 -5 -14 -10 -31 -10 -17 0 -28 -4 -24 -10 9 -15 41 -12 55 5 9 11 10 18
1 29 -6 7 -9 21 -5 30 5 13 0 16 -22 15 -18 -1 -22 -3 -11 -6z"/>
<path d="M13450 1490 c0 -13 9 -22 25 -26 35 -9 31 -22 -7 -26 -28 -3 -30 -5
-14 -13 22 -10 49 5 54 28 2 11 -6 19 -22 23 -32 8 -34 21 -3 27 19 4 18 4 -5
6 -22 1 -28 -4 -28 -19z"/>
<path d="M6920 1430 c0 -5 5 -10 10 -10 6 0 10 5 10 10 0 6 -4 10 -10 10 -5 0
-10 -4 -10 -10z"/>
<path d="M7246 1425 c4 -8 8 -15 10 -15 2 0 4 7 4 15 0 8 -4 15 -10 15 -5 0
-7 -7 -4 -15z"/>
<path d="M10235 1430 c3 -5 8 -10 11 -10 2 0 4 5 4 10 0 6 -5 10 -11 10 -5 0
-7 -4 -4 -10z"/>
<path d="M10550 1430 c0 -5 5 -10 10 -10 6 0 10 5 10 10 0 6 -4 10 -10 10 -5
0 -10 -4 -10 -10z"/>
<path d="M13530 1429 c0 -5 5 -7 10 -4 6 3 10 8 10 11 0 2 -4 4 -10 4 -5 0
-10 -5 -10 -11z"/>
<path d="M13861 1424 c0 -11 3 -14 6 -6 3 7 2 16 -1 19 -3 4 -6 -2 -5 -13z"/>
<path d="M11968 1023 c7 -3 16 -2 19 1 4 3 -2 6 -13 5 -11 0 -14 -3 -6 -6z"/>
<path d="M12938 1023 c6 -2 18 -2 25 0 6 3 1 5 -13 5 -14 0 -19 -2 -12 -5z"/>
<path d="M5113 985 c0 -22 2 -30 4 -17 2 12 2 30 0 40 -3 9 -5 -1 -4 -23z"/>
<path d="M8260 991 c0 -17 2 -31 4 -31 8 0 13 51 5 56 -5 3 -9 -9 -9 -25z"/>
<path d="M4858 1003 c7 -3 16 -2 19 1 4 3 -2 6 -13 5 -11 0 -14 -3 -6 -6z"/>
<path d="M6700 1006 c0 -2 7 -7 16 -10 8 -3 12 -2 9 4 -6 10 -25 14 -25 6z"/>
<path d="M9990 1006 c0 -2 7 -7 16 -10 8 -3 12 -2 9 4 -6 10 -25 14 -25 6z"/>
<path d="M11580 1006 c0 -2 7 -7 16 -10 8 -3 12 -2 9 4 -6 10 -25 14 -25 6z"/>
<path d="M13300 1006 c0 -2 7 -7 16 -10 8 -3 12 -2 9 4 -6 10 -25 14 -25 6z"/>
<path d="M4901 984 c0 -11 3 -14 6 -6 3 7 2 16 -1 19 -3 4 -6 -2 -5 -13z"/>
<path d="M6682 975 c0 -16 2 -22 5 -12 2 9 2 23 0 30 -3 6 -5 -1 -5 -18z"/>
<path d="M5292 970 c0 -14 2 -19 5 -12 2 6 2 18 0 25 -3 6 -5 1 -5 -13z"/>
<path d="M12845 970 c-18 -20 -17 -20 11 -19 18 1 22 3 11 6 -14 4 -16 8 -6
19 18 22 4 17 -16 -6z"/>
<path d="M4766 972 c-3 -5 8 -6 25 -4 16 2 29 6 29 8 0 8 -49 4 -54 -4z"/>
<path d="M9563 973 c9 -2 25 -2 35 0 9 3 1 5 -18 5 -19 0 -27 -2 -17 -5z"/>
<path d="M9503 953 c9 -2 23 -2 30 0 6 3 -1 5 -18 5 -16 0 -22 -2 -12 -5z"/>
<path d="M5719 580 c25 -57 27 -57 51 -10 12 23 19 44 16 48 -3 3 -13 -12 -23
-34 l-16 -39 -15 38 c-8 20 -18 37 -23 37 -4 0 0 -18 10 -40z"/>
<path d="M6020 606 c0 -9 -7 -12 -18 -9 -10 2 -25 -3 -32 -12 -19 -23 -1 -50
34 -51 24 -1 26 2 26 42 0 24 -2 44 -5 44 -3 0 -5 -6 -5 -14z m-2 -39 c4 -20
-25 -34 -39 -20 -14 14 1 45 20 41 9 -2 17 -11 19 -21z"/>
<path d="M6260 575 c0 -25 5 -45 10 -45 6 0 10 20 10 45 0 25 -4 45 -10 45 -5
0 -10 -20 -10 -45z"/>
<path d="M6302 575 c0 -40 2 -44 7 -20 3 17 13 30 21 30 8 0 18 -13 22 -30 6
-29 6 -29 5 5 -2 28 -6 35 -22 35 -11 0 -23 7 -27 15 -4 8 -6 -7 -6 -35z"/>
<path d="M9015 603 c4 -10 12 -30 17 -45 5 -16 13 -28 17 -28 9 0 41 66 40 83
0 7 -9 -6 -19 -28 l-18 -40 -16 38 c-16 36 -35 54 -21 20z"/>
<path d="M9320 607 c0 -8 -10 -13 -22 -13 -19 1 -23 -4 -23 -29 0 -27 3 -30
33 -32 32 -1 32 -1 32 43 0 24 -4 44 -10 44 -5 0 -10 -6 -10 -13z m-3 -33 c8
-21 -13 -42 -28 -27 -13 13 -5 43 11 43 6 0 13 -7 17 -16z"/>
<path d="M9573 575 c0 -27 2 -38 4 -22 2 15 2 37 0 50 -2 12 -4 0 -4 -28z"/>
<path d="M9612 575 c0 -40 2 -44 7 -20 3 17 13 30 21 30 8 0 18 -13 22 -30 6
-29 6 -29 5 5 -2 28 -6 35 -22 35 -11 0 -23 7 -27 15 -4 8 -6 -7 -6 -35z"/>
<path d="M12321 613 c-1 -15 31 -83 38 -83 9 0 42 82 36 88 -3 3 -10 -9 -16
-26 -14 -40 -21 -40 -42 1 -8 17 -16 27 -16 20z"/>
<path d="M12630 606 c0 -9 -7 -12 -18 -9 -10 2 -25 -3 -32 -12 -19 -23 -1 -50
34 -51 24 -1 26 2 26 42 0 24 -2 44 -5 44 -3 0 -5 -6 -5 -14z m-3 -32 c8 -21
-13 -42 -28 -27 -13 13 -5 43 11 43 6 0 13 -7 17 -16z"/>
<path d="M12883 575 c0 -27 2 -38 4 -22 2 15 2 37 0 50 -2 12 -4 0 -4 -28z"/>
<path d="M12910 575 c0 -48 17 -62 22 -18 4 39 26 40 37 1 8 -29 9 -30 10 -8
1 34 -14 54 -33 47 -10 -4 -16 -1 -16 8 0 8 -4 15 -10 15 -5 0 -10 -20 -10
-45z"/>
<path d="M6131 600 c-9 -5 -10 -10 -2 -14 6 -4 11 -18 11 -32 0 -16 5 -24 18
-23 10 0 12 3 5 6 -16 6 -17 50 -1 55 8 3 7 6 -3 10 -9 3 -22 3 -28 -2z"/>
<path d="M9437 604 c-9 -10 9 -68 23 -72 12 -4 13 -2 3 9 -16 17 -17 46 -1 51
8 3 6 6 -4 10 -9 4 -18 5 -21 2z"/>
<path d="M12747 604 c-9 -9 9 -68 21 -70 7 -1 8 0 2 3 -14 7 -13 50 2 55 8 3
6 6 -4 10 -9 4 -18 5 -21 2z"/>
<path d="M5799 584 c-9 -11 -10 -20 -2 -32 11 -19 53 -29 53 -14 0 6 -8 8 -19
5 -10 -3 -22 0 -25 6 -5 7 4 11 23 11 33 0 39 8 19 28 -16 16 -33 15 -49 -4z
m46 -4 c4 -6 -5 -10 -20 -10 -15 0 -24 4 -20 10 3 6 12 10 20 10 8 0 17 -4 20
-10z"/>
<path d="M5881 561 c1 -28 3 -30 6 -11 3 14 9 30 14 36 5 7 3 11 -6 11 -11 0
-15 -11 -14 -36z"/>
<path d="M6063 593 c-18 -7 -16 -50 3 -57 28 -11 40 -5 14 7 l-25 11 28 4 c20
2 27 8 25 20 -3 17 -24 24 -45 15z m32 -13 c3 -5 -3 -10 -15 -10 -12 0 -18 5
-15 10 3 6 10 10 15 10 5 0 12 -4 15 -10z"/>
<path d="M6210 589 l25 -12 -25 -6 c-35 -9 -32 -36 3 -37 26 -1 28 2 25 30 -2
25 -8 31 -28 33 l-25 3 25 -11z m12 -41 c-9 -9 -15 -9 -24 0 -9 9 -7 12 12 12
19 0 21 -3 12 -12z"/>
<path d="M6389 584 c-9 -11 -10 -20 -2 -32 11 -19 53 -29 53 -13 0 6 -6 8 -14
5 -8 -3 -17 -1 -21 5 -4 7 4 11 19 11 28 0 33 9 14 28 -16 16 -33 15 -49 -4z
m46 -4 c3 -5 -3 -10 -14 -10 -12 0 -21 5 -21 10 0 6 6 10 14 10 8 0 18 -4 21
-10z"/>
<path d="M6465 590 c-8 -14 3 -30 21 -30 8 0 14 -5 14 -11 0 -6 -9 -9 -20 -6
-11 3 -20 1 -20 -4 0 -5 11 -9 25 -9 33 0 35 37 3 43 -23 4 -23 4 2 15 24 10
24 11 3 11 -12 1 -25 -3 -28 -9z"/>
<path d="M9113 593 c-18 -7 -16 -50 3 -57 28 -11 40 -5 14 7 l-25 11 28 4 c20
2 27 8 25 20 -3 17 -24 24 -45 15z m32 -13 c3 -5 -3 -10 -15 -10 -12 0 -18 5
-15 10 3 6 10 10 15 10 5 0 12 -4 15 -10z"/>
<path d="M9180 564 c0 -19 5 -34 10 -34 6 0 10 10 10 23 0 13 4 27 10 33 6 6
3 10 -10 11 -16 1 -20 -4 -20 -33z"/>
<path d="M9364 586 c-11 -28 1 -51 26 -53 l25 -3 -25 12 -25 12 28 4 c20 2 27
8 25 20 -4 22 -46 28 -54 8z m41 -6 c3 -5 -3 -10 -15 -10 -12 0 -18 5 -15 10
3 6 10 10 15 10 5 0 12 -4 15 -10z"/>
<path d="M9496 591 c-4 -5 3 -7 14 -4 11 3 20 1 20 -5 0 -5 -9 -12 -21 -15
-29 -8 -19 -31 14 -35 23 -3 27 1 27 20 0 37 -39 64 -54 39z m34 -41 c0 -5 -7
-10 -15 -10 -8 0 -15 5 -15 10 0 6 7 10 15 10 8 0 15 -4 15 -10z"/>
<path d="M9703 593 c-18 -7 -16 -50 3 -57 28 -11 40 -5 14 7 l-25 11 28 4 c20
2 27 8 25 20 -3 17 -24 24 -45 15z m32 -13 c3 -5 -3 -10 -15 -10 -12 0 -18 5
-15 10 3 6 10 10 15 10 5 0 12 -4 15 -10z"/>
<path d="M9777 593 c-14 -13 -6 -33 13 -33 25 0 26 -17 3 -23 -15 -3 -14 -4 1
-3 27 1 32 26 7 33 -28 7 -27 20 2 26 20 4 20 4 1 6 -11 0 -24 -2 -27 -6z"/>
<path d="M12414 586 c-11 -28 1 -51 26 -53 l25 -3 -25 12 -25 12 28 4 c20 2
27 8 25 20 -4 22 -46 28 -54 8z m41 -6 c3 -5 -3 -10 -15 -10 -12 0 -18 5 -15
10 3 6 10 10 15 10 5 0 12 -4 15 -10z"/>
<path d="M12491 561 c1 -28 3 -30 6 -11 3 14 9 30 14 36 5 7 3 11 -6 11 -11 0
-15 -11 -14 -36z"/>
<path d="M12669 584 c-9 -11 -10 -20 -2 -32 11 -19 53 -29 53 -14 0 6 -8 8
-19 5 -10 -3 -22 0 -25 6 -5 7 4 11 23 11 33 0 39 8 19 28 -16 16 -33 15 -49
-4z m46 -4 c4 -6 -5 -10 -20 -10 -15 0 -24 4 -20 10 3 6 12 10 20 10 8 0 17
-4 20 -10z"/>
<path d="M12800 590 c0 -6 5 -8 10 -5 6 3 16 3 22 -1 9 -6 5 -10 -12 -14 -30
-7 -33 -34 -5 -37 11 -2 14 0 8 3 -18 8 -16 24 1 24 8 0 17 -8 20 -17 2 -10 4
-2 3 17 -2 28 -6 36 -24 38 -13 2 -23 -2 -23 -8z"/>
<path d="M13004 586 c-11 -28 1 -51 26 -53 l25 -3 -25 12 -25 12 28 4 c20 2
27 8 25 20 -4 22 -46 28 -54 8z m41 -6 c3 -5 -3 -10 -15 -10 -12 0 -18 5 -15
10 3 6 10 10 15 10 5 0 12 -4 15 -10z"/>
<path d="M13087 593 c-14 -13 -6 -33 13 -33 25 0 26 -17 3 -23 -15 -3 -14 -4
1 -3 27 1 32 26 7 33 -26 7 -27 20 -3 26 14 4 14 5 1 6 -9 0 -19 -2 -22 -6z"/>
</g>
</svg>
