<?xml version="1.0" standalone="no"?>
<!DOCTYPE svg PUBLIC "-//W3C//DTD SVG 20010904//EN"
 "http://www.w3.org/TR/2001/REC-SVG-20010904/DTD/svg10.dtd">
<svg version="1.0" xmlns="http://www.w3.org/2000/svg"
 width="1910.000000pt" height="907.000000pt" viewBox="0 0 1910.000000 907.000000"
 preserveAspectRatio="xMidYMid meet">

<g transform="translate(0.000000,907.000000) scale(0.100000,-0.100000)"
fill="#000000" stroke="none">
<path d="M0 8830 l0 -240 9550 0 9550 0 0 240 0 240 -9550 0 -9550 0 0 -240z
m14328 140 c18 -11 41 -34 52 -52 40 -66 16 -156 -52 -198 -29 -17 -51 -20
-163 -20 -146 0 -177 11 -215 72 -40 66 -16 156 52 198 29 17 51 20 163 20
112 0 134 -3 163 -20z m-9018 -55 c0 -8 -7 -15 -15 -15 -16 0 -20 12 -8 23 11
12 23 8 23 -8z m-538 -55 c25 -51 22 -78 -5 -51 -6 6 -20 11 -32 11 -12 0 -26
-5 -32 -11 -6 -6 -16 -10 -21 -8 -13 5 38 120 52 116 6 -1 23 -27 38 -57z
m402 50 c46 -17 29 -80 -21 -80 -14 0 -23 -6 -23 -15 0 -8 -7 -15 -15 -15 -12
0 -15 13 -15 60 0 57 1 60 24 60 14 0 36 -4 50 -10z m529 -26 l25 -35 22 35
c12 20 26 36 31 36 5 0 9 -27 9 -60 0 -47 -3 -60 -15 -60 -9 0 -15 9 -15 23
-1 22 -1 22 -16 2 -15 -20 -15 -20 -35 4 l-19 23 0 -26 c0 -16 -5 -26 -15 -26
-11 0 -15 13 -15 53 0 47 5 67 16 67 2 0 14 -16 27 -36z m-745 9 c12 -12 13
-18 4 -21 -18 -6 -15 -52 3 -52 19 0 20 -16 1 -23 -22 -9 -43 15 -48 53 -9 59
7 76 40 43z m992 7 c0 -5 7 -10 15 -10 8 0 15 -4 15 -10 0 -5 -7 -10 -15 -10
-8 0 -15 -9 -15 -20 0 -11 7 -23 15 -26 23 -9 18 -26 -7 -22 -17 2 -24 11 -26
33 -2 16 -9 33 -14 36 -7 5 -6 12 3 23 16 18 29 20 29 6z m-1110 -46 c0 -45
24 -42 28 4 2 20 9 32 18 32 10 0 14 -13 14 -46 l0 -45 -42 3 c-43 3 -43 3
-46 46 -2 33 0 42 12 42 12 0 16 -10 16 -36z m228 24 c7 -7 12 -21 12 -33 0
-49 -71 -65 -92 -20 -9 21 -8 28 7 45 20 22 55 26 73 8z m202 -2 c0 -8 -7 -16
-15 -20 -8 -3 -15 -17 -15 -31 0 -16 -6 -25 -15 -25 -11 0 -15 12 -15 45 0 43
1 45 30 45 19 0 30 -5 30 -14z m40 -31 c0 -33 -4 -45 -15 -45 -11 0 -15 12
-15 45 0 33 4 45 15 45 11 0 15 -12 15 -45z m171 18 c13 -36 11 -63 -6 -63
-10 0 -15 10 -15 31 0 24 -4 30 -17 27 -11 -2 -19 -14 -21 -31 -2 -15 -7 -27
-12 -27 -5 0 -10 12 -12 27 -2 17 -10 29 -20 31 -14 3 -18 -3 -18 -27 0 -21
-5 -31 -15 -31 -11 0 -15 12 -15 45 l0 44 71 0 c65 -1 71 -3 80 -26z m105 1
c14 -20 15 -27 5 -33 -7 -5 -11 -12 -9 -17 5 -14 -52 -17 -68 -3 -18 15 -18
44 2 63 23 23 51 19 70 -10z m305 16 c21 -12 25 -50 7 -68 -7 -7 -24 -12 -38
-12 -47 0 -66 42 -34 74 18 19 38 20 65 6z m178 -4 c7 -8 11 -27 9 -42 -6 -53
-88 -50 -88 4 0 15 5 33 12 40 16 16 53 15 67 -2z m91 4 c0 -6 -7 -13 -15 -16
-9 -4 -15 -19 -15 -35 0 -19 -5 -29 -15 -29 -11 0 -15 12 -15 45 0 43 1 45 30
45 17 0 30 -5 30 -10z m80 -6 c0 -11 -6 -14 -20 -9 -11 4 -20 2 -20 -4 0 -6 9
-11 19 -11 34 0 35 -45 1 -50 -31 -5 -50 0 -50 14 0 8 9 12 23 11 13 -1 15 0
4 2 -21 5 -32 27 -23 48 8 21 66 20 66 -1z m292 -26 l12 -33 13 33 c7 17 17
32 22 32 5 0 2 -18 -7 -40 -9 -22 -21 -40 -27 -40 -5 0 -18 18 -27 40 -9 22
-12 40 -7 40 6 0 15 -15 21 -32z m140 -8 c-2 -22 -8 -40 -13 -40 -10 0 -12 63
-2 73 14 15 18 5 15 -33z m165 -22 c-2 -13 -4 -3 -4 22 0 25 2 35 4 23 2 -13
2 -33 0 -45z m397 26 c9 -20 14 -39 10 -43 -4 -3 -9 0 -11 7 -3 6 -13 12 -23
12 -10 0 -20 -6 -23 -12 -2 -7 -7 -10 -11 -7 -8 7 21 79 32 79 5 0 16 -16 26
-36z m86 -4 c0 -37 -2 -40 -29 -40 -30 0 -45 19 -35 45 4 8 15 15 25 15 10 0
19 5 19 10 0 6 5 10 10 10 6 0 10 -18 10 -40z m5540 26 c6 -8 10 -25 8 -38 -2
-19 -9 -23 -38 -23 -29 0 -36 4 -38 23 -4 28 14 52 38 52 10 0 23 -7 30 -14z
m37 -48 c-2 -13 -4 -3 -4 22 0 25 2 35 4 23 2 -13 2 -33 0 -45z m55 53 c-11
-7 -11 -9 2 -14 9 -4 16 -18 16 -32 0 -23 -4 -26 -27 -23 -32 4 -44 28 -14 28
12 0 21 5 21 11 0 6 -7 9 -15 5 -8 -3 -15 -2 -15 2 0 12 22 32 35 32 5 0 4 -4
-3 -9z m139 -33 c13 -32 13 -32 19 -8 3 14 15 27 25 29 11 2 23 8 27 15 4 6 8
-8 8 -31 l0 -43 -40 2 c-22 1 -40 5 -40 10 0 4 -11 8 -25 8 -14 0 -25 -4 -25
-10 0 -5 -5 -10 -10 -10 -6 0 -1 18 10 40 23 45 31 45 51 -2z m619 1 c0 -38
-1 -40 -27 -37 -22 2 -28 8 -28 28 0 18 6 26 23 28 12 2 22 8 22 13 0 5 2 9 5
9 3 0 5 -18 5 -41z m-188 13 c-16 -5 -15 -39 1 -45 7 -3 5 -6 -5 -6 -13 -1
-18 7 -18 24 0 19 -5 25 -22 25 -21 -1 -22 -2 -5 -14 25 -20 21 -36 -10 -35
l-28 1 25 7 25 7 -24 6 c-31 9 -22 31 15 39 30 6 68 -1 46 -9z m-6884 -24 c3
-24 0 -28 -23 -28 -27 0 -41 20 -31 46 10 27 51 13 54 -18z m97 21 c4 -6 0 -9
-11 -7 -11 2 -20 -4 -22 -15 -3 -15 0 -18 17 -12 12 4 21 2 21 -4 0 -17 -50
-13 -56 4 -14 34 33 65 51 34z m43 -37 c7 -2 12 6 12 22 0 14 5 26 10 26 6 0
10 -13 10 -30 0 -27 -3 -30 -30 -30 -27 0 -30 3 -29 33 1 29 2 29 8 8 4 -14
12 -26 19 -29z m128 37 c4 -8 9 -8 17 0 14 14 47 14 47 1 0 -5 -8 -7 -17 -3
-12 3 -10 0 5 -11 27 -21 20 -36 -16 -35 l-27 1 25 7 25 7 -23 6 c-15 4 -25 2
-29 -8 -7 -19 -52 -18 -59 1 -14 35 33 65 52 34z m526 -3 c11 -16 10 -46 -1
-46 -5 0 -11 10 -13 23 -4 28 -22 25 -27 -5 l-4 -23 -6 23 c-8 30 -25 33 -29
5 -5 -34 -22 -28 -22 7 0 28 1 29 48 28 26 0 50 -6 54 -12z m38 -16 c0 -16 -4
-30 -10 -30 -5 0 -10 14 -10 30 0 17 5 30 10 30 6 0 10 -13 10 -30z m69 -2
c-1 -28 -2 -30 -7 -10 -9 30 -26 33 -30 5 -5 -34 -22 -28 -22 7 0 27 3 30 30
30 27 0 30 -3 29 -32z m5750 -1 c-1 -28 -2 -29 -7 -9 -9 30 -26 30 -31 0 l-4
-23 -6 24 c-9 34 -31 39 -31 7 0 -14 -4 -26 -10 -26 -5 0 -10 13 -10 29 0 29
1 30 50 29 50 0 50 0 49 -31z m28 -14 c-3 -10 -5 -2 -5 17 0 19 2 27 5 18 2
-10 2 -26 0 -35z m81 15 c2 -16 -1 -28 -7 -28 -6 0 -11 12 -11 26 0 32 -22 27
-31 -7 -6 -21 -7 -20 -8 9 -1 31 1 33 27 30 21 -2 28 -9 30 -30z m29 -15 c-3
-10 -5 -2 -5 17 0 19 2 27 5 18 2 -10 2 -26 0 -35z m145 35 c-5 -7 -12 -22
-15 -33 -3 -13 -5 -9 -6 13 -1 23 3 32 15 32 12 0 14 -3 6 -12z m66 -21 c3
-26 1 -28 -24 -25 -33 4 -45 28 -15 28 12 0 21 5 21 11 0 6 -7 9 -15 5 -8 -3
-15 -1 -15 5 0 6 10 9 23 7 16 -2 23 -11 25 -31z m146 18 c9 -24 -4 -45 -29
-45 -27 0 -40 26 -24 46 15 18 45 18 53 -1z m38 3 c-5 -7 -12 -22 -15 -33 -3
-13 -5 -9 -6 13 -1 23 3 32 15 32 12 0 14 -3 6 -12z m-835 -60 c-3 -8 -6 -5
-6 6 -1 11 2 17 5 13 3 -3 4 -12 1 -19z"/>
<path d="M14077 8873 c-13 -13 -7 -32 13 -38 26 -8 26 -22 0 -28 -17 -4 -17
-4 2 -3 29 1 36 32 8 39 -11 3 -20 11 -20 17 0 7 8 10 20 7 11 -3 18 -1 14 4
-6 11 -28 12 -37 2z"/>
<path d="M14162 8846 c7 -8 15 -12 17 -11 5 6 -10 25 -20 25 -5 0 -4 -6 3 -14z"/>
<path d="M14212 8830 c0 -19 2 -27 5 -17 2 9 2 25 0 35 -3 9 -5 1 -5 -18z"/>
<path d="M14241 8826 c1 -21 3 -25 6 -11 3 11 9 25 14 31 5 7 3 11 -6 11 -10
0 -15 -10 -14 -31z"/>
<path d="M14140 8818 c0 -11 8 -18 20 -18 11 0 20 5 20 11 0 5 -5 7 -11 3 -6
-3 -15 0 -20 7 -7 11 -9 10 -9 -3z"/>
<path d="M4726 8865 c-3 -9 0 -15 9 -15 9 0 12 6 9 15 -4 8 -7 15 -9 15 -2 0
-5 -7 -9 -15z"/>
<path d="M5130 8869 c0 -25 33 -22 38 4 2 12 -3 17 -17 17 -15 0 -21 -6 -21
-21z"/>
<path d="M5021 8860 c-17 -10 -7 -40 14 -40 8 0 15 9 15 19 0 24 -12 32 -29
21z"/>
<path d="M5535 8860 c-3 -5 3 -10 15 -10 12 0 18 5 15 10 -3 6 -10 10 -15 10
-5 0 -12 -4 -15 -10z"/>
<path d="M5548 8823 c7 -3 16 -2 19 1 4 3 -2 6 -13 5 -11 0 -14 -3 -6 -6z"/>
<path d="M5851 8860 c-17 -10 -7 -40 14 -40 8 0 15 9 15 19 0 24 -12 32 -29
21z"/>
<path d="M6022 8857 c-14 -17 2 -42 22 -34 20 8 20 21 2 36 -10 8 -16 8 -24
-2z"/>
<path d="M7200 8840 c0 -5 5 -10 10 -10 6 0 10 5 10 10 0 6 -4 10 -10 10 -5 0
-10 -4 -10 -10z"/>
<path d="M7275 8840 c-7 -12 2 -30 16 -30 12 0 12 27 0 35 -5 3 -12 1 -16 -5z"/>
<path d="M12810 8855 c-17 -20 -5 -45 20 -45 11 0 23 7 26 15 6 15 -11 45 -26
45 -4 0 -13 -7 -20 -15z"/>
<path d="M13056 8845 c-3 -9 0 -15 9 -15 9 0 12 6 9 15 -4 8 -7 15 -9 15 -2 0
-5 -7 -9 -15z"/>
<path d="M13124 8839 c-10 -17 13 -36 27 -22 12 12 4 33 -11 33 -5 0 -12 -5
-16 -11z"/>
<path d="M13664 8839 c-10 -17 13 -36 27 -22 12 12 4 33 -11 33 -5 0 -12 -5
-16 -11z"/>
<path d="M6608 8813 c7 -3 16 -2 19 1 4 3 -2 6 -13 5 -11 0 -14 -3 -6 -6z"/>
<path d="M6874 8836 c-4 -9 -4 -20 0 -23 3 -4 12 -1 18 5 9 9 9 15 0 24 -9 9
-13 7 -18 -6z"/>
<path d="M13747 8843 c-13 -12 -7 -33 8 -33 8 0 15 9 15 20 0 20 -11 26 -23
13z"/>
<path d="M4795 7961 c-48 -22 -79 -54 -100 -103 -23 -56 -23 -683 1 -692 9 -3
138 -6 287 -6 258 0 582 -11 766 -26 l84 -7 -64 -22 c-35 -12 -106 -43 -156
-68 -51 -26 -104 -47 -118 -47 -15 0 -24 -3 -22 -7 3 -5 -57 -9 -132 -9 -86
-1 -161 -7 -204 -18 -38 -9 -80 -16 -95 -17 l-27 -1 30 -13 30 -13 -30 -4 -29
-3 27 -18 c15 -10 52 -22 82 -28 30 -5 67 -16 82 -24 15 -8 39 -12 53 -9 17 4
21 3 12 -4 -10 -7 -6 -11 17 -15 33 -7 36 -13 22 -36 -8 -13 -46 -13 -283 -2
-150 7 -290 15 -310 18 -33 5 -38 3 -38 -15 0 -26 17 -29 180 -37 74 -4 160
-11 190 -17 64 -12 197 -14 223 -3 24 10 21 -7 -4 -23 -22 -14 -325 -28 -501
-23 l-88 2 0 -30 0 -31 113 6 c61 3 128 10 147 15 19 5 84 9 144 9 l110 0 -27
-28 c-15 -16 -32 -44 -37 -63 -6 -19 -10 -135 -10 -259 0 -124 -5 -245 -11
-270 -20 -90 -22 -145 -5 -159 22 -18 20 -31 -3 -31 -11 0 -21 -4 -23 -9 -1
-6 -38 -12 -80 -14 -43 -3 -76 -1 -73 3 8 13 64 17 69 6 2 -6 7 1 11 17 5 20
13 27 31 27 13 0 24 6 24 13 0 20 -107 20 -114 0 -4 -10 -2 -13 7 -10 8 3 20
1 28 -5 9 -6 -4 -7 -41 -4 -38 4 -47 3 -30 -3 36 -13 6 -13 -67 0 -62 11 -79
23 -45 33 9 2 -5 2 -33 -1 -27 -3 -55 -9 -61 -14 -6 -5 -14 -6 -17 -2 -4 3 -7
-1 -7 -10 0 -8 10 -18 23 -20 l22 -4 -23 -2 -23 -1 3 -424 3 -424 30 -43 c17
-23 48 -52 70 -63 l40 -21 1908 -2 1908 -3 27 25 c15 14 29 20 31 14 1 -5 -5
-17 -15 -24 -17 -13 -13 -14 41 -14 37 0 67 5 79 14 11 8 17 15 13 15 -4 0 -2
10 4 23 9 18 9 20 -2 10 -17 -17 -36 -16 -36 1 0 8 6 12 14 9 7 -3 13 0 13 7
0 6 4 9 8 6 5 -3 27 6 49 18 22 13 46 21 51 17 6 -4 -2 -12 -19 -20 -16 -7
-27 -17 -24 -21 3 -5 -9 -17 -26 -26 -22 -11 -28 -18 -19 -24 9 -6 8 -10 -6
-19 -16 -9 -13 -10 19 -11 34 0 40 4 52 34 11 25 21 34 36 33 19 -1 19 -2 3
-14 -26 -19 2 -16 31 3 13 9 29 13 34 10 5 -4 13 -1 17 5 4 8 3 9 -4 5 -7 -4
-12 -5 -12 -2 0 11 58 35 66 28 5 -4 2 1 -5 11 -13 16 -16 16 -37 2 -13 -9
-24 -11 -24 -6 0 5 8 12 18 17 24 11 52 13 47 3 -11 -17 17 -19 45 -3 21 13
26 20 17 26 -8 5 -7 8 6 8 9 0 17 5 17 10 0 15 30 12 36 -3 5 -14 42 -17 62
-4 7 5 12 4 12 -3 0 -6 -11 -16 -25 -22 -15 -7 -24 -17 -21 -25 3 -7 0 -13 -6
-13 -6 0 -8 -3 -5 -7 4 -3 15 1 25 10 10 10 22 14 27 10 4 -5 5 -2 1 5 -9 15
20 52 41 52 7 0 13 7 13 17 0 14 -2 14 -21 -3 -17 -15 -22 -16 -29 -4 -10 16
14 50 34 50 6 0 3 -5 -6 -11 -10 -5 -18 -15 -18 -20 0 -8 32 9 69 38 2 1 -1 9
-8 17 -10 12 -16 12 -43 -1 -17 -9 -33 -24 -35 -34 -3 -10 -10 -16 -16 -12 -5
3 -7 2 -4 -3 3 -6 -10 -11 -29 -11 -44 -1 -40 21 4 25 20 2 32 9 32 18 0 9 -5
12 -12 8 -8 -4 -10 -3 -5 2 5 5 14 9 19 9 6 0 13 6 16 13 2 7 -2 10 -11 6 -8
-3 -18 -1 -21 5 -3 5 6 12 22 16 29 6 66 40 97 90 l19 30 -29 -25 c-17 -14
-32 -29 -36 -33 -3 -4 -13 -5 -23 -1 -12 5 -14 10 -5 20 6 7 8 17 5 22 -3 5
16 18 42 27 25 10 41 20 34 23 -10 3 -10 7 -1 18 18 22 2 16 -20 -7 -10 -11
-35 -24 -53 -28 -29 -7 -37 -5 -47 11 -7 12 -18 17 -27 14 -23 -9 -12 15 16
33 23 15 23 15 18 -7 -7 -26 0 -28 31 -6 13 10 44 17 73 17 28 1 44 3 37 6
-16 7 -18 25 -5 38 5 4 6 3 2 -4 -10 -18 13 -27 30 -12 23 19 42 19 48 2 5
-12 9 -13 21 -3 19 16 19 31 0 24 -8 -4 -15 -2 -15 3 0 5 -13 8 -30 5 -16 -2
-30 -8 -30 -12 0 -5 -11 -3 -24 3 -37 18 -21 27 39 23 43 -3 58 0 71 15 17 18
11 41 -9 38 -41 -5 -75 2 -73 16 1 8 6 18 11 22 4 4 5 2 1 -4 -9 -17 6 -17 23
0 10 10 11 9 6 -4 -5 -13 -1 -17 18 -15 14 0 24 3 21 5 -2 2 4 10 14 17 16 11
16 13 -1 32 -15 16 -15 21 -4 30 8 7 17 9 20 5 4 -3 12 -1 20 5 7 6 25 9 39 8
15 -2 25 0 23 4 -3 4 2 13 10 20 8 7 15 23 15 35 0 23 -1 23 -31 8 -16 -8 -33
-12 -37 -8 -4 4 -1 10 6 12 7 3 19 11 26 19 8 8 21 14 29 14 26 0 47 12 40 23
-3 5 -2 7 3 4 6 -3 16 -2 24 3 12 7 12 10 -3 16 -9 3 -17 13 -17 21 0 13 3 13
15 3 9 -7 18 -10 22 -6 3 3 1 6 -6 6 -8 0 -6 8 5 25 16 24 15 25 -4 25 -11 0
-22 7 -26 15 -3 8 -1 15 3 15 5 0 11 -5 13 -12 3 -9 6 -9 12 0 4 7 2 12 -4 12
-6 0 -8 4 -5 10 3 6 -1 7 -9 4 -14 -6 -21 5 -17 28 0 4 -6 5 -14 2 -18 -7 -19
-16 4 91 10 50 22 117 26 150 3 33 15 111 26 173 23 127 27 288 10 321 -10 17
-9 22 2 27 12 4 12 14 2 62 -7 31 -16 65 -20 75 -7 17 1 18 151 17 88 -1 170
-1 184 0 23 2 23 3 -6 11 -29 8 -51 35 -39 47 2 3 37 0 77 -6 40 -6 97 -14
126 -17 l52 -7 0 496 c0 426 -2 502 -15 534 -21 49 -52 81 -100 103 -36 17
-70 19 -367 19 l-327 0 -4 -32 -4 -33 -1 33 -2 32 -2292 0 c-2208 0 -2294 -1
-2333 -19z m5015 -11 c13 -8 13 -10 -2 -10 -9 0 -20 5 -23 10 -8 13 5 13 25 0z
m-1454 -76 c-4 -9 -9 -15 -11 -12 -3 3 -3 13 1 22 4 9 9 15 11 12 3 -3 3 -13
-1 -22z m1049 -111 c-4 -36 -9 -62 -12 -59 -3 3 -2 40 2 83 5 43 10 69 13 59
2 -10 1 -48 -3 -83z m-3635 14 c-12 -26 -22 -47 -23 -47 -7 0 7 87 16 98 22
27 27 -6 7 -51z m117 -9 c-3 -8 -6 -5 -6 6 -1 11 2 17 5 13 3 -3 4 -12 1 -19z
m1551 -5 c-10 -2 -28 -2 -40 0 -13 2 -5 4 17 4 22 1 32 -1 23 -4z m-135 -10
c-13 -2 -23 -9 -23 -14 0 -5 -19 -9 -42 -8 l-43 1 45 13 c25 7 54 13 65 13 17
-1 16 -1 -2 -5z m872 -14 c66 -5 185 -19 265 -30 162 -23 198 -26 320 -34 116
-8 179 -21 288 -62 158 -58 224 -103 319 -217 103 -122 134 -164 180 -246 46
-80 53 -106 27 -96 -10 4 -14 1 -11 -6 2 -7 12 -13 21 -13 20 0 31 -17 39 -60
l6 -30 -14 32 c-18 40 -40 56 -30 22 7 -23 6 -23 -7 -5 -14 18 -18 18 -119
-13 -57 -18 -128 -44 -158 -58 -35 -17 -71 -26 -100 -26 -30 1 -39 -2 -26 -7
17 -6 15 -8 -15 -18 -33 -11 -215 -42 -244 -42 -10 0 -12 9 -6 38 11 62 12 62
128 62 59 0 124 5 144 10 42 12 97 69 78 80 -9 6 -9 9 -1 14 6 4 9 12 5 17 -4
6 -11 6 -20 -2 -11 -9 -61 -10 -197 -5 -217 9 -227 13 -178 75 18 23 30 41 27
41 -3 0 -9 0 -13 0 -5 0 -8 -3 -8 -8 0 -4 -10 -20 -22 -35 -21 -27 -22 -27
-60 -12 -37 15 -38 17 -59 105 l-21 90 51 -1 c48 -2 49 -2 16 -9 -35 -7 -35
-7 18 -15 30 -4 49 -11 43 -15 -7 -4 0 -12 16 -21 16 -8 32 -20 36 -26 4 -7
16 -13 25 -13 9 0 46 -7 82 -15 36 -8 97 -21 136 -28 70 -13 71 -12 66 8 -4
15 1 12 22 -12 15 -18 27 -35 26 -38 0 -3 7 -18 16 -34 15 -26 21 -28 63 -24
107 10 190 59 176 103 -24 74 -231 333 -263 328 -9 -2 -17 3 -17 11 0 8 -6 16
-14 19 -9 3 -11 0 -6 -8 4 -7 -4 -6 -23 4 -56 29 -132 56 -132 47 0 -5 22 -17
49 -26 53 -17 139 -68 158 -94 13 -17 73 -160 73 -174 0 -5 -32 17 -72 48 -72
57 -72 57 -89 36 -24 -29 -14 -53 43 -106 42 -40 51 -45 66 -34 15 12 16 11 2
-4 -17 -18 -60 -13 -60 8 0 14 -40 52 -47 45 -2 -3 -11 6 -20 20 -8 14 -12 17
-9 8 3 -9 8 -33 12 -54 12 -64 -12 -30 -41 59 -31 94 -102 253 -123 280 -22
25 -136 24 -179 -3 -18 -11 -33 -16 -33 -11 0 15 84 51 117 51 44 0 178 -36
241 -65 30 -14 57 -23 60 -20 8 8 -109 56 -187 76 -120 31 -186 24 -231 -23
-33 -34 -86 -150 -140 -305 -29 -86 -52 -137 -59 -135 -7 1 -10 -2 -6 -8 3 -5
-1 -20 -9 -32 -9 -12 -16 -31 -16 -41 0 -10 -5 -15 -11 -12 -6 4 -8 14 -5 22
3 8 1 11 -4 8 -6 -3 -10 -13 -10 -20 0 -8 -6 -12 -14 -9 -17 7 -30 -25 -16
-41 8 -10 4 -27 -14 -64 -27 -52 -32 -71 -18 -71 7 0 17 20 48 98 21 55 28 48
13 -12 -9 -35 -9 -54 -1 -72 18 -39 27 -28 28 33 0 32 4 78 9 101 l8 44 13
-37 c8 -25 9 -46 3 -62 -15 -39 -11 -52 26 -89 50 -50 47 -79 -14 -149 -28
-31 -52 -67 -54 -78 -3 -16 -5 -13 -6 9 0 18 9 43 24 64 14 19 25 39 25 44 0
6 -7 3 -14 -6 -7 -10 -15 -15 -18 -13 -3 3 -15 -21 -27 -54 l-22 -60 27 -26
c27 -27 26 -48 -1 -25 -12 10 -15 10 -15 -3 0 -11 -7 -14 -24 -11 -14 2 -31
-3 -40 -11 -8 -8 -18 -15 -22 -15 -9 0 -33 -32 -34 -45 0 -5 5 -3 10 5 8 11 9
7 6 -15 -3 -16 -17 -40 -31 -52 -22 -19 -33 -22 -88 -17 -34 3 -73 1 -87 -4
-24 -10 -24 -11 10 -11 66 -2 139 -14 134 -22 -3 -5 -37 -6 -77 -3 -55 5 -81
3 -111 -10 -48 -20 -52 -20 -35 1 9 11 3 9 -19 -6 -18 -12 -30 -26 -27 -31 3
-5 -8 -16 -26 -25 -17 -10 -28 -12 -24 -5 8 13 -46 -13 -89 -43 -18 -13 -26
-15 -21 -6 4 7 -14 -7 -41 -33 -45 -44 -51 -47 -69 -34 -11 8 -44 21 -73 29
-60 18 -381 61 -390 53 -3 -3 2 -6 11 -6 9 0 31 -9 49 -19 18 -10 79 -34 136
-52 70 -22 99 -35 89 -41 -17 -9 -283 -38 -301 -33 -6 2 -68 6 -137 9 -120 4
-127 6 -171 35 -40 27 -161 87 -241 120 -15 6 -26 15 -23 20 4 5 -20 2 -51 -6
-43 -11 -80 -13 -142 -8 -85 7 -121 23 -121 55 0 9 -15 24 -32 35 -18 10 -39
25 -46 32 -8 7 -18 11 -23 8 -5 -3 -18 2 -29 13 l-20 19 20 18 c19 17 39 18
273 16 139 -1 319 3 400 9 82 7 151 10 153 7 6 -6 -120 -82 -166 -100 -19 -8
-44 -18 -55 -22 -11 -5 -30 -10 -43 -11 -27 -3 -102 -44 -102 -56 0 -4 24 1
53 12 63 24 149 41 141 29 -3 -5 68 -9 158 -9 90 0 240 -3 333 -6 323 -12 403
11 529 145 10 11 23 18 29 14 6 -3 7 -1 4 4 -7 12 16 36 26 28 4 -3 5 -2 2 2
-3 3 29 42 71 85 41 43 72 83 69 88 -3 6 -2 10 4 10 25 0 120 42 125 55 5 13
2 13 -18 0 -33 -22 -339 -109 -456 -130 -131 -24 -555 -31 -1025 -16 -663 21
-884 57 -1233 198 -97 40 -111 48 -100 61 11 13 9 15 -14 10 -16 -3 -28 -2
-28 2 0 13 66 19 106 10 37 -8 98 -12 154 -9 14 1 57 -3 95 -9 39 -7 105 -12
148 -12 42 0 77 -4 77 -9 0 -6 21 -13 48 -17 26 -4 57 -11 70 -15 14 -6 22 -5
22 2 0 7 12 9 30 7 35 -5 35 -5 13 18 -17 17 -17 18 0 11 20 -7 104 10 124 25
7 6 51 11 98 11 47 1 85 5 85 8 0 10 -28 19 -55 19 -13 0 -25 5 -27 11 -2 6
-22 12 -45 13 -23 0 -39 4 -37 8 3 5 -13 8 -35 8 -22 0 -42 4 -45 9 -3 5 -20
11 -38 14 -18 2 -66 19 -107 36 -40 17 -84 31 -97 31 -13 0 -24 5 -24 10 0 18
57 10 113 -15 32 -15 62 -23 72 -19 14 6 6 13 -36 35 -42 22 -63 27 -94 23
-24 -3 -56 1 -80 10 l-40 15 35 0 c75 -1 200 8 207 14 3 4 -5 7 -18 7 -14 0
-34 6 -44 14 -16 11 -9 11 46 0 76 -16 92 -17 85 -5 -3 5 -27 12 -53 15 -78
11 -103 17 -103 26 0 4 17 4 38 -1 20 -5 88 -13 151 -18 85 -7 116 -13 123
-24 4 -9 23 -24 41 -35 29 -18 59 -20 382 -26 193 -4 426 -11 519 -17 93 -5
170 -8 173 -6 2 2 -47 9 -109 16 -62 6 -147 16 -188 21 -41 5 -156 18 -255 30
-186 21 -250 34 -260 50 -3 6 -18 10 -32 10 -15 0 -24 3 -21 6 3 3 86 -2 185
-10 196 -17 316 -26 266 -19 -18 2 -33 9 -33 14 0 7 15 9 38 5 20 -3 63 -8 95
-11 31 -4 55 -10 52 -15 -3 -4 3 -11 12 -14 9 -4 19 -2 23 4 4 7 22 6 56 -5
47 -14 613 -75 692 -75 37 1 37 1 12 14 -23 12 -358 63 -565 86 -119 13 -235
33 -235 40 0 7 131 126 228 206 40 34 88 65 105 68 30 7 31 8 13 21 -10 8 -24
16 -30 18 -6 2 0 14 14 26 l25 21 -25 -9 c-15 -5 -26 -17 -28 -31 -4 -23 -1
-23 -88 -5 l-29 6 29 -16 c28 -17 28 -17 10 -36 -11 -10 -32 -20 -47 -21 -40
-3 -65 -33 -49 -58 7 -12 8 -21 2 -25 -6 -3 -10 -2 -10 3 0 5 -19 9 -42 10
-23 1 -46 6 -50 10 -9 9 36 46 70 56 12 4 20 11 17 16 -2 4 8 13 24 20 41 17
30 43 -15 38 -19 -2 -34 0 -34 5 0 13 -72 1 -80 -13 -4 -7 -29 -10 -61 -8
l-54 3 48 14 c26 7 47 17 47 22 0 13 -27 11 -58 -5 -29 -14 -152 -28 -130 -15
7 5 22 9 33 9 11 0 31 7 45 15 25 14 25 14 2 15 -12 0 -39 -7 -60 -16 -20 -8
-65 -16 -98 -17 -34 -1 -57 -5 -50 -9 10 -7 3 -9 -45 -13 -21 -1 -50 -25 -44
-35 2 -4 -16 -15 -40 -25 -46 -17 -128 -78 -119 -88 3 -3 0 -8 -7 -13 -8 -5
-10 -3 -4 6 6 10 4 12 -11 6 -10 -5 -31 -13 -46 -18 -33 -12 -36 -24 -8 -31
11 -3 18 -1 15 3 -3 5 0 12 6 16 8 4 9 3 5 -4 -4 -8 0 -12 11 -12 14 -1 13 -4
-7 -15 -27 -15 -170 -20 -170 -6 0 22 78 82 196 151 71 41 131 78 132 83 6 13
140 77 162 77 11 0 20 5 20 10 0 6 12 10 28 10 25 0 70 19 47 20 -5 0 10 10
35 21 71 32 192 52 360 59 114 4 136 7 85 10 -61 4 -54 5 55 10 153 8 434 3
595 -11z m-1034 -30 c-30 -10 -56 -17 -58 -15 -5 5 77 34 97 34 8 1 -9 -8 -39
-19z m-81 -29 c-8 -5 -19 -10 -25 -10 -5 0 -3 5 5 10 8 5 20 10 25 10 6 0 3
-5 -5 -10z m-60 -25 c-14 -8 -29 -14 -35 -14 -5 0 1 6 15 14 14 8 30 14 35 14
6 0 -1 -6 -15 -14z m2387 -7 c-3 -8 -6 -5 -6 6 -1 11 2 17 5 13 3 -3 4 -12 1
-19z m-2592 -91 c-175 -90 -247 -131 -284 -159 -13 -10 -31 -18 -40 -18 -9 0
20 21 64 46 111 64 398 214 410 214 6 0 -62 -38 -150 -83z m2162 17 c14 -4 32
-29 56 -82 59 -131 60 -128 -21 -87 -69 34 -152 59 -152 45 0 -4 37 -27 82
-51 119 -64 162 -100 176 -147 19 -63 15 -67 -32 -24 -24 22 -53 45 -66 52
-12 7 -41 26 -64 44 -23 17 -76 47 -118 66 -50 23 -77 41 -78 51 0 25 62 112
90 126 26 13 90 17 127 7z m-191 -52 c-18 -16 -18 -16 -6 6 6 13 14 21 18 18
3 -4 -2 -14 -12 -24z m-1436 -22 c20 -6 21 -8 5 -8 -11 0 -29 3 -40 8 -25 11
1 11 35 0z m-436 -45 c-10 -8 -28 -14 -39 -14 -16 1 -13 4 10 14 40 19 53 19
29 0z m2479 -144 c38 -51 47 -71 47 -105 l0 -41 -21 34 c-16 27 -23 31 -30 20
-7 -12 -9 -12 -9 1 0 12 -25 77 -77 200 -9 20 33 -30 90 -109z m-1926 103 c-3
-3 -12 -4 -19 -1 -8 3 -5 6 6 6 11 1 17 -2 13 -5z m-1007 -48 c-21 -20 -188
-116 -203 -116 -7 0 33 25 87 55 55 30 104 59 110 65 5 5 12 10 15 10 3 0 -1
-7 -9 -14z m2265 -168 c3 -24 7 -52 9 -64 1 -11 5 -25 9 -31 4 -6 9 -36 13
-67 5 -44 4 -56 -7 -57 -8 0 -25 -2 -39 -5 -14 -2 -20 -1 -13 4 9 6 8 33 -7
117 -24 128 -23 118 -8 109 7 -5 8 -3 4 5 -5 7 -2 26 5 43 12 28 13 29 20 10
4 -11 11 -40 14 -64z m-1838 66 c-3 -3 -12 -4 -19 -1 -8 3 -5 6 6 6 11 1 17
-2 13 -5z m-560 -30 c-3 -3 -12 -4 -19 -1 -8 3 -5 6 6 6 11 1 17 -2 13 -5z
m68 -12 c-3 -3 -11 0 -18 7 -9 10 -8 11 6 5 10 -3 15 -9 12 -12z m880 7 c-7
-10 -55 -9 -55 2 0 3 14 6 30 7 17 0 28 -3 25 -9z m-2380 -9 c3 -5 -1 -10 -9
-10 -8 0 -18 5 -21 10 -3 6 1 10 9 10 8 0 18 -4 21 -10z m185 0 c0 -5 -4 -10
-9 -10 -6 0 -13 5 -16 10 -3 6 1 10 9 10 9 0 16 -4 16 -10z m1161 -17 c13 -15
12 -15 -8 -4 -24 12 -29 21 -14 21 5 0 15 -7 22 -17z m3265 -60 c-6 -6 -36 52
-36 69 1 7 10 -4 21 -25 11 -22 18 -41 15 -44z m-2259 61 c-3 -3 -12 -4 -19
-1 -8 3 -5 6 6 6 11 1 17 -2 13 -5z m-1367 -104 c0 -5 -15 -10 -32 -9 -31 1
-32 1 -8 9 35 11 40 11 40 0z m2957 -33 c-2 -7 -15 -12 -28 -12 -19 0 -25 6
-27 28 l-3 28 31 -16 c17 -9 29 -22 27 -28z m-3137 -72 c0 -8 -3 -15 -7 -15
-5 0 -18 -3 -30 -6 -13 -4 -23 -2 -23 2 0 9 35 30 53 33 4 0 7 -6 7 -14z m373
-2 c-7 -2 -19 -2 -25 0 -7 3 -2 5 12 5 14 0 19 -2 13 -5z m60 -10 c-7 -2 -19
-2 -25 0 -7 3 -2 5 12 5 14 0 19 -2 13 -5z m3545 -28 c-3 -3 -9 2 -12 12 -6
14 -5 15 5 6 7 -7 10 -15 7 -18z m-3681 8 c-20 -2 -52 -2 -70 0 -17 2 0 4 38
4 39 0 53 -2 32 -4z m186 0 c-7 -2 -19 -2 -25 0 -7 3 -2 5 12 5 14 0 19 -2 13
-5z m2644 1 c-3 -3 -12 -4 -19 -1 -8 3 -5 6 6 6 11 1 17 -2 13 -5z m-3234 -21
c-7 -2 -21 -2 -30 0 -10 3 -4 5 12 5 17 0 24 -2 18 -5z m3212 -3 c14 0 16 -3
8 -11 -9 -9 -20 -8 -45 5 -26 14 -28 16 -8 12 14 -3 34 -6 45 -6z m-2967 -11
c-18 -7 -33 -7 -45 0 -14 8 -9 10 27 10 42 -1 43 -1 18 -10z m-453 -9 c-11 -5
-29 -9 -40 -9 l-20 0 20 9 c11 5 29 9 40 9 l20 0 -20 -9z m1009 -1 c-3 -6 -19
-9 -35 -7 -17 3 -34 -1 -40 -9 -6 -7 -26 -12 -43 -12 -17 1 -23 3 -13 6 10 3
30 11 45 19 33 17 96 19 86 3z m3171 1 c4 -6 -5 -10 -19 -10 -14 0 -26 -4 -26
-10 0 -5 -4 -10 -10 -10 -20 0 -9 29 13 33 12 2 25 5 29 6 4 0 10 -3 13 -9z
m-3392 -7 c-7 -2 -21 -2 -30 0 -10 3 -4 5 12 5 17 0 24 -2 18 -5z m-752 -34
c-13 -14 -21 -18 -21 -9 0 13 32 42 38 35 2 -2 -5 -14 -17 -26z m674 11 c-3
-5 -13 -10 -21 -10 -8 0 -12 5 -9 10 3 6 13 10 21 10 8 0 12 -4 9 -10z m3210
-1 c11 -16 1 -19 -13 -3 -7 8 -8 14 -3 14 5 0 13 -5 16 -11z m75 -45 c-1 -15
-50 -24 -50 -9 0 7 -3 20 -6 29 -5 14 -3 14 26 3 17 -8 31 -18 30 -23z m285
26 c3 -5 1 -10 -4 -10 -6 0 -11 5 -11 10 0 6 2 10 4 10 3 0 8 -4 11 -10z m265
0 c3 -2 11 -4 17 -4 7 -1 13 -5 13 -9 0 -4 0 -11 0 -17 0 -11 -63 -14 -74 -3
-3 4 -16 8 -27 10 -11 2 -27 10 -35 17 -12 13 -6 14 43 11 32 -1 60 -4 63 -5z
m-4460 -130 c10 -10 20 -16 23 -14 2 3 1 -13 -3 -35 -8 -43 2 -61 31 -61 10 0
21 -4 24 -10 11 -17 -20 -11 -68 14 -25 14 -47 22 -50 20 -3 -3 -19 2 -36 11
-27 13 -31 21 -31 56 0 24 -4 38 -10 34 -11 -7 -11 9 0 45 4 14 9 18 9 10 1
-12 5 -10 18 5 14 18 15 18 9 2 -3 -10 -9 -37 -13 -59 -5 -32 -3 -39 7 -33 8
5 11 4 6 -3 -3 -6 2 -16 13 -21 21 -12 31 2 31 42 0 20 0 20 -15 1 -14 -19
-14 -18 -15 4 0 12 4 22 10 22 5 0 13 24 17 53 l7 52 9 -59 c6 -32 18 -67 27
-76z m4080 110 c0 -5 -5 -10 -11 -10 -5 0 -7 5 -4 10 3 6 8 10 11 10 2 0 4 -4
4 -10z m-230 -9 c0 -10 -30 -24 -37 -17 -3 3 -2 9 2 15 8 13 35 15 35 2z m-50
-23 c0 -6 -3 -8 -7 -5 -3 4 -12 2 -20 -4 -10 -9 -13 -8 -13 4 0 16 19 28 33
20 4 -2 7 -9 7 -15z m414 -60 c13 -29 -22 -15 -52 22 -25 30 -30 32 -51 20
-17 -9 -22 -9 -19 0 2 6 7 11 12 10 5 -1 13 4 18 12 8 13 32 -7 66 -58 7 -10
3 1 -9 25 -11 23 -16 40 -10 36 6 -3 11 0 11 7 1 7 7 -3 14 -22 7 -19 17 -43
20 -52z m-4277 50 c-3 -8 -6 -5 -6 6 -1 11 2 17 5 13 3 -3 4 -12 1 -19z m3476
5 c-7 -2 -21 -2 -30 0 -10 3 -4 5 12 5 17 0 24 -2 18 -5z m127 -8 c0 -4 -82
-29 -88 -26 -1 1 -10 -5 -18 -14 -9 -8 -33 -18 -55 -21 -21 -4 -37 -10 -34
-14 4 -7 -47 -30 -145 -65 -19 -7 -39 -11 -43 -8 -16 10 37 53 77 64 54 14
100 35 116 54 7 8 24 15 39 15 20 0 23 -2 11 -10 -8 -5 -10 -10 -4 -10 6 0 14
3 18 8 19 19 126 43 126 27z m350 -5 c0 -5 -4 -10 -10 -10 -5 0 -10 5 -10 10
0 6 5 10 10 10 6 0 10 -4 10 -10z m-80 -45 c0 -8 -4 -15 -10 -15 -5 0 -7 7 -4
15 4 8 8 15 10 15 2 0 4 -7 4 -15z m-3560 -35 c-12 -8 -12 -10 -1 -10 8 0 12
-2 9 -5 -3 -3 -13 -2 -22 1 -14 5 -15 9 -4 15 7 5 18 9 23 9 6 0 3 -5 -5 -10z
m3920 -16 c0 -8 -7 -14 -15 -14 -15 0 -21 21 -9 33 10 9 24 -2 24 -19z m-4090
-8 c0 -8 -5 -18 -10 -21 -13 -8 -42 14 -34 26 9 15 44 10 44 -5z m103 -39 c67
-33 67 -33 29 -33 -20 0 -52 -4 -69 -8 -32 -8 -33 -8 -33 23 0 23 4 30 13 25
8 -5 8 -2 -2 9 -18 23 -15 22 62 -16z m234 17 c-3 -3 -12 -4 -19 -1 -8 3 -5 6
6 6 11 1 17 -2 13 -5z m-507 -56 c0 -4 11 -8 25 -8 14 0 33 -4 43 -9 9 -5 32
-15 50 -21 19 -8 32 -19 32 -30 0 -10 3 -31 6 -47 6 -30 5 -30 -45 -37 -28 -4
-57 -9 -65 -12 -9 -4 -15 8 -20 38 -4 23 -12 46 -19 50 -7 4 3 8 23 9 19 1 27
3 18 6 -10 2 -18 8 -18 12 0 4 -12 8 -27 9 -16 0 -62 7 -103 14 l-75 14 50 31
49 32 38 -21 c21 -12 38 -25 38 -30z m577 36 c-3 -3 -12 -4 -19 -1 -8 3 -5 6
6 6 11 1 17 -2 13 -5z m2098 -6 c-11 -6 -22 -14 -25 -18 -3 -3 -20 -12 -38
-19 -31 -13 -59 -37 -29 -25 28 10 24 -21 -6 -51 -17 -16 -25 -21 -18 -10 7
11 -7 -2 -31 -29 -109 -125 -98 -117 -166 -125 -93 -11 -217 -8 -233 6 -10 8
-20 9 -29 3 -22 -14 -173 -13 -165 1 4 6 28 10 54 9 100 -4 107 -2 158 44 l48
44 -47 7 c-81 12 -134 -1 -164 -41 -40 -52 -100 -74 -201 -74 -54 0 -82 4 -78
10 3 6 46 10 94 10 76 0 92 3 112 21 13 11 18 18 12 14 -7 -3 -21 -1 -31 4
-13 7 -22 7 -30 -1 -9 -9 -16 -7 -30 5 -10 9 -22 14 -25 10 -4 -3 -7 2 -7 12
0 15 -5 14 -37 -10 -33 -23 -32 -21 7 13 48 43 80 53 170 51 47 -1 50 -3 20
-8 -41 -7 -26 -23 17 -17 43 5 62 18 38 26 -12 4 5 9 45 13 35 4 88 18 119 33
40 18 86 28 166 36 60 6 157 23 215 38 119 31 145 35 115 18z m-2048 -4 c-3
-3 -12 -4 -19 -1 -8 3 -5 6 6 6 11 1 17 -2 13 -5z m-68 -13 c7 -5 12 -13 10
-18 -2 -5 -12 -1 -21 9 -19 19 -13 24 11 9z m3548 3 c-3 -3 -12 -4 -19 -1 -8
3 -5 6 6 6 11 1 17 -2 13 -5z m-848 -23 c11 -7 10 -13 -7 -31 l-21 -23 -11 27
c-5 15 -10 29 -10 32 0 7 35 4 49 -5z m-2475 -11 c42 -16 66 -47 65 -82 -2
-28 -2 -29 -6 -8 -12 62 -83 111 -83 58 -1 -21 -2 -21 -11 -5 -8 14 -14 16
-25 6 -20 -16 -17 -4 3 17 17 17 16 17 -10 10 -16 -4 -27 -2 -27 4 0 13 61 13
94 0z m154 3 c-10 -2 -26 -2 -35 0 -10 3 -2 5 17 5 19 0 27 -2 18 -5z m-478
-25 l34 -11 -65 -18 c-35 -10 -65 -18 -65 -19 -1 0 -4 11 -6 24 -5 25 -3 26
58 35 6 0 26 -4 44 -11z m743 5 c-7 -2 -19 -2 -25 0 -7 3 -2 5 12 5 14 0 19
-2 13 -5z m-1326 -9 c-3 -3 -12 -4 -19 -1 -8 3 -5 6 6 6 11 1 17 -2 13 -5z
m807 -33 c-6 -6 -34 20 -34 32 0 6 8 2 19 -9 10 -10 17 -21 15 -23z m924 32
c-27 -2 -69 -2 -95 0 -27 2 -5 3 47 3 52 0 74 -1 48 -3z m-1031 -40 c-3 -10
-5 -4 -5 12 0 17 2 24 5 18 2 -7 2 -21 0 -30z m1537 23 c-22 -4 -290 -9 -597
-11 -306 -1 -560 -5 -564 -8 -16 -17 -24 -5 -9 12 17 19 38 19 613 18 363 -1
580 -5 557 -11z m-1567 -38 c-3 -7 -5 -2 -5 12 0 14 2 19 5 13 2 -7 2 -19 0
-25z m-540 -30 c-3 -8 -6 -5 -6 6 -1 11 2 17 5 13 3 -3 4 -12 1 -19z m580 0
c-3 -8 -6 -5 -6 6 -1 11 2 17 5 13 3 -3 4 -12 1 -19z m77 -37 l21 -24 -22 12
c-24 12 -43 41 -43 63 0 7 6 4 12 -7 6 -11 20 -31 32 -44z m-50 -77 c17 -7 25
-13 18 -14 -40 -1 -83 59 -81 112 0 13 8 -1 16 -31 13 -43 22 -56 47 -67z
m106 86 c0 -5 -2 -10 -4 -10 -3 0 -8 5 -11 10 -3 6 -1 10 4 10 6 0 11 -4 11
-10z m1410 4 c0 -16 -44 -43 -64 -39 -11 2 -32 4 -45 4 -23 1 -24 2 -6 21 13
15 31 20 67 20 26 0 48 -3 48 -6z m389 -30 c-18 -13 -35 -22 -37 -19 -9 9 42
53 55 48 9 -4 3 -13 -18 -29z m1741 -115 c-20 -43 -20 -43 -14 -9 7 41 26 80
31 64 2 -6 -6 -31 -17 -55z m-3573 35 c-3 -3 -12 -4 -19 -1 -8 3 -5 6 6 6 11
1 17 -2 13 -5z m2167 -4 c-12 -12 -126 -52 -131 -46 -9 9 84 56 112 56 19 0
26 -3 19 -10z m-109 -10 c-3 -5 -11 -10 -16 -10 -6 0 -7 5 -4 10 3 6 11 10 16
10 6 0 7 -4 4 -10z m165 0 c0 -5 -9 -10 -20 -10 -11 0 -20 5 -20 10 0 6 9 10
20 10 11 0 20 -4 20 -10z m1364 -105 c-9 -20 -26 -41 -38 -47 -19 -10 -20 -10
-7 6 8 9 10 16 5 15 -23 -4 -27 2 -8 16 12 8 30 31 40 52 16 33 19 35 22 16 2
-12 -4 -38 -14 -58z m-1594 30 c0 -6 -72 -36 -77 -32 -4 5 57 36 70 37 4 0 7
-2 7 -5z m-480 -35 c157 -21 208 -39 231 -82 11 -20 9 -20 -20 5 -38 31 -72
41 -227 67 -64 10 -119 22 -123 26 -3 3 8 4 24 0 17 -3 68 -10 115 -16z
m-1223 -76 c-3 -3 -12 -4 -19 -1 -8 3 -5 6 6 6 11 1 17 -2 13 -5z m-547 -18
c0 -3 -4 -8 -10 -11 -5 -3 -10 -1 -10 4 0 6 5 11 10 11 6 0 10 -2 10 -4z
m2745 -14 c0 -18 -20 -15 -23 4 -3 10 1 15 10 12 7 -3 13 -10 13 -16z m1020
-32 c-3 -5 -2 -11 2 -13 11 -7 3 -127 -8 -127 -5 0 -9 44 -8 98 0 71 3 91 10
74 5 -13 7 -28 4 -32z m-3695 36 c0 -2 -7 -9 -15 -16 -13 -11 -14 -10 -9 4 5
14 24 23 24 12z m67 -19 c-4 -12 -37 -19 -37 -8 0 12 9 18 25 18 9 0 14 -5 12
-10z m53 -6 c0 -5 -7 -12 -16 -15 -14 -5 -15 -4 -4 9 14 17 20 19 20 6z m30
-12 c-7 -11 -14 -18 -17 -15 -8 8 5 36 17 36 7 0 7 -6 0 -21z m60 2 c0 -5 -6
-14 -14 -20 -12 -10 -13 -8 -9 8 5 21 23 30 23 12z m16 -17 c-4 -9 -9 -15 -11
-12 -3 3 -3 13 1 22 4 9 9 15 11 12 3 -3 3 -13 -1 -22z m68 -9 c-4 -8 -10 -15
-15 -15 -4 0 -6 7 -3 15 4 8 10 15 15 15 4 0 6 -7 3 -15z m60 -10 c-4 -8 -13
-15 -21 -15 -13 0 -13 3 -3 15 7 8 16 15 21 15 5 0 6 -7 3 -15z m32 -11 c-4
-9 -9 -15 -11 -12 -3 3 -3 13 1 22 4 9 9 15 11 12 3 -3 3 -13 -1 -22z m131 4
c-3 -8 -6 -5 -6 6 -1 11 2 17 5 13 3 -3 4 -12 1 -19z m-1240 -25 c-3 -10 -5
-4 -5 12 0 17 2 24 5 18 2 -7 2 -21 0 -30z m1220 5 c-3 -7 -5 -2 -5 12 0 14 2
19 5 13 2 -7 2 -19 0 -25z m3273 12 c0 -11 -4 -20 -10 -20 -5 0 -10 9 -10 20
0 11 5 20 10 20 6 0 10 -9 10 -20z m-1050 -21 c0 -24 -11 -42 -49 -80 -27 -27
-46 -49 -43 -49 4 0 -4 -7 -16 -16 -13 -9 -26 -13 -30 -9 -4 3 1 11 10 16 9 5
31 36 49 69 17 33 35 60 39 60 4 0 10 9 13 20 8 31 27 23 27 -11z m729 17 c-2
-2 -15 -9 -29 -15 -24 -11 -24 -11 -6 3 16 13 49 24 35 12z m-2976 -133 c-7
-2 -19 -2 -25 0 -7 3 -2 5 12 5 14 0 19 -2 13 -5z m2253 -49 c-4 -13 -11 -24
-16 -24 -14 0 -12 37 2 63 11 20 12 20 16 4 2 -10 1 -29 -2 -43z m-183 -14 c3
-11 1 -18 -4 -14 -5 3 -9 12 -9 20 0 20 7 17 13 -6z m-3545 -14 c-7 -7 -19
-11 -25 -9 -18 7 -5 23 18 23 16 0 18 -2 7 -14z m299 -22 c-3 -3 -12 -4 -19
-1 -8 3 -5 6 6 6 11 1 17 -2 13 -5z m3293 -9 c-7 -9 -15 -13 -17 -11 -7 7 7
26 19 26 6 0 6 -6 -2 -15z m-3227 -12 c-7 -2 -19 -2 -25 0 -7 3 -2 5 12 5 14
0 19 -2 13 -5z m-100 -20 c-7 -2 -19 -2 -25 0 -7 3 -2 5 12 5 14 0 19 -2 13
-5z m3607 -3 c0 -5 -5 -10 -11 -10 -5 0 -7 5 -4 10 3 6 8 10 11 10 2 0 4 -4 4
-10z m-363 -50 c-3 -10 2 -25 10 -31 11 -10 11 -14 1 -20 -10 -6 -10 -12 1
-32 9 -17 10 -38 3 -83 l-10 -59 -2 50 -2 50 -15 -65 c-14 -58 -17 -62 -29
-45 -20 27 -17 76 6 135 11 28 17 56 14 62 -4 5 -1 21 7 34 15 29 23 31 16 4z
m53 10 c0 -5 -5 -10 -11 -10 -5 0 -7 5 -4 10 3 6 8 10 11 10 2 0 4 -4 4 -10z
m1205 0 c-3 -5 -11 -10 -16 -10 -6 0 -7 5 -4 10 3 6 11 10 16 10 6 0 7 -4 4
-10z m-1175 -29 c0 -6 -4 -13 -10 -16 -5 -3 -10 1 -10 9 0 9 5 16 10 16 6 0
10 -4 10 -9z m1154 -64 c-2 -7 -13 -18 -24 -25 -16 -10 -20 -10 -20 1 0 11 24
29 47 36 1 1 0 -5 -3 -12z m-57 -12 c0 -15 -19 -26 -49 -30 -9 -1 -15 2 -12 7
3 4 11 8 18 8 8 0 19 7 26 15 15 19 17 19 17 0z m-2957 -19 c0 -2 -9 -6 -20
-9 -11 -3 -18 -1 -14 4 5 9 34 13 34 5z m83 -18 c-2 -5 -5 -8 -8 -8 -57 0 -60
1 -45 10 17 11 56 9 53 -2z m1167 -28 c-7 -17 -22 -36 -34 -42 -28 -15 -415
-32 -447 -19 -21 9 -18 10 21 11 136 2 382 21 404 31 14 7 33 23 42 36 21 33
30 22 14 -17z m-1113 24 c-3 -3 -12 -4 -19 -1 -8 3 -5 6 6 6 11 1 17 -2 13 -5z
m603 -5 c0 -5 -4 -8 -9 -5 -5 4 -11 2 -13 -3 -3 -10 -202 -48 -268 -52 -48 -3
-130 11 -130 22 0 5 -12 8 -27 7 -52 -3 -94 2 -88 11 3 5 -3 12 -12 14 -11 3
-7 5 10 6 16 0 26 -3 23 -7 -7 -11 387 -6 444 6 63 13 70 13 70 1z m556 -42
c-36 -63 -78 -95 -132 -103 -26 -4 -169 -4 -318 -2 l-271 5 -64 30 -63 30 138
5 c107 4 142 2 152 -9 10 -10 63 -13 233 -13 251 0 272 5 315 69 36 54 44 44
10 -12z m1604 3 c0 -5 -5 -10 -11 -10 -5 0 -7 5 -4 10 3 6 8 10 11 10 2 0 4
-4 4 -10z m-993 -62 c-11 -31 -12 -31 -15 -9 -3 19 10 40 25 41 1 0 -3 -15
-10 -32z m-130 -25 c-3 -10 -5 -4 -5 12 0 17 2 24 5 18 2 -7 2 -21 0 -30z
m1013 12 c-7 -8 -17 -15 -22 -15 -11 0 14 29 26 30 5 0 3 -7 -4 -15z m-62 -22
c-10 -2 -18 -8 -18 -12 0 -4 -9 -7 -20 -8 -16 -1 -17 1 -7 12 6 8 23 14 37 13
17 0 19 -2 8 -5z m27 -13 c-3 -5 -12 -10 -18 -10 -7 0 -6 4 3 10 19 12 23 12
15 0z m5 -52 c0 -6 -10 -8 -24 -4 -14 3 -27 2 -31 -3 -9 -16 -43 -9 -37 8 3 9
7 11 9 4 3 -8 13 -8 36 2 33 14 47 12 47 -7z m-1000 -13 c7 -9 8 -15 2 -15 -5
0 -12 7 -16 15 -3 8 -4 15 -2 15 2 0 9 -7 16 -15z m66 -11 c-4 -9 -9 -15 -11
-12 -3 3 -3 13 1 22 4 9 9 15 11 12 3 -3 3 -13 -1 -22z m794 6 c-6 -11 -18
-20 -28 -20 -13 0 -12 4 8 20 31 25 33 25 20 0z m-143 4 c-3 -3 -12 -4 -19 -1
-8 3 -5 6 6 6 11 1 17 -2 13 -5z m131 -79 c-16 -13 -23 -27 -18 -30 6 -4 8
-11 5 -16 -9 -13 -62 -7 -62 7 0 6 9 9 21 6 21 -4 21 -4 1 12 -11 10 -14 14
-7 11 7 -4 21 0 30 8 15 13 39 25 52 26 3 0 -7 -10 -22 -24z m57 -25 c-3 -5
-12 -10 -18 -10 -7 0 -6 4 3 10 19 12 23 12 15 0z m-153 -7 c-6 -2 -9 -10 -5
-16 3 -7 3 -9 -2 -5 -4 4 -14 0 -20 -9 -7 -10 -24 -18 -38 -18 -14 -1 -33 -7
-41 -14 -13 -11 -16 -11 -16 2 0 9 12 18 28 22 15 3 38 14 52 25 14 11 32 19
40 19 10 0 11 -2 2 -6z m141 -58 c21 -7 21 -8 2 -12 -20 -4 -49 -49 -36 -56 3
-2 1 -2 -6 -1 -6 2 -17 -3 -23 -11 -10 -13 -54 -14 -67 -2 -3 3 13 14 36 23
22 9 41 20 41 25 0 5 -11 2 -25 -7 -16 -11 -34 -14 -52 -9 l-27 6 30 20 c31
20 26 26 -7 9 -13 -7 -19 -7 -19 0 0 5 -4 10 -9 10 -6 0 -8 -8 -6 -19 2 -14
-3 -18 -19 -18 l-22 0 25 28 c16 18 29 25 35 19 6 -6 16 -6 27 0 12 7 19 6 23
-5 9 -25 42 -17 56 13 10 20 14 23 17 11 2 -10 14 -20 26 -24z m-306 -1 c-3
-3 -12 -4 -19 -1 -8 3 -5 6 6 6 11 1 17 -2 13 -5z m18 -43 c3 -5 2 -12 -3 -15
-5 -3 -9 1 -9 9 0 17 3 19 12 6z m58 -3 c-2 -5 -11 -8 -19 -8 -9 0 -12 -5 -8
-12 4 -7 3 -9 -1 -5 -17 15 -12 32 10 32 13 0 21 -3 18 -7z m-111 -10 c-6 -7
-25 -22 -44 -32 -36 -20 -30 -12 16 22 32 25 44 28 28 10z m153 -8 c-3 -5 -11
-10 -16 -10 -6 0 -7 5 -4 10 3 6 11 10 16 10 6 0 7 -4 4 -10z m15 -13 c0 -2
-10 -12 -22 -23 l-23 -19 19 23 c18 21 26 27 26 19z m-65 -27 c-10 -11 -14
-20 -9 -20 5 0 0 -7 -10 -15 -11 -8 -25 -15 -30 -15 -6 1 0 7 14 15 l25 15
-29 -6 c-38 -9 -27 11 17 30 43 19 43 19 22 -4z m128 -9 c3 -12 -4 -29 -15
-41 -22 -24 -38 -19 -18 5 7 8 9 15 6 15 -4 0 -2 9 4 20 13 25 16 25 23 1z
m-299 -19 c2 -4 -4 -8 -14 -8 -10 0 -16 4 -14 8 3 4 9 8 14 8 5 0 11 -4 14 -8z
m216 -12 c0 -5 -8 -7 -17 -4 -11 4 -14 2 -8 -3 23 -18 7 -47 -37 -62 -30 -11
-30 -10 -15 7 10 10 17 24 17 30 0 7 7 12 15 12 8 0 14 3 14 8 -3 16 2 22 16
22 8 0 15 -4 15 -10z m31 -11 c-29 -24 -45 -25 -30 -1 6 10 21 19 33 19 21 2
21 1 -3 -18z m169 0 c0 -10 -23 -17 -37 -11 -7 2 -11 7 -9 11 6 9 46 9 46 0z
m-286 -43 c-10 -8 -21 -12 -23 -10 -3 2 4 11 15 18 10 8 21 12 23 10 3 -2 -4
-11 -15 -18z m-140 0 c-6 -16 -34 -30 -34 -18 0 10 22 32 32 32 4 0 5 -6 2
-14z m41 -16 c-17 -19 -41 -18 -29 1 3 5 10 7 15 4 5 -4 9 -1 9 4 0 6 5 11 12
11 6 0 3 -8 -7 -20z m-128 -35 c-18 -17 -37 -20 -37 -5 0 7 -6 7 -20 0 -11 -6
-20 -7 -20 -1 0 11 29 23 41 15 5 -3 17 -1 26 5 24 13 29 6 10 -14z m208 15
c-9 -15 -45 -32 -45 -22 0 5 10 14 23 20 29 14 29 14 22 2z m-392 -37 c-7 -2
-21 -2 -30 0 -10 3 -4 5 12 5 17 0 24 -2 18 -5z m-53 -13 c0 -5 -8 -10 -17
-10 -15 0 -16 2 -3 10 19 12 20 12 20 0z m240 6 c0 -11 -19 -15 -25 -6 -3 5 1
10 9 10 9 0 16 -2 16 -4z m-210 -20 c0 -2 -7 -7 -16 -10 -8 -3 -12 -2 -9 4 6
10 25 14 25 6z"/>
<path d="M7908 7713 c12 -2 30 -2 40 0 9 3 -1 5 -23 4 -22 0 -30 -2 -17 -4z"/>
<path d="M8058 7703 c6 -2 18 -2 25 0 6 3 1 5 -13 5 -14 0 -19 -2 -12 -5z"/>
<path d="M8268 7683 c7 -3 16 -2 19 1 4 3 -2 6 -13 5 -11 0 -14 -3 -6 -6z"/>
<path d="M7230 7660 c-23 -7 -23 -8 -3 -9 12 -1 25 4 28 9 3 6 5 10 3 9 -2 -1
-14 -5 -28 -9z"/>
<path d="M7125 7650 c-13 -6 -15 -9 -5 -9 8 0 22 4 30 9 18 12 2 12 -25 0z"/>
<path d="M7292 7653 c-6 -2 -10 -8 -7 -13 6 -10 45 -1 45 11 0 10 -17 11 -38
2z"/>
<path d="M7361 7631 c-9 -6 -10 -11 -2 -15 15 -10 53 3 46 15 -8 11 -26 11
-44 0z"/>
<path d="M7178 7623 c7 -3 16 -2 19 1 4 3 -2 6 -13 5 -11 0 -14 -3 -6 -6z"/>
<path d="M7436 7601 c-10 -16 21 -20 41 -6 17 13 16 14 -9 15 -15 0 -29 -4
-32 -9z"/>
<path d="M7335 7590 c3 -5 12 -7 20 -3 21 7 19 13 -6 13 -11 0 -18 -4 -14 -10z"/>
<path d="M7505 7579 c-4 -6 -5 -13 -2 -16 8 -7 47 7 47 18 0 13 -37 11 -45 -2z"/>
<path d="M7425 7570 c-3 -5 1 -10 10 -10 9 0 13 5 10 10 -3 6 -8 10 -10 10 -2
0 -7 -4 -10 -10z"/>
<path d="M6980 7560 c-18 -12 -2 -12 25 0 13 6 15 9 5 9 -8 0 -22 -4 -30 -9z"/>
<path d="M7485 7540 c4 -6 11 -8 16 -5 14 9 11 15 -7 15 -8 0 -12 -5 -9 -10z"/>
<path d="M8546 7325 c-9 -26 -7 -32 5 -12 6 10 9 21 6 23 -2 3 -7 -2 -11 -11z"/>
<path d="M8486 7184 c-25 -59 -44 -109 -42 -112 2 -2 10 7 17 19 19 36 79 192
75 196 -2 2 -24 -45 -50 -103z"/>
<path d="M6320 7110 c-12 -8 -11 -10 8 -10 12 0 22 5 22 10 0 13 -11 13 -30 0z"/>
<path d="M6370 7060 c20 -13 67 -13 75 0 4 6 -12 10 -42 10 -35 0 -44 -3 -33
-10z"/>
<path d="M9420 7060 c-21 -7 -21 -8 -5 -9 11 0 27 4 35 9 18 11 5 11 -30 0z"/>
<path d="M9353 7043 c9 -2 23 -2 30 0 6 3 -1 5 -18 5 -16 0 -22 -2 -12 -5z"/>
<path d="M9288 7033 c6 -2 18 -2 25 0 6 3 1 5 -13 5 -14 0 -19 -2 -12 -5z"/>
<path d="M8371 7014 c0 -11 3 -14 6 -6 3 7 2 16 -1 19 -3 4 -6 -2 -5 -13z"/>
<path d="M6473 7013 c9 -2 25 -2 35 0 9 3 1 5 -18 5 -19 0 -27 -2 -17 -5z"/>
<path d="M6233 7003 c9 -2 23 -2 30 0 6 3 -1 5 -18 5 -16 0 -22 -2 -12 -5z"/>
<path d="M6638 6963 c7 -3 16 -2 19 1 4 3 -2 6 -13 5 -11 0 -14 -3 -6 -6z"/>
<path d="M6698 6943 c6 -2 18 -2 25 0 6 3 1 5 -13 5 -14 0 -19 -2 -12 -5z"/>
<path d="M6768 6923 c7 -3 16 -2 19 1 4 3 -2 6 -13 5 -11 0 -14 -3 -6 -6z"/>
<path d="M6828 6903 c7 -3 16 -2 19 1 4 3 -2 6 -13 5 -11 0 -14 -3 -6 -6z"/>
<path d="M6560 6890 c0 -6 7 -10 15 -10 8 0 15 2 15 4 0 2 -7 6 -15 10 -8 3
-15 1 -15 -4z"/>
<path d="M6613 6884 c0 -7 9 -14 19 -14 10 0 18 2 18 5 0 2 -8 9 -18 14 -14 8
-19 6 -19 -5z"/>
<path d="M6668 6893 c6 -2 18 -2 25 0 6 3 1 5 -13 5 -14 0 -19 -2 -12 -5z"/>
<path d="M6428 6883 c7 -3 16 -2 19 1 4 3 -2 6 -13 5 -11 0 -14 -3 -6 -6z"/>
<path d="M5582 6871 c-11 -7 -10 -10 3 -15 25 -9 78 -7 95 4 11 7 6 10 -22 10
-20 0 -42 2 -50 5 -7 3 -19 1 -26 -4z"/>
<path d="M5852 6852 c-18 -12 75 -23 102 -12 21 9 21 9 1 9 -11 1 -36 4 -55 6
-19 3 -41 2 -48 -3z"/>
<path d="M6308 6853 c7 -3 16 -2 19 1 4 3 -2 6 -13 5 -11 0 -14 -3 -6 -6z"/>
<path d="M5628 6833 c6 -2 18 -2 25 0 6 3 1 5 -13 5 -14 0 -19 -2 -12 -5z"/>
<path d="M6618 6833 c7 -3 16 -2 19 1 4 3 -2 6 -13 5 -11 0 -14 -3 -6 -6z"/>
<path d="M6650 6820 c-9 -6 -10 -10 -3 -10 6 0 15 5 18 10 8 12 4 12 -15 0z"/>
<path d="M5898 6813 c6 -2 18 -2 25 0 6 3 1 5 -13 5 -14 0 -19 -2 -12 -5z"/>
<path d="M8555 6800 c-3 -5 -2 -10 4 -10 5 0 13 5 16 10 3 6 2 10 -4 10 -5 0
-13 -4 -16 -10z"/>
<path d="M5755 6780 c-4 -6 17 -10 57 -9 44 0 57 3 43 9 -28 12 -93 12 -100 0z"/>
<path d="M8215 6544 c11 -11 122 -95 143 -108 30 -18 7 5 -40 41 -56 42 -120
84 -103 67z"/>
<path d="M8145 6390 c-3 -6 1 -7 9 -4 18 7 21 14 7 14 -6 0 -13 -4 -16 -10z"/>
<path d="M5422 6693 c2 -17 10 -29 21 -31 24 -5 22 30 -4 46 -19 12 -20 11
-17 -15z"/>
<path d="M8715 6710 c-16 -7 -17 -9 -3 -9 9 -1 20 4 23 9 7 11 7 11 -20 0z"/>
<path d="M7605 6530 c3 -5 8 -10 11 -10 2 0 4 5 4 10 0 6 -5 10 -11 10 -5 0
-7 -4 -4 -10z"/>
<path d="M7844 6507 c-8 -34 1 -46 14 -20 6 11 7 25 2 33 -6 10 -10 7 -16 -13z"/>
<path d="M7545 6510 c27 -12 43 -12 25 0 -8 5 -22 9 -30 9 -10 0 -8 -3 5 -9z"/>
<path d="M7319 6463 c-13 -16 -12 -17 4 -4 9 7 17 15 17 17 0 8 -8 3 -21 -13z"/>
<path d="M7591 6431 c-12 -16 -21 -32 -21 -35 0 -8 89 -8 129 0 17 4 31 11 31
16 0 6 -9 8 -20 5 -11 -3 -20 -1 -20 4 0 8 -59 39 -74 39 -3 0 -14 -13 -25
-29z"/>
<path d="M7758 6403 c7 -3 16 -2 19 1 4 3 -2 6 -13 5 -11 0 -14 -3 -6 -6z"/>
<path d="M6858 5543 c7 -3 16 -2 19 1 4 3 -2 6 -13 5 -11 0 -14 -3 -6 -6z"/>
<path d="M10877 7632 c6 -4 13 -21 16 -37 l4 -30 2 32 c0 17 7 34 14 36 6 3
-1 6 -18 6 -16 0 -25 -3 -18 -7z"/>
<path d="M11103 7606 c1 -17 9 -31 17 -33 10 -3 11 -2 4 4 -7 4 -14 19 -17 33
-4 22 -5 21 -4 -4z"/>
<path d="M10924 7605 c-11 -27 25 -50 40 -26 4 5 -3 7 -14 4 -14 -4 -20 0 -20
12 0 12 6 16 20 12 11 -3 20 -1 20 4 0 15 -40 10 -46 -6z"/>
<path d="M11042 7598 c2 -13 11 -24 21 -26 20 -4 34 25 19 40 -8 8 -9 5 -5
-11 4 -15 1 -21 -12 -21 -12 0 -16 6 -12 20 3 11 1 20 -5 20 -5 0 -8 -10 -6
-22z"/>
<path d="M11165 7610 c3 -5 -1 -10 -9 -10 -9 0 -16 -7 -16 -15 0 -8 9 -15 20
-15 15 0 20 7 20 25 0 14 -5 25 -11 25 -5 0 -7 -4 -4 -10z"/>
<path d="M10995 7582 c3 -9 0 -19 -7 -24 -10 -8 -10 -9 1 -6 20 6 33 45 15 45
-9 0 -13 -6 -9 -15z"/>
<path d="M12247 7383 c-4 -3 -7 -44 -7 -90 0 -67 3 -83 15 -83 12 0 15 17 15
90 0 83 -5 101 -23 83z"/>
<path d="M12317 7383 c-4 -3 -7 -44 -7 -90 0 -67 3 -83 15 -83 12 0 15 17 15
90 0 83 -5 101 -23 83z"/>
<path d="M10770 7365 c0 -9 9 -15 25 -15 24 0 25 -2 25 -70 0 -56 3 -70 15
-70 12 0 15 14 15 70 l0 70 30 0 c20 0 30 5 30 15 0 12 -14 15 -70 15 -56 0
-70 -3 -70 -15z"/>
<path d="M11703 7368 c-48 -23 -54 -112 -10 -143 37 -26 117 -15 117 16 0 3
-21 4 -47 1 -51 -5 -73 11 -73 53 0 37 34 59 80 51 43 -7 54 6 21 24 -24 13
-59 12 -88 -2z"/>
<path d="M12597 7369 c-27 -16 -11 -28 28 -22 56 9 57 -19 1 -76 -25 -26 -46
-50 -46 -54 0 -4 27 -7 60 -7 47 0 60 3 60 15 0 10 -10 15 -34 15 l-34 0 34
34 c19 19 34 43 34 53 0 42 -60 67 -103 42z"/>
<path d="M12750 7360 c-46 -46 -19 -150 40 -150 45 0 70 31 70 85 0 52 -25 85
-65 85 -14 0 -34 -9 -45 -20z m78 -62 c2 -38 -1 -49 -16 -57 -30 -16 -56 9
-55 52 1 48 10 59 41 55 24 -3 27 -7 30 -50z"/>
<path d="M12897 7369 c-27 -16 -11 -28 28 -22 56 9 57 -19 1 -76 -25 -26 -46
-50 -46 -54 0 -4 30 -7 66 -7 48 0 65 3 62 13 -3 6 -19 13 -37 15 l-32 3 31
35 c16 19 30 43 30 54 0 42 -59 64 -103 39z"/>
<path d="M13037 7369 c-27 -16 -11 -28 28 -22 56 9 57 -19 1 -76 -25 -26 -46
-50 -46 -54 0 -4 30 -7 66 -7 48 0 65 3 62 13 -3 6 -19 13 -37 15 l-32 3 31
35 c16 19 30 43 30 54 0 42 -59 64 -103 39z"/>
<path d="M11356 7349 c-13 -15 -15 -24 -7 -32 6 -6 11 -24 11 -40 0 -42 17
-67 45 -67 30 0 33 16 5 23 -15 4 -20 14 -20 40 0 26 5 36 20 40 11 3 20 10
20 16 0 6 -9 11 -20 11 -11 0 -20 7 -20 15 0 21 -12 19 -34 -6z"/>
<path d="M10930 7320 c-41 -41 -10 -110 48 -110 37 0 62 28 62 68 0 56 -70 82
-110 42z m75 -44 c0 -36 -26 -56 -49 -37 -16 14 -22 52 -9 65 4 4 19 6 33 4
20 -2 25 -8 25 -32z"/>
<path d="M11050 7336 c0 -2 11 -29 25 -60 32 -72 32 -86 -1 -86 -30 0 -28 -23
3 -28 26 -4 41 15 79 104 23 52 29 74 19 74 -7 0 -21 -20 -32 -45 -10 -25 -20
-45 -23 -45 -3 0 -13 20 -23 45 -11 25 -25 45 -33 45 -8 0 -14 -2 -14 -4z"/>
<path d="M11215 7315 c-30 -29 -31 -45 -4 -79 25 -32 70 -35 99 -6 27 27 25
62 -3 88 -30 29 -62 28 -92 -3z m83 -37 c6 -47 -59 -62 -73 -17 -9 27 13 51
44 47 20 -2 27 -9 29 -30z"/>
<path d="M11467 7333 c-28 -7 -9 -23 29 -23 49 0 46 -28 -3 -32 -31 -2 -39 -7
-41 -27 -5 -30 12 -40 65 -39 l43 1 0 53 c0 67 -24 85 -93 67z m63 -83 c0 -6
-7 -13 -15 -16 -20 -8 -48 3 -40 16 8 13 55 13 55 0z"/>
<path d="M11850 7322 c-45 -36 -17 -112 42 -112 15 0 37 9 48 20 59 59 -25
145 -90 92z m78 -44 c3 -29 -25 -52 -52 -42 -41 16 -22 77 22 72 21 -2 28 -9
30 -30z"/>
<path d="M11990 7274 c0 -50 3 -64 15 -64 11 0 15 12 15 46 0 37 4 47 20 51
33 9 23 29 -15 30 l-35 1 0 -64z"/>
<path d="M12100 7320 c-41 -41 -10 -110 48 -110 37 0 62 28 62 68 0 56 -70 82
-110 42z m75 -44 c0 -36 -26 -56 -49 -37 -16 14 -22 52 -9 65 4 4 19 6 33 4
20 -2 25 -8 25 -32z"/>
<path d="M12393 7333 c-27 -10 -11 -23 27 -23 29 0 40 -4 40 -15 0 -10 -11
-15 -35 -15 -39 0 -59 -24 -44 -52 7 -13 21 -17 59 -17 l50 2 0 48 c0 30 -6
53 -16 63 -15 15 -55 20 -81 9z m67 -83 c0 -6 -7 -13 -15 -16 -20 -8 -48 3
-40 16 8 13 55 13 55 0z"/>
<path d="M5618 7093 c7 -3 16 -2 19 1 4 3 -2 6 -13 5 -11 0 -14 -3 -6 -6z"/>
<path d="M11020 7043 c0 -4 -14 -16 -30 -25 -18 -10 -30 -25 -30 -38 0 -13 12
-28 30 -38 16 -9 30 -25 30 -36 0 -15 -5 -17 -30 -12 -22 4 -30 2 -30 -8 0 -8
14 -17 30 -21 17 -4 30 -11 30 -17 0 -5 7 -2 16 6 8 9 19 16 24 16 15 0 30 37
24 55 -4 9 -17 21 -30 26 -30 11 -34 54 -5 46 12 -3 22 1 25 9 3 8 -1 14 -9
14 -7 0 -21 7 -29 16 -9 8 -16 12 -16 7z m0 -63 c0 -11 -4 -20 -9 -20 -14 0
-23 18 -16 30 10 17 25 11 25 -10z m32 -75 c0 -5 -5 -11 -11 -13 -6 -2 -11 4
-11 13 0 9 5 15 11 13 6 -2 11 -8 11 -13z"/>
<path d="M11402 7023 c-22 -9 -35 -43 -21 -59 9 -11 9 -18 1 -26 -31 -31 1
-78 52 -78 47 0 89 55 56 75 -5 3 -7 20 -3 37 5 23 2 34 -12 45 -19 13 -49 16
-73 6z m58 -44 c0 -13 -7 -19 -24 -19 -32 0 -44 20 -22 36 23 16 46 7 46 -17z
m-6 -45 c21 -8 21 -40 0 -48 -25 -10 -54 3 -54 24 0 24 24 35 54 24z"/>
<path d="M11606 7014 c-20 -20 -21 -58 -1 -74 8 -7 29 -10 45 -8 27 4 31 2 28
-16 -2 -16 -11 -22 -40 -24 -25 -2 -38 -8 -38 -18 0 -21 53 -17 84 7 53 42 26
149 -38 149 -14 0 -32 -7 -40 -16z m72 -42 c-4 -22 -41 -27 -57 -9 -9 12 -8
18 4 31 20 20 58 4 53 -22z"/>
<path d="M11777 7018 c-59 -46 -32 -158 39 -158 57 0 84 112 35 151 -27 22
-50 24 -74 7z m63 -37 c14 -28 12 -67 -5 -81 -37 -31 -80 24 -57 75 14 30 47
33 62 6z"/>
<path d="M11930 7010 c-14 -14 -20 -33 -20 -65 0 -79 66 -114 109 -59 29 37
27 89 -4 119 -29 30 -58 32 -85 5z m68 -22 c13 -13 16 -56 6 -82 -10 -26 -53
-20 -64 9 -5 14 -7 32 -5 40 3 8 7 22 10 30 5 18 36 20 53 3z"/>
<path d="M12150 7010 c-14 -14 -20 -33 -20 -65 0 -79 66 -114 109 -59 29 37
27 89 -4 119 -29 30 -58 32 -85 5z m68 -22 c13 -13 16 -56 6 -82 -10 -26 -53
-20 -64 9 -5 14 -7 32 -5 40 3 8 7 22 10 30 5 18 36 20 53 3z"/>
<path d="M12315 7005 c-31 -30 -33 -82 -4 -119 43 -54 109 -20 109 57 0 78
-57 111 -105 62z m70 -60 c0 -45 -2 -50 -24 -53 -28 -4 -41 12 -41 54 0 36 17
56 45 52 17 -3 20 -11 20 -53z"/>
<path d="M10790 6940 c0 -64 3 -80 15 -80 9 0 15 9 15 25 0 19 5 25 21 25 12
0 30 -11 41 -25 11 -14 26 -25 34 -25 12 0 11 6 -6 30 -12 17 -16 30 -10 30 6
0 15 11 22 25 9 19 8 29 -6 50 -14 22 -24 25 -71 25 l-55 0 0 -80z m104 38
c14 -23 -1 -38 -40 -41 -26 -2 -29 1 -32 31 -3 32 -2 33 29 30 18 -2 37 -11
43 -20z"/>
<path d="M11170 7010 c0 -5 7 -10 15 -10 12 0 15 -14 15 -70 0 -56 3 -70 15
-70 12 0 15 16 15 80 l0 80 -30 0 c-16 0 -30 -4 -30 -10z"/>
<path d="M11270 7010 c0 -5 7 -10 15 -10 12 0 15 -14 15 -70 0 -56 3 -70 15
-70 12 0 15 16 15 80 l0 80 -30 0 c-16 0 -30 -4 -30 -10z"/>
<path d="M4680 6893 c0 -23 1 -23 103 -22 111 1 105 7 -32 33 l-71 13 0 -24z"/>
<path d="M11532 6883 c5 -25 28 -28 28 -4 0 12 -6 21 -16 21 -9 0 -14 -7 -12
-17z"/>
<path d="M12066 6892 c-2 -4 -1 -14 4 -22 4 -7 6 -19 3 -27 -3 -7 -1 -13 5
-13 9 0 22 32 22 58 0 13 -26 17 -34 4z"/>
<path d="M10115 6810 c-11 -5 -14 -9 -7 -9 6 -1 12 -8 12 -16 0 -12 -22 -15
-112 -18 -82 -2 -68 -3 52 -4 150 0 161 1 120 12 -35 10 -40 14 -20 16 14 1
37 1 53 0 17 -2 27 3 27 12 0 16 -92 22 -125 7z"/>
<path d="M4688 6703 c6 -2 18 -2 25 0 6 3 1 5 -13 5 -14 0 -19 -2 -12 -5z"/>
<path d="M4693 6393 c9 -2 23 -2 30 0 6 3 -1 5 -18 5 -16 0 -22 -2 -12 -5z"/>
<path d="M4718 6353 c6 -2 18 -2 25 0 6 3 1 5 -13 5 -14 0 -19 -2 -12 -5z"/>
<path d="M4743 6323 c9 -2 25 -2 35 0 9 3 1 5 -18 5 -19 0 -27 -2 -17 -5z"/>
<path d="M10908 6233 c6 -2 13 -21 13 -41 2 -34 2 -34 6 -7 2 17 12 36 21 43
13 10 11 12 -19 11 -19 0 -28 -3 -21 -6z"/>
<path d="M12666 6224 c-19 -19 -20 -36 -4 -52 14 -14 44 -16 52 -3 4 5 -2 7
-12 4 -10 -2 -24 3 -31 11 -19 22 4 49 33 41 17 -5 18 -4 6 4 -20 14 -26 14
-44 -5z"/>
<path d="M12920 6200 c0 -22 5 -40 10 -40 6 0 10 18 10 40 0 22 -4 40 -10 40
-5 0 -10 -18 -10 -40z"/>
<path d="M12963 6200 c0 -25 2 -35 4 -22 2 12 2 32 0 45 -2 12 -4 2 -4 -23z"/>
<path d="M11167 6224 c-9 -9 9 -58 21 -60 7 -1 8 0 2 3 -14 7 -13 40 2 45 8 3
6 6 -4 10 -9 4 -18 4 -21 2z"/>
<path d="M10971 6207 c-17 -21 -3 -49 23 -45 15 2 21 10 21 28 0 28 -26 38
-44 17z m35 -8 c10 -17 -13 -36 -27 -22 -12 12 -4 33 11 33 5 0 12 -5 16 -11z"/>
<path d="M11030 6218 c0 -4 5 -19 12 -33 10 -22 9 -28 -3 -36 -9 -6 -10 -9 -2
-9 7 0 19 13 28 30 17 33 20 55 3 26 -10 -18 -11 -18 -24 5 -7 13 -13 21 -14
17z"/>
<path d="M11104 6206 c-9 -24 4 -48 23 -44 12 2 18 12 18 28 0 29 -32 41 -41
16z m36 -16 c0 -11 -7 -20 -15 -20 -8 0 -15 9 -15 20 0 11 7 20 15 20 8 0 15
-9 15 -20z"/>
<path d="M11233 6214 c21 -7 23 -44 1 -44 -8 0 -12 5 -9 10 3 6 1 10 -5 10
-21 0 -4 -25 19 -28 19 -3 22 0 19 25 -2 19 -9 28 -23 30 -16 1 -16 1 -2 -3z"/>
<path d="M12734 6205 c-9 -23 3 -45 26 -45 25 0 37 25 20 45 -16 19 -39 19
-46 0z m42 -6 c10 -17 -13 -36 -27 -22 -12 12 -4 33 11 33 5 0 12 -5 16 -11z"/>
<path d="M12823 6213 c-7 -2 -12 -17 -12 -31 1 -21 2 -23 6 -7 3 11 10 26 15
33 11 13 10 13 -9 5z"/>
<path d="M12854 6205 c-8 -21 2 -45 19 -45 8 0 20 7 27 15 10 12 10 18 0 30
-7 8 -19 15 -27 15 -7 0 -16 -7 -19 -15z m39 -9 c7 -16 -1 -26 -20 -26 -7 0
-13 9 -13 20 0 23 25 27 33 6z"/>
<path d="M13003 6213 c9 -2 17 -13 17 -24 0 -21 -16 -26 -23 -6 -3 7 -6 5 -6
-5 -1 -13 7 -18 24 -18 17 0 25 5 25 18 0 23 -19 42 -39 41 -12 -1 -12 -2 2
-6z"/>
<path d="M5058 6003 c7 -3 16 -2 19 1 4 3 -2 6 -13 5 -11 0 -14 -3 -6 -6z"/>
<path d="M4808 5973 c7 -3 16 -2 19 1 4 3 -2 6 -13 5 -11 0 -14 -3 -6 -6z"/>
<path d="M9666 5684 c-3 -9 -12 -14 -19 -11 -8 3 -14 -1 -14 -8 0 -10 5 -11
16 -5 37 21 43 28 33 34 -5 3 -13 -1 -16 -10z"/>
<path d="M9538 5540 c-19 -34 -13 -37 28 -15 21 11 24 15 10 15 -12 0 -16 5
-12 15 10 27 -8 16 -26 -15z"/>
<path d="M9670 5555 c-14 -8 -20 -14 -14 -15 5 0 19 7 30 15 24 18 16 19 -16
0z"/>
<path d="M9556 5511 c-4 -5 -2 -12 3 -15 5 -4 12 -2 15 3 4 5 2 12 -3 15 -5 4
-12 2 -15 -3z"/>
<path d="M9608 5503 c6 -2 18 -2 25 0 6 3 1 5 -13 5 -14 0 -19 -2 -12 -5z"/>
<path d="M10905 5490 c-3 -5 0 -7 8 -4 26 10 30 -17 6 -42 l-22 -24 29 1 c18
1 22 3 11 6 -17 4 -18 6 -2 24 10 10 15 25 12 34 -7 17 -33 20 -42 5z"/>
<path d="M10982 5491 c-21 -13 -11 -66 12 -66 26 0 44 30 30 52 -13 21 -25 25
-42 14z m33 -22 c8 -23 -7 -45 -24 -35 -12 8 -15 39 -4 49 12 12 22 7 28 -14z"/>
<path d="M11045 5490 c-3 -5 0 -7 8 -4 26 10 30 -17 6 -42 l-22 -24 29 1 c18
1 22 3 11 6 -17 4 -18 6 -2 24 10 10 15 25 12 34 -7 17 -33 20 -42 5z"/>
<path d="M11115 5490 c-3 -5 0 -7 8 -4 24 9 28 -12 7 -31 -27 -25 -25 -35 8
-34 17 1 20 3 9 6 -15 4 -16 7 -2 26 11 15 12 24 3 34 -13 15 -25 17 -33 3z"/>
<path d="M12666 5464 c-9 -20 -14 -39 -11 -42 3 -3 5 0 5 6 0 16 47 15 53 0 4
-10 6 -10 6 0 1 12 -26 72 -32 72 -2 0 -11 -16 -21 -36z m34 -5 c0 -5 -7 -9
-15 -9 -9 0 -12 6 -9 15 6 15 24 11 24 -6z"/>
<path d="M12870 5460 c0 -22 5 -40 10 -40 6 0 10 18 10 40 0 22 -4 40 -10 40
-5 0 -10 -18 -10 -40z"/>
<path d="M12942 5460 c1 -29 2 -35 5 -17 l4 28 18 -23 18 -22 9 25 8 24 7 -30
c6 -26 7 -25 8 15 l0 45 -17 -27 c-16 -27 -32 -37 -32 -20 0 5 -7 17 -15 28
-13 18 -14 16 -13 -26z"/>
<path d="M13233 5460 c0 -25 2 -35 4 -22 2 12 2 32 0 45 -2 12 -4 2 -4 -23z"/>
<path d="M13118 5485 c-2 -3 -3 -18 0 -35 3 -19 10 -30 21 -30 13 0 13 2 2 9
-8 5 -12 18 -8 30 5 20 -5 36 -15 26z"/>
<path d="M12750 5470 c12 -7 12 -12 2 -22 -18 -18 -15 -28 11 -27 19 0 20 1 4
8 -17 6 -17 8 -3 20 22 19 20 31 -6 31 -18 0 -20 -2 -8 -10z"/>
<path d="M12804 5450 c1 -18 7 -26 24 -28 19 -3 22 1 21 30 -2 30 -2 31 -6 6
-5 -34 -30 -37 -36 -5 -3 19 -4 19 -3 -3z"/>
<path d="M13044 5465 c-10 -24 4 -45 28 -44 16 1 18 3 6 6 -21 5 -31 30 -16
39 7 4 14 2 16 -4 2 -7 8 -12 14 -12 6 0 6 6 -2 15 -7 8 -19 15 -27 15 -7 0
-16 -7 -19 -15z"/>
<path d="M13173 5473 c9 -2 17 -13 17 -24 0 -21 -16 -26 -23 -6 -3 7 -6 5 -6
-5 -1 -13 7 -18 24 -18 17 0 25 5 25 18 0 23 -19 42 -39 41 -12 -1 -12 -2 2
-6z"/>
<path d="M13262 5450 c0 -19 2 -27 5 -17 2 9 2 25 0 35 -3 9 -5 1 -5 -18z"/>
<path d="M13302 5471 c-21 -13 -10 -46 16 -49 12 -2 22 1 22 6 0 5 -8 9 -17 8
-10 0 -18 6 -18 14 0 8 8 14 17 14 10 -1 15 2 12 7 -7 11 -15 11 -32 0z"/>
<path d="M13361 5467 c-17 -21 -3 -49 23 -45 15 2 21 10 21 28 0 28 -26 38
-44 17z m35 -8 c10 -17 -13 -36 -27 -22 -12 12 -4 33 11 33 5 0 12 -5 16 -11z"/>
<path d="M9603 5455 c0 -8 4 -12 9 -9 5 3 6 10 3 15 -9 13 -12 11 -12 -6z"/>
<path d="M9670 5400 c-9 -6 -10 -10 -3 -10 6 0 15 5 18 10 8 12 4 12 -15 0z"/>
<path d="M9500 5375 c-23 -24 -21 -50 1 -28 6 6 17 10 23 7 6 -2 20 9 30 24
l20 27 -22 -19 c-20 -17 -27 -15 -23 7 2 12 -4 8 -29 -18z"/>
<path d="M9569 5376 c-1 -3 -2 -9 -3 -13 -1 -5 -4 -13 -8 -19 -9 -14 0 -24 21
-24 14 0 14 2 2 9 -12 8 -12 12 -2 24 8 10 9 17 1 22 -5 3 -11 4 -11 1z"/>
<path d="M9420 5361 c0 -6 4 -13 10 -16 6 -3 7 1 4 9 -7 18 -14 21 -14 7z"/>
<path d="M9755 5329 c-16 -11 -23 -18 -15 -15 8 3 23 9 33 12 9 4 17 10 17 15
0 12 -1 12 -35 -12z"/>
<path d="M9622 5328 c-14 -7 -21 -17 -17 -26 3 -8 -3 -24 -12 -35 -18 -19 -17
-20 4 -8 28 14 36 28 23 36 -6 4 -1 14 12 25 26 22 23 24 -10 8z"/>
<path d="M9529 5283 c-13 -15 -12 -15 9 -4 23 12 28 21 13 21 -5 0 -15 -7 -22
-17z"/>
<path d="M10205 5290 c-3 -5 -1 -10 4 -10 6 0 11 5 11 10 0 6 -2 10 -4 10 -3
0 -8 -4 -11 -10z"/>
<path d="M10195 5260 c-3 -5 -1 -10 4 -10 6 0 11 5 11 10 0 6 -2 10 -4 10 -3
0 -8 -4 -11 -10z"/>
<path d="M9518 5240 c-10 -10 -13 -22 -8 -25 9 -6 13 -1 23 28 8 22 5 22 -15
-3z"/>
<path d="M9410 5235 c0 -14 52 -13 57 0 2 6 -10 11 -27 10 -16 0 -30 -5 -30
-10z"/>
<path d="M9457 5209 c-15 -11 -32 -19 -39 -17 -7 1 -24 -4 -36 -11 -13 -7 -27
-10 -30 -6 -3 3 4 8 16 12 12 3 22 9 22 14 0 5 -10 5 -22 0 -13 -5 -23 -17
-23 -27 0 -13 -12 -22 -40 -30 -22 -7 -35 -13 -30 -14 21 -4 49 2 72 17 27 18
31 7 6 -14 -17 -13 -16 -14 4 -8 12 3 24 1 27 -4 4 -6 14 -7 23 -4 11 4 14 3
9 -5 -9 -14 3 -15 24 -2 13 8 13 10 -2 10 -23 0 -34 20 -17 31 21 13 41 11 33
-3 -4 -7 5 -2 19 11 15 14 27 26 27 27 0 1 -14 -2 -32 -7 -42 -12 -47 -4 -9
16 17 8 31 20 31 25 0 14 -4 13 -33 -11z"/>
<path d="M10130 5221 c0 -5 7 -11 14 -14 10 -4 13 -1 9 9 -6 15 -23 19 -23 5z"/>
<path d="M9504 5151 c-10 -17 -22 -27 -27 -24 -6 3 -7 1 -3 -5 4 -7 -9 -27
-30 -47 -37 -36 -44 -61 -8 -27 10 10 24 20 29 23 6 2 9 7 8 12 -2 4 2 7 8 7
5 0 7 5 4 10 -3 6 -2 10 4 10 5 0 11 -5 13 -11 2 -5 15 2 28 17 25 26 25 26 3
20 -14 -5 -23 -3 -23 3 0 6 4 11 9 11 5 0 11 7 15 15 10 27 -12 16 -30 -14z"/>
<path d="M9569 5153 c-13 -17 -13 -17 6 -3 11 8 22 16 24 17 2 2 0 3 -6 3 -6
0 -17 -8 -24 -17z"/>
<path d="M9985 5160 c-3 -5 -1 -10 4 -10 6 0 11 5 11 10 0 6 -2 10 -4 10 -3 0
-8 -4 -11 -10z"/>
<path d="M9839 5140 l-24 -20 28 11 c15 7 27 16 27 21 0 12 -5 10 -31 -12z"/>
<path d="M10036 5152 c-3 -5 1 -9 9 -9 8 0 12 4 9 9 -3 4 -7 8 -9 8 -2 0 -6
-4 -9 -8z"/>
<path d="M10196 5125 c-9 -14 -14 -31 -10 -37 7 -11 23 16 30 50 4 18 -2 15
-20 -13z"/>
<path d="M9870 5125 c-8 -9 -8 -15 -2 -15 12 0 26 19 19 26 -2 2 -10 -2 -17
-11z"/>
<path d="M9950 5129 c0 -5 5 -7 10 -4 6 3 10 8 10 11 0 2 -4 4 -10 4 -5 0 -10
-5 -10 -11z"/>
<path d="M10156 5123 c-6 -14 -5 -15 5 -6 7 7 10 15 7 18 -3 3 -9 -2 -12 -12z"/>
<path d="M10060 5120 c-8 -5 -10 -10 -5 -10 6 0 17 5 25 10 8 5 11 10 5 10 -5
0 -17 -5 -25 -10z"/>
<path d="M9786 5104 c-5 -14 -4 -15 9 -4 17 14 19 20 6 20 -5 0 -12 -7 -15
-16z"/>
<path d="M10026 5075 c-4 -14 -11 -23 -16 -20 -6 4 -7 11 -4 17 4 7 2 8 -4 4
-18 -11 -2 -36 23 -36 23 0 63 35 52 46 -4 4 -9 -1 -13 -10 -9 -23 -24 -20
-19 4 6 29 -12 24 -19 -5z"/>
<path d="M10130 5090 c-13 -8 -12 -10 3 -10 9 0 17 5 17 10 0 12 -1 12 -20 0z"/>
<path d="M9384 5070 c-22 -9 -41 -40 -24 -40 5 0 22 11 37 25 29 25 24 30 -13
15z"/>
<path d="M9803 5058 c-2 -15 1 -17 11 -9 7 6 16 8 19 4 4 -3 7 -3 7 0 0 3 -8
11 -18 16 -14 8 -18 5 -19 -11z"/>
<path d="M10221 5066 c-16 -19 -11 -29 8 -17 7 5 12 14 9 21 -3 9 -8 7 -17 -4z"/>
<path d="M10089 5063 c-2 -28 -9 -47 -18 -52 -6 -4 -12 -16 -14 -26 -1 -11 -6
-26 -11 -33 -4 -7 -3 -19 4 -27 6 -8 7 -16 2 -19 -12 -7 -22 -56 -12 -56 4 0
15 10 24 23 12 15 16 17 12 5 -3 -10 -1 -18 4 -18 15 0 12 23 -5 47 -18 25
-12 80 11 102 15 15 16 15 11 -1 -4 -12 -2 -15 9 -11 17 6 19 23 3 23 -6 0 -9
9 -6 20 3 11 1 23 -4 26 -5 3 -9 2 -10 -3z"/>
<path d="M10135 5051 c-3 -5 -2 -12 3 -15 5 -3 9 1 9 9 0 17 -3 19 -12 6z"/>
<path d="M9920 5038 c-24 -7 -24 -7 3 -4 21 3 27 0 23 -11 -3 -8 -2 -12 3 -9
5 3 11 -1 14 -9 4 -9 1 -12 -7 -9 -7 3 -19 -3 -26 -13 -12 -15 -12 -16 0 -5 8
6 18 12 23 12 4 0 5 -6 2 -12 -4 -7 3 -2 14 11 23 25 28 47 9 35 -7 -5 -9 -2
-5 9 6 17 -9 19 -53 5z"/>
<path d="M9435 5020 c-10 -11 -24 -20 -32 -20 -7 0 -13 -5 -13 -10 0 -7 8 -6
23 1 12 7 24 11 27 10 2 -1 7 7 12 18 9 26 6 26 -17 1z"/>
<path d="M9803 5000 c-11 -16 -10 -18 2 -14 8 4 15 12 15 20 0 19 -3 18 -17
-6z"/>
<path d="M10142 5011 c-7 -4 -15 -17 -16 -27 -2 -10 -10 -18 -19 -18 -9 1 -18
-4 -21 -11 -3 -8 5 -12 24 -11 15 1 26 4 24 8 -3 4 2 21 11 38 17 33 17 34 -3
21z"/>
<path d="M9666 4989 c-15 -9 -16 -13 -5 -20 21 -13 49 -11 65 6 14 13 14 15 0
15 -9 0 -16 -4 -16 -10 0 -5 -8 -10 -17 -9 -11 0 -13 3 -5 6 13 5 17 23 5 23
-5 0 -16 -5 -27 -11z"/>
<path d="M9826 4984 c-5 -14 -4 -15 9 -4 17 14 19 20 6 20 -5 0 -12 -7 -15
-16z"/>
<path d="M9884 4973 c-17 -16 -23 -23 -15 -17 9 6 21 10 27 7 6 -2 14 5 17 17
6 25 7 25 -29 -7z"/>
<path d="M10169 4995 c-1 -3 -2 -8 -3 -12 -1 -5 -5 -13 -9 -20 -4 -6 -3 -14 3
-18 10 -6 11 -5 14 14 0 5 4 13 9 17 10 11 9 24 -3 24 -5 0 -11 -2 -11 -5z"/>
<path d="M9170 4980 c-24 -13 -54 -23 -63 -21 -5 1 -5 -4 -1 -10 5 -8 2 -10
-9 -6 -8 3 -21 -1 -27 -9 -7 -8 -18 -14 -25 -14 -7 0 -16 -7 -19 -16 -7 -18 8
-11 42 19 15 14 22 16 22 7 0 -10 5 -9 19 4 10 9 28 18 39 21 30 5 56 21 46
27 -5 3 -16 2 -24 -2z"/>
<path d="M9985 4960 c-10 -11 -24 -20 -30 -20 -7 0 -18 -7 -25 -15 -7 -9 -15
-13 -18 -10 -3 3 3 14 13 25 15 17 16 20 3 20 -9 0 -21 -7 -28 -15 -7 -8 -16
-13 -19 -10 -4 2 -8 -2 -8 -10 0 -11 4 -12 14 -4 19 16 16 -1 -4 -23 -10 -12
-12 -18 -4 -18 7 0 9 -4 6 -10 -3 -5 -1 -10 5 -10 7 0 14 9 17 19 3 11 12 22
20 25 11 4 13 2 9 -9 -5 -13 -2 -14 15 -5 16 9 18 14 9 25 -9 11 -6 16 15 21
16 4 31 2 38 -6 9 -10 9 -11 0 -6 -6 3 -14 2 -18 -4 -4 -6 -12 -7 -18 -4 -7 4
-9 3 -4 -1 4 -5 -5 -21 -20 -37 -15 -15 -22 -28 -16 -28 6 0 25 16 41 35 17
19 34 30 37 25 3 -6 3 -15 -1 -22 -4 -6 -3 -8 3 -5 14 9 23 47 11 47 -5 0 -6
5 -3 10 4 6 3 10 -2 9 -27 -5 -35 1 -23 16 19 22 6 18 -15 -5z"/>
<path d="M9326 4962 c-4 -7 -4 -12 1 -12 4 -1 -3 -7 -17 -14 -14 -8 -28 -12
-33 -9 -4 2 -6 -1 -5 -8 2 -7 -6 -15 -17 -17 -11 -2 -24 -9 -30 -14 -7 -8 -5
-8 5 -3 11 6 11 3 -2 -11 -17 -19 -16 -20 5 -19 12 0 31 6 42 13 l20 14 -20
-6 c-12 -4 -2 9 24 32 24 21 42 45 39 52 -3 11 -6 11 -12 2z"/>
<path d="M9566 4960 c-17 -6 -18 -7 -3 -13 9 -3 19 -2 23 4 9 15 2 18 -20 9z"/>
<path d="M9481 4952 c0 -7 -5 -10 -11 -7 -5 3 -10 -3 -10 -13 0 -11 -8 -23
-17 -26 -12 -5 -13 -10 -6 -17 7 -7 17 -8 25 -3 15 10 48 16 48 9 0 -2 -15
-12 -32 -22 -26 -13 -29 -18 -15 -21 10 -2 27 6 37 18 10 12 23 19 29 16 5 -4
13 -1 17 5 4 7 3 9 -4 5 -6 -3 -14 -2 -17 4 -4 6 -15 10 -24 8 -10 -2 -19 2
-19 7 -1 6 2 10 7 10 5 0 13 4 18 9 4 5 3 6 -4 2 -6 -3 -13 1 -16 11 -3 10 -5
12 -6 5z"/>
<path d="M9240 4940 c-8 -5 -12 -12 -9 -15 4 -3 12 1 19 10 14 17 11 19 -10 5z"/>
<path d="M9774 4912 c-1 -20 1 -31 3 -24 3 6 10 12 16 12 7 -1 1 -9 -12 -20
-19 -17 -21 -21 -7 -26 9 -3 24 -3 34 2 9 4 21 6 25 5 5 -1 6 3 2 9 -5 8 -11
7 -21 -1 -11 -9 -14 -8 -14 4 0 9 5 19 10 22 6 3 10 11 10 16 0 6 -4 8 -9 5
-5 -3 -11 3 -14 14 -8 33 -22 23 -23 -18z"/>
<path d="M10191 4936 c-6 -7 -22 -11 -35 -9 -19 4 -25 -1 -34 -26 -6 -17 -8
-31 -4 -31 15 1 41 27 34 35 -4 5 1 5 10 2 11 -4 22 3 32 19 18 26 16 33 -3
10z"/>
<path d="M9710 4930 c-8 -5 -10 -10 -5 -10 6 0 17 5 25 10 8 5 11 10 5 10 -5
0 -17 -5 -25 -10z"/>
<path d="M9145 4918 c-11 -6 -30 -20 -42 -31 -13 -11 -26 -17 -30 -14 -3 4 2
14 13 22 18 13 18 14 1 15 -19 0 -40 -40 -27 -53 4 -5 21 -2 38 7 17 9 37 13
45 10 10 -4 16 4 19 25 3 17 4 31 4 31 -1 0 -10 -6 -21 -12z"/>
<path d="M9202 4920 c2 -8 -3 -14 -9 -12 -20 3 -15 -25 4 -32 10 -4 14 -4 10
0 -4 4 -2 13 5 21 8 10 8 17 -1 26 -10 9 -12 9 -9 -3z"/>
<path d="M9365 4920 c-3 -6 1 -7 9 -4 18 7 21 14 7 14 -6 0 -13 -4 -16 -10z"/>
<path d="M9605 4920 c3 -5 10 -10 16 -10 5 0 9 5 9 10 0 6 -7 10 -16 10 -8 0
-12 -4 -9 -10z"/>
<path d="M9663 4915 c4 -8 2 -17 -3 -20 -6 -4 -10 -1 -10 4 0 6 -9 3 -20 -6
-19 -17 -27 -43 -14 -43 4 0 13 8 21 18 8 9 12 11 8 5 -10 -21 13 -15 25 6 13
26 13 51 -1 51 -6 0 -9 -7 -6 -15z"/>
<path d="M9682 4882 c-16 -34 -9 -39 12 -8 8 14 12 27 8 30 -4 2 -13 -7 -20
-22z"/>
<path d="M9321 4879 c-12 -20 -11 -21 6 -14 10 4 28 7 40 7 11 -1 24 6 27 15
5 13 4 14 -9 3 -12 -10 -15 -10 -15 0 0 10 -3 10 -14 1 -9 -8 -15 -8 -18 -1
-1 5 -9 1 -17 -11z"/>
<path d="M9556 4881 c-13 -14 -14 -21 -5 -27 8 -4 10 -3 5 4 -4 7 -3 12 2 12
6 0 12 7 16 15 7 20 3 19 -18 -4z"/>
<path d="M8985 4870 c-15 -17 -16 -20 -3 -20 9 0 19 7 22 16 10 25 1 27 -19 4z"/>
<path d="M9714 4868 c-12 -14 -13 -18 -3 -10 9 6 20 8 24 4 5 -4 5 -2 2 5 -4
6 -1 14 5 16 8 3 8 6 2 6 -6 1 -19 -9 -30 -21z"/>
<path d="M8920 4864 c-23 -13 -24 -14 -4 -14 12 0 27 7 34 15 15 18 4 18 -30
-1z"/>
<path d="M9394 4858 c-3 -4 4 -8 15 -8 11 0 22 4 25 8 2 4 -4 8 -15 8 -11 0
-23 -4 -25 -8z"/>
<path d="M9990 4860 c0 -5 5 -10 11 -10 5 0 7 5 4 10 -3 6 -8 10 -11 10 -2 0
-4 -4 -4 -10z"/>
<path d="M10908 4730 c2 -22 8 -40 14 -40 12 0 6 73 -7 77 -7 2 -9 -12 -7 -37z"/>
<path d="M10957 4764 c-4 -4 -7 -23 -7 -41 0 -30 3 -34 23 -31 18 2 22 9 22
38 0 33 -20 51 -38 34z m30 -34 c0 -16 -6 -30 -12 -30 -6 0 -12 14 -12 30 0
17 6 30 12 30 6 0 12 -13 12 -30z"/>
<path d="M11062 4761 c-19 -12 -11 -65 10 -69 24 -5 42 32 28 58 -12 22 -18
24 -38 11z m32 -44 c-9 -25 -34 -21 -34 6 0 13 3 27 7 31 11 11 34 -19 27 -37z"/>
<path d="M11130 4755 c-7 -9 -10 -25 -6 -41 5 -19 12 -25 29 -22 25 3 35 41
17 64 -16 18 -24 18 -40 -1z m35 -25 c0 -27 -22 -39 -31 -16 -8 22 3 49 19 43
6 -2 12 -14 12 -27z"/>
<path d="M11212 4761 c-19 -12 -11 -65 10 -69 24 -5 42 32 28 58 -12 22 -18
24 -38 11z m32 -44 c-9 -25 -34 -21 -34 6 0 13 3 27 7 31 11 11 34 -19 27 -37z"/>
<path d="M11300 4730 c0 -38 13 -54 23 -27 3 9 8 8 23 -3 17 -14 18 -14 6 1
-7 9 -9 25 -5 35 6 17 5 17 -10 5 -15 -12 -17 -11 -17 8 0 11 -4 21 -10 21 -5
0 -10 -18 -10 -40z"/>
<path d="M11381 4717 c2 -31 2 -31 6 -4 5 33 26 31 32 -4 l4 -24 6 24 c9 34
29 37 34 6 4 -25 4 -25 3 2 -1 25 -5 27 -43 30 -43 3 -43 2 -42 -30z"/>
<path d="M4775 4713 c-35 -9 -35 -18 0 -102 34 -80 42 -122 29 -155 -12 -32
-21 -14 -20 42 1 44 -6 71 -28 120 -16 34 -33 62 -38 62 -19 0 -38 -72 -38
-139 0 -60 2 -69 16 -64 13 5 15 -3 12 -48 -2 -37 -7 -53 -15 -52 -7 2 -13 -4
-13 -12 0 -12 4 -13 19 -5 13 6 28 7 44 1 22 -9 25 -17 29 -78 5 -66 -7 -112
-31 -128 -10 -5 -5 40 5 57 11 17 -14 7 -33 -14 -22 -24 -42 -115 -23 -103 6
3 7 11 4 17 -5 7 -2 8 5 4 9 -6 9 -12 -3 -25 -13 -14 -16 -43 -16 -140 0 -140
12 -180 62 -211 32 -20 48 -20 816 -20 862 0 833 -2 872 62 19 31 20 50 20
276 0 223 -1 242 -17 243 -79 4 -125 12 -181 29 -42 13 -68 17 -72 10 -3 -5
-11 -2 -19 9 -13 17 -16 17 -76 0 -67 -18 -100 -33 -127 -56 -16 -14 -64 -20
-293 -38 -38 -3 -93 -8 -121 -11 -40 -4 -55 -1 -70 13 -11 10 -15 14 -8 10 14
-9 157 2 192 14 24 9 40 42 44 90 1 17 8 35 14 40 7 6 69 13 138 16 69 3 123
10 120 15 -9 15 3 9 17 -9 12 -14 12 -16 0 -8 -9 5 -12 4 -8 -3 10 -14 97 -1
122 19 6 4 28 4 48 -1 41 -9 173 4 191 19 7 6 27 6 51 1 22 -5 43 -10 48 -10
4 0 7 36 7 80 0 149 -38 190 -177 190 l-82 0 -106 -81 c-58 -45 -111 -90 -118
-100 -14 -23 -26 -24 -62 -5 -24 12 -25 15 -8 20 10 3 54 42 98 86 l80 80
-602 0 -602 0 6 -57 c7 -81 22 -133 38 -140 11 -4 12 -10 4 -24 -13 -25 -29
-24 -29 2 0 19 -9 60 -41 182 -10 38 -21 43 -74 30z m1252 -195 c-3 -7 -5 -2
-5 12 0 14 2 19 5 13 2 -7 2 -19 0 -25z m115 10 c-5 -7 -12 -22 -15 -33 -5
-20 -5 -20 -6 1 0 11 4 25 11 32 16 16 23 15 10 0z m-53 -24 c2 -2 2 -6 0 -9
-8 -7 -49 7 -49 17 0 8 38 2 49 -8z m-891 -11 c-16 -2 -40 -2 -55 0 -16 2 -3
4 27 4 30 0 43 -2 28 -4z m-434 -40 c-4 -16 -11 -32 -17 -38 -6 -7 -8 -2 -3
15 3 14 6 31 6 38 0 6 5 12 10 12 6 0 8 -11 4 -27z m1558 15 c-16 -16 -114
-17 -119 0 -4 9 13 12 63 12 53 0 65 -3 56 -12z m-902 -13 c0 -10 -10 -15 -32
-15 l-33 1 30 14 c17 7 31 14 33 14 1 1 2 -6 2 -14z m663 8 c-13 -2 -35 -2
-50 0 -16 2 -5 4 22 4 28 0 40 -2 28 -4z m-205 -10 c-16 -2 -40 -2 -55 0 -16
2 -3 4 27 4 30 0 43 -2 28 -4z m-898 -23 c0 -5 -2 -10 -4 -10 -3 0 -8 5 -11
10 -3 6 -1 10 4 10 6 0 11 -4 11 -10z m40 7 c0 -2 -10 -12 -22 -23 l-23 -19
19 23 c18 21 26 27 26 19z m-107 -34 c-13 -2 -35 -2 -50 0 -16 2 -5 4 22 4 28
0 40 -2 28 -4z m-131 -27 c4 -17 1 -23 -8 -19 -7 3 -12 10 -11 16 1 7 -4 11
-11 9 -8 -1 -11 2 -7 8 11 18 33 10 37 -14z m192 -1 c-4 -8 -11 -15 -16 -15
-6 0 -5 6 2 15 7 8 14 15 16 15 2 0 1 -7 -2 -15z m429 -40 c-7 -21 -12 -19
-10 4 0 11 5 18 9 15 4 -3 5 -11 1 -19z m-509 3 c-7 -11 10 -9 49 7 10 4 17 3
17 -5 0 -6 -3 -9 -8 -6 -4 2 -7 -27 -6 -65 l0 -69 -28 0 c-18 0 -28 5 -28 14
0 15 -12 20 -72 31 -37 6 -38 7 -38 50 0 49 5 53 73 54 34 1 46 -2 41 -11z
m483 -30 c-3 -8 -6 -5 -6 6 -1 11 2 17 5 13 3 -3 4 -12 1 -19z m817 -4 c3 -8
2 -12 -4 -9 -6 3 -10 10 -10 16 0 14 7 11 14 -7z m-1034 -14 c0 -5 -5 -10 -11
-10 -5 0 -7 5 -4 10 3 6 8 10 11 10 2 0 4 -4 4 -10z m40 0 c12 -7 10 -9 -8 -7
-12 0 -22 5 -22 9 0 11 12 10 30 -2z m-103 -22 c-3 -8 -6 -5 -6 6 -1 11 2 17
5 13 3 -3 4 -12 1 -19z m93 -2 c0 -3 -4 -8 -10 -11 -5 -3 -10 -1 -10 4 0 6 5
11 10 11 6 0 10 -2 10 -4z m-105 -46 c-3 -5 -23 -9 -43 -9 l-37 2 40 7 c22 4
41 8 43 9 2 0 0 -3 -3 -9z m85 -116 c0 -8 10 -14 23 -14 16 0 27 11 39 38 16
34 17 35 12 7 -7 -40 -21 -55 -50 -55 -18 0 -29 10 -44 43 -21 42 -21 42 0 18
11 -13 20 -29 20 -37z m1060 21 c19 -19 32 -35 29 -35 -3 0 -20 16 -39 35 -19
19 -32 35 -29 35 3 0 20 -16 39 -35z m-1410 -54 c0 -32 -6 -24 -14 19 -4 25
-3 31 4 20 5 -8 10 -26 10 -39z m688 22 c-4 -22 -22 -20 -26 1 -2 10 3 16 13
16 10 0 15 -7 13 -17z m-683 -118 c-3 -31 -9 -55 -11 -52 -3 2 -2 30 2 61 4
31 9 54 12 52 2 -3 1 -30 -3 -61z m875 -32 c0 -7 -39 17 -46 28 -3 6 5 3 20
-6 14 -10 26 -19 26 -22z m-144 -9 c-4 -14 -9 -24 -12 -21 -3 2 -2 17 2 31 3
15 9 25 11 22 3 -3 2 -17 -1 -32z"/>
<path d="M4887 4267 c-3 -8 1 -23 8 -34 14 -17 14 -17 15 2 0 11 -4 26 -9 33
-7 11 -9 11 -14 -1z"/>
<path d="M7485 4629 c-33 -5 -66 -7 -74 -4 -13 5 -135 -44 -127 -52 2 -3 15 1
28 8 20 11 135 15 145 5 2 -2 -11 -30 -30 -62 -32 -57 -35 -59 -84 -68 -28 -5
-86 -5 -128 -1 -61 5 -75 10 -71 21 5 12 1 12 -22 -2 -48 -28 -75 -51 -61 -51
62 -1 126 -16 140 -33 15 -17 27 -19 140 -15 111 3 116 3 44 -5 -44 -4 -102
-13 -130 -18 -27 -6 -106 -16 -175 -22 -68 -7 -134 -18 -145 -25 -18 -12 -128
-32 -147 -27 -4 1 -12 -7 -18 -18 -7 -14 -7 -20 0 -20 5 0 10 -8 10 -17 0 -15
2 -16 10 -3 7 11 10 11 10 2 0 -7 16 -20 35 -28 19 -8 35 -21 35 -28 0 -8 7
-22 16 -30 20 -21 5 -21 -64 -1 -28 9 -63 13 -77 9 -27 -7 -35 12 -14 33 7 7
6 12 -5 16 -14 6 -15 -4 -10 -81 4 -48 12 -99 19 -114 10 -20 10 -28 1 -32 -6
-3 2 -2 18 1 22 4 27 3 21 -7 -5 -9 -2 -10 15 -5 14 4 20 3 16 -3 -3 -5 4 -13
17 -16 l22 -6 -25 -19 c-20 -16 -22 -22 -11 -35 34 -40 288 -104 451 -113 91
-5 119 -2 205 19 55 14 125 31 155 37 61 13 76 22 107 66 31 45 334 204 403
212 46 5 53 10 67 38 16 35 11 91 -8 80 -6 -5 -5 -12 3 -23 8 -10 8 -13 1 -9
-6 4 -13 4 -16 0 -2 -5 -2 -2 0 6 2 9 -2 11 -14 7 -12 -4 -9 1 7 15 17 14 19
19 8 15 -25 -8 -22 1 3 15 12 6 19 7 15 1 -3 -5 0 -15 8 -21 18 -15 25 2 33
79 4 42 1 64 -11 88 -9 18 -14 37 -11 41 7 12 -5 41 -16 41 -18 0 -27 -44 -13
-58 16 -16 19 -42 4 -42 -5 0 -19 -17 -30 -37 l-20 -38 2 66 c2 50 0 65 -10
62 -8 -4 -10 0 -5 13 4 12 3 15 -5 10 -7 -4 -12 -13 -12 -20 0 -13 -54 -40
-100 -50 -14 -3 -19 -3 -12 0 14 7 16 24 2 24 -5 0 -12 -11 -16 -24 -3 -15
-20 -30 -46 -42 -23 -10 -58 -31 -79 -46 -20 -14 -40 -24 -43 -21 -3 4 -6 -1
-6 -11 0 -12 -7 -17 -22 -16 -57 5 -87 -2 -121 -27 -20 -16 -36 -31 -37 -35 0
-4 -14 -29 -31 -56 -20 -32 -40 -53 -57 -57 -14 -3 -38 -15 -53 -26 -17 -12
-30 -16 -34 -9 -4 6 -10 8 -14 6 -4 -3 -7 5 -7 17 1 13 -4 21 -11 19 -7 -1
-12 3 -10 10 1 7 -5 12 -13 13 -8 0 -33 4 -55 8 -25 5 -68 2 -115 -7 -77 -14
-118 -8 -104 17 5 9 3 8 -7 0 -7 -7 -24 -13 -38 -12 -26 0 -26 0 -3 9 12 5 39
21 59 35 47 31 78 34 36 3 l-30 -23 101 3 c56 2 117 8 136 12 25 7 7 8 -60 5
-71 -3 -85 -2 -55 5 22 5 63 9 91 9 42 1 55 6 78 30 16 16 41 35 57 41 16 7
29 16 29 21 0 5 8 9 18 8 10 0 12 -3 5 -6 -7 -2 -13 -9 -13 -15 0 -6 6 -6 15
2 8 7 13 16 10 20 -3 4 9 13 26 20 16 7 35 22 41 34 10 21 10 21 -10 -1 -21
-21 -194 -83 -233 -83 -11 0 -18 -3 -16 -7 6 -10 -449 -11 -458 -1 -4 3 1 17
10 31 19 30 80 47 162 46 119 -1 275 11 317 25 71 24 239 66 244 61 6 -6 3 -7
-132 -45 -128 -36 -165 -54 -92 -45 27 4 85 20 129 36 63 23 82 27 89 17 6
-10 8 -8 8 5 0 9 5 17 12 17 6 0 9 3 6 6 -3 3 4 17 17 31 27 30 43 49 73 87
27 35 28 27 2 -24 -23 -46 -26 -80 -6 -80 11 0 13 -7 6 -29 -6 -21 -4 -31 4
-34 18 -7 98 22 122 44 11 10 30 19 42 19 11 0 27 9 34 19 8 11 51 32 98 48
46 15 86 34 88 41 5 17 -73 90 -117 109 -19 8 -63 15 -98 16 -37 0 -58 4 -51
9 17 10 -311 8 -387 -3z m55 -103 c0 -13 -7 -27 -16 -30 -23 -9 -28 -2 -20 29
8 32 36 33 36 1z m520 -5 c0 -5 -9 -7 -20 -4 -11 3 -20 7 -20 9 0 2 9 4 20 4
11 0 20 -4 20 -9z m-25 -51 c3 -5 -1 -10 -9 -10 -9 0 -16 5 -16 10 0 6 4 10 9
10 6 0 13 -4 16 -10z m-67 -18 c6 -18 -15 -14 -22 4 -4 10 -1 14 6 12 6 -2 14
-10 16 -16z m-33 -2 c4 -6 -15 -10 -50 -10 -35 0 -54 4 -50 10 3 6 26 10 50
10 24 0 47 -4 50 -10z m-135 -40 c0 -5 -4 -10 -10 -10 -5 0 -10 5 -10 10 0 6
5 10 10 10 6 0 10 -4 10 -10z m-920 -212 c0 -8 -67 30 -75 42 -3 5 13 -1 35
-13 22 -12 40 -25 40 -29z m55 -12 c12 -12 12 -15 -2 -20 -19 -8 -38 8 -29 23
9 14 15 14 31 -3z m248 7 c-18 -2 -48 -2 -65 0 -18 2 -4 4 32 4 36 0 50 -2 33
-4z m-170 -10 c-7 -2 -21 -2 -30 0 -10 3 -4 5 12 5 17 0 24 -2 18 -5z m304 1
c-3 -3 -12 -4 -19 -1 -8 3 -5 6 6 6 11 1 17 -2 13 -5z m626 -45 c-18 -11 -38
-19 -45 -16 -7 3 3 12 22 20 49 23 61 20 23 -4z m-908 -15 c17 -12 11 -14 -55
-13 -41 1 -65 4 -53 6 12 2 27 11 34 19 13 16 40 11 74 -12z m665 17 c0 -12
-20 -25 -27 -18 -7 7 6 27 18 27 5 0 9 -4 9 -9z m15 -43 c-12 -16 -16 -18 -11
-5 3 10 6 26 6 35 0 12 3 13 11 5 8 -8 7 -17 -6 -35z m-774 -24 c31 -5 38 -11
43 -36 16 -83 11 -87 -84 -64 l-55 12 -3 54 -3 53 33 -7 c18 -4 49 -9 69 -12z
m453 -10 c10 -26 -11 -50 -58 -68 -49 -19 -83 -18 -78 3 1 7 -2 10 -7 7 -5 -3
-21 10 -35 28 l-26 35 23 4 c12 2 56 5 98 6 62 1 78 -2 83 -15z m290 -46 c-3
-4 -9 -8 -15 -8 -5 0 -9 4 -9 8 0 5 7 9 15 9 8 0 12 -4 9 -9z m51 -18 c3 -5
-1 -10 -9 -10 -8 0 -18 5 -21 10 -3 6 1 10 9 10 8 0 18 -4 21 -10z m-58 -42
l1 -43 -8 35 c-7 30 -6 50 4 50 1 0 3 -19 3 -42z m-236 -61 c-10 -9 -11 -8 -5
6 3 10 9 15 12 12 3 -3 0 -11 -7 -18z m119 5 c0 -5 -16 -13 -35 -19 -42 -13
-45 -9 -7 11 31 18 42 19 42 8z m-283 -8 c-3 -3 -12 -4 -19 -1 -8 3 -5 6 6 6
11 1 17 -2 13 -5z m-57 -14 c-8 -5 -19 -10 -25 -10 -5 0 -3 5 5 10 8 5 20 10
25 10 6 0 3 -5 -5 -10z"/>
<path d="M6870 4030 c0 -5 10 -10 23 -10 18 0 19 2 7 10 -19 13 -30 13 -30 0z"/>
<path d="M6948 4013 c7 -3 16 -2 19 1 4 3 -2 6 -13 5 -11 0 -14 -3 -6 -6z"/>
<path d="M6238 4423 c7 -3 16 -2 19 1 4 3 -2 6 -13 5 -11 0 -14 -3 -6 -6z"/>
<path d="M6121 4403 c7 -12 15 -20 18 -17 3 2 -3 12 -13 22 -17 16 -18 16 -5
-5z"/>
<path d="M6288 4413 c6 -2 18 -2 25 0 6 3 1 5 -13 5 -14 0 -19 -2 -12 -5z"/>
<path d="M6338 4403 c6 -2 18 -2 25 0 6 3 1 5 -13 5 -14 0 -19 -2 -12 -5z"/>
<path d="M6400 4390 c34 -11 60 -11 35 0 -11 5 -29 8 -40 8 -16 0 -15 -2 5 -8z"/>
<path d="M7634 4289 c-9 -16 18 -30 33 -17 7 6 13 14 13 19 0 13 -38 11 -46
-2z"/>
<path d="M11205 4270 c-3 -5 -1 -10 4 -10 6 0 11 5 11 10 0 6 -2 10 -4 10 -3
0 -8 -4 -11 -10z"/>
<path d="M10780 4220 c0 -50 0 -50 33 -50 40 0 57 15 57 52 0 30 -23 48 -64
48 -24 0 -26 -3 -26 -50z m75 10 c9 -27 -1 -40 -31 -40 -20 0 -24 5 -24 30 0
25 4 30 24 30 16 0 27 -7 31 -20z"/>
<path d="M11348 4263 c6 -2 18 -2 25 0 6 3 1 5 -13 5 -14 0 -19 -2 -12 -5z"/>
<path d="M7595 4238 c-29 -6 -59 -26 -110 -74 -77 -72 -71 -72 27 -1 36 26 75
47 86 47 18 0 50 26 41 34 -2 1 -22 -1 -44 -6z"/>
<path d="M10994 4236 c-20 -15 -11 -36 17 -36 11 0 17 -5 14 -10 -4 -6 -15 -8
-26 -5 -11 4 -19 2 -19 -5 0 -6 12 -10 27 -8 35 4 42 33 11 43 l-23 7 25 7
c20 6 22 8 8 13 -9 4 -24 1 -34 -6z"/>
<path d="M11070 4230 c-16 -16 -18 -25 -10 -40 12 -22 45 -27 56 -8 5 7 2 9
-8 6 -22 -9 -42 7 -34 27 4 11 13 15 26 12 23 -6 27 8 5 17 -9 3 -24 -3 -35
-14z"/>
<path d="M11339 4239 c-10 -6 -8 -9 9 -9 12 0 22 -4 22 -10 0 -5 -9 -10 -20
-10 -13 0 -20 -7 -20 -20 0 -16 7 -20 30 -20 27 0 30 3 30 34 0 36 -24 52 -51
35z m33 -51 c-9 -9 -15 -9 -24 0 -9 9 -7 12 12 12 19 0 21 -3 12 -12z"/>
<path d="M11438 4243 c-22 -6 -33 -40 -18 -58 24 -29 70 -11 70 27 0 20 -27
36 -52 31z m30 -35 c-2 -13 -10 -23 -18 -23 -8 0 -16 10 -18 23 -3 17 2 22 18
22 16 0 21 -5 18 -22z"/>
<path d="M10895 4220 c-12 -37 41 -70 61 -39 4 7 0 9 -14 5 -11 -4 -23 -2 -27
4 -4 6 6 10 25 10 25 0 31 3 26 16 -3 9 -6 18 -6 20 0 2 -13 4 -29 4 -21 0
-32 -6 -36 -20z m55 0 c0 -5 -9 -10 -20 -10 -11 0 -20 5 -20 10 0 6 9 10 20
10 11 0 20 -4 20 -10z"/>
<path d="M11151 4203 c1 -27 3 -31 6 -13 2 14 12 31 21 38 14 11 13 12 -6 12
-19 0 -22 -5 -21 -37z"/>
<path d="M11213 4205 c0 -22 2 -30 4 -17 2 12 2 30 0 40 -3 9 -5 -1 -4 -23z"/>
<path d="M11247 4233 c-13 -12 -7 -40 11 -56 16 -15 21 -15 38 -2 18 14 18 15
-6 12 -20 -1 -26 3 -28 22 -3 20 0 23 17 18 12 -3 24 -1 27 4 6 10 -49 13 -59
2z"/>
<path d="M7488 4207 c-14 -12 -36 -30 -49 -39 -13 -10 -18 -18 -12 -18 11 0
103 67 103 75 0 10 -16 3 -42 -18z"/>
<path d="M6748 4190 c5 -34 27 -40 35 -11 5 20 -9 41 -28 41 -7 0 -10 -12 -7
-30z"/>
<path d="M11270 4150 c-13 -8 -12 -10 3 -10 9 0 17 5 17 10 0 12 -1 12 -20 0z"/>
<path d="M10988 3943 c-2 -10 -1 -31 3 -48 6 -26 7 -23 8 18 1 48 -3 61 -11
30z"/>
<path d="M12297 3944 c-9 -9 9 -68 21 -70 7 -1 8 0 2 3 -14 7 -13 50 2 55 8 3
6 6 -4 10 -9 4 -18 5 -21 2z"/>
<path d="M10867 3933 c-3 -5 5 -8 18 -8 13 0 21 3 18 8 -2 4 -10 7 -18 7 -8 0
-16 -3 -18 -7z"/>
<path d="M10940 3925 c-6 -8 -10 -20 -7 -27 4 -8 6 -7 6 4 1 9 9 22 19 27 9 6
12 11 6 11 -6 0 -17 -7 -24 -15z"/>
<path d="M11030 3936 c0 -2 9 -6 20 -9 11 -3 18 -1 14 4 -5 9 -34 13 -34 5z"/>
<path d="M11670 3925 c-6 -8 -10 -20 -7 -27 3 -8 6 -6 6 5 1 10 11 22 24 27
15 6 17 9 6 9 -9 1 -22 -6 -29 -14z"/>
<path d="M11742 3928 c-7 -7 -12 -19 -11 -27 0 -10 4 -6 10 8 7 17 15 22 29
18 11 -3 18 -1 14 4 -7 13 -28 11 -42 -3z"/>
<path d="M12080 3936 c0 -2 9 -6 20 -9 11 -3 18 -1 14 4 -5 9 -34 13 -34 5z"/>
<path d="M12156 3931 c-4 -5 3 -7 14 -4 23 6 26 13 6 13 -8 0 -17 -4 -20 -9z"/>
<path d="M12226 3931 c-4 -5 3 -7 14 -4 23 6 26 13 6 13 -8 0 -17 -4 -20 -9z"/>
<path d="M12357 3933 c-3 -5 5 -8 18 -8 13 0 21 3 18 8 -2 4 -10 7 -18 7 -8 0
-16 -3 -18 -7z"/>
<path d="M12623 3933 c-7 -2 -13 -9 -13 -15 0 -6 6 -6 15 2 8 6 24 9 37 5 18
-5 20 -4 8 4 -16 11 -28 12 -47 4z"/>
<path d="M12690 3936 c0 -2 7 -7 16 -10 8 -3 12 -2 9 4 -6 10 -25 14 -25 6z"/>
<path d="M12877 3933 c-3 -5 5 -8 18 -8 13 0 21 3 18 8 -2 4 -10 7 -18 7 -8 0
-16 -3 -18 -7z"/>
<path d="M12948 3933 c6 -2 18 -2 25 0 6 3 1 5 -13 5 -14 0 -19 -2 -12 -5z"/>
<path d="M13002 3928 c-7 -7 -12 -19 -11 -27 0 -10 4 -6 10 8 7 17 15 22 29
18 11 -3 18 -1 14 4 -7 13 -28 11 -42 -3z"/>
<path d="M13116 3931 c-4 -5 3 -7 14 -4 23 6 26 13 6 13 -8 0 -17 -4 -20 -9z"/>
<path d="M13305 3930 c-8 -13 3 -30 18 -29 9 0 9 2 0 6 -18 7 -16 21 5 26 15
4 15 5 0 6 -9 0 -20 -3 -23 -9z"/>
<path d="M13377 3933 c-3 -5 5 -8 18 -8 13 0 21 3 18 8 -2 4 -10 7 -18 7 -8 0
-16 -3 -18 -7z"/>
<path d="M13478 3930 c19 -8 22 -16 19 -44 -2 -20 0 -33 4 -30 5 3 9 22 9 42
0 34 -3 38 -27 39 -27 2 -27 1 -5 -7z"/>
<path d="M13630 3930 c-8 -5 -12 -12 -9 -15 4 -3 12 1 19 10 14 17 11 19 -10
5z"/>
<path d="M13753 3933 c-7 -2 -13 -9 -13 -15 0 -6 6 -6 15 2 8 7 22 10 30 6 9
-3 13 -2 10 4 -7 11 -22 12 -42 3z"/>
<path d="M13836 3931 c-4 -5 3 -7 14 -4 23 6 26 13 6 13 -8 0 -17 -4 -20 -9z"/>
<path d="M13910 3936 c0 -2 9 -6 20 -9 11 -3 18 -1 14 4 -5 9 -34 13 -34 5z"/>
<path d="M11272 3900 c0 -19 2 -27 5 -17 2 9 2 25 0 35 -3 9 -5 1 -5 -18z"/>
<path d="M13162 3900 c0 -19 2 -27 5 -17 2 9 2 25 0 35 -3 9 -5 1 -5 -18z"/>
<path d="M13531 3914 c0 -11 3 -14 6 -6 3 7 2 16 -1 19 -3 4 -6 -2 -5 -13z"/>
<path d="M11922 3895 c0 -16 2 -22 5 -12 2 9 2 23 0 30 -3 6 -5 -1 -5 -18z"/>
<path d="M13190 3905 c0 -7 11 -10 30 -7 17 2 30 5 30 7 0 2 -13 5 -30 7 -19
3 -30 0 -30 -7z"/>
<path d="M13440 3906 c0 -8 4 -17 9 -20 5 -4 7 3 4 14 -6 23 -13 26 -13 6z"/>
<path d="M13695 3913 c-31 -7 -41 -21 -26 -35 10 -11 11 -10 6 5 -5 13 -2 17
13 17 11 0 23 -8 25 -17 3 -11 5 -7 6 10 0 15 0 26 -1 26 -2 -1 -12 -3 -23 -6z"/>
<path d="M10863 3903 c9 -2 25 -2 35 0 9 3 1 5 -18 5 -19 0 -27 -2 -17 -5z"/>
<path d="M11038 3903 c6 -2 18 -2 25 0 6 3 1 5 -13 5 -14 0 -19 -2 -12 -5z"/>
<path d="M11363 3903 c9 -2 25 -2 35 0 9 3 1 5 -18 5 -19 0 -27 -2 -17 -5z"/>
<path d="M11790 3901 c0 -6 -10 -16 -22 -21 -16 -6 -18 -9 -7 -9 19 -1 45 26
35 36 -3 3 -6 1 -6 -6z"/>
<path d="M12074 3899 c-3 -6 -1 -16 5 -22 9 -9 11 -8 6 5 -5 12 0 18 17 21 22
4 22 4 1 6 -12 0 -25 -4 -29 -10z"/>
<path d="M12353 3903 c9 -2 25 -2 35 0 9 3 1 5 -18 5 -19 0 -27 -2 -17 -5z"/>
<path d="M12873 3903 c9 -2 25 -2 35 0 9 3 1 5 -18 5 -19 0 -27 -2 -17 -5z"/>
<path d="M13050 3901 c0 -6 -10 -16 -22 -21 -16 -6 -18 -9 -7 -9 19 -1 45 26
35 36 -3 3 -6 1 -6 -6z"/>
<path d="M13373 3903 c9 -2 25 -2 35 0 9 3 1 5 -18 5 -19 0 -27 -2 -17 -5z"/>
<path d="M13918 3903 c6 -2 18 -2 25 0 6 3 1 5 -13 5 -14 0 -19 -2 -12 -5z"/>
<path d="M11438 3878 c5 -5 16 -8 23 -6 8 3 3 7 -10 11 -17 4 -21 3 -13 -5z"/>
<path d="M11558 3878 c5 -5 16 -8 23 -6 8 3 3 7 -10 11 -17 4 -21 3 -13 -5z"/>
<path d="M12025 3880 c-16 -7 -17 -9 -3 -9 9 -1 20 4 23 9 7 11 7 11 -20 0z"/>
<path d="M12158 3878 c5 -5 16 -8 23 -6 8 3 3 7 -10 11 -17 4 -21 3 -13 -5z"/>
<path d="M12468 3878 c5 -5 16 -8 23 -6 8 3 3 7 -10 11 -17 4 -21 3 -13 -5z"/>
<path d="M12538 3878 c5 -5 16 -8 23 -6 8 3 3 7 -10 11 -17 4 -21 3 -13 -5z"/>
<path d="M12785 3880 c-16 -7 -17 -9 -3 -9 9 -1 20 4 23 9 7 11 7 11 -20 0z"/>
<path d="M12957 3879 c7 -7 15 -10 18 -7 3 3 -2 9 -12 12 -14 6 -15 5 -6 -5z"/>
<path d="M13118 3878 c5 -5 16 -8 23 -6 8 3 3 7 -10 11 -17 4 -21 3 -13 -5z"/>
<path d="M13565 3880 c-16 -7 -17 -9 -3 -9 9 -1 20 4 23 9 7 11 7 11 -20 0z"/>
<path d="M13838 3878 c5 -5 16 -8 23 -6 8 3 3 7 -10 11 -17 4 -21 3 -13 -5z"/>
<path d="M10798 3873 c7 -3 16 -2 19 1 4 3 -2 6 -13 5 -11 0 -14 -3 -6 -6z"/>
<path d="M10878 3873 c7 -3 16 -2 19 1 4 3 -2 6 -13 5 -11 0 -14 -3 -6 -6z"/>
<path d="M10958 3873 c7 -3 16 -2 19 1 4 3 -2 6 -13 5 -11 0 -14 -3 -6 -6z"/>
<path d="M11378 3873 c7 -3 16 -2 19 1 4 3 -2 6 -13 5 -11 0 -14 -3 -6 -6z"/>
<path d="M11688 3873 c7 -3 16 -2 19 1 4 3 -2 6 -13 5 -11 0 -14 -3 -6 -6z"/>
<path d="M12238 3873 c7 -3 16 -2 19 1 4 3 -2 6 -13 5 -11 0 -14 -3 -6 -6z"/>
<path d="M12368 3873 c7 -3 16 -2 19 1 4 3 -2 6 -13 5 -11 0 -14 -3 -6 -6z"/>
<path d="M12888 3873 c7 -3 16 -2 19 1 4 3 -2 6 -13 5 -11 0 -14 -3 -6 -6z"/>
<path d="M13218 3873 c7 -3 16 -2 19 1 4 3 -2 6 -13 5 -11 0 -14 -3 -6 -6z"/>
<path d="M13318 3873 c7 -3 16 -2 19 1 4 3 -2 6 -13 5 -11 0 -14 -3 -6 -6z"/>
<path d="M13388 3873 c7 -3 16 -2 19 1 4 3 -2 6 -13 5 -11 0 -14 -3 -6 -6z"/>
<path d="M10788 3743 c12 -2 30 -2 40 0 9 3 -1 5 -23 4 -22 0 -30 -2 -17 -4z"/>
<path d="M11655 3739 c-4 -6 -5 -12 -2 -15 2 -3 7 2 10 11 7 17 1 20 -8 4z"/>
<path d="M10852 3718 c-7 -7 -12 -19 -11 -27 0 -10 4 -6 10 8 7 17 15 22 29
18 11 -3 18 -1 14 4 -7 13 -28 11 -42 -3z"/>
<path d="M11068 3723 c6 -2 18 -2 25 0 6 3 1 5 -13 5 -14 0 -19 -2 -12 -5z"/>
<path d="M11130 3726 c0 -2 9 -6 20 -9 11 -3 18 -1 14 4 -5 9 -34 13 -34 5z"/>
<path d="M11388 3723 c7 -3 16 -2 19 1 4 3 -2 6 -13 5 -11 0 -14 -3 -6 -6z"/>
<path d="M11508 3723 c7 -3 16 -2 19 1 4 3 -2 6 -13 5 -11 0 -14 -3 -6 -6z"/>
<path d="M11823 3723 c-7 -2 -13 -9 -13 -15 0 -6 6 -6 15 2 8 7 22 10 30 6 9
-3 13 -2 10 4 -7 11 -22 12 -42 3z"/>
<path d="M11895 3720 c-8 -13 3 -30 18 -29 9 0 9 2 0 6 -18 7 -16 21 5 26 15
4 15 5 0 6 -9 0 -20 -3 -23 -9z"/>
<path d="M11967 3723 c-3 -5 5 -8 18 -8 13 0 21 3 18 8 -2 4 -10 7 -18 7 -8 0
-16 -3 -18 -7z"/>
<path d="M12358 3723 c7 -3 16 -2 19 1 4 3 -2 6 -13 5 -11 0 -14 -3 -6 -6z"/>
<path d="M12616 3721 c-4 -5 3 -7 14 -4 23 6 26 13 6 13 -8 0 -17 -4 -20 -9z"/>
<path d="M12740 3726 c0 -2 9 -6 20 -9 11 -3 18 -1 14 4 -5 9 -34 13 -34 5z"/>
<path d="M12846 3721 c-4 -5 3 -7 14 -4 23 6 26 13 6 13 -8 0 -17 -4 -20 -9z"/>
<path d="M13003 3723 c-7 -2 -13 -9 -13 -15 0 -6 6 -6 15 2 8 6 24 9 37 5 18
-5 20 -4 8 4 -16 11 -28 12 -47 4z"/>
<path d="M13070 3726 c0 -2 7 -7 16 -10 8 -3 12 -2 9 4 -6 10 -25 14 -25 6z"/>
<path d="M13263 3723 c-7 -2 -13 -9 -13 -15 0 -6 6 -6 15 2 8 7 22 10 30 6 9
-3 13 -2 10 4 -7 11 -22 12 -42 3z"/>
<path d="M13346 3721 c-4 -5 3 -7 14 -4 23 6 26 13 6 13 -8 0 -17 -4 -20 -9z"/>
<path d="M13482 3718 c-7 -7 -12 -19 -11 -27 0 -10 4 -6 10 8 7 17 15 22 29
18 11 -3 18 -1 14 4 -7 13 -28 11 -42 -3z"/>
<path d="M13596 3721 c-4 -5 3 -7 14 -4 23 6 26 13 6 13 -8 0 -17 -4 -20 -9z"/>
<path d="M12152 3690 c0 -19 2 -27 5 -17 2 9 2 25 0 35 -3 9 -5 1 -5 -18z"/>
<path d="M12231 3704 c0 -11 3 -14 6 -6 3 7 2 16 -1 19 -3 4 -6 -2 -5 -13z"/>
<path d="M12492 3690 c0 -19 2 -27 5 -17 2 9 2 25 0 35 -3 9 -5 1 -5 -18z"/>
<path d="M12662 3690 c0 -19 2 -27 5 -17 2 9 2 25 0 35 -3 9 -5 1 -5 -18z"/>
<path d="M13392 3690 c0 -19 2 -27 5 -17 2 9 2 25 0 35 -3 9 -5 1 -5 -18z"/>
<path d="M13642 3690 c0 -19 2 -27 5 -17 2 9 2 25 0 35 -3 9 -5 1 -5 -18z"/>
<path d="M11335 3700 c-16 -7 -17 -9 -3 -9 9 -1 19 -9 21 -18 3 -11 5 -7 6 10
0 15 0 27 -1 26 -2 0 -12 -4 -23 -9z"/>
<path d="M11420 3695 c0 -7 11 -10 30 -7 17 2 30 5 30 7 0 2 -13 5 -30 7 -19
3 -30 0 -30 -7z"/>
<path d="M10900 3691 c0 -6 -10 -16 -22 -21 -16 -6 -18 -9 -7 -9 19 -1 45 26
35 36 -3 3 -6 1 -6 -6z"/>
<path d="M11138 3693 c6 -2 18 -2 25 0 6 3 1 5 -13 5 -14 0 -19 -2 -12 -5z"/>
<path d="M11743 3693 c9 -2 25 -2 35 0 9 3 1 5 -18 5 -19 0 -27 -2 -17 -5z"/>
<path d="M11963 3693 c9 -2 25 -2 35 0 9 3 1 5 -18 5 -19 0 -27 -2 -17 -5z"/>
<path d="M12748 3693 c6 -2 18 -2 25 0 6 3 1 5 -13 5 -14 0 -19 -2 -12 -5z"/>
<path d="M13530 3691 c0 -6 -10 -16 -22 -21 -16 -6 -18 -9 -7 -9 19 -1 45 26
35 36 -3 3 -6 1 -6 -6z"/>
<path d="M10998 3668 c5 -5 16 -8 23 -6 8 3 3 7 -10 11 -17 4 -21 3 -13 -5z"/>
<path d="M11260 3670 c-23 -7 -23 -8 -3 -9 12 -1 25 4 28 9 3 6 5 10 3 9 -2
-1 -14 -5 -28 -9z"/>
<path d="M11680 3670 c-23 -7 -23 -8 -3 -9 12 -1 25 4 28 9 3 6 5 10 3 9 -2
-1 -14 -5 -28 -9z"/>
<path d="M12265 3670 c-16 -7 -17 -9 -3 -9 9 -1 20 4 23 9 7 11 7 11 -20 0z"/>
<path d="M12618 3668 c5 -5 16 -8 23 -6 8 3 3 7 -10 11 -17 4 -21 3 -13 -5z"/>
<path d="M12848 3668 c5 -5 16 -8 23 -6 8 3 3 7 -10 11 -17 4 -21 3 -13 -5z"/>
<path d="M12918 3668 c5 -5 16 -8 23 -6 8 3 3 7 -10 11 -17 4 -21 3 -13 -5z"/>
<path d="M13348 3668 c5 -5 16 -8 23 -6 8 3 3 7 -10 11 -17 4 -21 3 -13 -5z"/>
<path d="M13598 3668 c5 -5 16 -8 23 -6 8 3 3 7 -10 11 -17 4 -21 3 -13 -5z"/>
<path d="M11448 3663 c7 -3 16 -2 19 1 4 3 -2 6 -13 5 -11 0 -14 -3 -6 -6z"/>
<path d="M11758 3663 c7 -3 16 -2 19 1 4 3 -2 6 -13 5 -11 0 -14 -3 -6 -6z"/>
<path d="M11908 3663 c7 -3 16 -2 19 1 4 3 -2 6 -13 5 -11 0 -14 -3 -6 -6z"/>
<path d="M11978 3663 c7 -3 16 -2 19 1 4 3 -2 6 -13 5 -11 0 -14 -3 -6 -6z"/>
<path d="M11539 3523 c-13 -17 -13 -17 6 -3 11 8 22 16 24 17 2 2 0 3 -6 3 -6
0 -17 -8 -24 -17z"/>
<path d="M11751 3493 c1 -27 3 -40 6 -31 2 9 14 19 26 21 l22 4 -22 2 c-16 1
-23 7 -23 20 0 12 8 21 23 24 19 4 18 4 -5 6 -27 1 -28 -1 -27 -46z"/>
<path d="M11812 3510 c0 -14 2 -19 5 -12 2 6 2 18 0 25 -3 6 -5 1 -5 -13z"/>
<path d="M12377 3524 c-9 -9 9 -68 21 -70 7 -1 8 0 2 3 -14 7 -13 50 2 55 8 3
6 6 -4 10 -9 4 -18 5 -21 2z"/>
<path d="M10872 3495 c0 -16 2 -22 5 -12 2 9 2 23 0 30 -3 6 -5 -1 -5 -18z"/>
<path d="M10958 3513 c6 -2 18 -2 25 0 6 3 1 5 -13 5 -14 0 -19 -2 -12 -5z"/>
<path d="M11012 3508 c-7 -7 -12 -19 -11 -27 0 -10 4 -6 10 8 7 17 15 22 29
18 11 -3 18 -1 14 4 -7 13 -28 11 -42 -3z"/>
<path d="M11630 3516 c0 -2 9 -6 20 -9 11 -3 18 -1 14 4 -5 9 -34 13 -34 5z"/>
<path d="M12173 3513 c-7 -2 -13 -9 -13 -15 0 -6 6 -6 15 2 8 6 24 9 37 5 18
-5 20 -4 8 4 -16 11 -28 12 -47 4z"/>
<path d="M12240 3516 c0 -2 7 -7 16 -10 8 -3 12 -2 9 4 -6 10 -25 14 -25 6z"/>
<path d="M12306 3511 c-4 -5 3 -7 14 -4 23 6 26 13 6 13 -8 0 -17 -4 -20 -9z"/>
<path d="M12436 3511 c-4 -5 3 -7 14 -4 23 6 26 13 6 13 -8 0 -17 -4 -20 -9z"/>
<path d="M12603 3513 c9 -2 23 -2 30 0 6 3 -1 5 -18 5 -16 0 -22 -2 -12 -5z"/>
<path d="M13296 3511 c-4 -5 3 -7 14 -4 23 6 26 13 6 13 -8 0 -17 -4 -20 -9z"/>
<path d="M13380 3516 c0 -2 9 -6 20 -9 11 -3 18 -1 14 4 -5 9 -34 13 -34 5z"/>
<path d="M11300 3499 c0 -5 5 -7 10 -4 6 3 10 8 10 11 0 2 -4 4 -10 4 -5 0
-10 -5 -10 -11z"/>
<path d="M13342 3480 c0 -19 2 -27 5 -17 2 9 2 25 0 35 -3 9 -5 1 -5 -18z"/>
<path d="M11905 3493 c-31 -7 -41 -21 -26 -35 10 -11 11 -10 6 5 -5 13 -2 17
13 17 11 0 23 -8 25 -17 3 -11 5 -7 6 10 0 15 0 26 -1 26 -2 -1 -12 -3 -23 -6z"/>
<path d="M12075 3490 l-30 -8 33 -1 c17 0 32 4 32 9 0 6 -1 9 -2 9 -2 -1 -16
-5 -33 -9z"/>
<path d="M12685 3490 c-16 -7 -17 -9 -3 -9 9 -1 19 -9 21 -18 3 -11 5 -7 6 10
0 15 0 27 -1 26 -2 0 -12 -4 -23 -9z"/>
<path d="M12835 3493 c-31 -7 -41 -21 -26 -35 10 -11 11 -10 6 5 -5 13 -2 17
13 17 11 0 23 -8 25 -17 3 -11 5 -7 6 10 0 15 0 26 -1 26 -2 -1 -12 -3 -23 -6z"/>
<path d="M13052 3475 c0 -16 2 -22 5 -12 2 9 2 23 0 30 -3 6 -5 -1 -5 -18z"/>
<path d="M11060 3481 c0 -6 -10 -16 -22 -21 -16 -6 -18 -9 -7 -9 19 -1 45 26
35 36 -3 3 -6 1 -6 -6z"/>
<path d="M11433 3483 c9 -2 25 -2 35 0 9 3 1 5 -18 5 -19 0 -27 -2 -17 -5z"/>
<path d="M11530 3481 c0 -6 4 -13 10 -16 6 -3 7 1 4 9 -7 18 -14 21 -14 7z"/>
<path d="M11624 3479 c-3 -6 -1 -16 5 -22 9 -9 11 -8 6 5 -5 12 0 18 17 21 22
4 22 4 1 6 -12 0 -25 -4 -29 -10z"/>
<path d="M13374 3479 c-3 -6 -1 -16 5 -22 9 -9 11 -8 6 5 -5 12 0 18 17 21 22
4 22 4 1 6 -12 0 -25 -4 -29 -10z"/>
<path d="M10967 3459 c7 -7 15 -10 18 -7 3 3 -2 9 -12 12 -14 6 -15 5 -6 -5z"/>
<path d="M11255 3460 c-16 -7 -17 -9 -3 -9 9 -1 20 4 23 9 7 11 7 11 -20 0z"/>
<path d="M12058 3458 c6 -6 18 -8 28 -6 14 3 12 5 -9 10 -19 3 -25 2 -19 -4z"/>
<path d="M12888 3458 c5 -5 16 -8 23 -6 8 3 3 7 -10 11 -17 4 -21 3 -13 -5z"/>
<path d="M13155 3460 c-16 -7 -17 -9 -3 -9 9 -1 20 4 23 9 7 11 7 11 -20 0z"/>
<path d="M13298 3458 c5 -5 16 -8 23 -6 8 3 3 7 -10 11 -17 4 -21 3 -13 -5z"/>
<path d="M10888 3453 c7 -3 16 -2 19 1 4 3 -2 6 -13 5 -11 0 -14 -3 -6 -6z"/>
<path d="M11328 3453 c7 -3 16 -2 19 1 4 3 -2 6 -13 5 -11 0 -14 -3 -6 -6z"/>
<path d="M11448 3453 c7 -3 16 -2 19 1 4 3 -2 6 -13 5 -11 0 -14 -3 -6 -6z"/>
<path d="M11568 3453 c7 -3 16 -2 19 1 4 3 -2 6 -13 5 -11 0 -14 -3 -6 -6z"/>
<path d="M12318 3453 c7 -3 16 -2 19 1 4 3 -2 6 -13 5 -11 0 -14 -3 -6 -6z"/>
<path d="M12448 3453 c7 -3 16 -2 19 1 4 3 -2 6 -13 5 -11 0 -14 -3 -6 -6z"/>
<path d="M12603 3453 c9 -2 23 -2 30 0 6 3 -1 5 -18 5 -16 0 -22 -2 -12 -5z"/>
<path d="M12758 3453 c7 -3 16 -2 19 1 4 3 -2 6 -13 5 -11 0 -14 -3 -6 -6z"/>
<path d="M0 335 l0 -335 9550 0 9550 0 0 335 0 335 -9550 0 -9550 0 0 -335z
m9435 95 c3 -5 1 -10 -4 -10 -6 0 -11 5 -11 10 0 6 2 10 4 10 3 0 8 -4 11 -10z
m-378 -35 c16 -34 10 -63 -7 -35 -8 13 -13 13 -31 2 -11 -7 -23 -11 -25 -9 -7
7 28 77 38 77 5 0 16 -16 25 -35z m293 20 c10 -12 10 -18 0 -30 -7 -8 -19 -15
-26 -15 -8 0 -14 -4 -14 -10 0 -5 -4 -10 -10 -10 -5 0 -10 18 -10 40 0 35 3
40 24 40 13 0 29 -7 36 -15z m363 -11 l13 -25 14 25 c19 37 30 32 30 -14 0
-22 -4 -40 -10 -40 -5 0 -10 8 -10 18 0 14 -2 14 -9 3 -8 -12 -12 -12 -25 -2
-13 11 -16 11 -16 -3 0 -9 -4 -16 -10 -16 -5 0 -10 18 -10 40 0 46 13 52 33
14z m-523 6 c10 -6 11 -10 3 -10 -7 0 -13 -9 -13 -19 0 -11 6 -22 13 -25 6 -3
3 -5 -8 -3 -11 1 -22 13 -26 27 -7 25 -7 25 -8 -3 -1 -26 -4 -28 -33 -25 -28
2 -34 8 -36 31 -2 15 1 27 7 27 6 0 11 -9 11 -19 0 -11 5 -23 10 -26 6 -3 10
5 10 19 0 18 6 26 23 29 12 2 24 5 27 5 3 1 12 -3 20 -8z m702 -23 c-4 -33 15
-37 20 -4 4 27 39 35 58 12 20 -24 -4 -43 -55 -43 -40 0 -43 2 -47 29 -5 31 0
41 16 36 6 -2 10 -16 8 -30z m-627 -7 c0 -18 -6 -26 -23 -28 -24 -4 -38 18
-28 44 3 9 15 14 28 12 17 -2 23 -10 23 -28z m137 18 c-7 -7 -12 -20 -12 -30
0 -10 -4 -18 -10 -18 -5 0 -10 14 -10 30 0 24 4 30 22 30 17 0 19 -3 10 -12z
m38 -18 c0 -16 -4 -30 -10 -30 -5 0 -10 14 -10 30 0 17 5 30 10 30 6 0 10 -13
10 -30z m114 14 c9 -24 7 -44 -4 -44 -5 0 -10 9 -10 20 0 11 -7 20 -15 20 -8
0 -15 -9 -15 -20 0 -11 -4 -20 -10 -20 -5 0 -10 9 -10 20 0 11 -4 20 -10 20
-5 0 -10 -9 -10 -20 0 -11 -4 -20 -10 -20 -5 0 -10 14 -10 30 0 29 1 30 49 30
35 0 51 -4 55 -16z m72 -16 c1 -23 -3 -28 -23 -28 -26 0 -39 21 -29 46 3 9 15
14 28 12 17 -2 23 -10 24 -30z m219 2 c0 -18 -6 -26 -23 -28 -24 -4 -38 18
-28 44 3 9 15 14 28 12 17 -2 23 -10 23 -28z m235 19 c0 -6 -6 -7 -12 -4 -7 4
-5 0 6 -9 22 -18 13 -36 -20 -36 -14 0 -23 4 -20 9 8 13 -4 42 -15 35 -5 -3
-9 -14 -9 -25 0 -10 -4 -19 -10 -19 -5 0 -10 13 -10 29 0 28 2 29 45 29 25 0
45 -4 45 -9z m-1700 -166 c-8 -3 -22 -11 -30 -17 -13 -10 -13 -9 -1 7 7 9 21
17 30 16 13 0 14 -1 1 -6z m155 -23 c3 -6 -1 -7 -9 -4 -18 7 -21 14 -7 14 6 0
13 -4 16 -10z m70 0 c3 -6 -1 -7 -9 -4 -18 7 -21 14 -7 14 6 0 13 -4 16 -10z
m65 6 c0 -2 -9 -6 -20 -9 -11 -3 -18 -1 -14 4 5 9 34 13 34 5z m47 -2 c-3 -3
-12 -4 -19 -1 -8 3 -5 6 6 6 11 1 17 -2 13 -5z m58 -4 c3 -6 -1 -7 -9 -4 -18
7 -21 14 -7 14 6 0 13 -4 16 -10z m65 6 c0 -2 -7 -7 -16 -10 -8 -3 -12 -2 -9
4 6 10 25 14 25 6z m70 0 c0 -2 -7 -7 -16 -10 -8 -3 -12 -2 -9 4 6 10 25 14
25 6z m476 -29 c1 -24 1 -24 -3 -3 -2 14 -12 27 -21 30 -12 3 -11 4 3 3 14 -2
20 -10 21 -30z m54 29 c0 -2 -7 -7 -16 -10 -8 -3 -12 -2 -9 4 6 10 25 14 25 6z
m100 0 c0 -2 -7 -7 -16 -10 -8 -3 -12 -2 -9 4 6 10 25 14 25 6z m403 -3 c3 -5
-5 -8 -18 -8 -13 0 -21 3 -18 8 2 4 10 7 18 7 8 0 16 -3 18 -7z m135 0 c-10
-2 -18 -9 -18 -15 0 -6 -3 -9 -6 -5 -10 10 6 27 24 26 15 -1 15 -2 0 -6z m62
3 c0 -2 -7 -7 -16 -10 -8 -3 -12 -2 -9 4 6 10 25 14 25 6z m138 -3 c-10 -2
-18 -9 -18 -15 0 -6 -3 -9 -6 -5 -10 10 6 27 24 26 15 -1 15 -2 0 -6z m80 0
c-10 -2 -18 -9 -18 -15 0 -6 -3 -9 -6 -5 -10 10 6 27 24 26 15 -1 15 -2 0 -6z
m75 0 c3 -5 -5 -8 -18 -8 -13 0 -21 3 -18 8 2 4 10 7 18 7 8 0 16 -3 18 -7z
m152 -3 c3 -6 -1 -7 -9 -4 -18 7 -21 14 -7 14 6 0 13 -4 16 -10z m123 3 c-10
-2 -18 -9 -18 -15 0 -6 -3 -9 -6 -5 -10 10 6 27 24 26 15 -1 15 -2 0 -6z
m-1570 -47 c12 -3 11 -4 -3 -3 -12 1 -20 10 -21 22 -1 14 0 15 3 3 2 -9 12
-19 21 -22z m70 0 c12 -3 11 -4 -3 -3 -12 1 -20 10 -21 22 -1 14 0 15 3 3 2
-9 12 -19 21 -22z m669 12 c-3 -7 -5 -2 -5 12 0 14 2 19 5 13 2 -7 2 -19 0
-25z m334 -5 c10 3 19 1 19 -5 0 -19 -45 -3 -46 17 -1 17 0 17 3 2 3 -13 11
-17 24 -14z m427 -7 c12 -3 11 -4 -3 -3 -12 1 -20 10 -21 22 -1 14 0 15 3 3 2
-9 12 -19 21 -22z m-2050 0 c12 -3 12 -4 -3 -3 -11 1 -20 9 -21 17 0 8 1 10 3
3 2 -6 12 -14 21 -17z m766 8 c3 -8 2 -12 -4 -9 -6 3 -10 10 -10 16 0 14 7 11
14 -7z m654 4 c-3 -7 -12 -14 -22 -14 -13 -2 -13 -1 -1 3 8 2 13 9 10 14 -4 5
-1 9 5 9 7 0 10 -6 8 -12z m-1347 -16 c-7 -2 -18 1 -23 6 -8 8 -4 9 13 5 13
-4 18 -8 10 -11z m264 8 c-3 -5 -14 -10 -23 -9 -14 0 -13 2 3 9 27 11 27 11
20 0z m530 0 c-3 -5 -14 -10 -23 -9 -14 0 -13 2 3 9 27 11 27 11 20 0z m488
-2 c-2 -5 -10 -8 -18 -8 -8 0 -16 3 -18 8 -3 4 5 7 18 7 13 0 21 -3 18 -7z
m198 -6 c-7 -2 -18 1 -23 6 -8 8 -4 9 13 5 13 -4 18 -8 10 -11z m292 6 c-2 -5
-10 -8 -18 -8 -8 0 -16 3 -18 8 -3 4 5 7 18 7 13 0 21 -3 18 -7z m-2040 -5
c-7 -2 -19 -2 -25 0 -7 3 -2 5 12 5 14 0 19 -2 13 -5z m54 1 c-3 -3 -12 -4
-19 -1 -8 3 -5 6 6 6 11 1 17 -2 13 -5z m326 -1 c-7 -2 -19 -2 -25 0 -7 3 -2
5 12 5 14 0 19 -2 13 -5z m214 1 c-3 -3 -12 -4 -19 -1 -8 3 -5 6 6 6 11 1 17
-2 13 -5z m296 -1 c-7 -2 -19 -2 -25 0 -7 3 -2 5 12 5 14 0 19 -2 13 -5z m264
1 c-3 -3 -12 -4 -19 -1 -8 3 -5 6 6 6 11 1 17 -2 13 -5z m56 -1 c-7 -2 -19 -2
-25 0 -7 3 -2 5 12 5 14 0 19 -2 13 -5z m154 1 c-3 -3 -12 -4 -19 -1 -8 3 -5
6 6 6 11 1 17 -2 13 -5z m100 0 c-3 -3 -12 -4 -19 -1 -8 3 -5 6 6 6 11 1 17
-2 13 -5z m226 -1 c-7 -2 -19 -2 -25 0 -7 3 -2 5 12 5 14 0 19 -2 13 -5z m200
0 c-7 -2 -19 -2 -25 0 -7 3 -2 5 12 5 14 0 19 -2 13 -5z m80 0 c-7 -2 -19 -2
-25 0 -7 3 -2 5 12 5 14 0 19 -2 13 -5z m350 0 c-7 -2 -19 -2 -25 0 -7 3 -2 5
12 5 14 0 19 -2 13 -5z"/>
<path d="M9025 390 c-3 -5 -1 -10 4 -10 6 0 11 5 11 10 0 6 -2 10 -4 10 -3 0
-8 -4 -11 -10z"/>
<path d="M9310 400 c0 -5 7 -10 16 -10 8 0 12 5 9 10 -3 6 -10 10 -16 10 -5 0
-9 -4 -9 -10z"/>
<path d="M9930 375 c0 -9 5 -15 11 -13 6 2 11 8 11 13 0 5 -5 11 -11 13 -6 2
-11 -4 -11 -13z"/>
<path d="M9230 375 c0 -8 5 -15 10 -15 6 0 10 7 10 15 0 8 -4 15 -10 15 -5 0
-10 -7 -10 -15z"/>
<path d="M9810 375 c0 -8 5 -15 10 -15 6 0 10 7 10 15 0 8 -4 15 -10 15 -5 0
-10 -7 -10 -15z"/>
</g>
</svg>
